0
SECTION
2
HEADER
9
$INSUNITS
70
4
9
$ACADVER
1
AC1014
9
$HANDSEED
5
FFFF
0
ENDSEC
0
SECTION
2
TABLES
0
TABLE
2
VPORT
5
8
100
AcDbSymbolTable
0
ENDTAB
0
TABLE
2
LTYPE
5
5
100
AcDbSymbolTable
0
LTYPE
5
14
100
AcDbSymbolTableRecord
100
AcDbLinetypeTableRecord
2
BYBLOCK
70
0
0
LTYPE
5
15
100
AcDbSymbolTableRecord
100
AcDbLinetypeTableRecord
2
BYLAYER
70
0
0
LTYPE
5
16
100
AcDbSymbolTableRecord
100
AcDbLinetypeTableRecord
2
DASHED
70
0
3
Dashed __ __ __ __ __ __ __ __ __ __ __ __ __ _
72
65
73
2
40
0.75
49
0.5
74
0
49
-0.25
74
0
0
ENDTAB
0
TABLE
2
LAYER
5
2
100
AcDbSymbolTable
70
2
0
LAYER
5
50
100
AcDbSymbolTableRecord
100
AcDbLayerTableRecord
2
0
70
0
62
7
6
CONTINUOUS
0
ENDTAB
0
TABLE
2
STYLE
5
3
100
AcDbSymbolTable
70
1
0
STYLE
5
11
100
AcDbSymbolTableRecord
100
AcDbTextStyleTableRecord
2
STANDARD
70
0
0
ENDTAB
0
TABLE
2
VIEW
5
6
100
AcDbSymbolTable
70
0
0
ENDTAB
0
TABLE
2
UCS
5
7
100
AcDbSymbolTable
70
0
0
ENDTAB
0
TABLE
2
APPID
5
9
100
AcDbSymbolTable
70
2
0
APPID
5
12
100
AcDbSymbolTableRecord
100
AcDbRegAppTableRecord
2
ACAD
70
0
0
ENDTAB
0
TABLE
2
DIMSTYLE
5
A
100
AcDbSymbolTable
70
1
0
ENDTAB
0
TABLE
2
BLOCK_RECORD
5
1
100
AcDbSymbolTable
70
1
0
BLOCK_RECORD
5
1F
100
AcDbSymbolTableRecord
100
AcDbBlockTableRecord
2
*MODEL_SPACE
0
BLOCK_RECORD
5
1B
100
AcDbSymbolTableRecord
100
AcDbBlockTableRecord
2
*PAPER_SPACE
0
ENDTAB
0
ENDSEC
0
SECTION
2
BLOCKS
0
BLOCK
5
20
100
AcDbEntity
100
AcDbBlockBegin
2
*MODEL_SPACE
0
ENDBLK
5
21
100
AcDbEntity
100
AcDbBlockEnd
0
BLOCK
5
1C
100
AcDbEntity
100
AcDbBlockBegin
2
*PAPER_SPACE
0
ENDBLK
5
1D
100
AcDbEntity
100
AcDbBlockEnd
0
ENDSEC
0
SECTION
2
ENTITIES
0
LWPOLYLINE
5
100
100
AcDbEntity
8
0
100
AcDbPolyline
90
36
70
1
43
0.0
10
59.559541625976564
20
6.3003906250000004
42
0.41421356237309581
10
62.55954162597655
20
9.3003906250000021
10
62.55954162597655
20
30.201690597534153
10
81.059541625976493
20
30.201690597534153
10
81.059541625976493
20
9.3003906250000021
42
0.41421356237309354
10
84.059541625976493
20
6.3003906250000092
10
100.06856455758512
20
6.3003906250000039
42
-0.34199871311964636
10
104.9097937403444
20
2.5503906250000026
42
0.77459666924148252
10
110.71926875965551
20
2.5503906250000097
42
-0.34199871311964353
10
115.56049794241477
20
6.3003906250000004
10
215.3735653205247
20
6.3003906249999888
42
-0.34199871311964586
10
220.21479450328397
20
2.550390625000007
42
0.88101768606924313
10
226.1195320129396
20
3.3003906250000004
10
226.11953201293949
20
60.450392150878926
42
0.41421356237308982
10
223.11953201293954
20
63.450392150878947
10
207.06953277587894
20
63.450392150878926
10
207.06953277587894
20
85.500387573242193
42
0.8810176860692428
10
201.16479526622331
20
86.250387573242193
42
-0.34199871311965013
10
196.32356608346407
20
82.500387573242207
10
76.702992601838673
20
82.500387573242207
42
-0.34199871311964691
10
71.861763419079409
20
86.250387573242222
42
0.77459666924148041
10
66.052288399768273
20
86.250387573242207
42
-0.34199871311964763
10
61.211059217009016
20
82.500387573242222
10
-58.409514264616398
20
82.500387573242207
42
-0.34199871311964603
10
-63.250743447375662
20
86.250387573242207
42
0.88101768606924014
10
-69.155480957031216
20
85.500387573242193
10
-69.155480957031216
20
63.450392150878926
10
-85.205468750000009
20
63.450392150878926
42
0.41421356237309337
10
-88.205468750000023
20
60.450392150878912
10
-88.205468750000023
20
3.3003906250000004
42
0.88101768606924202
10
-82.300731240344447
20
2.5503906250000048
42
-0.34199871311964558
10
-77.459502057585169
20
6.3003906250000004
10
31.868567609342875
20
6.3003906250000004
42
-0.34199871311964686
10
36.709796792102154
20
2.5503906250000021
42
0.77459666924148396
10
42.519271811413276
20
2.5503906250000004
42
-0.34199871311964714
10
47.360500994172554
20
6.3003906250000004
0
LWPOLYLINE
5
101
100
AcDbEntity
8
0
100
AcDbPolyline
90
19
70
1
43
0.0
10
-60.629163955342811
20
22.820392532348649
10
-60.629163818359402
20
22.821354113350935
10
-60.629163818359402
20
23.320392532348791
42
-0.41421356237309503
10
-60.129163818359402
20
23.820392532348791
10
-54.379163818359295
20
23.820392532348791
42
-0.41421356237309503
10
-53.879163818359295
20
23.320392532348791
10
-53.879163818359288
20
22.820392532348649
10
-52.635450439453194
20
22.820392532348649
10
-52.635450439453194
20
8.8203906250000017
10
-85.685468750000013
20
8.8203906250000017
10
-85.685468750000155
20
22.820392532348649
10
-84.441618397816441
20
22.820392532348649
10
-84.441618188602433
20
22.821993831281109
10
-84.441663814168507
20
23.3203467540473
42
-0.41424037770795508
10
-83.941663816418355
20
23.820392530407585
10
-78.1917553712603
20
23.820392532182765
42
-0.41421149975955535
10
-77.691755371118333
20
23.320396053441257
10
-77.691751854901526
20
22.821111943065794
10
-77.691751948894463
20
22.820392532348649
0
LWPOLYLINE
5
102
100
AcDbEntity
8
0
100
AcDbPolyline
90
8
70
1
43
0.0
10
213.2145365905763
20
46.420391006469544
10
213.2145365905763
20
59.420391006469657
42
-0.41421356237297535
10
213.71453659057613
20
59.920391006469629
10
219.46333686828615
20
59.920391006469643
42
-0.41427166887117906
10
219.9632376861573
20
59.420391006477189
10
219.96453659057613
20
46.420391006469544
42
-0.41421356237288171
10
219.46453659057602
20
45.920391006469856
10
213.71453659057613
20
45.920391006469927
42
-0.41421356237321988
0
CIRCLE
5
103
100
AcDbEntity
8
0
100
AcDbCircle
10
-66.155480957031216
20
85.500387573242193
30
0
40
0.94999999999999751
210
0
220
0
230
1
0
CIRCLE
5
104
100
AcDbEntity
8
0
100
AcDbCircle
10
107.81453124999997
20
3.3003906250000057
30
0
40
0.95000000000000639
210
0
220
0
230
1
0
CIRCLE
5
105
100
AcDbEntity
8
0
100
AcDbCircle
10
204.06953277587891
20
85.500387573242193
30
0
40
0.94999999999998852
210
0
220
0
230
1
0
LWPOLYLINE
5
106
100
AcDbEntity
8
0
100
AcDbPolyline
90
4
70
1
43
0.0
10
138.15204040527328
20
41.870391769409153
10
152.15204040527334
20
41.870391769409224
10
152.15204040527334
20
27.870391769409238
10
138.15204040527328
20
27.870391769409238
0
LWPOLYLINE
5
107
100
AcDbEntity
8
0
100
AcDbPolyline
90
4
70
1
43
0.0
10
166.72703735351553
20
46.920391006469742
10
166.72703735351553
20
60.920391006469728
10
180.72703735351553
20
60.920391006469799
10
180.72703735351553
20
46.920391006469742
0
LWPOLYLINE
5
108
100
AcDbEntity
8
0
100
AcDbPolyline
90
4
70
1
43
0.0
10
-78.54176147460953
20
27.870391769409238
10
-78.54176147460953
20
41.870391769409153
10
-64.541761474609473
20
41.870391769409224
10
-64.541761474609473
20
27.870391769409238
0
LWPOLYLINE
5
109
100
AcDbEntity
8
0
100
AcDbPolyline
90
4
70
1
43
0.0
10
195.01453582763659
20
8.8203906250000017
10
181.01453582763654
20
8.8203906250000017
10
181.01453582763654
20
22.820392532348649
10
195.01453582763659
20
22.820392532348649
0
LWPOLYLINE
5
110
100
AcDbEntity
8
0
100
AcDbPolyline
90
4
70
1
43
0.0
10
-14.535474853515833
20
22.820392532348649
10
-14.535474853515833
20
8.8203906250000017
10
-28.535474853515606
20
8.8203906250000017
10
-28.535474853515748
20
22.820392532348649
0
LWPOLYLINE
5
111
100
AcDbEntity
8
0
100
AcDbPolyline
90
4
70
1
43
0.0
10
176.25203887939435
20
41.870391769409153
10
190.25203887939441
20
41.870391769409224
10
190.25203887939441
20
27.870391769409238
10
176.25203887939435
20
27.870391769409238
0
LWPOLYLINE
5
112
100
AcDbEntity
8
0
100
AcDbPolyline
90
4
70
1
43
0.0
10
-47.872968750000013
20
60.920391006469799
10
-47.872968750000013
20
46.920391006469742
10
-61.872968750000211
20
46.920391006469742
10
-61.872968750000069
20
60.920391006469728
0
LWPOLYLINE
5
113
100
AcDbEntity
8
0
100
AcDbPolyline
90
4
70
1
43
0.0
10
137.86453430175777
20
8.8203906250000017
10
123.86453430175771
20
8.8203906250000017
10
123.86453430175771
20
22.820392532348649
10
137.86453430175777
20
22.820392532348649
0
LWPOLYLINE
5
114
100
AcDbEntity
8
0
100
AcDbPolyline
90
4
70
1
43
0.0
10
33.377031249999987
20
46.920391006469742
10
33.377031249999987
20
60.920391006469728
10
47.377031249999902
20
60.920391006469799
10
47.377031249999902
20
46.920391006469742
0
LWPOLYLINE
5
115
100
AcDbEntity
8
0
100
AcDbPolyline
90
21
70
1
43
0.0
10
105.66453735351566
20
65.970394058227569
10
105.66453735351567
20
65.470394058227441
42
-0.41421356237311585
10
105.16453735351581
20
64.970394058227612
10
92.27083007812503
20
64.970394058227328
42
-0.41421356237311585
10
91.770830078124916
20
65.470394058227441
10
91.770830078124916
20
78.470394058227413
42
-0.41421356237312101
10
92.27083007812503
20
78.970394058227527
10
97.670732421874874
20
78.970394058227527
10
97.670732421874874
20
79.970394058227555
10
121.20072784423832
20
79.975393676757832
10
121.20036948192495
20
78.970394058227527
10
126.24583618164047
20
78.970394058227456
10
126.24583618164047
20
79.970394058227555
10
185.48953811645498
20
79.970394058227555
10
185.48953811645498
20
65.970394058227569
10
129.4769874690129
20
65.970394058227569
10
129.47703735351558
20
65.470394058227441
42
-0.41409642564198867
10
128.97703735351547
20
64.97039405822747
10
116.08333007812526
20
64.970394058227328
42
-0.41421356237311585
10
115.58333007812514
20
65.470394058227441
10
115.58333007812514
20
65.970394058227569
0
LWPOLYLINE
5
116
100
AcDbEntity
8
0
100
AcDbPolyline
90
4
70
1
43
0.0
10
4.5145434570312126
20
22.820392532348649
10
4.5145434570312126
20
8.8203906250000017
10
-9.4854565429688442
20
8.8203906250000017
10
-9.4854565429688442
20
22.820392532348649
0
LWPOLYLINE
5
117
100
AcDbEntity
8
0
100
AcDbPolyline
90
4
70
1
43
0.0
10
-33.585462646484444
20
22.820392532348649
10
-33.585462646484444
20
8.8203906250000017
10
-47.585462646484501
20
8.8203906250000017
10
-47.585462646484501
20
22.820392532348649
0
LWPOLYLINE
5
118
100
AcDbEntity
8
0
100
AcDbPolyline
90
4
70
1
43
0.0
10
23.564531249999963
20
22.820392532348649
10
23.564531249999963
20
8.8203906250000017
10
9.5645312499999058
20
8.8203906250000017
10
9.5645312499999058
20
22.820392532348649
0
LWPOLYLINE
5
119
100
AcDbEntity
8
0
100
AcDbPolyline
90
4
70
1
43
0.0
10
128.62703887939441
20
46.920391006469742
10
128.62703887939441
20
60.920391006469728
10
142.62703887939446
20
60.920391006469799
10
142.62703887939446
20
46.920391006469742
0
LWPOLYLINE
5
120
100
AcDbEntity
8
0
100
AcDbPolyline
90
4
70
1
43
0.0
10
197.68833007812503
20
60.925390625000013
10
211.68833007812503
20
60.925390625000013
10
211.68833007812503
20
46.925390625000006
10
197.68833007812503
20
46.925390625000006
0
LWPOLYLINE
5
121
100
AcDbEntity
8
0
100
AcDbPolyline
90
4
70
1
43
0.0
10
90.527040405273254
20
60.920391006469728
10
104.52704040527331
20
60.920391006469799
10
104.52704040527331
20
46.920391006469742
10
90.527040405273254
20
46.920391006469742
0
LWPOLYLINE
5
122
100
AcDbEntity
8
0
100
AcDbPolyline
90
4
70
1
43
0.0
10
28.327043457031156
20
46.920391006469742
10
14.327043457031099
20
46.920391006469742
10
14.327043457031099
20
60.920391006469728
10
28.327043457031156
20
60.920391006469799
0
LWPOLYLINE
5
123
100
AcDbEntity
8
0
100
AcDbPolyline
90
4
70
1
43
0.0
10
123.57703582763656
20
60.920391006469799
10
123.57703582763656
20
46.920391006469742
10
109.57704345703115
20
46.920391006469742
10
109.57704345703115
20
60.920391006469728
0
LWPOLYLINE
5
124
100
AcDbEntity
8
0
100
AcDbPolyline
90
4
70
1
43
0.0
10
157.20203582763654
20
41.870391769409153
10
171.20203582763656
20
41.870391769409224
10
171.20203582763656
20
27.870391769409238
10
157.20203582763654
20
27.870391769409238
0
LWPOLYLINE
5
125
100
AcDbEntity
8
0
100
AcDbPolyline
90
4
70
1
43
0.0
10
100.05203430175777
20
41.870391769409153
10
114.05203430175769
20
41.870391769409224
10
114.05203430175769
20
27.870391769409238
10
100.05203430175777
20
27.870391769409238
0
LWPOLYLINE
5
126
100
AcDbEntity
8
0
100
AcDbPolyline
90
4
70
1
43
0.0
10
104.81453124999996
20
22.820392532348649
10
118.81453887939438
20
22.820392532348649
10
118.81453887939438
20
8.8203906250000017
10
104.81453124999996
20
8.8203906250000017
0
LWPOLYLINE
5
127
100
AcDbEntity
8
0
100
AcDbPolyline
90
4
70
1
43
0.0
10
147.67703430175766
20
46.920391006469742
10
147.67703430175766
20
60.920391006469728
10
161.67703430175771
20
60.920391006469799
10
161.67703430175771
20
46.920391006469742
0
LWPOLYLINE
5
128
100
AcDbEntity
8
0
100
AcDbPolyline
90
4
70
1
43
0.0
10
218.82703773498525
20
8.8203906250000017
10
204.82703582763656
20
8.8203906250000017
10
204.82703582763668
20
22.820392532348649
10
218.82703773498525
20
22.820392532348649
0
LWPOLYLINE
5
129
100
AcDbEntity
8
0
100
AcDbPolyline
90
4
70
1
43
0.0
10
204.53953735351547
20
65.970394058227569
10
188.15833847045889
20
65.970394058227569
10
188.15833847045889
20
79.970394058227555
10
204.53953735351547
20
79.970394058227555
0
LWPOLYLINE
5
130
100
AcDbEntity
8
0
100
AcDbPolyline
90
4
70
1
43
0.0
10
23.852037353515474
20
27.870391769409238
10
23.852037353515474
20
41.870391769409153
10
37.852037353515527
20
41.870391769409224
10
37.852037353515527
20
27.870391769409238
0
LWPOLYLINE
5
131
100
AcDbEntity
8
0
100
AcDbPolyline
90
4
70
1
43
0.0
10
-9.7729626464844976
20
46.920391006469742
10
-23.772962646484412
20
46.920391006469742
10
-23.772962646484412
20
60.920391006469728
10
-9.7729626464844976
20
60.920391006469799
0
LWPOLYLINE
5
132
100
AcDbEntity
8
0
100
AcDbPolyline
90
4
70
1
43
0.0
10
-0.24796874999998053
20
41.870391769409224
10
-0.24796874999998053
20
27.870391769409238
10
-14.247968750000037
20
27.870391769409238
10
-14.247968750000037
20
41.870391769409153
0
LWPOLYLINE
5
133
100
AcDbEntity
8
0
100
AcDbPolyline
90
4
70
1
43
0.0
10
-38.34797485351578
20
41.870391769409224
10
-38.34797485351578
20
27.870391769409238
10
-52.347974853515836
20
27.870391769409238
10
-52.347974853515836
20
41.870391769409153
0
LWPOLYLINE
5
134
100
AcDbEntity
8
0
100
AcDbPolyline
90
4
70
1
43
0.0
10
142.91453735351547
20
22.820392532348649
10
156.91453735351553
20
22.820392532348649
10
156.91453735351553
20
8.8203906250000017
10
142.91453735351547
20
8.8203906250000017
0
LWPOLYLINE
5
135
100
AcDbEntity
8
0
100
AcDbPolyline
90
4
70
1
43
0.0
10
-4.7229595947266567
20
60.920391006469728
10
9.2770404052734001
20
60.920391006469728
10
9.2770404052734001
20
46.920391006469742
10
-4.7229595947266567
20
46.920391006469671
0
LWPOLYLINE
5
136
100
AcDbEntity
8
0
100
AcDbPolyline
90
4
70
1
43
0.0
10
-19.297956542968873
20
27.870391769409238
10
-33.297956542968791
20
27.870391769409238
10
-33.297956542968791
20
41.870391769409153
10
-19.297956542968873
20
41.870391769409224
0
LWPOLYLINE
5
137
100
AcDbEntity
8
0
100
AcDbPolyline
90
4
70
1
43
0.0
10
-83.304273681640865
20
60.920391006469728
10
-69.304273681640808
20
60.920391006469799
10
-69.304273681640808
20
46.920391006469742
10
-83.304273681640723
20
46.920391006469742
0
LWPOLYLINE
5
138
100
AcDbEntity
8
0
100
AcDbPolyline
90
4
70
1
43
0.0
10
221.20833770751943
20
27.870391769409238
10
202.44573776245113
20
27.870391769409238
10
202.44573776245113
20
41.870391769409153
10
221.20833770751943
20
41.870391769409224
0
LWPOLYLINE
5
139
100
AcDbEntity
8
0
100
AcDbPolyline
90
4
70
1
43
0.0
10
161.96454040527323
20
22.820392532348649
10
175.96454040527328
20
22.820392532348649
10
175.96454040527328
20
8.8203906250000017
10
161.96454040527323
20
8.8203906250000017
0
LWPOLYLINE
5
140
100
AcDbEntity
8
0
100
AcDbPolyline
90
4
70
1
43
0.0
10
119.10203735351553
20
41.870391769409153
10
133.10203735351558
20
41.870391769409224
10
133.10203735351558
20
27.870391769409238
10
119.10203735351553
20
27.870391769409238
0
LWPOLYLINE
5
141
100
AcDbEntity
8
0
100
AcDbPolyline
90
4
70
1
43
0.0
10
-28.822950439453248
20
60.920391006469799
10
-28.822950439453248
20
46.920391006469742
10
-42.822950439453308
20
46.920391006469742
10
-42.822950439453308
20
60.920391006469728
0
LWPOLYLINE
5
142
100
AcDbEntity
8
0
100
AcDbPolyline
90
4
70
1
43
0.0
10
4.8020343017577183
20
27.870391769409238
10
4.8020343017577183
20
41.870391769409153
10
18.802034301757775
20
41.870391769409224
10
18.802034301757775
20
27.870391769409238
0
LWPOLYLINE
5
143
100
AcDbEntity
8
0
100
AcDbPolyline
90
4
70
1
43
0.0
10
42.614534301757715
20
22.820392532348649
10
42.614534301757715
20
8.8203906250000017
10
28.614534301757661
20
8.8203906250000017
10
28.614534301757661
20
22.820392532348649
0
LWPOLYLINE
5
144
100
AcDbEntity
8
0
100
AcDbPolyline
90
4
70
1
43
0.0
10
-66.635450439453251
20
65.970394058227569
10
-66.635450439453251
20
79.970394058227555
10
-50.254163818359586
20
79.970394058227555
10
-50.254163818359586
20
65.970394058227569
0
CIRCLE
5
145
100
AcDbEntity
8
0
100
AcDbCircle
10
39.614534301757715
20
3.3003906249999986
30
0
40
0.94999999999999751
210
0
220
0
230
1
0
CIRCLE
5
146
100
AcDbEntity
8
0
100
AcDbCircle
10
-85.205468749999994
20
3.3003906250000004
30
0
40
0.95000000000000639
210
0
220
0
230
1
0
CIRCLE
5
147
100
AcDbEntity
8
0
100
AcDbCircle
10
68.957025909423862
20
85.500387573242193
30
0
40
0.94999999999999751
210
0
220
0
230
1
0
CIRCLE
5
148
100
AcDbEntity
8
0
100
AcDbCircle
10
223.11953201293957
20
3.3003906250000039
30
0
40
0.94999999999998852
210
0
220
0
230
1
0
LWPOLYLINE
5
149
100
AcDbEntity
8
0
100
AcDbPolyline
90
21
70
1
43
0.0
10
32.239534301758184
20
65.470394058227441
10
32.239534301758177
20
65.972093290767333
10
22.320741577148691
20
65.974201715415788
10
22.320741577148688
20
65.470394058227441
42
-0.41421356237310025
10
21.820741577148581
20
64.970394058227328
10
8.9270343017577858
20
64.970394058227612
42
-0.41421356237309764
10
8.4270343017579563
20
65.470394058227441
10
8.4270343017579457
20
65.970394058227569
10
-47.585462646484501
20
65.970394058227569
10
-47.585462646484501
20
79.970394058227555
10
11.658342285156014
20
79.970394058227555
10
11.658342285156014
20
78.970394058227527
10
16.713323974609402
20
78.970394058227527
10
16.713323974609402
20
79.975393676757832
10
40.233339233398283
20
79.970394058227555
10
40.233339233398283
20
78.970394058227527
10
45.63203613281253
20
78.970394058227242
42
-0.41421356237310542
10
46.13203613281236
20
78.470394058227413
10
46.133333129882971
20
65.470394058227441
42
-0.41409642564164545
10
45.633333129883127
20
64.970394058227185
10
32.739534301758013
20
64.970394058227612
42
-0.4142135623730846
0
LWPOLYLINE
5
150
100
AcDbEntity
8
0
100
AcDbPolyline
90
8
70
1
43
0.0
10
189.40203659057607
20
46.420391006469544
10
189.40203659057616
20
59.420391006469657
42
-0.41421356237300661
10
189.90203659057619
20
59.920391006469629
10
195.65203659057636
20
59.920391006469593
42
-0.41421356237315748
10
196.15203659057647
20
59.420391006469657
10
196.15203659057647
20
46.420391006469544
42
-0.41421356237313145
10
195.65203659057636
20
45.92039100646943
10
189.90203659057619
20
45.920391006469892
42
-0.4142135623733656
0
LWPOLYLINE
5
151
100
AcDbEntity
8
0
100
AcDbPolyline
90
36
70
1
43
0.0
10
59.559541625976564
20
6.3003906250000004
42
0.41421356237309503
10
62.559541625976564
20
9.3003906250000021
10
62.55954162597655
20
30.201690597534153
10
81.059541625976493
20
30.201690597534153
10
81.059541625976479
20
9.3003906250000004
42
0.41421356237309498
10
84.059541625976493
20
6.3003906250000004
10
100.06856455758512
20
6.3003906249999986
42
-0.3419987131196438
10
104.9097937403444
20
2.5503906250000066
42
0.77459666924148352
10
110.71926875965551
20
2.5503906250000026
42
-0.34199871311964403
10
115.56049794241477
20
6.3003906250000004
10
215.3735653205247
20
6.300390624999979
42
-0.34199871311964763
10
220.21479450328394
20
2.5503906250000004
42
0.88101768606924202
10
226.11953201293949
20
3.3003906250000004
10
226.11953201293954
20
60.450392150878926
42
0.41421356237309503
10
223.11953201293954
20
63.450392150878926
10
207.06953277587894
20
63.450392150878926
10
207.06953277587894
20
85.500387573242193
42
0.88101768606924413
10
201.16479526622331
20
86.250387573242193
42
-0.34199871311964963
10
196.32356608346407
20
82.500387573242207
10
76.702992601838673
20
82.500387573242193
42
-0.34199871311964791
10
71.861763419079409
20
86.250387573242222
42
0.77459666924148074
10
66.052288399768287
20
86.250387573242193
42
-0.34199871311964791
10
61.211059217009023
20
82.500387573242207
10
-58.409514264616398
20
82.500387573242207
42
-0.34199871311964802
10
-63.250743447375662
20
86.250387573242193
42
0.8810176860692428
10
-69.15548095703123
20
85.500387573242193
10
-69.15548095703123
20
63.450392150878926
10
-85.205468750000009
20
63.450392150878926
42
0.41421356237309503
10
-88.205468750000023
20
60.450392150878912
10
-88.205468750000037
20
3.3003906249999826
42
0.8810176860692408
10
-82.300731240344447
20
2.5503906250000052
42
-0.34199871311964625
10
-77.459502057585169
20
6.3003906250000004
10
31.868567609342886
20
6.3003906250000021
42
-0.34199871311964686
10
36.709796792102154
20
2.5503906250000035
42
0.77459666924148318
10
42.519271811413269
20
2.5503906249999946
42
-0.34199871311964736
10
47.360500994172554
20
6.3003906250000004
0
LWPOLYLINE
5
152
100
AcDbEntity
8
0
100
AcDbPolyline
90
8
70
1
43
0.0
10
213.2145365905763
20
59.420391006469657
10
213.2145365905763
20
46.420391006469544
42
0.41421356237318868
10
213.71453659057613
20
45.920391006469913
10
219.46453659057602
20
45.920391006469863
42
0.41421356237284529
10
219.96453659057613
20
46.420391006469544
10
219.9632376861573
20
59.420391006477189
42
0.41427166887116867
10
219.46333686828615
20
59.920391006469629
10
213.71453659057613
20
59.920391006469629
42
0.41421356237301177
0
LWPOLYLINE
5
153
100
AcDbEntity
8
0
100
AcDbPolyline
90
21
70
1
43
0.0
10
105.66453735351566
20
65.470394058227441
10
105.66453735351566
20
65.970394058227569
10
115.58333007812514
20
65.970394058227569
10
115.58333007812514
20
65.470394058227441
42
0.41421356237309503
10
116.08333007812526
20
64.970394058227328
10
128.97703735351547
20
64.970394058227612
42
0.41409642564198862
10
129.47703735351558
20
65.470394058227441
10
129.47698746901293
20
65.970394058227569
10
185.48953811645498
20
65.970394058227569
10
185.48953811645498
20
79.970394058227555
10
126.24583618164047
20
79.970394058227555
10
126.24583618164047
20
78.970394058227456
10
121.20036948192495
20
78.970394058227328
10
121.20072784423832
20
79.975393676757832
10
97.670732421874874
20
79.970394058227555
10
97.670732421874874
20
78.970394058227527
10
92.27083007812503
20
78.970394058227527
42
0.41421356237311585
10
91.770830078124916
20
78.470394058227413
10
91.770830078124916
20
65.470394058227441
42
0.41421356237309503
10
92.27083007812503
20
64.970394058227328
10
105.16453735351583
20
64.970394058227612
42
0.41421356237308982
0
CIRCLE
5
154
100
AcDbEntity
8
0
100
AcDbCircle
10
-66.15548095703123
20
85.500387573242193
30
0
40
0.94999999999999751
210
0
220
0
230
1
0
CIRCLE
5
155
100
AcDbEntity
8
0
100
AcDbCircle
10
107.81453124999997
20
3.3003906250000004
30
0
40
0.95000000000000639
210
0
220
0
230
1
0
CIRCLE
5
156
100
AcDbEntity
8
0
100
AcDbCircle
10
204.06953277587891
20
85.500387573242193
30
0
40
0.94999999999998863
210
0
220
0
230
1
0
LWPOLYLINE
5
157
100
AcDbEntity
8
0
100
AcDbPolyline
90
4
70
1
43
0.0
10
138.15204040527328
20
41.870391769409153
10
152.15204040527334
20
41.870391769409224
10
152.15204040527334
20
27.870391769409238
10
138.15204040527328
20
27.870391769409238
0
LWPOLYLINE
5
158
100
AcDbEntity
8
0
100
AcDbPolyline
90
4
70
1
43
0.0
10
166.72703735351553
20
46.920391006469742
10
166.72703735351553
20
60.920391006469728
10
180.72703735351553
20
60.920391006469799
10
180.72703735351553
20
46.920391006469742
0
LWPOLYLINE
5
159
100
AcDbEntity
8
0
100
AcDbPolyline
90
4
70
1
43
0.0
10
-78.54176147460953
20
27.870391769409238
10
-78.54176147460953
20
41.870391769409153
10
-64.541761474609473
20
41.870391769409224
10
-64.541761474609473
20
27.870391769409238
0
LWPOLYLINE
5
160
100
AcDbEntity
8
0
100
AcDbPolyline
90
4
70
1
43
0.0
10
195.01453582763659
20
8.8203906250000017
10
181.01453582763654
20
8.8203906250000017
10
181.01453582763654
20
22.820392532348649
10
195.01453582763659
20
22.820392532348649
0
LWPOLYLINE
5
161
100
AcDbEntity
8
0
100
AcDbPolyline
90
4
70
1
43
0.0
10
-14.535474853515833
20
22.820392532348649
10
-14.535474853515833
20
8.8203906250000017
10
-28.535474853515606
20
8.8203906250000017
10
-28.535474853515748
20
22.820392532348649
0
LWPOLYLINE
5
162
100
AcDbEntity
8
0
100
AcDbPolyline
90
4
70
1
43
0.0
10
176.25203887939435
20
41.870391769409153
10
190.25203887939441
20
41.870391769409224
10
190.25203887939441
20
27.870391769409238
10
176.25203887939435
20
27.870391769409238
0
LWPOLYLINE
5
163
100
AcDbEntity
8
0
100
AcDbPolyline
90
4
70
1
43
0.0
10
-47.872968750000013
20
60.920391006469799
10
-47.872968750000013
20
46.920391006469742
10
-61.872968750000211
20
46.920391006469742
10
-61.872968750000069
20
60.920391006469728
0
LWPOLYLINE
5
164
100
AcDbEntity
8
0
100
AcDbPolyline
90
4
70
1
43
0.0
10
137.86453430175777
20
8.8203906250000017
10
123.86453430175771
20
8.8203906250000017
10
123.86453430175771
20
22.820392532348649
10
137.86453430175777
20
22.820392532348649
0
LWPOLYLINE
5
165
100
AcDbEntity
8
0
100
AcDbPolyline
90
4
70
1
43
0.0
10
33.377031249999987
20
46.920391006469742
10
33.377031249999987
20
60.920391006469728
10
47.377031249999902
20
60.920391006469799
10
47.377031249999902
20
46.920391006469742
0
LWPOLYLINE
5
166
100
AcDbEntity
8
0
100
AcDbPolyline
90
4
70
1
43
0.0
10
4.5145434570312126
20
22.820392532348649
10
4.5145434570312126
20
8.8203906250000017
10
-9.4854565429688442
20
8.8203906250000017
10
-9.4854565429688442
20
22.820392532348649
0
LWPOLYLINE
5
167
100
AcDbEntity
8
0
100
AcDbPolyline
90
4
70
1
43
0.0
10
-33.585462646484444
20
22.820392532348649
10
-33.585462646484444
20
8.8203906250000017
10
-47.585462646484501
20
8.8203906250000017
10
-47.585462646484501
20
22.820392532348649
0
LWPOLYLINE
5
168
100
AcDbEntity
8
0
100
AcDbPolyline
90
4
70
1
43
0.0
10
23.564531249999963
20
22.820392532348649
10
23.564531249999963
20
8.8203906250000017
10
9.5645312499999058
20
8.8203906250000017
10
9.5645312499999058
20
22.820392532348649
0
LWPOLYLINE
5
169
100
AcDbEntity
8
0
100
AcDbPolyline
90
4
70
1
43
0.0
10
128.62703887939441
20
46.920391006469742
10
128.62703887939441
20
60.920391006469728
10
142.62703887939446
20
60.920391006469799
10
142.62703887939446
20
46.920391006469742
0
LWPOLYLINE
5
170
100
AcDbEntity
8
0
100
AcDbPolyline
90
4
70
1
43
0.0
10
197.68833007812503
20
60.925390625000013
10
211.68833007812503
20
60.925390625000013
10
211.68833007812503
20
46.925390625000006
10
197.68833007812503
20
46.925390625000006
0
LWPOLYLINE
5
171
100
AcDbEntity
8
0
100
AcDbPolyline
90
4
70
1
43
0.0
10
90.527040405273254
20
60.920391006469728
10
104.52704040527331
20
60.920391006469799
10
104.52704040527331
20
46.920391006469742
10
90.527040405273254
20
46.920391006469742
0
LWPOLYLINE
5
172
100
AcDbEntity
8
0
100
AcDbPolyline
90
4
70
1
43
0.0
10
28.327043457031156
20
46.920391006469742
10
14.327043457031099
20
46.920391006469742
10
14.327043457031099
20
60.920391006469728
10
28.327043457031156
20
60.920391006469799
0
LWPOLYLINE
5
173
100
AcDbEntity
8
0
100
AcDbPolyline
90
4
70
1
43
0.0
10
123.57703582763656
20
60.920391006469799
10
123.57703582763656
20
46.920391006469742
10
109.57704345703115
20
46.920391006469742
10
109.57704345703115
20
60.920391006469728
0
LWPOLYLINE
5
174
100
AcDbEntity
8
0
100
AcDbPolyline
90
4
70
1
43
0.0
10
157.20203582763654
20
41.870391769409153
10
171.20203582763656
20
41.870391769409224
10
171.20203582763656
20
27.870391769409238
10
157.20203582763654
20
27.870391769409238
0
LWPOLYLINE
5
175
100
AcDbEntity
8
0
100
AcDbPolyline
90
4
70
1
43
0.0
10
100.05203430175777
20
41.870391769409153
10
114.05203430175769
20
41.870391769409224
10
114.05203430175769
20
27.870391769409238
10
100.05203430175777
20
27.870391769409238
0
LWPOLYLINE
5
176
100
AcDbEntity
8
0
100
AcDbPolyline
90
4
70
1
43
0.0
10
104.81453124999996
20
22.820392532348649
10
118.81453887939438
20
22.820392532348649
10
118.81453887939438
20
8.8203906250000017
10
104.81453124999996
20
8.8203906250000017
0
LWPOLYLINE
5
177
100
AcDbEntity
8
0
100
AcDbPolyline
90
4
70
1
43
0.0
10
147.67703430175766
20
46.920391006469742
10
147.67703430175766
20
60.920391006469728
10
161.67703430175771
20
60.920391006469799
10
161.67703430175771
20
46.920391006469742
0
LWPOLYLINE
5
178
100
AcDbEntity
8
0
100
AcDbPolyline
90
4
70
1
43
0.0
10
218.82703773498525
20
8.8203906250000017
10
204.82703582763656
20
8.8203906250000017
10
204.82703582763668
20
22.820392532348649
10
218.82703773498525
20
22.820392532348649
0
LWPOLYLINE
5
179
100
AcDbEntity
8
0
100
AcDbPolyline
90
4
70
1
43
0.0
10
204.53953735351547
20
65.970394058227569
10
188.15833847045889
20
65.970394058227569
10
188.15833847045889
20
79.970394058227555
10
204.53953735351547
20
79.970394058227555
0
LWPOLYLINE
5
180
100
AcDbEntity
8
0
100
AcDbPolyline
90
4
70
1
43
0.0
10
23.852037353515474
20
27.870391769409238
10
23.852037353515474
20
41.870391769409153
10
37.852037353515527
20
41.870391769409224
10
37.852037353515527
20
27.870391769409238
0
LWPOLYLINE
5
181
100
AcDbEntity
8
0
100
AcDbPolyline
90
4
70
1
43
0.0
10
-9.7729626464844976
20
46.920391006469742
10
-23.772962646484412
20
46.920391006469742
10
-23.772962646484412
20
60.920391006469728
10
-9.7729626464844976
20
60.920391006469799
0
LWPOLYLINE
5
182
100
AcDbEntity
8
0
100
AcDbPolyline
90
4
70
1
43
0.0
10
-0.24796874999998053
20
41.870391769409224
10
-0.24796874999998053
20
27.870391769409238
10
-14.247968750000037
20
27.870391769409238
10
-14.247968750000037
20
41.870391769409153
0
LWPOLYLINE
5
183
100
AcDbEntity
8
0
100
AcDbPolyline
90
4
70
1
43
0.0
10
-38.34797485351578
20
41.870391769409224
10
-38.34797485351578
20
27.870391769409238
10
-52.347974853515836
20
27.870391769409238
10
-52.347974853515836
20
41.870391769409153
0
LWPOLYLINE
5
184
100
AcDbEntity
8
0
100
AcDbPolyline
90
4
70
1
43
0.0
10
142.91453735351547
20
22.820392532348649
10
156.91453735351553
20
22.820392532348649
10
156.91453735351553
20
8.8203906250000017
10
142.91453735351547
20
8.8203906250000017
0
LWPOLYLINE
5
185
100
AcDbEntity
8
0
100
AcDbPolyline
90
4
70
1
43
0.0
10
-4.7229595947266567
20
60.920391006469728
10
9.2770404052734001
20
60.920391006469728
10
9.2770404052734001
20
46.920391006469742
10
-4.7229595947266567
20
46.920391006469671
0
LWPOLYLINE
5
186
100
AcDbEntity
8
0
100
AcDbPolyline
90
4
70
1
43
0.0
10
-19.297956542968873
20
27.870391769409238
10
-33.297956542968791
20
27.870391769409238
10
-33.297956542968791
20
41.870391769409153
10
-19.297956542968873
20
41.870391769409224
0
LWPOLYLINE
5
187
100
AcDbEntity
8
0
100
AcDbPolyline
90
4
70
1
43
0.0
10
-83.304273681640865
20
60.920391006469728
10
-69.304273681640808
20
60.920391006469799
10
-69.304273681640808
20
46.920391006469742
10
-83.304273681640723
20
46.920391006469742
0
LWPOLYLINE
5
188
100
AcDbEntity
8
0
100
AcDbPolyline
90
4
70
1
43
0.0
10
221.20833770751943
20
27.870391769409238
10
202.44573776245113
20
27.870391769409238
10
202.44573776245113
20
41.870391769409153
10
221.20833770751943
20
41.870391769409224
0
LWPOLYLINE
5
189
100
AcDbEntity
8
0
100
AcDbPolyline
90
4
70
1
43
0.0
10
161.96454040527323
20
22.820392532348649
10
175.96454040527328
20
22.820392532348649
10
175.96454040527328
20
8.8203906250000017
10
161.96454040527323
20
8.8203906250000017
0
LWPOLYLINE
5
190
100
AcDbEntity
8
0
100
AcDbPolyline
90
4
70
1
43
0.0
10
119.10203735351553
20
41.870391769409153
10
133.10203735351558
20
41.870391769409224
10
133.10203735351558
20
27.870391769409238
10
119.10203735351553
20
27.870391769409238
0
LWPOLYLINE
5
191
100
AcDbEntity
8
0
100
AcDbPolyline
90
4
70
1
43
0.0
10
-28.822950439453248
20
60.920391006469799
10
-28.822950439453248
20
46.920391006469742
10
-42.822950439453308
20
46.920391006469742
10
-42.822950439453308
20
60.920391006469728
0
LWPOLYLINE
5
192
100
AcDbEntity
8
0
100
AcDbPolyline
90
4
70
1
43
0.0
10
4.8020343017577183
20
27.870391769409238
10
4.8020343017577183
20
41.870391769409153
10
18.802034301757775
20
41.870391769409224
10
18.802034301757775
20
27.870391769409238
0
LWPOLYLINE
5
193
100
AcDbEntity
8
0
100
AcDbPolyline
90
4
70
1
43
0.0
10
42.614534301757715
20
22.820392532348649
10
42.614534301757715
20
8.8203906250000017
10
28.614534301757661
20
8.8203906250000017
10
28.614534301757661
20
22.820392532348649
0
LWPOLYLINE
5
194
100
AcDbEntity
8
0
100
AcDbPolyline
90
4
70
1
43
0.0
10
-66.635450439453251
20
65.970394058227569
10
-66.635450439453251
20
79.970394058227555
10
-50.254163818359586
20
79.970394058227555
10
-50.254163818359586
20
65.970394058227569
0
CIRCLE
5
195
100
AcDbEntity
8
0
100
AcDbCircle
10
39.614534301757722
20
3.3003906250000004
30
0
40
0.94999999999999751
210
0
220
0
230
1
0
CIRCLE
5
196
100
AcDbEntity
8
0
100
AcDbCircle
10
-85.205468750000023
20
3.3003906250000004
30
0
40
0.95000000000000639
210
0
220
0
230
1
0
CIRCLE
5
197
100
AcDbEntity
8
0
100
AcDbCircle
10
68.957025909423862
20
85.500387573242193
30
0
40
0.94999999999999751
210
0
220
0
230
1
0
CIRCLE
5
198
100
AcDbEntity
8
0
100
AcDbCircle
10
223.11953201293949
20
3.3003906250000004
30
0
40
0.94999999999998863
210
0
220
0
230
1
0
LWPOLYLINE
5
199
100
AcDbEntity
8
0
100
AcDbPolyline
90
21
70
1
43
0.0
10
32.239534301758177
20
65.972093290767333
10
32.239534301758184
20
65.470394058227441
42
0.41421356237309764
10
32.739534301758013
20
64.970394058227612
10
45.633333129883127
20
64.970394058227612
42
0.4140964256416298
10
46.133333129882963
20
65.470394058227441
10
46.13203613281236
20
78.470394058227413
42
0.41421356237309503
10
45.63203613281253
20
78.970394058227242
10
40.233339233398283
20
78.970394058227527
10
40.233339233398283
20
79.970394058227555
10
16.713323974609402
20
79.975393676757832
10
16.713323974609402
20
78.970394058227527
10
11.658342285156014
20
78.970394058227527
10
11.658342285156014
20
79.970394058227555
10
-47.585462646484501
20
79.970394058227555
10
-47.585462646484501
20
65.970394058227569
10
8.4270343017579457
20
65.970394058227569
10
8.4270343017579581
20
65.470394058227441
42
0.41421356237309959
10
8.9270343017577858
20
64.970394058227626
10
21.820741577148581
20
64.970394058227598
42
0.41421356237309243
10
22.320741577148691
20
65.470394058227441
10
22.320741577148695
20
65.974201715415788
0
LWPOLYLINE
5
200
100
AcDbEntity
8
0
100
AcDbPolyline
90
8
70
1
43
0.0
10
189.40203659057607
20
59.420391006469657
10
189.40203659057607
20
46.420391006469544
42
0.41421356237333956
10
189.90203659057619
20
45.920391006469863
10
195.65203659057636
20
45.92039100646943
42
0.41421356237313667
10
196.15203659057647
20
46.420391006469544
10
196.15203659057647
20
59.420391006469657
42
0.41421356237317308
10
195.65203659057636
20
59.920391006469622
10
189.90203659057619
20
59.920391006469636
42
0.41421356237299095
0
LWPOLYLINE
5
201
100
AcDbEntity
8
0
100
AcDbPolyline
90
19
70
1
43
0.0
10
-60.629163818359409
20
22.821354113350935
10
-60.629163955342818
20
22.820392532348642
10
-77.691751948894463
20
22.820392532348649
10
-77.691751854901526
20
22.821111943065794
10
-77.691755371118376
20
23.320396053441257
42
0.41421149975954497
10
-78.1917553712603
20
23.820392532182765
10
-83.941663816418355
20
23.820392530407585
42
0.41424037770791866
10
-84.441663814168493
20
23.3203467540473
10
-84.441618188602448
20
22.821993831281105
10
-84.441618397816455
20
22.820392532348642
10
-85.685468750000155
20
22.820392532348649
10
-85.685468750000013
20
8.8203906250000017
10
-52.635450439453194
20
8.8203906250000017
10
-52.635450439453194
20
22.820392532348649
10
-53.879163818359288
20
22.820392532348649
10
-53.879163818359288
20
23.320392532348791
42
0.41421356237309764
10
-54.379163818359295
20
23.820392532348794
10
-60.129163818359402
20
23.820392532348791
42
0.41421356237309503
10
-60.629163818359402
20
23.320392532348791
0
ENDSEC
0
SECTION
2
OBJECTS
0
DICTIONARY
5
C
100
AcDbDictionary
3
ACAD_GROUP
350
D
3
ACAD_MLINESTYLE
350
17
0
DICTIONARY
5
D
100
AcDbDictionary
0
DICTIONARY
5
1A
330
C
100
AcDbDictionary
0
DICTIONARY
5
17
100
AcDbDictionary
0
ENDSEC
0
EOF
