%TF.GenerationSoftware,KiCad,Pcbnew,10.0.3*%
%TF.CreationDate,2026-05-26T12:48:33-07:00*%
%TF.ProjectId,bkf-unibodysplit,626b662d-756e-4696-926f-647973706c69,rev?*%
%TF.SameCoordinates,Original*%
%TF.FileFunction,Legend,Bot*%
%TF.FilePolarity,Positive*%
%FSLAX46Y46*%
G04 Gerber Fmt 4.6, Leading zero omitted, Abs format (unit mm)*
G04 Created by KiCad (PCBNEW 10.0.3) date 2026-05-26 12:48:33*
%MOMM*%
%LPD*%
G01*
G04 APERTURE LIST*
%ADD10C,0.250000*%
%ADD11C,0.160000*%
%ADD12C,0.120000*%
%ADD13C,0.150000*%
G04 APERTURE END LIST*
D10*
G36*
X191409806Y-91938046D02*
G01*
X190393329Y-91938046D01*
X190124076Y-91956838D01*
X189917782Y-92007514D01*
X189761392Y-92083896D01*
X189644685Y-92183432D01*
X189561109Y-92307519D01*
X189508560Y-92461305D01*
X189489691Y-92653005D01*
X189508855Y-92822029D01*
X189565164Y-92973960D01*
X189660062Y-93113196D01*
X189799086Y-93242302D01*
X189634037Y-93334728D01*
X189511033Y-93447527D01*
X189423654Y-93582014D01*
X189369461Y-93742512D01*
X189350290Y-93935830D01*
X189367818Y-94122601D01*
X189418006Y-94283356D01*
X189499620Y-94423212D01*
X189614621Y-94545643D01*
X189749954Y-94638592D01*
X189891410Y-94697135D01*
X190051846Y-94727861D01*
X190288915Y-94740000D01*
X190446635Y-94740000D01*
X190446635Y-93977962D01*
X190305218Y-93977962D01*
X190189778Y-93969836D01*
X190128997Y-93951217D01*
X190091072Y-93915333D01*
X190077706Y-93857245D01*
X190096376Y-93799429D01*
X190156709Y-93760391D01*
X190286900Y-93743489D01*
X190446635Y-93743489D01*
X190446635Y-92998670D01*
X190334619Y-92986099D01*
X190267394Y-92954717D01*
X190230124Y-92908508D01*
X190217107Y-92843332D01*
X190228979Y-92782937D01*
X190262809Y-92740340D01*
X190323467Y-92711571D01*
X190424103Y-92700083D01*
X190577793Y-92700083D01*
X190577793Y-94740000D01*
X191409806Y-94740000D01*
X191409806Y-91938046D01*
G37*
G36*
X186586804Y-91938046D02*
G01*
X187324661Y-93213543D01*
X186590834Y-94740000D01*
X187525429Y-94740000D01*
X188158690Y-93197423D01*
X187441349Y-91938046D01*
X186586804Y-91938046D01*
G37*
G36*
X188183236Y-91938046D02*
G01*
X188183236Y-94740000D01*
X189015249Y-94740000D01*
X189015249Y-91938046D01*
X188183236Y-91938046D01*
G37*
G36*
X185255802Y-93262819D02*
G01*
X185255802Y-94013133D01*
X185532407Y-94013133D01*
X185532407Y-94740000D01*
X186364604Y-94740000D01*
X186364604Y-93006913D01*
X186344571Y-92764201D01*
X186286907Y-92550478D01*
X186193223Y-92360581D01*
X186062353Y-92190654D01*
X185900852Y-92048954D01*
X185722737Y-91949222D01*
X185524496Y-91888610D01*
X185301048Y-91867704D01*
X185105726Y-91885244D01*
X184926423Y-91936748D01*
X184759644Y-92022394D01*
X184602834Y-92144790D01*
X184454564Y-92308806D01*
X185136917Y-92810542D01*
X185187386Y-92720205D01*
X185253451Y-92670257D01*
X185339700Y-92653189D01*
X185421894Y-92668729D01*
X185479148Y-92712526D01*
X185517296Y-92789924D01*
X185532407Y-92916971D01*
X185532407Y-93262819D01*
X185255802Y-93262819D01*
G37*
G36*
X181273056Y-91938046D02*
G01*
X181273056Y-93757960D01*
X181292472Y-93994541D01*
X181347700Y-94197234D01*
X181436353Y-94372105D01*
X181559004Y-94523661D01*
X181710284Y-94646794D01*
X181884392Y-94735653D01*
X182085744Y-94790930D01*
X182320309Y-94810341D01*
X182555061Y-94790895D01*
X182749347Y-94736378D01*
X182910790Y-94650092D01*
X183044977Y-94531905D01*
X183149447Y-94386924D01*
X183227618Y-94209860D01*
X183277857Y-93994103D01*
X183295937Y-93731399D01*
X183295937Y-91938046D01*
X182463740Y-91938046D01*
X182463740Y-93729200D01*
X182449190Y-93855602D01*
X182412691Y-93931954D01*
X182358502Y-93974664D01*
X182281474Y-93989685D01*
X182207542Y-93974916D01*
X182155121Y-93932624D01*
X182119516Y-93856333D01*
X182105253Y-93729200D01*
X182105253Y-91938046D01*
X181273056Y-91938046D01*
G37*
G36*
X179003247Y-94740000D02*
G01*
X179769681Y-94740000D01*
X179769681Y-93587967D01*
X179787992Y-93487130D01*
X179834948Y-93434052D01*
X179915127Y-93415226D01*
X179994003Y-93433937D01*
X180040399Y-93486908D01*
X180058559Y-93587967D01*
X180058559Y-94740000D01*
X180825176Y-94740000D01*
X180825176Y-93602438D01*
X180808025Y-93406546D01*
X180758232Y-93231227D01*
X180676443Y-93072535D01*
X180560844Y-92927595D01*
X180419919Y-92806622D01*
X180267007Y-92721901D01*
X180099379Y-92670731D01*
X179913112Y-92653189D01*
X179700068Y-92674039D01*
X179515440Y-92734004D01*
X179353433Y-92832166D01*
X179210242Y-92971559D01*
X179123889Y-93100013D01*
X179059358Y-93254565D01*
X179018043Y-93440338D01*
X179003247Y-93663621D01*
X179003247Y-94740000D01*
G37*
G36*
X177790031Y-92700083D02*
G01*
X177790031Y-94740000D01*
X178556649Y-94740000D01*
X178556649Y-92700083D01*
X177790031Y-92700083D01*
G37*
G36*
X178171233Y-91785638D02*
G01*
X178071863Y-91797970D01*
X177983006Y-91834308D01*
X177901772Y-91896097D01*
X177837832Y-91975309D01*
X177800586Y-92061295D01*
X177788016Y-92156948D01*
X177800452Y-92259686D01*
X177836230Y-92346493D01*
X177895727Y-92421097D01*
X177972846Y-92477697D01*
X178063404Y-92512165D01*
X178171233Y-92524228D01*
X178279067Y-92512169D01*
X178369692Y-92477704D01*
X178446922Y-92421097D01*
X178506311Y-92346506D01*
X178542033Y-92259699D01*
X178554450Y-92156948D01*
X178541881Y-92061295D01*
X178504635Y-91975309D01*
X178440694Y-91896097D01*
X178359461Y-91834308D01*
X178270603Y-91797970D01*
X178171233Y-91785638D01*
G37*
G36*
X176618948Y-91938046D02*
G01*
X176618948Y-93618742D01*
X176603731Y-93782729D01*
X176564402Y-93893558D01*
X176506431Y-93966088D01*
X176429133Y-94009375D01*
X176325857Y-94024856D01*
X176209884Y-94003453D01*
X176113732Y-93939860D01*
X176048289Y-93845641D01*
X176026537Y-93733780D01*
X176047349Y-93618080D01*
X176108603Y-93523853D01*
X176199655Y-93460003D01*
X176309370Y-93438674D01*
X176393810Y-93455419D01*
X176502078Y-93514511D01*
X176502078Y-92670957D01*
X176297097Y-92653189D01*
X176087330Y-92673008D01*
X175896521Y-92731080D01*
X175720490Y-92827662D01*
X175556308Y-92966064D01*
X175420300Y-93131943D01*
X175324992Y-93310525D01*
X175267493Y-93504796D01*
X175247830Y-93718942D01*
X175268001Y-93938383D01*
X175326715Y-94135246D01*
X175423612Y-94314117D01*
X175561437Y-94478232D01*
X175727590Y-94613534D01*
X175908996Y-94708981D01*
X176108919Y-94766954D01*
X176331902Y-94786894D01*
X176482791Y-94775831D01*
X176631602Y-94742529D01*
X176779782Y-94686144D01*
X176918622Y-94609961D01*
X177037827Y-94519592D01*
X177139368Y-94414668D01*
X177244128Y-94260895D01*
X177320655Y-94084668D01*
X177368552Y-93881911D01*
X177385382Y-93647501D01*
X177385382Y-91938046D01*
X176618948Y-91938046D01*
G37*
G36*
X174167542Y-92673133D02*
G01*
X174369907Y-92731023D01*
X174552910Y-92826115D01*
X174719899Y-92960568D01*
X174858667Y-93124099D01*
X174956165Y-93302451D01*
X175015228Y-93498880D01*
X175035522Y-93718026D01*
X175015462Y-93932652D01*
X174956758Y-94127464D01*
X174859295Y-94306733D01*
X174719899Y-94473469D01*
X174552346Y-94611719D01*
X174371986Y-94708540D01*
X174175792Y-94766929D01*
X173959510Y-94786894D01*
X173743256Y-94766975D01*
X173547295Y-94708752D01*
X173367356Y-94612264D01*
X173200403Y-94474569D01*
X173061595Y-94308447D01*
X172964397Y-94129236D01*
X172905760Y-93933875D01*
X172885883Y-93720041D01*
X173664586Y-93720041D01*
X173686437Y-93837039D01*
X173751781Y-93935464D01*
X173814339Y-93985463D01*
X173883502Y-94014856D01*
X173961708Y-94024856D01*
X174038591Y-94014916D01*
X174107173Y-93985582D01*
X174169803Y-93935464D01*
X174235004Y-93837053D01*
X174256814Y-93720041D01*
X174235082Y-93601412D01*
X174170719Y-93503703D01*
X174108791Y-93454286D01*
X174039944Y-93425160D01*
X173961708Y-93415226D01*
X173882139Y-93425215D01*
X173812652Y-93454396D01*
X173750682Y-93503703D01*
X173686319Y-93601412D01*
X173664586Y-93720041D01*
X172885883Y-93720041D01*
X172885696Y-93718026D01*
X172905416Y-93505257D01*
X172963166Y-93311688D01*
X173059068Y-93133182D01*
X173196190Y-92966796D01*
X173361372Y-92828092D01*
X173538434Y-92731276D01*
X173730315Y-92673057D01*
X173941191Y-92653189D01*
X174167542Y-92673133D01*
G37*
G36*
X171307399Y-91938046D02*
G01*
X170540965Y-91938046D01*
X170540965Y-93647501D01*
X170557795Y-93881911D01*
X170605691Y-94084668D01*
X170682219Y-94260895D01*
X170786978Y-94414668D01*
X170888527Y-94519581D01*
X171007790Y-94609951D01*
X171146748Y-94686144D01*
X171294809Y-94742524D01*
X171443558Y-94775829D01*
X171594445Y-94786894D01*
X171817428Y-94766954D01*
X172017351Y-94708981D01*
X172198757Y-94613534D01*
X172364909Y-94478232D01*
X172502845Y-94314094D01*
X172599731Y-94135554D01*
X172658383Y-93939413D01*
X172678517Y-93721140D01*
X172658859Y-93510384D01*
X172601128Y-93317427D01*
X172504967Y-93138278D01*
X172367107Y-92970094D01*
X172201091Y-92829323D01*
X172024855Y-92731562D01*
X171835585Y-92673069D01*
X171629250Y-92653189D01*
X171424269Y-92670957D01*
X171424269Y-93514511D01*
X171521617Y-93456424D01*
X171612763Y-93438674D01*
X171722892Y-93460332D01*
X171816828Y-93525868D01*
X171880518Y-93621715D01*
X171901825Y-93735795D01*
X171879970Y-93845852D01*
X171813714Y-93939860D01*
X171716931Y-94003577D01*
X171602505Y-94024856D01*
X171498355Y-94009320D01*
X171420493Y-93965922D01*
X171362185Y-93893313D01*
X171322675Y-93782518D01*
X171307399Y-93618742D01*
X171307399Y-91938046D01*
G37*
G36*
X169871617Y-95641439D02*
G01*
X169871617Y-94971359D01*
X169718703Y-95028274D01*
X169599042Y-95044815D01*
X169460584Y-95027694D01*
X169347229Y-94978979D01*
X169253037Y-94898477D01*
X169175395Y-94780616D01*
X169115441Y-94615252D01*
X169253320Y-94686607D01*
X169383652Y-94726998D01*
X169508917Y-94740000D01*
X169646828Y-94726297D01*
X169768969Y-94686511D01*
X169878700Y-94620738D01*
X169978229Y-94526592D01*
X170057415Y-94415175D01*
X170114713Y-94289348D01*
X170150276Y-94146457D01*
X170162694Y-93983091D01*
X170162694Y-92700083D01*
X169396260Y-92700083D01*
X169396260Y-93796795D01*
X169385037Y-93881950D01*
X169356098Y-93935272D01*
X169311141Y-93966560D01*
X169244585Y-93977962D01*
X169182586Y-93966216D01*
X169139372Y-93933091D01*
X169110557Y-93874510D01*
X169099138Y-93778293D01*
X169099138Y-92700083D01*
X168332704Y-92700083D01*
X168332704Y-94521097D01*
X168352261Y-94775632D01*
X168407902Y-94994778D01*
X168496995Y-95184562D01*
X168619567Y-95349630D01*
X168765615Y-95487457D01*
X168919615Y-95591610D01*
X169083010Y-95665177D01*
X169257992Y-95709638D01*
X169447367Y-95724787D01*
X169658440Y-95704263D01*
X169871617Y-95641439D01*
G37*
G36*
X165464805Y-91925772D02*
G01*
X165464805Y-92730858D01*
X165551121Y-92697097D01*
X165604206Y-92688360D01*
X165691536Y-92705714D01*
X165766139Y-92758335D01*
X165816771Y-92835341D01*
X165833733Y-92927046D01*
X165817974Y-93014740D01*
X165759911Y-93141186D01*
X165696530Y-93252377D01*
X165597955Y-93457896D01*
X165542218Y-93650179D01*
X165524339Y-93832698D01*
X165542887Y-94031856D01*
X165597000Y-94211323D01*
X165686558Y-94375211D01*
X165814316Y-94526409D01*
X165967908Y-94651026D01*
X166134957Y-94738817D01*
X166318399Y-94792057D01*
X166522315Y-94810341D01*
X166720118Y-94787578D01*
X166919820Y-94717468D01*
X166919820Y-93909269D01*
X166801464Y-93971867D01*
X166708794Y-93989685D01*
X166607727Y-93973482D01*
X166527444Y-93926854D01*
X166472832Y-93855902D01*
X166454721Y-93769317D01*
X166474847Y-93692676D01*
X166571408Y-93499307D01*
X166677100Y-93274006D01*
X166738009Y-93055325D01*
X166757887Y-92840034D01*
X166740030Y-92646862D01*
X166687678Y-92470599D01*
X166600655Y-92307561D01*
X166476153Y-92155116D01*
X166326066Y-92027731D01*
X166165780Y-91939043D01*
X165992667Y-91885832D01*
X165802959Y-91867704D01*
X165632751Y-91882148D01*
X165464805Y-91925772D01*
G37*
G36*
X164379450Y-95502037D02*
G01*
X165145884Y-95502037D01*
X165145884Y-93792581D01*
X165129054Y-93558172D01*
X165081158Y-93355415D01*
X165004630Y-93179188D01*
X164899871Y-93025415D01*
X164798330Y-92920491D01*
X164679125Y-92830122D01*
X164540284Y-92753939D01*
X164392105Y-92697553D01*
X164243294Y-92664252D01*
X164092404Y-92653189D01*
X163869401Y-92673109D01*
X163669469Y-92731021D01*
X163488071Y-92826358D01*
X163321940Y-92961484D01*
X163184006Y-93125446D01*
X163087121Y-93303834D01*
X163028468Y-93499848D01*
X163008332Y-93718026D01*
X163028034Y-93929648D01*
X163085849Y-94123081D01*
X163182073Y-94302359D01*
X163319925Y-94470355D01*
X163485830Y-94610943D01*
X163661997Y-94708593D01*
X163851243Y-94767030D01*
X164057599Y-94786894D01*
X164262580Y-94768942D01*
X164262580Y-93925572D01*
X164165232Y-93983659D01*
X164074086Y-94001409D01*
X163964032Y-93979627D01*
X163870204Y-93913665D01*
X163806234Y-93817378D01*
X163785024Y-93705204D01*
X163806975Y-93593825D01*
X163873135Y-93500040D01*
X163969904Y-93436465D01*
X164084344Y-93415226D01*
X164188494Y-93430762D01*
X164266356Y-93474160D01*
X164324664Y-93546770D01*
X164364174Y-93657565D01*
X164379450Y-93821341D01*
X164379450Y-95502037D01*
G37*
G36*
X161904477Y-91938046D02*
G01*
X161904477Y-94740000D01*
X162671094Y-94740000D01*
X162671094Y-91938046D01*
X161904477Y-91938046D01*
G37*
G36*
X160691078Y-92700083D02*
G01*
X160691078Y-94740000D01*
X161457695Y-94740000D01*
X161457695Y-92700083D01*
X160691078Y-92700083D01*
G37*
G36*
X161072280Y-91785638D02*
G01*
X160972910Y-91797970D01*
X160884052Y-91834308D01*
X160802819Y-91896097D01*
X160738878Y-91975309D01*
X160701633Y-92061295D01*
X160689063Y-92156948D01*
X160701498Y-92259686D01*
X160737277Y-92346493D01*
X160796774Y-92421097D01*
X160873892Y-92477697D01*
X160964451Y-92512165D01*
X161072280Y-92524228D01*
X161180114Y-92512169D01*
X161270738Y-92477704D01*
X161347969Y-92421097D01*
X161407357Y-92346506D01*
X161443080Y-92259699D01*
X161455497Y-92156948D01*
X161442927Y-92061295D01*
X161405682Y-91975309D01*
X161341741Y-91896097D01*
X161260508Y-91834308D01*
X161171650Y-91797970D01*
X161072280Y-91785638D01*
G37*
G36*
X159558829Y-91938046D02*
G01*
X159558829Y-92723531D01*
X159214630Y-92723531D01*
X159214630Y-93532463D01*
X159558829Y-93532463D01*
X159547902Y-93695251D01*
X159520408Y-93802230D01*
X159482076Y-93869335D01*
X159423550Y-93916888D01*
X159333711Y-93949150D01*
X159200159Y-93961659D01*
X159200159Y-94768942D01*
X159288269Y-94775170D01*
X159458814Y-94761606D01*
X159621767Y-94721240D01*
X159779197Y-94653538D01*
X159923866Y-94561972D01*
X160046474Y-94452424D01*
X160149042Y-94323810D01*
X160222391Y-94188654D01*
X160277486Y-94029070D01*
X160312713Y-93840769D01*
X160325263Y-93618742D01*
X160325263Y-91938046D01*
X159558829Y-91938046D01*
G37*
D11*
G36*
X180180575Y-97221583D02*
G01*
X180235750Y-97221583D01*
X180252786Y-97228837D01*
X180314005Y-97221473D01*
X180396547Y-97247302D01*
X180504368Y-97340724D01*
X180517117Y-97340724D01*
X180522613Y-97385018D01*
X180534923Y-97385018D01*
X180532395Y-97397108D01*
X180547123Y-97451293D01*
X180561851Y-97516359D01*
X180560751Y-97530648D01*
X180586314Y-97575658D01*
X180622520Y-97621213D01*
X180617355Y-97636930D01*
X180641095Y-97716944D01*
X180648789Y-97716944D01*
X180670990Y-97874993D01*
X180698138Y-97912143D01*
X180700556Y-97926431D01*
X180768370Y-97980616D01*
X180768370Y-97986222D01*
X180775734Y-97986222D01*
X180775734Y-97998641D01*
X180785626Y-98015897D01*
X180785626Y-98025239D01*
X180795188Y-98034802D01*
X180802882Y-98080744D01*
X180795737Y-98124268D01*
X180873663Y-98221208D01*
X180901360Y-98295506D01*
X180893886Y-98367497D01*
X180903961Y-98396523D01*
X180954007Y-98471251D01*
X180997971Y-98488177D01*
X181009401Y-98499058D01*
X181009401Y-98519172D01*
X180991596Y-98528844D01*
X180981594Y-98564784D01*
X180924331Y-98572258D01*
X180878609Y-98555662D01*
X180868937Y-98546759D01*
X180832667Y-98539505D01*
X180832667Y-98531042D01*
X180824973Y-98531042D01*
X180813653Y-98520381D01*
X180806399Y-98504884D01*
X180788374Y-98495321D01*
X180788374Y-98489826D01*
X180778592Y-98489826D01*
X180778592Y-98478615D01*
X180772657Y-98472790D01*
X180767271Y-98479714D01*
X180706627Y-98505661D01*
X180611200Y-98515875D01*
X180565148Y-98506422D01*
X180533714Y-98529943D01*
X180457766Y-98517523D01*
X180383907Y-98494552D01*
X180383907Y-98486309D01*
X180356870Y-98466635D01*
X180356870Y-98442125D01*
X180284220Y-98396293D01*
X180257732Y-98362551D01*
X180250258Y-98362551D01*
X180216235Y-98293949D01*
X180211570Y-98233627D01*
X180184480Y-98195844D01*
X180156505Y-98124927D01*
X180129883Y-98049661D01*
X180109574Y-98014468D01*
X180110857Y-97992596D01*
X180309938Y-97992596D01*
X180317302Y-98015128D01*
X180314774Y-98025239D01*
X180344010Y-98162626D01*
X180383138Y-98228901D01*
X180434795Y-98351670D01*
X180452381Y-98379367D01*
X180452381Y-98388270D01*
X180521404Y-98431354D01*
X180593635Y-98431394D01*
X180655163Y-98438388D01*
X180680333Y-98429156D01*
X180686378Y-98421023D01*
X180686378Y-98315620D01*
X180682566Y-98295792D01*
X180669122Y-98270227D01*
X180669122Y-98251543D01*
X180651976Y-98214723D01*
X180651976Y-98198237D01*
X180620542Y-98167022D01*
X180608232Y-98137567D01*
X180590097Y-98119542D01*
X180580645Y-98119542D01*
X180580645Y-98101077D01*
X180561741Y-98091625D01*
X180554816Y-98075468D01*
X180545804Y-98075468D01*
X180492425Y-98027406D01*
X180429630Y-97993256D01*
X180414682Y-97975780D01*
X180334338Y-97932916D01*
X180314665Y-97957206D01*
X180309938Y-97992596D01*
X180110857Y-97992596D01*
X180111992Y-97973252D01*
X180085064Y-97956107D01*
X180085064Y-97937971D01*
X180077700Y-97937971D01*
X180082854Y-97880020D01*
X180095725Y-97843559D01*
X180131226Y-97815642D01*
X180169474Y-97805421D01*
X180236299Y-97812565D01*
X180260699Y-97832129D01*
X180299937Y-97832129D01*
X180299937Y-97854331D01*
X180324456Y-97856874D01*
X180371268Y-97873015D01*
X180371268Y-97883456D01*
X180440181Y-97933135D01*
X180450293Y-97933135D01*
X180460624Y-97943357D01*
X180516568Y-97959074D01*
X180509534Y-97876422D01*
X180482386Y-97839383D01*
X180472494Y-97740355D01*
X180453124Y-97723601D01*
X180425453Y-97686059D01*
X180383907Y-97634402D01*
X180383907Y-97623741D01*
X180363135Y-97575381D01*
X180356540Y-97525042D01*
X180346209Y-97514821D01*
X180364234Y-97478771D01*
X180364234Y-97461405D01*
X180345549Y-97442720D01*
X180355441Y-97432828D01*
X180330272Y-97407769D01*
X180321039Y-97382160D01*
X180311147Y-97382160D01*
X180293672Y-97329184D01*
X180252126Y-97320062D01*
X180170024Y-97320062D01*
X180021276Y-97346097D01*
X179941852Y-97376445D01*
X179880523Y-97368861D01*
X179835900Y-97329624D01*
X179808752Y-97319842D01*
X179779956Y-97291155D01*
X179793145Y-97222462D01*
X179830404Y-97214439D01*
X179878215Y-97225540D01*
X179878215Y-97233673D01*
X179904265Y-97251403D01*
X179928773Y-97256754D01*
X180033627Y-97256754D01*
X180087812Y-97229167D01*
X180131775Y-97229167D01*
X180159802Y-97209932D01*
X180180575Y-97221583D01*
G37*
G36*
X178990258Y-97863233D02*
G01*
X179018504Y-97927750D01*
X179028176Y-97927750D01*
X179035101Y-97953249D01*
X179054884Y-97970505D01*
X179062138Y-97990068D01*
X179088736Y-98016447D01*
X179088736Y-98023371D01*
X179116983Y-98069313D01*
X179168091Y-98094812D01*
X179161496Y-98103715D01*
X179175235Y-98117453D01*
X179207109Y-98268359D01*
X179241620Y-98302760D01*
X179251402Y-98346834D01*
X179268108Y-98365848D01*
X179268791Y-98394999D01*
X179278660Y-98428057D01*
X179296575Y-98447181D01*
X179296575Y-98466415D01*
X179314820Y-98466415D01*
X179333834Y-98525986D01*
X179359825Y-98553349D01*
X179377688Y-98563795D01*
X179377688Y-98572258D01*
X179408428Y-98625829D01*
X179411980Y-98684585D01*
X179431873Y-98714371D01*
X179431873Y-98731297D01*
X179485949Y-98804167D01*
X179485949Y-98824829D01*
X179503204Y-98832193D01*
X179503204Y-98851428D01*
X179530242Y-98868683D01*
X179530242Y-98887368D01*
X179540134Y-98887368D01*
X179548507Y-98921206D01*
X179585087Y-99006619D01*
X179637733Y-99046846D01*
X179630809Y-99065311D01*
X179638832Y-99092129D01*
X179673124Y-99118947D01*
X179675652Y-99131257D01*
X179729617Y-99137741D01*
X179744125Y-99146094D01*
X179744125Y-99172582D01*
X179792310Y-99219032D01*
X179809082Y-99245672D01*
X179820403Y-99245672D01*
X179827217Y-99261609D01*
X179855683Y-99282272D01*
X179899757Y-99290845D01*
X179918112Y-99306782D01*
X179925696Y-99327005D01*
X179991751Y-99354922D01*
X179997686Y-99354922D01*
X180007248Y-99371628D01*
X180161231Y-99408778D01*
X180305102Y-99416251D01*
X180335108Y-99408338D01*
X180363303Y-99380044D01*
X180406549Y-99353383D01*
X180427431Y-99324477D01*
X180427431Y-99286888D01*
X180444687Y-99250838D01*
X180444687Y-99201159D01*
X180434905Y-99193795D01*
X180434905Y-99157085D01*
X180396327Y-99107846D01*
X180333899Y-99092678D01*
X180270261Y-99092678D01*
X180214427Y-99100262D01*
X180195963Y-99121585D01*
X180185929Y-99161785D01*
X180185851Y-99186321D01*
X180203876Y-99214678D01*
X180243705Y-99234066D01*
X180285429Y-99240396D01*
X180325875Y-99231714D01*
X180353792Y-99212260D01*
X180356540Y-99212260D01*
X180356540Y-99237649D01*
X180370938Y-99260950D01*
X180350715Y-99260950D01*
X180322468Y-99307881D01*
X180302465Y-99307881D01*
X180294661Y-99326565D01*
X180259710Y-99345909D01*
X180192136Y-99337500D01*
X180127379Y-99319641D01*
X180099132Y-99291944D01*
X180062153Y-99292430D01*
X180021920Y-99279217D01*
X179976254Y-99248859D01*
X179976254Y-99238308D01*
X179951744Y-99228636D01*
X179951744Y-99222261D01*
X179912726Y-99183573D01*
X179903604Y-99183573D01*
X179886458Y-99146864D01*
X179858761Y-99146864D01*
X179804685Y-99087293D01*
X179781422Y-99042329D01*
X179750830Y-98962985D01*
X179726096Y-98922851D01*
X179716868Y-98862309D01*
X179706976Y-98862309D01*
X179706976Y-98847801D01*
X179696205Y-98826038D01*
X179679059Y-98818565D01*
X179651582Y-98762181D01*
X179645537Y-98762181D01*
X179645537Y-98744376D01*
X179618389Y-98719426D01*
X179608717Y-98630070D01*
X179617985Y-98597421D01*
X179617950Y-98571599D01*
X179607398Y-98571599D01*
X179584757Y-98541373D01*
X179614769Y-98534735D01*
X179669607Y-98537087D01*
X179717527Y-98516094D01*
X179759623Y-98482242D01*
X179795673Y-98473559D01*
X179824359Y-98438498D01*
X179834031Y-98438498D01*
X179840193Y-98402492D01*
X179877665Y-98330458D01*
X179887777Y-98282537D01*
X179871510Y-98222307D01*
X179860739Y-98163066D01*
X179833042Y-98153064D01*
X179828206Y-98133720D01*
X179815127Y-98126466D01*
X179815127Y-98117014D01*
X179770284Y-98082063D01*
X179751270Y-98039198D01*
X179751270Y-98019304D01*
X179734344Y-97992816D01*
X179744016Y-97966108D01*
X179734344Y-97939400D01*
X179742257Y-97925222D01*
X179783804Y-97933503D01*
X179819743Y-97951051D01*
X179836656Y-97987204D01*
X179855793Y-98006775D01*
X179897269Y-98019579D01*
X179954382Y-98051618D01*
X179965703Y-98051618D01*
X180011315Y-98044364D01*
X180023515Y-98032603D01*
X180012524Y-98003477D01*
X179992520Y-97992047D01*
X179972517Y-98002049D01*
X179930422Y-97985452D01*
X179904483Y-97958964D01*
X179897119Y-97939181D01*
X179824030Y-97864882D01*
X179802817Y-97864882D01*
X179748522Y-97829821D01*
X179687083Y-97822567D01*
X179622346Y-97812455D01*
X179557939Y-97830590D01*
X179518592Y-97942588D01*
X179532880Y-97942588D01*
X179547498Y-97950941D01*
X179547498Y-97989299D01*
X179557280Y-97989299D01*
X179557280Y-97996663D01*
X179565083Y-97996663D01*
X179569699Y-98040956D01*
X179581789Y-98065137D01*
X179574426Y-98111518D01*
X179592231Y-98174826D01*
X179611355Y-98191642D01*
X179611355Y-98213294D01*
X179620258Y-98213294D01*
X179647295Y-98258797D01*
X179654659Y-98258797D01*
X179662793Y-98304299D01*
X179643464Y-98344012D01*
X179628611Y-98360573D01*
X179628611Y-98367057D01*
X179610728Y-98377255D01*
X179584757Y-98404097D01*
X179575085Y-98429925D01*
X179560247Y-98438279D01*
X179490894Y-98424650D01*
X179418574Y-98365079D01*
X179410881Y-98347164D01*
X179374940Y-98337712D01*
X179374940Y-98314741D01*
X179361732Y-98293555D01*
X179345375Y-98247146D01*
X179320205Y-98169440D01*
X179284815Y-98135698D01*
X179267669Y-98063048D01*
X179248325Y-98039088D01*
X179248325Y-98027108D01*
X179239862Y-98027108D01*
X179229970Y-98000290D01*
X179218649Y-98000290D01*
X179203482Y-97991827D01*
X179193370Y-97956546D01*
X179186775Y-97956546D01*
X179186775Y-97931926D01*
X179176994Y-97922254D01*
X179176994Y-97861475D01*
X179148307Y-97832788D01*
X179065985Y-97805421D01*
X179008722Y-97805421D01*
X178990258Y-97863233D01*
G37*
G36*
X178517978Y-97789044D02*
G01*
X178537651Y-97811246D01*
X178537651Y-97823336D01*
X178552269Y-97823336D01*
X178562271Y-97831250D01*
X178562271Y-97863673D01*
X178584473Y-97877521D01*
X178662069Y-97877521D01*
X178669542Y-97889831D01*
X178684930Y-97889831D01*
X178719221Y-97863453D01*
X178719221Y-97843779D01*
X178751645Y-97822237D01*
X178757690Y-97810037D01*
X178751315Y-97794100D01*
X178740764Y-97794100D01*
X178707021Y-97754423D01*
X178707021Y-97736178D01*
X178719221Y-97723868D01*
X178719221Y-97706612D01*
X178704384Y-97706612D01*
X178684710Y-97696721D01*
X178673499Y-97696721D01*
X178652726Y-97662978D01*
X178638658Y-97674299D01*
X178596892Y-97664407D01*
X178584253Y-97674629D01*
X178551939Y-97674629D01*
X178530068Y-97699139D01*
X178537322Y-97741674D01*
X178517978Y-97753764D01*
X178517978Y-97789044D01*
G37*
G36*
X178689546Y-98392886D02*
G01*
X178700427Y-98427617D01*
X178712187Y-98436850D01*
X178712187Y-98470262D01*
X178737137Y-98470262D01*
X178758019Y-98503675D01*
X178784727Y-98480704D01*
X178821217Y-98480704D01*
X178831549Y-98492024D01*
X178831549Y-98515875D01*
X178858916Y-98515875D01*
X178890900Y-98471801D01*
X178903869Y-98471801D01*
X178912332Y-98449379D01*
X178912332Y-98408603D01*
X178926400Y-98394645D01*
X178870237Y-98348922D01*
X178860345Y-98307487D01*
X178836495Y-98283746D01*
X178779891Y-98283746D01*
X178779891Y-98307377D01*
X178769890Y-98315290D01*
X178760218Y-98315290D01*
X178749337Y-98304629D01*
X178712187Y-98329029D01*
X178712187Y-98372992D01*
X178689546Y-98392886D01*
G37*
G36*
X176063172Y-96499140D02*
G01*
X176117109Y-96518059D01*
X176159214Y-96545531D01*
X176151631Y-96610157D01*
X176151631Y-96625215D01*
X176214389Y-96667310D01*
X176238899Y-96667310D01*
X176326496Y-96714681D01*
X176359799Y-96704679D01*
X176359799Y-96694018D01*
X176370790Y-96694018D01*
X176377934Y-96677422D01*
X176434757Y-96667200D01*
X176533456Y-96694018D01*
X176569176Y-96694018D01*
X176613799Y-96676653D01*
X176669633Y-96686874D01*
X176706453Y-96714901D01*
X176757349Y-96730229D01*
X176835266Y-96777659D01*
X176835266Y-96786892D01*
X176851643Y-96793816D01*
X176872344Y-96826118D01*
X176904839Y-96857014D01*
X176977929Y-96884491D01*
X176977929Y-96902626D01*
X177004637Y-96929004D01*
X177011671Y-96954833D01*
X177073871Y-96964544D01*
X177116854Y-96964175D01*
X177210033Y-96978700D01*
X177309745Y-97009018D01*
X177343597Y-97052432D01*
X177418463Y-97052835D01*
X177506263Y-97080020D01*
X177516045Y-97089692D01*
X177567812Y-97106618D01*
X177616172Y-97162012D01*
X177613644Y-97193446D01*
X177632723Y-97224378D01*
X177640682Y-97269943D01*
X177650573Y-97348748D01*
X177630293Y-97406073D01*
X177587376Y-97458987D01*
X177560228Y-97468769D01*
X177540554Y-97485915D01*
X177503845Y-97496246D01*
X177457133Y-97467890D01*
X177429546Y-97368202D01*
X177429546Y-97347209D01*
X177500657Y-97259611D01*
X177478679Y-97215864D01*
X177411631Y-97145416D01*
X177339310Y-97120686D01*
X177331946Y-97101122D01*
X177245447Y-97071918D01*
X177188075Y-97071117D01*
X177116524Y-97040232D01*
X177062293Y-97040326D01*
X177012330Y-97032649D01*
X177012330Y-97036935D01*
X176994855Y-97057049D01*
X176978039Y-97144426D01*
X176994635Y-97214109D01*
X177009802Y-97223891D01*
X177021123Y-97223891D01*
X177038269Y-97268514D01*
X177047831Y-97268514D01*
X177080694Y-97343912D01*
X177129823Y-97373697D01*
X177157608Y-97479493D01*
X177164774Y-97541858D01*
X177157520Y-97632644D01*
X177192142Y-97694962D01*
X177184778Y-97714746D01*
X177208958Y-97789814D01*
X177219180Y-97869058D01*
X177247206Y-97913352D01*
X177247206Y-97974791D01*
X177265232Y-97993036D01*
X177290840Y-98000620D01*
X177311393Y-98068104D01*
X177292379Y-98111189D01*
X177323264Y-98132731D01*
X177338101Y-98205711D01*
X177345685Y-98276162D01*
X177354368Y-98290121D01*
X177384373Y-98308146D01*
X177396463Y-98347384D01*
X177465486Y-98357715D01*
X177470652Y-98383983D01*
X177538246Y-98438938D01*
X177656179Y-98466415D01*
X177700362Y-98440147D01*
X177772133Y-98449599D01*
X177789609Y-98426079D01*
X177789705Y-98383650D01*
X177804337Y-98316499D01*
X177780170Y-98270667D01*
X177737182Y-98227692D01*
X177703110Y-98233957D01*
X177675853Y-98269678D01*
X177628702Y-98269678D01*
X177599466Y-98249784D01*
X177594300Y-98196588D01*
X177608542Y-98137589D01*
X177644638Y-98083711D01*
X177675384Y-98071234D01*
X177738391Y-98065686D01*
X177776420Y-98076127D01*
X177789373Y-98098379D01*
X177820713Y-98128444D01*
X177885560Y-98283966D01*
X177871821Y-98388929D01*
X177863400Y-98448811D01*
X177847751Y-98492794D01*
X177801919Y-98538626D01*
X177783454Y-98537197D01*
X177720036Y-98547638D01*
X177656838Y-98554563D01*
X177585947Y-98547968D01*
X177523237Y-98565126D01*
X177471531Y-98567862D01*
X177406355Y-98524008D01*
X177350081Y-98473669D01*
X177262594Y-98473669D01*
X177179942Y-98436740D01*
X177130497Y-98440030D01*
X177082892Y-98467624D01*
X177058822Y-98528514D01*
X177009912Y-98557970D01*
X176943710Y-98558859D01*
X176909895Y-98548627D01*
X176875163Y-98558519D01*
X176856663Y-98549484D01*
X176800095Y-98535109D01*
X176742193Y-98519413D01*
X176711399Y-98504004D01*
X176640177Y-98504004D01*
X176578738Y-98467185D01*
X176542138Y-98467185D01*
X176493105Y-98437774D01*
X176442341Y-98378598D01*
X176369581Y-98368486D01*
X176369581Y-98361562D01*
X176351995Y-98361562D01*
X176323639Y-98323973D01*
X176299569Y-98314191D01*
X176279895Y-98287373D01*
X176225490Y-98270007D01*
X176190209Y-98198237D01*
X176171634Y-98198237D01*
X176103902Y-98138722D01*
X176053811Y-98070852D01*
X175994680Y-97895986D01*
X175989734Y-97831250D01*
X175984836Y-97795141D01*
X175974017Y-97768381D01*
X175966763Y-97768381D01*
X175945221Y-97737497D01*
X175955223Y-97664847D01*
X175963230Y-97600550D01*
X176206475Y-97600550D01*
X176214279Y-97600550D01*
X176214279Y-97627478D01*
X176223511Y-97627478D01*
X176234173Y-97701557D01*
X176271221Y-97788997D01*
X176283192Y-97842570D01*
X176295172Y-97970505D01*
X176304954Y-97977869D01*
X176312648Y-98026448D01*
X176308251Y-98052387D01*
X176403213Y-98139435D01*
X176428149Y-98197346D01*
X176473555Y-98262204D01*
X176509198Y-98281932D01*
X176544996Y-98318477D01*
X176587531Y-98334964D01*
X176637530Y-98335239D01*
X176680404Y-98345515D01*
X176699497Y-98364800D01*
X176731622Y-98379147D01*
X176824166Y-98389149D01*
X176834167Y-98406625D01*
X176957486Y-98452347D01*
X176998921Y-98442455D01*
X177013490Y-98423483D01*
X177044863Y-98402008D01*
X177088717Y-98402008D01*
X177140265Y-98356286D01*
X177123025Y-98290045D01*
X177096301Y-98233298D01*
X177096301Y-98199995D01*
X177070033Y-98181091D01*
X177024970Y-98091954D01*
X177024970Y-98002818D01*
X177013319Y-97994245D01*
X177023541Y-97984023D01*
X176980676Y-97941708D01*
X176980676Y-97924013D01*
X176960893Y-97877521D01*
X176953639Y-97826304D01*
X176943857Y-97779592D01*
X176947504Y-97670460D01*
X176953199Y-97646162D01*
X176937042Y-97595604D01*
X176899344Y-97568347D01*
X176906817Y-97486794D01*
X176880439Y-97417771D01*
X176862854Y-97400405D01*
X176852742Y-97334789D01*
X176862634Y-97317424D01*
X176862634Y-97275548D01*
X176818340Y-97193996D01*
X176818340Y-97184653D01*
X176738217Y-97078921D01*
X176693128Y-97057629D01*
X176641167Y-97042211D01*
X176638309Y-97044236D01*
X176529609Y-97065072D01*
X176460806Y-97126182D01*
X176365404Y-97150911D01*
X176311362Y-97168231D01*
X176277807Y-97186302D01*
X176268574Y-97221143D01*
X176278246Y-97292914D01*
X176278246Y-97311379D01*
X176237126Y-97385990D01*
X176209443Y-97479320D01*
X176212191Y-97538012D01*
X176206475Y-97600550D01*
X175963230Y-97600550D01*
X175966214Y-97576590D01*
X175985008Y-97489542D01*
X176018860Y-97421618D01*
X176009188Y-97377874D01*
X176015250Y-97343663D01*
X176014134Y-97298190D01*
X176045569Y-97250645D01*
X176071067Y-97178388D01*
X176118988Y-97132996D01*
X176234282Y-97080569D01*
X176234282Y-97068919D01*
X176308142Y-97061335D01*
X176360239Y-97035287D01*
X176370130Y-96998247D01*
X176416952Y-96980112D01*
X176474324Y-96974177D01*
X176531697Y-96963076D01*
X176583354Y-96931202D01*
X176656436Y-96924993D01*
X176748768Y-96925927D01*
X176737667Y-96868554D01*
X176720631Y-96861300D01*
X176709420Y-96824151D01*
X176666666Y-96790958D01*
X176629626Y-96781176D01*
X176617316Y-96771394D01*
X176597093Y-96764580D01*
X176543567Y-96790189D01*
X176526092Y-96790189D01*
X176479160Y-96806675D01*
X176405712Y-96789789D01*
X176318583Y-96754358D01*
X176237800Y-96771394D01*
X176183110Y-96764618D01*
X176117294Y-96742017D01*
X176037325Y-96699074D01*
X176009298Y-96654011D01*
X176009298Y-96637525D01*
X175955003Y-96573558D01*
X175972918Y-96511019D01*
X175994351Y-96489917D01*
X176063172Y-96499140D01*
G37*
G36*
X175133871Y-97988859D02*
G01*
X175139146Y-98050738D01*
X175173658Y-98058872D01*
X175244439Y-98053816D01*
X175268421Y-98050033D01*
X175303461Y-98036120D01*
X175342479Y-97980726D01*
X175376660Y-97967647D01*
X175404842Y-97995481D01*
X175425460Y-98030075D01*
X175430516Y-98065576D01*
X175458323Y-98083272D01*
X175484262Y-98125806D01*
X175481953Y-98157350D01*
X175492395Y-98191422D01*
X175513717Y-98200875D01*
X175511299Y-98234397D01*
X175538777Y-98262973D01*
X175547832Y-98298258D01*
X175564495Y-98325731D01*
X175590544Y-98335294D01*
X175594940Y-98364529D01*
X175590104Y-98386841D01*
X175600326Y-98425089D01*
X175617472Y-98449599D01*
X175624836Y-98484111D01*
X175658138Y-98526096D01*
X175725952Y-98544451D01*
X175755917Y-98528747D01*
X175799042Y-98522909D01*
X175842236Y-98534779D01*
X175889937Y-98543572D01*
X175903456Y-98516204D01*
X175900818Y-98483891D01*
X175842126Y-98429706D01*
X175842048Y-98388305D01*
X175830476Y-98356176D01*
X175821573Y-98356176D01*
X175816847Y-98334854D01*
X175804317Y-98330018D01*
X175796624Y-98306937D01*
X175786732Y-98306937D01*
X175770136Y-98264512D01*
X175721336Y-98216701D01*
X175714434Y-98190430D01*
X175686934Y-98148338D01*
X175686934Y-98119322D01*
X175662857Y-98051206D01*
X175660996Y-98007984D01*
X175678691Y-97968306D01*
X175701003Y-97960283D01*
X175746395Y-97962591D01*
X175774312Y-97980396D01*
X175802009Y-97965229D01*
X175829377Y-97970175D01*
X175839598Y-97962591D01*
X175876308Y-97962591D01*
X175876308Y-97939071D01*
X175852553Y-97917309D01*
X175818935Y-97903900D01*
X175795525Y-97906208D01*
X175766498Y-97884445D01*
X175720676Y-97868729D01*
X175686934Y-97868729D01*
X175677042Y-97861585D01*
X175637695Y-97866421D01*
X175618497Y-97860449D01*
X175577025Y-97833118D01*
X175512398Y-97864662D01*
X175484371Y-97919397D01*
X175484371Y-97929179D01*
X175466017Y-97969076D01*
X175463049Y-97969076D01*
X175440038Y-97931526D01*
X175403148Y-97886644D01*
X175353656Y-97843757D01*
X175315551Y-97826414D01*
X175286535Y-97836745D01*
X175269169Y-97861255D01*
X175240428Y-97878176D01*
X175218831Y-97901811D01*
X175218831Y-97920936D01*
X175188496Y-97950831D01*
X175152445Y-97961052D01*
X175152445Y-97969515D01*
X175133871Y-97988859D01*
G37*
G36*
X172639699Y-96439790D02*
G01*
X172745542Y-96480794D01*
X172799398Y-96480794D01*
X172846988Y-96498819D01*
X172857100Y-96526407D01*
X172935026Y-96570041D01*
X172981737Y-96624226D01*
X173053508Y-96661485D01*
X173087909Y-96733915D01*
X173142315Y-96761173D01*
X173162098Y-96832834D01*
X173188476Y-96849540D01*
X173214173Y-96888375D01*
X173233869Y-96932851D01*
X173242678Y-96996540D01*
X173287395Y-97190369D01*
X173314103Y-97198282D01*
X173302892Y-97220704D01*
X173309926Y-97258952D01*
X173340151Y-97291485D01*
X173324984Y-97334350D01*
X173329930Y-97363805D01*
X173305750Y-97467780D01*
X173347515Y-97467780D01*
X173376202Y-97500203D01*
X173410823Y-97509325D01*
X173464129Y-97482617D01*
X173507409Y-97482111D01*
X173537438Y-97492289D01*
X173638995Y-97479430D01*
X173733297Y-97467780D01*
X173779349Y-97468439D01*
X173829138Y-97467780D01*
X173885191Y-97462174D01*
X173941355Y-97456569D01*
X174021699Y-97464812D01*
X174043461Y-97454920D01*
X174034712Y-97363573D01*
X173996859Y-97245873D01*
X173952134Y-97121180D01*
X173937618Y-97046937D01*
X173883433Y-96993081D01*
X173883433Y-96941204D01*
X173866287Y-96906803D01*
X173815041Y-96894973D01*
X173748244Y-96861740D01*
X173729670Y-96840527D01*
X173740154Y-96803557D01*
X173766050Y-96764360D01*
X173850020Y-96764360D01*
X173952432Y-96825612D01*
X174004663Y-96847012D01*
X174031151Y-96883502D01*
X174074455Y-96873720D01*
X174120947Y-96900868D01*
X174164361Y-96883941D01*
X174296692Y-96873610D01*
X174426605Y-96857124D01*
X174460786Y-96864268D01*
X174558612Y-96823658D01*
X174613670Y-96813600D01*
X174715564Y-96819824D01*
X174805220Y-96837612D01*
X174884377Y-96866026D01*
X174913503Y-96924278D01*
X174913503Y-97015173D01*
X174832060Y-97087823D01*
X174758450Y-97117033D01*
X174679066Y-97130138D01*
X174534316Y-97142228D01*
X174518818Y-97157835D01*
X174518818Y-97186302D01*
X174424956Y-97215098D01*
X174413306Y-97194435D01*
X174423307Y-97100902D01*
X174469119Y-97037756D01*
X174531568Y-96989454D01*
X174605207Y-96989454D01*
X174634113Y-97017921D01*
X174643346Y-97052542D01*
X174755233Y-97043200D01*
X174799966Y-97017811D01*
X174816343Y-96951756D01*
X174781172Y-96909990D01*
X174685001Y-96884051D01*
X174433529Y-96945051D01*
X174416163Y-96935599D01*
X174090172Y-96960988D01*
X174123145Y-97009458D01*
X174150842Y-97027153D01*
X174158206Y-97071557D01*
X174185573Y-97091450D01*
X174183155Y-97124423D01*
X174183155Y-97154428D01*
X174192827Y-97197183D01*
X174197993Y-97243894D01*
X174216788Y-97276867D01*
X174232725Y-97290056D01*
X174222503Y-97345780D01*
X174235811Y-97393642D01*
X174275259Y-97468109D01*
X174361648Y-97484816D01*
X174426165Y-97484816D01*
X174450675Y-97475144D01*
X174478921Y-97475144D01*
X174604987Y-97511963D01*
X174675329Y-97543837D01*
X174750617Y-97565599D01*
X174769631Y-97584613D01*
X174769631Y-97594395D01*
X174786557Y-97610991D01*
X174796120Y-97646932D01*
X174813925Y-97654515D01*
X174813925Y-97694413D01*
X174785458Y-97741893D01*
X174732202Y-97750860D01*
X174673900Y-97768491D01*
X174570256Y-97815203D01*
X174523764Y-97815203D01*
X174513872Y-97805421D01*
X174460237Y-97805421D01*
X174431111Y-97786956D01*
X174423197Y-97758050D01*
X174430891Y-97711229D01*
X174467372Y-97668084D01*
X174504530Y-97638139D01*
X174533217Y-97638139D01*
X174606856Y-97665067D01*
X174616638Y-97707821D01*
X174645764Y-97719032D01*
X174682144Y-97707712D01*
X174693244Y-97666605D01*
X174635322Y-97631325D01*
X174584324Y-97591867D01*
X174497826Y-97566368D01*
X174441324Y-97571008D01*
X174343403Y-97566148D01*
X174324279Y-97556586D01*
X174283613Y-97565599D01*
X174276578Y-97626489D01*
X174281414Y-97693973D01*
X174328016Y-97768601D01*
X174340436Y-97839823D01*
X174390229Y-97932606D01*
X174420560Y-98002598D01*
X174421014Y-98046516D01*
X174437266Y-98116025D01*
X174482438Y-98153614D01*
X174479471Y-98175595D01*
X174491561Y-98235386D01*
X174508377Y-98294957D01*
X174513982Y-98370135D01*
X174525853Y-98441576D01*
X174546296Y-98466415D01*
X174621034Y-98456414D01*
X174628178Y-98437949D01*
X174657194Y-98424430D01*
X174695553Y-98424430D01*
X174714457Y-98432343D01*
X174732812Y-98462898D01*
X174732812Y-98489276D01*
X174696871Y-98526646D01*
X174623342Y-98554233D01*
X174603339Y-98544121D01*
X174552849Y-98548939D01*
X174513763Y-98543682D01*
X174431221Y-98484331D01*
X174413855Y-98433003D01*
X174386817Y-98406405D01*
X174336314Y-98270171D01*
X174323180Y-98246267D01*
X174269544Y-98228682D01*
X174269544Y-98208568D01*
X174250377Y-98191066D01*
X174232615Y-98163395D01*
X174232615Y-98119432D01*
X174198299Y-98054756D01*
X174185903Y-98002708D01*
X174195575Y-97966658D01*
X174179858Y-97935444D01*
X174153370Y-97935444D01*
X174115058Y-97868688D01*
X174102372Y-97793990D01*
X174116990Y-97747609D01*
X174107503Y-97704506D01*
X174090062Y-97671881D01*
X174090062Y-97654625D01*
X174063025Y-97617806D01*
X174063025Y-97581865D01*
X174030491Y-97561202D01*
X173948499Y-97563730D01*
X173819576Y-97572303D01*
X173691531Y-97580876D01*
X173510730Y-97583184D01*
X173422254Y-97628027D01*
X173432582Y-97670438D01*
X173448742Y-97695622D01*
X173454017Y-97734310D01*
X173451599Y-97752555D01*
X173449071Y-97769481D01*
X173488934Y-97881094D01*
X173520183Y-97943467D01*
X173530184Y-98003038D01*
X173540076Y-98048101D01*
X173544692Y-98139985D01*
X173572170Y-98172298D01*
X173572689Y-98241545D01*
X173583269Y-98290952D01*
X173601406Y-98325622D01*
X173599495Y-98357284D01*
X173584699Y-98393765D01*
X173593382Y-98422122D01*
X173644276Y-98418569D01*
X173694719Y-98385302D01*
X173849141Y-98368156D01*
X173888818Y-98378158D01*
X173924539Y-98413549D01*
X173944872Y-98478615D01*
X173924539Y-98533900D01*
X173889038Y-98568961D01*
X173842107Y-98589074D01*
X173743518Y-98579182D01*
X173689113Y-98596438D01*
X173624816Y-98579292D01*
X173570961Y-98586546D01*
X173543196Y-98581375D01*
X173486990Y-98559289D01*
X173470174Y-98509060D01*
X173355856Y-98525473D01*
X173315751Y-98543682D01*
X173327622Y-98575116D01*
X173314433Y-98609737D01*
X173285526Y-98628422D01*
X173263874Y-98628422D01*
X173217602Y-98601054D01*
X173204523Y-98558409D01*
X173217493Y-98518622D01*
X173234309Y-98502246D01*
X173234309Y-98485320D01*
X173647677Y-98485320D01*
X173664384Y-98512797D01*
X173724064Y-98536977D01*
X173759895Y-98536977D01*
X173850130Y-98513566D01*
X173847932Y-98467075D01*
X173803199Y-98463338D01*
X173755389Y-98459601D01*
X173647677Y-98485320D01*
X173234309Y-98485320D01*
X173234309Y-98482902D01*
X173318169Y-98438608D01*
X173337953Y-98438608D01*
X173383785Y-98421462D01*
X173440608Y-98431354D01*
X173478637Y-98422452D01*
X173476659Y-98404317D01*
X173435223Y-98346175D01*
X173381038Y-98246487D01*
X173308497Y-98138446D01*
X173290802Y-98058652D01*
X173271018Y-97985123D01*
X173280690Y-97872356D01*
X173271128Y-97872356D01*
X173271128Y-97857298D01*
X173277833Y-97852242D01*
X173261346Y-97843999D01*
X173261346Y-97833228D01*
X173243115Y-97802021D01*
X173221779Y-97741674D01*
X173202088Y-97682589D01*
X173191884Y-97664627D01*
X173104506Y-97657373D01*
X172985914Y-97630335D01*
X172878752Y-97593076D01*
X172856865Y-97565363D01*
X172811378Y-97524383D01*
X172731364Y-97467120D01*
X172731364Y-97410407D01*
X172758401Y-97366333D01*
X172758401Y-97356002D01*
X172794866Y-97328763D01*
X172832920Y-97309840D01*
X172915572Y-97327096D01*
X172980528Y-97319622D01*
X173009324Y-97354243D01*
X173028009Y-97364465D01*
X173016798Y-97402384D01*
X172981627Y-97412056D01*
X172961844Y-97438324D01*
X172914473Y-97448436D01*
X172869959Y-97404472D01*
X172835008Y-97404472D01*
X172829623Y-97411286D01*
X172836547Y-97450854D01*
X172890512Y-97510424D01*
X172980528Y-97544167D01*
X173067906Y-97553948D01*
X173191774Y-97527131D01*
X173199577Y-97519327D01*
X173182871Y-97444149D01*
X173145722Y-97397328D01*
X173145722Y-97346220D01*
X173126679Y-97317411D01*
X173109232Y-97273790D01*
X173064829Y-97239388D01*
X173047463Y-97112773D01*
X173026297Y-97016044D01*
X173023832Y-96977694D01*
X173030097Y-96942853D01*
X173030097Y-96897900D01*
X173005148Y-96872951D01*
X172994816Y-96872951D01*
X172958876Y-96813929D01*
X172956348Y-96762712D01*
X172983386Y-96715890D01*
X172983386Y-96699843D01*
X172958107Y-96675004D01*
X172902236Y-96652886D01*
X172777306Y-96586527D01*
X172669964Y-96538463D01*
X172593098Y-96525198D01*
X172558806Y-96543333D01*
X172558806Y-96566963D01*
X172506160Y-96642031D01*
X172458129Y-96669728D01*
X172358332Y-96687094D01*
X172319754Y-96676323D01*
X172320849Y-96595357D01*
X172342094Y-96524934D01*
X172383611Y-96462000D01*
X172467508Y-96434914D01*
X172538143Y-96426719D01*
X172639699Y-96439790D01*
G37*
G36*
X172297772Y-97386337D02*
G01*
X172315247Y-97401504D01*
X172329236Y-97450644D01*
X172351847Y-97477342D01*
X172351847Y-97501961D01*
X172371851Y-97525152D01*
X172382072Y-97561642D01*
X172413726Y-97569116D01*
X172422704Y-97604299D01*
X172439225Y-97632094D01*
X172488574Y-97675288D01*
X172524624Y-97686609D01*
X172548475Y-97629896D01*
X172545947Y-97545156D01*
X172525113Y-97488575D01*
X172528911Y-97429861D01*
X172508085Y-97386674D01*
X172482969Y-97351386D01*
X172438565Y-97333800D01*
X172428893Y-97323798D01*
X172384930Y-97313027D01*
X172344813Y-97313027D01*
X172318854Y-97329712D01*
X172297772Y-97353254D01*
X172297772Y-97386337D01*
G37*
G36*
X172418562Y-98322874D02*
G01*
X172420849Y-98348282D01*
X172436477Y-98388819D01*
X172453733Y-98398711D01*
X172464174Y-98416626D01*
X172474396Y-98416626D01*
X172491322Y-98435861D01*
X172527592Y-98443115D01*
X172542979Y-98466305D01*
X172559136Y-98491035D01*
X172590020Y-98514116D01*
X172626400Y-98523678D01*
X172633874Y-98533570D01*
X172670914Y-98540934D01*
X172681575Y-98551485D01*
X172728396Y-98536977D01*
X172783344Y-98534645D01*
X172839734Y-98517084D01*
X172839734Y-98508840D01*
X172855122Y-98492134D01*
X172873147Y-98484880D01*
X172890758Y-98444813D01*
X172896338Y-98406295D01*
X172883258Y-98376619D01*
X172862340Y-98354016D01*
X172817203Y-98281438D01*
X172756093Y-98166033D01*
X172747567Y-98127432D01*
X172714328Y-98029086D01*
X172714328Y-98010841D01*
X172704546Y-98000840D01*
X172704546Y-97988750D01*
X172692126Y-97988750D01*
X172673771Y-97951600D01*
X172676079Y-97912363D01*
X172683883Y-97904010D01*
X172714777Y-97912037D01*
X172741695Y-97929069D01*
X172741695Y-97939950D01*
X172814565Y-97964899D01*
X172834569Y-97984903D01*
X172887215Y-98002488D01*
X172909087Y-97999850D01*
X172927882Y-97983694D01*
X172933267Y-97962261D01*
X172927882Y-97935663D01*
X172883919Y-97906066D01*
X172854023Y-97895107D01*
X172775767Y-97880489D01*
X172729385Y-97858617D01*
X172650903Y-97835205D01*
X172547266Y-97826523D01*
X172528361Y-97830260D01*
X172508907Y-97833997D01*
X172473517Y-97888952D01*
X172464064Y-97888952D01*
X172456264Y-97912043D01*
X172452744Y-97959843D01*
X172460437Y-98004247D01*
X172500884Y-98050189D01*
X172527042Y-98059861D01*
X172534626Y-98088217D01*
X172545837Y-98088217D01*
X172560785Y-98103495D01*
X172561489Y-98140133D01*
X172571666Y-98188015D01*
X172578700Y-98188015D01*
X172598593Y-98241761D01*
X172625411Y-98266380D01*
X172648803Y-98351616D01*
X172650690Y-98371454D01*
X172659813Y-98371454D01*
X172671573Y-98418935D01*
X172669485Y-98438279D01*
X172634091Y-98429641D01*
X172573204Y-98400250D01*
X172518293Y-98361862D01*
X172495938Y-98332106D01*
X172464724Y-98314411D01*
X172440874Y-98311773D01*
X172418562Y-98322874D01*
G37*
G36*
X171477299Y-97888622D02*
G01*
X171512030Y-97922694D01*
X171516396Y-97967227D01*
X171510711Y-98002708D01*
X171549949Y-98013040D01*
X171567424Y-98040517D01*
X171575668Y-98040517D01*
X171575668Y-98054475D01*
X171611388Y-98162736D01*
X171611388Y-98197138D01*
X171621170Y-98221647D01*
X171621170Y-98244399D01*
X171643592Y-98270557D01*
X171671069Y-98380356D01*
X171679202Y-98380356D01*
X171688984Y-98397502D01*
X171696788Y-98397502D01*
X171692391Y-98423990D01*
X171698258Y-98446390D01*
X171694040Y-98466415D01*
X171729101Y-98491255D01*
X171724485Y-98536318D01*
X171728878Y-98563174D01*
X171745478Y-98604681D01*
X171768998Y-98670737D01*
X171800652Y-98695137D01*
X171800652Y-98716129D01*
X171789771Y-98724372D01*
X171798344Y-98738771D01*
X171800982Y-98754488D01*
X171819117Y-98764819D01*
X171845275Y-98818894D01*
X171909242Y-98890226D01*
X171916496Y-98926715D01*
X171933422Y-98950676D01*
X171930894Y-98972548D01*
X171943314Y-98997277D01*
X171943314Y-99007279D01*
X171954965Y-99007279D01*
X171989217Y-99042690D01*
X172033000Y-99070367D01*
X172071029Y-99115210D01*
X172079822Y-99115210D01*
X172086856Y-99131586D01*
X172141906Y-99151497D01*
X172179949Y-99159283D01*
X172197424Y-99179067D01*
X172205228Y-99179067D01*
X172205228Y-99185002D01*
X172269085Y-99223141D01*
X172416491Y-99239597D01*
X172522866Y-99240287D01*
X172541550Y-99226438D01*
X172578793Y-99225828D01*
X172622554Y-99215887D01*
X172648602Y-99198851D01*
X172712899Y-99198851D01*
X172748949Y-99170055D01*
X172761039Y-99145435D01*
X172795111Y-99128069D01*
X172813576Y-99103999D01*
X172813576Y-99066850D01*
X172803794Y-99049374D01*
X172803794Y-99029261D01*
X172769282Y-98974196D01*
X172769282Y-98965733D01*
X172741475Y-98920341D01*
X172713009Y-98899238D01*
X172659263Y-98891874D01*
X172649152Y-98881653D01*
X172584745Y-98881653D01*
X172551662Y-98889456D01*
X172551662Y-98880993D01*
X172490553Y-98891764D01*
X172490553Y-98908031D01*
X172483189Y-98908031D01*
X172483189Y-98917593D01*
X172475715Y-98917593D01*
X172463515Y-98926496D01*
X172463515Y-98947268D01*
X172483189Y-98956831D01*
X172483189Y-98982110D01*
X172492091Y-98993870D01*
X172541550Y-99001344D01*
X172585844Y-98975405D01*
X172604309Y-98975405D01*
X172613871Y-98959468D01*
X172700150Y-98976284D01*
X172708173Y-98984528D01*
X172708173Y-98994200D01*
X172724989Y-99021127D01*
X172707919Y-99072367D01*
X172707184Y-99097734D01*
X172690917Y-99097734D01*
X172690917Y-99109385D01*
X172666847Y-99124992D01*
X172618897Y-99126623D01*
X172520558Y-99162910D01*
X172467032Y-99160163D01*
X172388886Y-99162910D01*
X172327887Y-99125321D01*
X172327887Y-99116639D01*
X172280709Y-99100412D01*
X172245235Y-99070367D01*
X172219626Y-99063443D01*
X172219626Y-99053551D01*
X172183796Y-99045857D01*
X172098836Y-98886928D01*
X172039326Y-98779577D01*
X172011018Y-98744925D01*
X171994422Y-98689531D01*
X171969578Y-98648892D01*
X171952657Y-98607649D01*
X171925399Y-98527085D01*
X171918475Y-98520161D01*
X171918475Y-98509390D01*
X171890668Y-98499278D01*
X171878496Y-98472368D01*
X171863960Y-98455864D01*
X171856706Y-98422012D01*
X171802740Y-98355627D01*
X171797794Y-98304629D01*
X171786693Y-98284955D01*
X171781528Y-98284955D01*
X171780081Y-98247805D01*
X171758886Y-98191422D01*
X171766250Y-98169331D01*
X171757399Y-98143193D01*
X171751193Y-98099208D01*
X171743609Y-98025899D01*
X171717890Y-97983914D01*
X171742706Y-97960742D01*
X171753061Y-97943027D01*
X171794717Y-97925222D01*
X171859110Y-97949613D01*
X171899460Y-97981715D01*
X171909352Y-98026448D01*
X171941294Y-98046239D01*
X171970352Y-98074149D01*
X171970352Y-98103275D01*
X171980793Y-98103275D01*
X171987827Y-98145260D01*
X171997939Y-98155262D01*
X172015415Y-98199665D01*
X172047288Y-98223955D01*
X172059159Y-98252422D01*
X172068941Y-98298474D01*
X172086306Y-98308146D01*
X172096528Y-98366728D01*
X172089164Y-98368156D01*
X172038606Y-98368156D01*
X171986069Y-98343317D01*
X171967604Y-98319357D01*
X171967604Y-98312103D01*
X171939028Y-98285065D01*
X171896273Y-98267150D01*
X171896273Y-98259456D01*
X171817908Y-98248575D01*
X171817908Y-98281548D01*
X171827800Y-98291330D01*
X171827800Y-98298474D01*
X171836263Y-98309685D01*
X171880556Y-98335184D01*
X171871214Y-98351450D01*
X171881875Y-98362111D01*
X171881875Y-98373212D01*
X171910671Y-98380906D01*
X171974511Y-98430429D01*
X172035945Y-98457845D01*
X172096857Y-98466635D01*
X172146427Y-98461469D01*
X172178630Y-98434322D01*
X172210394Y-98424540D01*
X172249082Y-98393655D01*
X172262601Y-98312652D01*
X172266448Y-98215273D01*
X172238421Y-98138996D01*
X172219736Y-98138996D01*
X172219736Y-98121850D01*
X172201271Y-98121850D01*
X172194347Y-98105693D01*
X172174783Y-98095801D01*
X172158642Y-98064948D01*
X172128292Y-98032603D01*
X172123565Y-98016007D01*
X172102046Y-97991924D01*
X172040034Y-97945885D01*
X171973318Y-97904883D01*
X171938148Y-97888952D01*
X171852843Y-97868883D01*
X171750094Y-97861694D01*
X171713494Y-97868729D01*
X171676345Y-97875763D01*
X171651945Y-97873125D01*
X171625896Y-97871366D01*
X171598639Y-97847406D01*
X171552037Y-97856309D01*
X171486641Y-97847406D01*
X171477299Y-97859606D01*
X171477299Y-97888622D01*
G37*
G36*
X170607037Y-97964570D02*
G01*
X170614841Y-97991168D01*
X170638581Y-98023701D01*
X170684963Y-98018315D01*
X170708483Y-97994355D01*
X170721343Y-97955447D01*
X170713979Y-97906318D01*
X170739588Y-97880489D01*
X170763695Y-97872676D01*
X170828285Y-97868729D01*
X170858729Y-97873235D01*
X170897088Y-97899613D01*
X170913025Y-97926761D01*
X170903463Y-97984133D01*
X170892032Y-98004467D01*
X170845649Y-98041535D01*
X170795861Y-98100198D01*
X170756192Y-98172484D01*
X170746072Y-98225274D01*
X170761460Y-98262094D01*
X170783332Y-98279020D01*
X170788278Y-98306058D01*
X170812042Y-98333529D01*
X170825097Y-98378598D01*
X170855102Y-98395744D01*
X170864884Y-98419814D01*
X170900935Y-98450259D01*
X170936215Y-98445313D01*
X170971141Y-98463027D01*
X171016010Y-98500487D01*
X171059688Y-98514048D01*
X171094815Y-98536757D01*
X171179994Y-98540494D01*
X171235938Y-98529833D01*
X171300345Y-98515105D01*
X171363213Y-98482792D01*
X171425202Y-98414318D01*
X171432536Y-98385488D01*
X171435533Y-98338921D01*
X171417728Y-98276712D01*
X171398274Y-98253961D01*
X171388053Y-98213294D01*
X171378490Y-98213294D01*
X171373874Y-98178343D01*
X171334747Y-98150096D01*
X171306610Y-98150096D01*
X171263855Y-98157570D01*
X171229485Y-98178987D01*
X171202426Y-98213050D01*
X171182522Y-98263303D01*
X171187468Y-98293088D01*
X171178785Y-98327820D01*
X171187688Y-98363870D01*
X171221210Y-98410362D01*
X171252205Y-98410362D01*
X171273197Y-98372773D01*
X171278033Y-98337931D01*
X171293531Y-98318917D01*
X171315622Y-98318917D01*
X171338154Y-98331886D01*
X171347066Y-98372839D01*
X171347496Y-98409922D01*
X171307379Y-98445862D01*
X171235230Y-98462302D01*
X171190985Y-98466635D01*
X171159221Y-98465426D01*
X171128996Y-98464217D01*
X171108075Y-98451979D01*
X171078108Y-98424430D01*
X171027880Y-98384423D01*
X171008975Y-98344856D01*
X171011503Y-98314741D01*
X170989961Y-98295726D01*
X171001721Y-98269898D01*
X170994797Y-98250004D01*
X171009525Y-98237474D01*
X171046894Y-98227582D01*
X171069865Y-98190983D01*
X171090858Y-98157131D01*
X171100310Y-98157131D01*
X171109323Y-98148118D01*
X171141746Y-98056564D01*
X171134052Y-98002928D01*
X171089869Y-97937422D01*
X171087451Y-97902581D01*
X171065029Y-97884556D01*
X171057336Y-97854990D01*
X171046235Y-97854990D01*
X171029199Y-97837514D01*
X170937534Y-97804212D01*
X170845540Y-97791353D01*
X170745963Y-97801574D01*
X170673642Y-97840042D01*
X170614731Y-97912363D01*
X170607037Y-97964570D01*
G37*
G36*
X169856137Y-97221583D02*
G01*
X169911311Y-97221583D01*
X169928347Y-97228837D01*
X169989567Y-97221473D01*
X170072109Y-97247302D01*
X170179930Y-97340724D01*
X170192679Y-97340724D01*
X170198175Y-97385018D01*
X170210484Y-97385018D01*
X170207957Y-97397108D01*
X170222684Y-97451293D01*
X170237412Y-97516359D01*
X170236313Y-97530648D01*
X170261876Y-97575658D01*
X170298082Y-97621213D01*
X170292916Y-97636930D01*
X170316657Y-97716944D01*
X170324351Y-97716944D01*
X170346552Y-97874993D01*
X170373700Y-97912143D01*
X170376118Y-97926431D01*
X170443932Y-97980616D01*
X170443932Y-97986222D01*
X170451296Y-97986222D01*
X170451296Y-97998641D01*
X170461188Y-98015897D01*
X170461188Y-98025239D01*
X170470750Y-98034802D01*
X170478443Y-98080744D01*
X170471299Y-98124268D01*
X170549225Y-98221208D01*
X170576922Y-98295506D01*
X170569448Y-98367497D01*
X170579523Y-98396523D01*
X170629569Y-98471251D01*
X170673532Y-98488177D01*
X170684963Y-98499058D01*
X170684963Y-98519172D01*
X170667158Y-98528844D01*
X170657156Y-98564784D01*
X170599893Y-98572258D01*
X170554171Y-98555662D01*
X170544499Y-98546759D01*
X170508229Y-98539505D01*
X170508229Y-98531042D01*
X170500535Y-98531042D01*
X170489214Y-98520381D01*
X170481960Y-98504884D01*
X170463935Y-98495321D01*
X170463935Y-98489826D01*
X170454153Y-98489826D01*
X170454153Y-98478615D01*
X170448218Y-98472790D01*
X170442833Y-98479714D01*
X170382189Y-98505661D01*
X170286762Y-98515875D01*
X170240710Y-98506422D01*
X170209275Y-98529943D01*
X170133328Y-98517523D01*
X170059469Y-98494552D01*
X170059469Y-98486309D01*
X170032431Y-98466635D01*
X170032431Y-98442125D01*
X169959781Y-98396293D01*
X169933293Y-98362551D01*
X169925819Y-98362551D01*
X169891797Y-98293949D01*
X169887131Y-98233627D01*
X169860042Y-98195844D01*
X169832067Y-98124927D01*
X169805445Y-98049661D01*
X169785136Y-98014468D01*
X169786419Y-97992596D01*
X169985500Y-97992596D01*
X169992864Y-98015128D01*
X169990336Y-98025239D01*
X170019572Y-98162626D01*
X170058700Y-98228901D01*
X170110357Y-98351670D01*
X170127943Y-98379367D01*
X170127943Y-98388270D01*
X170196966Y-98431354D01*
X170269197Y-98431394D01*
X170330725Y-98438388D01*
X170355894Y-98429156D01*
X170361939Y-98421023D01*
X170361939Y-98315620D01*
X170358128Y-98295792D01*
X170344684Y-98270227D01*
X170344684Y-98251543D01*
X170327538Y-98214723D01*
X170327538Y-98198237D01*
X170296104Y-98167022D01*
X170283794Y-98137567D01*
X170265659Y-98119542D01*
X170256207Y-98119542D01*
X170256207Y-98101077D01*
X170237302Y-98091625D01*
X170230378Y-98075468D01*
X170221366Y-98075468D01*
X170167987Y-98027406D01*
X170105191Y-97993256D01*
X170090244Y-97975780D01*
X170009900Y-97932916D01*
X169990226Y-97957206D01*
X169985500Y-97992596D01*
X169786419Y-97992596D01*
X169787554Y-97973252D01*
X169760626Y-97956107D01*
X169760626Y-97937971D01*
X169753262Y-97937971D01*
X169758416Y-97880020D01*
X169771287Y-97843559D01*
X169806788Y-97815642D01*
X169845036Y-97805421D01*
X169911861Y-97812565D01*
X169936261Y-97832129D01*
X169975498Y-97832129D01*
X169975498Y-97854331D01*
X170000017Y-97856874D01*
X170046830Y-97873015D01*
X170046830Y-97883456D01*
X170115743Y-97933135D01*
X170125854Y-97933135D01*
X170136186Y-97943357D01*
X170192130Y-97959074D01*
X170185095Y-97876422D01*
X170157948Y-97839383D01*
X170148056Y-97740355D01*
X170128685Y-97723601D01*
X170101015Y-97686059D01*
X170059469Y-97634402D01*
X170059469Y-97623741D01*
X170038696Y-97575381D01*
X170032102Y-97525042D01*
X170021770Y-97514821D01*
X170039795Y-97478771D01*
X170039795Y-97461405D01*
X170021111Y-97442720D01*
X170031003Y-97432828D01*
X170005833Y-97407769D01*
X169996601Y-97382160D01*
X169986709Y-97382160D01*
X169969234Y-97329184D01*
X169927688Y-97320062D01*
X169845586Y-97320062D01*
X169696837Y-97346097D01*
X169617414Y-97376445D01*
X169556085Y-97368861D01*
X169511461Y-97329624D01*
X169484314Y-97319842D01*
X169455518Y-97291155D01*
X169468707Y-97222462D01*
X169505966Y-97214439D01*
X169553777Y-97225540D01*
X169553777Y-97233673D01*
X169579827Y-97251403D01*
X169604335Y-97256754D01*
X169709188Y-97256754D01*
X169763374Y-97229167D01*
X169807337Y-97229167D01*
X169835364Y-97209932D01*
X169856137Y-97221583D01*
G37*
G36*
X168665819Y-97863233D02*
G01*
X168694066Y-97927750D01*
X168703738Y-97927750D01*
X168710662Y-97953249D01*
X168730446Y-97970505D01*
X168737700Y-97990068D01*
X168764298Y-98016447D01*
X168764298Y-98023371D01*
X168792545Y-98069313D01*
X168843653Y-98094812D01*
X168837058Y-98103715D01*
X168850797Y-98117453D01*
X168882670Y-98268359D01*
X168917182Y-98302760D01*
X168926964Y-98346834D01*
X168943670Y-98365848D01*
X168944353Y-98394999D01*
X168954221Y-98428057D01*
X168972137Y-98447181D01*
X168972137Y-98466415D01*
X168990382Y-98466415D01*
X169009396Y-98525986D01*
X169035386Y-98553349D01*
X169053250Y-98563795D01*
X169053250Y-98572258D01*
X169083990Y-98625829D01*
X169087541Y-98684585D01*
X169107435Y-98714371D01*
X169107435Y-98731297D01*
X169161510Y-98804167D01*
X169161510Y-98824829D01*
X169178766Y-98832193D01*
X169178766Y-98851428D01*
X169205804Y-98868683D01*
X169205804Y-98887368D01*
X169215696Y-98887368D01*
X169224068Y-98921206D01*
X169260648Y-99006619D01*
X169313295Y-99046846D01*
X169306371Y-99065311D01*
X169314394Y-99092129D01*
X169348686Y-99118947D01*
X169351214Y-99131257D01*
X169405179Y-99137741D01*
X169419687Y-99146094D01*
X169419687Y-99172582D01*
X169467872Y-99219032D01*
X169484644Y-99245672D01*
X169495964Y-99245672D01*
X169502779Y-99261609D01*
X169531245Y-99282272D01*
X169575319Y-99290845D01*
X169593674Y-99306782D01*
X169601257Y-99327005D01*
X169667313Y-99354922D01*
X169673248Y-99354922D01*
X169682810Y-99371628D01*
X169836793Y-99408778D01*
X169980664Y-99416251D01*
X170010669Y-99408338D01*
X170038864Y-99380044D01*
X170082110Y-99353383D01*
X170102993Y-99324477D01*
X170102993Y-99286888D01*
X170120249Y-99250838D01*
X170120249Y-99201159D01*
X170110467Y-99193795D01*
X170110467Y-99157085D01*
X170071889Y-99107846D01*
X170009460Y-99092678D01*
X169945823Y-99092678D01*
X169889989Y-99100262D01*
X169871524Y-99121585D01*
X169861491Y-99161785D01*
X169861413Y-99186321D01*
X169879438Y-99214678D01*
X169919267Y-99234066D01*
X169960990Y-99240396D01*
X170001437Y-99231714D01*
X170029354Y-99212260D01*
X170032102Y-99212260D01*
X170032102Y-99237649D01*
X170046500Y-99260950D01*
X170026277Y-99260950D01*
X169998030Y-99307881D01*
X169978026Y-99307881D01*
X169970223Y-99326565D01*
X169935272Y-99345909D01*
X169867697Y-99337500D01*
X169802941Y-99319641D01*
X169774694Y-99291944D01*
X169737714Y-99292430D01*
X169697482Y-99279217D01*
X169651816Y-99248859D01*
X169651816Y-99238308D01*
X169627306Y-99228636D01*
X169627306Y-99222261D01*
X169588288Y-99183573D01*
X169579166Y-99183573D01*
X169562020Y-99146864D01*
X169534323Y-99146864D01*
X169480247Y-99087293D01*
X169456984Y-99042329D01*
X169426392Y-98962985D01*
X169401658Y-98922851D01*
X169392430Y-98862309D01*
X169382538Y-98862309D01*
X169382538Y-98847801D01*
X169371767Y-98826038D01*
X169354621Y-98818565D01*
X169327144Y-98762181D01*
X169321099Y-98762181D01*
X169321099Y-98744376D01*
X169293951Y-98719426D01*
X169284279Y-98630070D01*
X169293547Y-98597421D01*
X169293511Y-98571599D01*
X169282960Y-98571599D01*
X169260319Y-98541373D01*
X169290331Y-98534735D01*
X169345169Y-98537087D01*
X169393089Y-98516094D01*
X169435184Y-98482242D01*
X169471235Y-98473559D01*
X169499921Y-98438498D01*
X169509593Y-98438498D01*
X169515754Y-98402492D01*
X169553227Y-98330458D01*
X169563339Y-98282537D01*
X169547072Y-98222307D01*
X169536301Y-98163066D01*
X169508604Y-98153064D01*
X169503768Y-98133720D01*
X169490689Y-98126466D01*
X169490689Y-98117014D01*
X169445846Y-98082063D01*
X169426831Y-98039198D01*
X169426831Y-98019304D01*
X169409905Y-97992816D01*
X169419577Y-97966108D01*
X169409905Y-97939400D01*
X169417819Y-97925222D01*
X169459366Y-97933503D01*
X169495305Y-97951051D01*
X169512218Y-97987204D01*
X169531355Y-98006775D01*
X169572831Y-98019579D01*
X169629944Y-98051618D01*
X169641264Y-98051618D01*
X169686877Y-98044364D01*
X169699077Y-98032603D01*
X169688086Y-98003477D01*
X169668082Y-97992047D01*
X169648079Y-98002049D01*
X169605983Y-97985452D01*
X169580045Y-97958964D01*
X169572681Y-97939181D01*
X169499591Y-97864882D01*
X169478379Y-97864882D01*
X169424084Y-97829821D01*
X169362644Y-97822567D01*
X169297908Y-97812455D01*
X169233501Y-97830590D01*
X169194153Y-97942588D01*
X169208442Y-97942588D01*
X169223060Y-97950941D01*
X169223060Y-97989299D01*
X169232841Y-97989299D01*
X169232841Y-97996663D01*
X169240645Y-97996663D01*
X169245261Y-98040956D01*
X169257351Y-98065137D01*
X169249987Y-98111518D01*
X169267793Y-98174826D01*
X169286917Y-98191642D01*
X169286917Y-98213294D01*
X169295819Y-98213294D01*
X169322857Y-98258797D01*
X169330221Y-98258797D01*
X169338354Y-98304299D01*
X169319026Y-98344012D01*
X169304173Y-98360573D01*
X169304173Y-98367057D01*
X169286290Y-98377255D01*
X169260319Y-98404097D01*
X169250647Y-98429925D01*
X169235809Y-98438279D01*
X169166456Y-98424650D01*
X169094136Y-98365079D01*
X169086442Y-98347164D01*
X169050502Y-98337712D01*
X169050502Y-98314741D01*
X169037294Y-98293555D01*
X169020936Y-98247146D01*
X168995767Y-98169440D01*
X168960376Y-98135698D01*
X168943230Y-98063048D01*
X168923886Y-98039088D01*
X168923886Y-98027108D01*
X168915423Y-98027108D01*
X168905532Y-98000290D01*
X168894211Y-98000290D01*
X168879043Y-97991827D01*
X168868932Y-97956546D01*
X168862337Y-97956546D01*
X168862337Y-97931926D01*
X168852555Y-97922254D01*
X168852555Y-97861475D01*
X168823869Y-97832788D01*
X168741547Y-97805421D01*
X168684284Y-97805421D01*
X168665819Y-97863233D01*
G37*
D12*
G36*
X119585056Y-78970750D02*
G01*
X119585056Y-79045000D01*
X119930629Y-79045000D01*
X119930629Y-78961438D01*
X119787442Y-78866122D01*
X119743955Y-78834500D01*
X119715442Y-78808697D01*
X119698232Y-78787690D01*
X119684925Y-78764107D01*
X119677717Y-78743479D01*
X119675487Y-78725133D01*
X119678071Y-78703316D01*
X119685570Y-78684415D01*
X119698110Y-78667736D01*
X119714450Y-78654924D01*
X119733730Y-78647158D01*
X119756820Y-78644441D01*
X119781302Y-78647161D01*
X119801182Y-78654823D01*
X119817499Y-78667254D01*
X119830815Y-78685049D01*
X119841124Y-78709486D01*
X119847862Y-78742383D01*
X119930751Y-78722355D01*
X119923682Y-78691287D01*
X119912136Y-78663012D01*
X119896059Y-78637106D01*
X119875156Y-78613270D01*
X119850766Y-78593893D01*
X119822934Y-78579932D01*
X119790999Y-78571270D01*
X119754072Y-78568237D01*
X119715638Y-78571272D01*
X119682773Y-78579886D01*
X119654503Y-78593663D01*
X119630088Y-78612629D01*
X119609818Y-78636262D01*
X119595474Y-78662530D01*
X119586714Y-78691970D01*
X119583682Y-78725347D01*
X119586258Y-78754763D01*
X119593872Y-78782246D01*
X119606599Y-78808259D01*
X119624837Y-78833149D01*
X119656288Y-78862359D01*
X119718303Y-78906457D01*
X119825208Y-78970750D01*
X119585056Y-78970750D01*
G37*
G36*
X119421352Y-78955118D02*
G01*
X119421352Y-79045000D01*
X119507662Y-79045000D01*
X119507662Y-78955118D01*
X119421352Y-78955118D01*
G37*
G36*
X119338859Y-78576053D02*
G01*
X119006017Y-78576053D01*
X119006017Y-78637022D01*
X119048975Y-78696265D01*
X119081313Y-78747722D01*
X119104621Y-78792315D01*
X119120323Y-78830921D01*
X119135560Y-78886297D01*
X119147227Y-78956706D01*
X119154273Y-79045000D01*
X119252245Y-79045000D01*
X119245688Y-78980396D01*
X119233169Y-78919088D01*
X119214800Y-78860694D01*
X119190565Y-78804878D01*
X119160324Y-78751352D01*
X119123816Y-78699885D01*
X119080664Y-78650303D01*
X119346187Y-78650303D01*
X119338859Y-78576053D01*
G37*
G36*
X118897085Y-78576053D02*
G01*
X118605154Y-78576053D01*
X118612848Y-78650303D01*
X118833857Y-78650303D01*
X118846435Y-78782561D01*
X118824523Y-78760570D01*
X118799616Y-78745105D01*
X118771114Y-78735657D01*
X118738083Y-78732369D01*
X118705095Y-78735368D01*
X118675478Y-78744098D01*
X118648553Y-78758498D01*
X118623838Y-78778958D01*
X118603192Y-78803714D01*
X118588811Y-78830085D01*
X118580186Y-78858493D01*
X118577249Y-78889539D01*
X118580325Y-78921892D01*
X118589358Y-78951453D01*
X118604415Y-78978856D01*
X118626037Y-79004547D01*
X118651775Y-79025080D01*
X118682034Y-79040061D01*
X118717700Y-79049479D01*
X118759943Y-79052815D01*
X118804101Y-79049194D01*
X118843217Y-79038746D01*
X118878187Y-79021735D01*
X118900945Y-79004316D01*
X118919408Y-78982653D01*
X118933857Y-78956179D01*
X118944193Y-78924008D01*
X118861731Y-78912009D01*
X118849804Y-78938175D01*
X118834479Y-78957440D01*
X118815666Y-78971034D01*
X118792686Y-78979470D01*
X118764370Y-78982473D01*
X118735353Y-78979156D01*
X118712561Y-78969920D01*
X118694547Y-78955057D01*
X118681001Y-78935599D01*
X118672864Y-78913698D01*
X118670061Y-78888623D01*
X118672858Y-78863805D01*
X118680951Y-78842321D01*
X118694394Y-78823410D01*
X118712082Y-78808734D01*
X118732823Y-78799918D01*
X118757561Y-78796849D01*
X118785350Y-78800308D01*
X118808979Y-78810305D01*
X118829453Y-78827036D01*
X118847229Y-78851681D01*
X118923921Y-78835714D01*
X118897085Y-78576053D01*
G37*
G36*
X118228379Y-79045000D02*
G01*
X118302751Y-79045000D01*
X118301774Y-78970200D01*
X118316144Y-79001325D01*
X118333910Y-79023994D01*
X118355088Y-79039769D01*
X118380310Y-79049419D01*
X118410737Y-79052815D01*
X118441174Y-79049302D01*
X118465909Y-79039379D01*
X118486238Y-79023201D01*
X118501257Y-79001864D01*
X118510746Y-78974899D01*
X118514173Y-78940708D01*
X118514173Y-78697198D01*
X118432657Y-78697198D01*
X118432657Y-78922970D01*
X118430405Y-78946927D01*
X118424746Y-78962044D01*
X118416598Y-78971086D01*
X118400207Y-78979802D01*
X118385122Y-78982473D01*
X118369251Y-78980227D01*
X118352466Y-78973096D01*
X118334228Y-78960034D01*
X118324277Y-78948058D01*
X118316149Y-78929653D01*
X118310431Y-78902549D01*
X118308216Y-78863924D01*
X118308216Y-78697198D01*
X118228379Y-78697198D01*
X118228379Y-79045000D01*
G37*
G36*
X119208220Y-79890312D02*
G01*
X119208220Y-79862926D01*
X119151371Y-79894067D01*
X119102677Y-79928994D01*
X119102677Y-79425823D01*
X119066223Y-79425823D01*
X119066223Y-79929421D01*
X119042486Y-79909257D01*
X119008194Y-79887154D01*
X118960680Y-79862957D01*
X118960680Y-79890342D01*
X119003920Y-79931189D01*
X119036706Y-79968030D01*
X119060649Y-80001323D01*
X119077153Y-80031545D01*
X119094189Y-80031545D01*
X119108091Y-80003976D01*
X119130320Y-79971824D01*
X119162913Y-79934230D01*
X119208220Y-79890312D01*
G37*
G36*
X125975056Y-78940750D02*
G01*
X125975056Y-79015000D01*
X126320629Y-79015000D01*
X126320629Y-78931438D01*
X126177442Y-78836122D01*
X126133955Y-78804500D01*
X126105442Y-78778697D01*
X126088232Y-78757690D01*
X126074925Y-78734107D01*
X126067717Y-78713479D01*
X126065487Y-78695133D01*
X126068071Y-78673316D01*
X126075570Y-78654415D01*
X126088110Y-78637736D01*
X126104450Y-78624924D01*
X126123730Y-78617158D01*
X126146820Y-78614441D01*
X126171302Y-78617161D01*
X126191182Y-78624823D01*
X126207499Y-78637254D01*
X126220815Y-78655049D01*
X126231124Y-78679486D01*
X126237862Y-78712383D01*
X126320751Y-78692355D01*
X126313682Y-78661287D01*
X126302136Y-78633012D01*
X126286059Y-78607106D01*
X126265156Y-78583270D01*
X126240766Y-78563893D01*
X126212934Y-78549932D01*
X126180999Y-78541270D01*
X126144072Y-78538237D01*
X126105638Y-78541272D01*
X126072773Y-78549886D01*
X126044503Y-78563663D01*
X126020088Y-78582629D01*
X125999818Y-78606262D01*
X125985474Y-78632530D01*
X125976714Y-78661970D01*
X125973682Y-78695347D01*
X125976258Y-78724763D01*
X125983872Y-78752246D01*
X125996599Y-78778259D01*
X126014837Y-78803149D01*
X126046288Y-78832359D01*
X126108303Y-78876457D01*
X126215208Y-78940750D01*
X125975056Y-78940750D01*
G37*
G36*
X125607074Y-79015000D02*
G01*
X125681446Y-79015000D01*
X125680469Y-78940200D01*
X125694839Y-78971325D01*
X125712605Y-78993994D01*
X125733783Y-79009769D01*
X125759005Y-79019419D01*
X125789432Y-79022815D01*
X125819869Y-79019302D01*
X125844604Y-79009379D01*
X125864933Y-78993201D01*
X125879952Y-78971864D01*
X125889441Y-78944899D01*
X125892868Y-78910708D01*
X125892868Y-78667198D01*
X125811352Y-78667198D01*
X125811352Y-78892970D01*
X125809100Y-78916927D01*
X125803441Y-78932044D01*
X125795293Y-78941086D01*
X125778902Y-78949802D01*
X125763817Y-78952473D01*
X125747946Y-78950227D01*
X125731161Y-78943096D01*
X125712923Y-78930034D01*
X125702972Y-78918058D01*
X125694844Y-78899653D01*
X125689126Y-78872549D01*
X125686911Y-78833924D01*
X125686911Y-78667198D01*
X125607074Y-78667198D01*
X125607074Y-79015000D01*
G37*
G36*
X124137862Y-78940750D02*
G01*
X124137862Y-79015000D01*
X124483435Y-79015000D01*
X124483435Y-78931438D01*
X124340247Y-78836122D01*
X124296761Y-78804500D01*
X124268247Y-78778697D01*
X124251038Y-78757690D01*
X124237730Y-78734107D01*
X124230522Y-78713479D01*
X124228292Y-78695133D01*
X124230876Y-78673316D01*
X124238376Y-78654415D01*
X124250915Y-78637736D01*
X124267255Y-78624924D01*
X124286535Y-78617158D01*
X124309625Y-78614441D01*
X124334107Y-78617161D01*
X124353987Y-78624823D01*
X124370304Y-78637254D01*
X124383620Y-78655049D01*
X124393930Y-78679486D01*
X124400667Y-78712383D01*
X124483557Y-78692355D01*
X124476487Y-78661287D01*
X124464941Y-78633012D01*
X124448864Y-78607106D01*
X124427961Y-78583270D01*
X124403571Y-78563893D01*
X124375739Y-78549932D01*
X124343804Y-78541270D01*
X124306878Y-78538237D01*
X124268444Y-78541272D01*
X124235578Y-78549886D01*
X124207308Y-78563663D01*
X124182894Y-78582629D01*
X124162623Y-78606262D01*
X124148279Y-78632530D01*
X124139519Y-78661970D01*
X124136488Y-78695347D01*
X124139064Y-78724763D01*
X124146677Y-78752246D01*
X124159404Y-78778259D01*
X124177643Y-78803149D01*
X124209093Y-78832359D01*
X124271108Y-78876457D01*
X124378013Y-78940750D01*
X124137862Y-78940750D01*
G37*
G36*
X123974158Y-78925118D02*
G01*
X123974158Y-79015000D01*
X124060467Y-79015000D01*
X124060467Y-78925118D01*
X123974158Y-78925118D01*
G37*
G36*
X123559494Y-78940750D02*
G01*
X123559494Y-79015000D01*
X123905068Y-79015000D01*
X123905068Y-78931438D01*
X123761880Y-78836122D01*
X123718394Y-78804500D01*
X123689880Y-78778697D01*
X123672670Y-78757690D01*
X123659363Y-78734107D01*
X123652155Y-78713479D01*
X123649925Y-78695133D01*
X123652509Y-78673316D01*
X123660009Y-78654415D01*
X123672548Y-78637736D01*
X123688888Y-78624924D01*
X123708168Y-78617158D01*
X123731258Y-78614441D01*
X123755740Y-78617161D01*
X123775620Y-78624823D01*
X123791937Y-78637254D01*
X123805253Y-78655049D01*
X123815563Y-78679486D01*
X123822300Y-78712383D01*
X123905190Y-78692355D01*
X123898120Y-78661287D01*
X123886574Y-78633012D01*
X123870497Y-78607106D01*
X123849594Y-78583270D01*
X123825204Y-78563893D01*
X123797372Y-78549932D01*
X123765437Y-78541270D01*
X123728510Y-78538237D01*
X123690076Y-78541272D01*
X123657211Y-78549886D01*
X123628941Y-78563663D01*
X123604527Y-78582629D01*
X123584256Y-78606262D01*
X123569912Y-78632530D01*
X123561152Y-78661970D01*
X123558121Y-78695347D01*
X123560697Y-78724763D01*
X123568310Y-78752246D01*
X123581037Y-78778259D01*
X123599275Y-78803149D01*
X123630726Y-78832359D01*
X123692741Y-78876457D01*
X123799646Y-78940750D01*
X123559494Y-78940750D01*
G37*
G36*
X123449890Y-78546053D02*
G01*
X123157959Y-78546053D01*
X123165653Y-78620303D01*
X123386662Y-78620303D01*
X123399241Y-78752561D01*
X123377328Y-78730570D01*
X123352422Y-78715105D01*
X123323920Y-78705657D01*
X123290888Y-78702369D01*
X123257901Y-78705368D01*
X123228284Y-78714098D01*
X123201359Y-78728498D01*
X123176644Y-78748958D01*
X123155997Y-78773714D01*
X123141617Y-78800085D01*
X123132991Y-78828493D01*
X123130054Y-78859539D01*
X123133131Y-78891892D01*
X123142163Y-78921453D01*
X123157220Y-78948856D01*
X123178842Y-78974547D01*
X123204580Y-78995080D01*
X123234839Y-79010061D01*
X123270505Y-79019479D01*
X123312748Y-79022815D01*
X123356907Y-79019194D01*
X123396022Y-79008746D01*
X123430992Y-78991735D01*
X123453751Y-78974316D01*
X123472213Y-78952653D01*
X123486662Y-78926179D01*
X123496999Y-78894008D01*
X123414536Y-78882009D01*
X123402609Y-78908175D01*
X123387284Y-78927440D01*
X123368471Y-78941034D01*
X123345492Y-78949470D01*
X123317175Y-78952473D01*
X123288158Y-78949156D01*
X123265366Y-78939920D01*
X123247352Y-78925057D01*
X123233806Y-78905599D01*
X123225670Y-78883698D01*
X123222867Y-78858623D01*
X123225664Y-78833805D01*
X123233756Y-78812321D01*
X123247199Y-78793410D01*
X123264887Y-78778734D01*
X123285628Y-78769918D01*
X123310367Y-78766849D01*
X123338155Y-78770308D01*
X123361784Y-78780305D01*
X123382258Y-78797036D01*
X123400034Y-78821681D01*
X123476727Y-78805714D01*
X123449890Y-78546053D01*
G37*
G36*
X122781184Y-79015000D02*
G01*
X122855556Y-79015000D01*
X122854579Y-78940200D01*
X122868949Y-78971325D01*
X122886715Y-78993994D01*
X122907893Y-79009769D01*
X122933115Y-79019419D01*
X122963542Y-79022815D01*
X122993979Y-79019302D01*
X123018714Y-79009379D01*
X123039043Y-78993201D01*
X123054062Y-78971864D01*
X123063551Y-78944899D01*
X123066979Y-78910708D01*
X123066979Y-78667198D01*
X122985463Y-78667198D01*
X122985463Y-78892970D01*
X122983210Y-78916927D01*
X122977551Y-78932044D01*
X122969404Y-78941086D01*
X122953012Y-78949802D01*
X122937927Y-78952473D01*
X122922057Y-78950227D01*
X122905272Y-78943096D01*
X122887033Y-78930034D01*
X122877082Y-78918058D01*
X122868954Y-78899653D01*
X122863237Y-78872549D01*
X122861021Y-78833924D01*
X122861021Y-78667198D01*
X122781184Y-78667198D01*
X122781184Y-79015000D01*
G37*
G36*
X126122854Y-79860312D02*
G01*
X126122854Y-79832926D01*
X126066005Y-79864067D01*
X126017310Y-79898994D01*
X126017310Y-79395823D01*
X125980857Y-79395823D01*
X125980857Y-79899421D01*
X125957120Y-79879257D01*
X125922827Y-79857154D01*
X125875314Y-79832957D01*
X125875314Y-79860342D01*
X125918554Y-79901189D01*
X125951340Y-79938030D01*
X125975282Y-79971323D01*
X125991787Y-80001545D01*
X126008823Y-80001545D01*
X126022725Y-79973976D01*
X126044954Y-79941824D01*
X126077547Y-79904230D01*
X126122854Y-79860312D01*
G37*
G36*
X123674563Y-79860312D02*
G01*
X123674563Y-79832926D01*
X123617714Y-79864067D01*
X123569020Y-79898994D01*
X123569020Y-79395823D01*
X123532567Y-79395823D01*
X123532567Y-79899421D01*
X123508829Y-79879257D01*
X123474537Y-79857154D01*
X123427023Y-79832957D01*
X123427023Y-79860342D01*
X123470263Y-79901189D01*
X123503049Y-79938030D01*
X123526992Y-79971323D01*
X123543497Y-80001545D01*
X123560532Y-80001545D01*
X123574434Y-79973976D01*
X123596663Y-79941824D01*
X123629257Y-79904230D01*
X123674563Y-79860312D01*
G37*
G36*
X131188220Y-92757056D02*
G01*
X131142913Y-92713138D01*
X131110320Y-92675544D01*
X131088091Y-92643392D01*
X131074189Y-92615823D01*
X131057153Y-92615823D01*
X131040649Y-92646045D01*
X131016706Y-92679339D01*
X130983920Y-92716179D01*
X130940680Y-92757026D01*
X130940680Y-92784412D01*
X130988194Y-92760214D01*
X131022486Y-92738112D01*
X131046223Y-92717947D01*
X131046223Y-93221545D01*
X131082677Y-93221545D01*
X131082677Y-92718344D01*
X131131370Y-92753278D01*
X131188220Y-92784442D01*
X131188220Y-92757056D01*
G37*
G36*
X131565056Y-93840750D02*
G01*
X131565056Y-93915000D01*
X131910629Y-93915000D01*
X131910629Y-93831438D01*
X131767442Y-93736122D01*
X131723955Y-93704500D01*
X131695442Y-93678697D01*
X131678232Y-93657690D01*
X131664925Y-93634107D01*
X131657717Y-93613479D01*
X131655487Y-93595133D01*
X131658071Y-93573316D01*
X131665570Y-93554415D01*
X131678110Y-93537736D01*
X131694450Y-93524924D01*
X131713730Y-93517158D01*
X131736820Y-93514441D01*
X131761302Y-93517161D01*
X131781182Y-93524823D01*
X131797499Y-93537254D01*
X131810815Y-93555049D01*
X131821124Y-93579486D01*
X131827862Y-93612383D01*
X131910751Y-93592355D01*
X131903682Y-93561287D01*
X131892136Y-93533012D01*
X131876059Y-93507106D01*
X131855156Y-93483270D01*
X131830766Y-93463893D01*
X131802934Y-93449932D01*
X131770999Y-93441270D01*
X131734072Y-93438237D01*
X131695638Y-93441272D01*
X131662773Y-93449886D01*
X131634503Y-93463663D01*
X131610088Y-93482629D01*
X131589818Y-93506262D01*
X131575474Y-93532530D01*
X131566714Y-93561970D01*
X131563682Y-93595347D01*
X131566258Y-93624763D01*
X131573872Y-93652246D01*
X131586599Y-93678259D01*
X131604837Y-93703149D01*
X131636288Y-93732359D01*
X131698303Y-93776457D01*
X131805208Y-93840750D01*
X131565056Y-93840750D01*
G37*
G36*
X131401352Y-93825118D02*
G01*
X131401352Y-93915000D01*
X131487662Y-93915000D01*
X131487662Y-93825118D01*
X131401352Y-93825118D01*
G37*
G36*
X131318859Y-93446053D02*
G01*
X130986017Y-93446053D01*
X130986017Y-93507022D01*
X131028975Y-93566265D01*
X131061313Y-93617722D01*
X131084621Y-93662315D01*
X131100323Y-93700921D01*
X131115560Y-93756297D01*
X131127227Y-93826706D01*
X131134273Y-93915000D01*
X131232245Y-93915000D01*
X131225688Y-93850396D01*
X131213169Y-93789088D01*
X131194800Y-93730694D01*
X131170565Y-93674878D01*
X131140324Y-93621352D01*
X131103816Y-93569885D01*
X131060664Y-93520303D01*
X131326187Y-93520303D01*
X131318859Y-93446053D01*
G37*
G36*
X130877085Y-93446053D02*
G01*
X130585154Y-93446053D01*
X130592848Y-93520303D01*
X130813857Y-93520303D01*
X130826435Y-93652561D01*
X130804523Y-93630570D01*
X130779616Y-93615105D01*
X130751114Y-93605657D01*
X130718083Y-93602369D01*
X130685095Y-93605368D01*
X130655478Y-93614098D01*
X130628553Y-93628498D01*
X130603838Y-93648958D01*
X130583192Y-93673714D01*
X130568811Y-93700085D01*
X130560186Y-93728493D01*
X130557249Y-93759539D01*
X130560325Y-93791892D01*
X130569358Y-93821453D01*
X130584415Y-93848856D01*
X130606037Y-93874547D01*
X130631775Y-93895080D01*
X130662034Y-93910061D01*
X130697700Y-93919479D01*
X130739943Y-93922815D01*
X130784101Y-93919194D01*
X130823217Y-93908746D01*
X130858187Y-93891735D01*
X130880945Y-93874316D01*
X130899408Y-93852653D01*
X130913857Y-93826179D01*
X130924193Y-93794008D01*
X130841731Y-93782009D01*
X130829804Y-93808175D01*
X130814479Y-93827440D01*
X130795666Y-93841034D01*
X130772686Y-93849470D01*
X130744370Y-93852473D01*
X130715353Y-93849156D01*
X130692561Y-93839920D01*
X130674547Y-93825057D01*
X130661001Y-93805599D01*
X130652864Y-93783698D01*
X130650061Y-93758623D01*
X130652858Y-93733805D01*
X130660951Y-93712321D01*
X130674394Y-93693410D01*
X130692082Y-93678734D01*
X130712823Y-93669918D01*
X130737561Y-93666849D01*
X130765350Y-93670308D01*
X130788979Y-93680305D01*
X130809453Y-93697036D01*
X130827229Y-93721681D01*
X130903921Y-93705714D01*
X130877085Y-93446053D01*
G37*
G36*
X130208379Y-93915000D02*
G01*
X130282751Y-93915000D01*
X130281774Y-93840200D01*
X130296144Y-93871325D01*
X130313910Y-93893994D01*
X130335088Y-93909769D01*
X130360310Y-93919419D01*
X130390737Y-93922815D01*
X130421174Y-93919302D01*
X130445909Y-93909379D01*
X130466238Y-93893201D01*
X130481257Y-93871864D01*
X130490746Y-93844899D01*
X130494173Y-93810708D01*
X130494173Y-93567198D01*
X130412657Y-93567198D01*
X130412657Y-93792970D01*
X130410405Y-93816927D01*
X130404746Y-93832044D01*
X130396598Y-93841086D01*
X130380207Y-93849802D01*
X130365122Y-93852473D01*
X130349251Y-93850227D01*
X130332466Y-93843096D01*
X130314228Y-93830034D01*
X130304277Y-93818058D01*
X130296149Y-93799653D01*
X130290431Y-93772549D01*
X130288216Y-93733924D01*
X130288216Y-93567198D01*
X130208379Y-93567198D01*
X130208379Y-93915000D01*
G37*
G36*
X140667976Y-92787056D02*
G01*
X140622669Y-92743138D01*
X140590076Y-92705544D01*
X140567847Y-92673392D01*
X140553945Y-92645823D01*
X140536909Y-92645823D01*
X140520404Y-92676045D01*
X140496462Y-92709339D01*
X140463676Y-92746179D01*
X140420436Y-92787026D01*
X140420436Y-92814412D01*
X140467949Y-92790214D01*
X140502242Y-92768112D01*
X140525979Y-92747947D01*
X140525979Y-93251545D01*
X140562432Y-93251545D01*
X140562432Y-92748344D01*
X140611125Y-92783278D01*
X140667976Y-92814442D01*
X140667976Y-92787056D01*
G37*
G36*
X138044808Y-92787056D02*
G01*
X137999501Y-92743138D01*
X137966908Y-92705544D01*
X137944679Y-92673392D01*
X137930777Y-92645823D01*
X137913741Y-92645823D01*
X137897236Y-92676045D01*
X137873293Y-92709339D01*
X137840508Y-92746179D01*
X137797267Y-92787026D01*
X137797267Y-92814412D01*
X137844781Y-92790214D01*
X137879074Y-92768112D01*
X137902811Y-92747947D01*
X137902811Y-93251545D01*
X137939264Y-93251545D01*
X137939264Y-92748344D01*
X137987957Y-92783278D01*
X138044808Y-92814442D01*
X138044808Y-92787056D01*
G37*
G36*
X135771395Y-92787056D02*
G01*
X135726088Y-92743138D01*
X135693495Y-92705544D01*
X135671266Y-92673392D01*
X135657364Y-92645823D01*
X135640328Y-92645823D01*
X135623824Y-92676045D01*
X135599881Y-92709339D01*
X135567095Y-92746179D01*
X135523855Y-92787026D01*
X135523855Y-92814412D01*
X135571369Y-92790214D01*
X135605661Y-92768112D01*
X135629398Y-92747947D01*
X135629398Y-93251545D01*
X135665852Y-93251545D01*
X135665852Y-92748344D01*
X135714545Y-92783278D01*
X135771395Y-92814442D01*
X135771395Y-92787056D01*
G37*
G36*
X140663305Y-93945000D02*
G01*
X141022189Y-93945000D01*
X141022189Y-93874658D01*
X140881810Y-93874658D01*
X140881810Y-93584680D01*
X140929227Y-93622574D01*
X140971459Y-93649769D01*
X141009214Y-93667998D01*
X141009214Y-93581871D01*
X140955972Y-93560240D01*
X140935696Y-93549937D01*
X140919689Y-93538149D01*
X140892801Y-93515040D01*
X140867454Y-93489208D01*
X140852715Y-93468237D01*
X140795135Y-93468237D01*
X140795135Y-93874658D01*
X140663305Y-93874658D01*
X140663305Y-93945000D01*
G37*
G36*
X140523537Y-93855118D02*
G01*
X140523537Y-93945000D01*
X140609846Y-93945000D01*
X140609846Y-93855118D01*
X140523537Y-93855118D01*
G37*
G36*
X140432739Y-93476053D02*
G01*
X140099897Y-93476053D01*
X140099897Y-93537022D01*
X140142855Y-93596265D01*
X140175193Y-93647722D01*
X140198501Y-93692315D01*
X140214203Y-93730921D01*
X140229440Y-93786297D01*
X140241107Y-93856706D01*
X140248153Y-93945000D01*
X140346125Y-93945000D01*
X140339568Y-93880396D01*
X140327049Y-93819088D01*
X140308680Y-93760694D01*
X140284445Y-93704878D01*
X140254204Y-93651352D01*
X140217696Y-93599885D01*
X140174544Y-93550303D01*
X140440067Y-93550303D01*
X140432739Y-93476053D01*
G37*
G36*
X139990965Y-93476053D02*
G01*
X139699034Y-93476053D01*
X139706728Y-93550303D01*
X139927737Y-93550303D01*
X139940315Y-93682561D01*
X139918402Y-93660570D01*
X139893496Y-93645105D01*
X139864994Y-93635657D01*
X139831963Y-93632369D01*
X139798975Y-93635368D01*
X139769358Y-93644098D01*
X139742433Y-93658498D01*
X139717718Y-93678958D01*
X139697072Y-93703714D01*
X139682691Y-93730085D01*
X139674066Y-93758493D01*
X139671129Y-93789539D01*
X139674205Y-93821892D01*
X139683238Y-93851453D01*
X139698295Y-93878856D01*
X139719917Y-93904547D01*
X139745655Y-93925080D01*
X139775914Y-93940061D01*
X139811580Y-93949479D01*
X139853823Y-93952815D01*
X139897981Y-93949194D01*
X139937097Y-93938746D01*
X139972067Y-93921735D01*
X139994825Y-93904316D01*
X140013288Y-93882653D01*
X140027737Y-93856179D01*
X140038073Y-93824008D01*
X139955611Y-93812009D01*
X139943683Y-93838175D01*
X139928359Y-93857440D01*
X139909546Y-93871034D01*
X139886566Y-93879470D01*
X139858250Y-93882473D01*
X139829233Y-93879156D01*
X139806441Y-93869920D01*
X139788427Y-93855057D01*
X139774881Y-93835599D01*
X139766744Y-93813698D01*
X139763941Y-93788623D01*
X139766738Y-93763805D01*
X139774831Y-93742321D01*
X139788274Y-93723410D01*
X139805962Y-93708734D01*
X139826703Y-93699918D01*
X139851441Y-93696849D01*
X139879230Y-93700308D01*
X139902859Y-93710305D01*
X139923332Y-93727036D01*
X139941109Y-93751681D01*
X140017801Y-93735714D01*
X139990965Y-93476053D01*
G37*
G36*
X139322259Y-93945000D02*
G01*
X139396631Y-93945000D01*
X139395654Y-93870200D01*
X139410024Y-93901325D01*
X139427790Y-93923994D01*
X139448968Y-93939769D01*
X139474190Y-93949419D01*
X139504617Y-93952815D01*
X139535054Y-93949302D01*
X139559789Y-93939379D01*
X139580118Y-93923201D01*
X139595137Y-93901864D01*
X139604626Y-93874899D01*
X139608053Y-93840708D01*
X139608053Y-93597198D01*
X139526537Y-93597198D01*
X139526537Y-93822970D01*
X139524285Y-93846927D01*
X139518626Y-93862044D01*
X139510478Y-93871086D01*
X139494087Y-93879802D01*
X139479002Y-93882473D01*
X139463131Y-93880227D01*
X139446346Y-93873096D01*
X139428107Y-93860034D01*
X139418157Y-93848058D01*
X139410029Y-93829653D01*
X139404311Y-93802549D01*
X139402096Y-93763924D01*
X139402096Y-93597198D01*
X139322259Y-93597198D01*
X139322259Y-93945000D01*
G37*
G36*
X138967130Y-93476053D02*
G01*
X138885919Y-93476053D01*
X138885919Y-94062236D01*
X138967130Y-94062236D01*
X138967130Y-93476053D01*
G37*
G36*
X138027924Y-93870750D02*
G01*
X138027924Y-93945000D01*
X138373497Y-93945000D01*
X138373497Y-93861438D01*
X138230310Y-93766122D01*
X138186823Y-93734500D01*
X138158310Y-93708697D01*
X138141100Y-93687690D01*
X138127793Y-93664107D01*
X138120585Y-93643479D01*
X138118355Y-93625133D01*
X138120939Y-93603316D01*
X138128439Y-93584415D01*
X138140978Y-93567736D01*
X138157318Y-93554924D01*
X138176598Y-93547158D01*
X138199688Y-93544441D01*
X138224170Y-93547161D01*
X138244050Y-93554823D01*
X138260367Y-93567254D01*
X138273683Y-93585049D01*
X138283992Y-93609486D01*
X138290730Y-93642383D01*
X138373620Y-93622355D01*
X138366550Y-93591287D01*
X138355004Y-93563012D01*
X138338927Y-93537106D01*
X138318024Y-93513270D01*
X138293634Y-93493893D01*
X138265802Y-93479932D01*
X138233867Y-93471270D01*
X138196940Y-93468237D01*
X138158506Y-93471272D01*
X138125641Y-93479886D01*
X138097371Y-93493663D01*
X138072957Y-93512629D01*
X138052686Y-93536262D01*
X138038342Y-93562530D01*
X138029582Y-93591970D01*
X138026550Y-93625347D01*
X138029126Y-93654763D01*
X138036740Y-93682246D01*
X138049467Y-93708259D01*
X138067705Y-93733149D01*
X138099156Y-93762359D01*
X138161171Y-93806457D01*
X138268076Y-93870750D01*
X138027924Y-93870750D01*
G37*
G36*
X137659942Y-93945000D02*
G01*
X137734314Y-93945000D01*
X137733337Y-93870200D01*
X137747707Y-93901325D01*
X137765473Y-93923994D01*
X137786651Y-93939769D01*
X137811873Y-93949419D01*
X137842300Y-93952815D01*
X137872737Y-93949302D01*
X137897472Y-93939379D01*
X137917801Y-93923201D01*
X137932820Y-93901864D01*
X137942309Y-93874899D01*
X137945737Y-93840708D01*
X137945737Y-93597198D01*
X137864221Y-93597198D01*
X137864221Y-93822970D01*
X137861968Y-93846927D01*
X137856309Y-93862044D01*
X137848162Y-93871086D01*
X137831770Y-93879802D01*
X137816685Y-93882473D01*
X137800814Y-93880227D01*
X137784029Y-93873096D01*
X137765791Y-93860034D01*
X137755840Y-93848058D01*
X137747712Y-93829653D01*
X137741994Y-93802549D01*
X137739779Y-93763924D01*
X137739779Y-93597198D01*
X137659942Y-93597198D01*
X137659942Y-93945000D01*
G37*
G36*
X137304813Y-93476053D02*
G01*
X137223602Y-93476053D01*
X137223602Y-94062236D01*
X137304813Y-94062236D01*
X137304813Y-93476053D01*
G37*
G36*
X136365607Y-93870750D02*
G01*
X136365607Y-93945000D01*
X136711181Y-93945000D01*
X136711181Y-93861438D01*
X136567993Y-93766122D01*
X136524507Y-93734500D01*
X136495993Y-93708697D01*
X136478784Y-93687690D01*
X136465476Y-93664107D01*
X136458268Y-93643479D01*
X136456038Y-93625133D01*
X136458622Y-93603316D01*
X136466122Y-93584415D01*
X136478661Y-93567736D01*
X136495001Y-93554924D01*
X136514281Y-93547158D01*
X136537371Y-93544441D01*
X136561853Y-93547161D01*
X136581733Y-93554823D01*
X136598050Y-93567254D01*
X136611366Y-93585049D01*
X136621676Y-93609486D01*
X136628413Y-93642383D01*
X136711303Y-93622355D01*
X136704233Y-93591287D01*
X136692687Y-93563012D01*
X136676610Y-93537106D01*
X136655707Y-93513270D01*
X136631317Y-93493893D01*
X136603485Y-93479932D01*
X136571550Y-93471270D01*
X136534624Y-93468237D01*
X136496190Y-93471272D01*
X136463324Y-93479886D01*
X136435054Y-93493663D01*
X136410640Y-93512629D01*
X136390369Y-93536262D01*
X136376025Y-93562530D01*
X136367265Y-93591970D01*
X136364234Y-93625347D01*
X136366810Y-93654763D01*
X136374423Y-93682246D01*
X136387150Y-93708259D01*
X136405389Y-93733149D01*
X136436839Y-93762359D01*
X136498854Y-93806457D01*
X136605759Y-93870750D01*
X136365607Y-93870750D01*
G37*
G36*
X136201904Y-93855118D02*
G01*
X136201904Y-93945000D01*
X136288213Y-93945000D01*
X136288213Y-93855118D01*
X136201904Y-93855118D01*
G37*
G36*
X135787240Y-93870750D02*
G01*
X135787240Y-93945000D01*
X136132814Y-93945000D01*
X136132814Y-93861438D01*
X135989626Y-93766122D01*
X135946140Y-93734500D01*
X135917626Y-93708697D01*
X135900416Y-93687690D01*
X135887109Y-93664107D01*
X135879901Y-93643479D01*
X135877671Y-93625133D01*
X135880255Y-93603316D01*
X135887755Y-93584415D01*
X135900294Y-93567736D01*
X135916634Y-93554924D01*
X135935914Y-93547158D01*
X135959004Y-93544441D01*
X135983486Y-93547161D01*
X136003366Y-93554823D01*
X136019683Y-93567254D01*
X136032999Y-93585049D01*
X136043309Y-93609486D01*
X136050046Y-93642383D01*
X136132936Y-93622355D01*
X136125866Y-93591287D01*
X136114320Y-93563012D01*
X136098243Y-93537106D01*
X136077340Y-93513270D01*
X136052950Y-93493893D01*
X136025118Y-93479932D01*
X135993183Y-93471270D01*
X135956256Y-93468237D01*
X135917822Y-93471272D01*
X135884957Y-93479886D01*
X135856687Y-93493663D01*
X135832273Y-93512629D01*
X135812002Y-93536262D01*
X135797658Y-93562530D01*
X135788898Y-93591970D01*
X135785867Y-93625347D01*
X135788443Y-93654763D01*
X135796056Y-93682246D01*
X135808783Y-93708259D01*
X135827021Y-93733149D01*
X135858472Y-93762359D01*
X135920487Y-93806457D01*
X136027392Y-93870750D01*
X135787240Y-93870750D01*
G37*
G36*
X135677636Y-93476053D02*
G01*
X135385705Y-93476053D01*
X135393399Y-93550303D01*
X135614408Y-93550303D01*
X135626987Y-93682561D01*
X135605074Y-93660570D01*
X135580168Y-93645105D01*
X135551666Y-93635657D01*
X135518634Y-93632369D01*
X135485647Y-93635368D01*
X135456029Y-93644098D01*
X135429105Y-93658498D01*
X135404390Y-93678958D01*
X135383743Y-93703714D01*
X135369363Y-93730085D01*
X135360737Y-93758493D01*
X135357800Y-93789539D01*
X135360877Y-93821892D01*
X135369909Y-93851453D01*
X135384966Y-93878856D01*
X135406588Y-93904547D01*
X135432326Y-93925080D01*
X135462585Y-93940061D01*
X135498251Y-93949479D01*
X135540494Y-93952815D01*
X135584653Y-93949194D01*
X135623768Y-93938746D01*
X135658738Y-93921735D01*
X135681497Y-93904316D01*
X135699959Y-93882653D01*
X135714408Y-93856179D01*
X135724745Y-93824008D01*
X135642282Y-93812009D01*
X135630355Y-93838175D01*
X135615030Y-93857440D01*
X135596217Y-93871034D01*
X135573238Y-93879470D01*
X135544921Y-93882473D01*
X135515904Y-93879156D01*
X135493112Y-93869920D01*
X135475098Y-93855057D01*
X135461552Y-93835599D01*
X135453416Y-93813698D01*
X135450613Y-93788623D01*
X135453410Y-93763805D01*
X135461502Y-93742321D01*
X135474945Y-93723410D01*
X135492633Y-93708734D01*
X135513374Y-93699918D01*
X135538113Y-93696849D01*
X135565901Y-93700308D01*
X135589530Y-93710305D01*
X135610004Y-93727036D01*
X135627780Y-93751681D01*
X135704473Y-93735714D01*
X135677636Y-93476053D01*
G37*
G36*
X135008930Y-93945000D02*
G01*
X135083302Y-93945000D01*
X135082325Y-93870200D01*
X135096695Y-93901325D01*
X135114461Y-93923994D01*
X135135639Y-93939769D01*
X135160861Y-93949419D01*
X135191288Y-93952815D01*
X135221725Y-93949302D01*
X135246460Y-93939379D01*
X135266789Y-93923201D01*
X135281808Y-93901864D01*
X135291297Y-93874899D01*
X135294725Y-93840708D01*
X135294725Y-93597198D01*
X135213209Y-93597198D01*
X135213209Y-93822970D01*
X135210956Y-93846927D01*
X135205297Y-93862044D01*
X135197150Y-93871086D01*
X135180758Y-93879802D01*
X135165673Y-93882473D01*
X135149803Y-93880227D01*
X135133017Y-93873096D01*
X135114779Y-93860034D01*
X135104828Y-93848058D01*
X135096700Y-93829653D01*
X135090983Y-93802549D01*
X135088767Y-93763924D01*
X135088767Y-93597198D01*
X135008930Y-93597198D01*
X135008930Y-93945000D01*
G37*
G36*
X143355056Y-78980750D02*
G01*
X143355056Y-79055000D01*
X143700629Y-79055000D01*
X143700629Y-78971438D01*
X143557442Y-78876122D01*
X143513955Y-78844500D01*
X143485442Y-78818697D01*
X143468232Y-78797690D01*
X143454925Y-78774107D01*
X143447717Y-78753479D01*
X143445487Y-78735133D01*
X143448071Y-78713316D01*
X143455570Y-78694415D01*
X143468110Y-78677736D01*
X143484450Y-78664924D01*
X143503730Y-78657158D01*
X143526820Y-78654441D01*
X143551302Y-78657161D01*
X143571182Y-78664823D01*
X143587499Y-78677254D01*
X143600815Y-78695049D01*
X143611124Y-78719486D01*
X143617862Y-78752383D01*
X143700751Y-78732355D01*
X143693682Y-78701287D01*
X143682136Y-78673012D01*
X143666059Y-78647106D01*
X143645156Y-78623270D01*
X143620766Y-78603893D01*
X143592934Y-78589932D01*
X143560999Y-78581270D01*
X143524072Y-78578237D01*
X143485638Y-78581272D01*
X143452773Y-78589886D01*
X143424503Y-78603663D01*
X143400088Y-78622629D01*
X143379818Y-78646262D01*
X143365474Y-78672530D01*
X143356714Y-78701970D01*
X143353682Y-78735347D01*
X143356258Y-78764763D01*
X143363872Y-78792246D01*
X143376599Y-78818259D01*
X143394837Y-78843149D01*
X143426288Y-78872359D01*
X143488303Y-78916457D01*
X143595208Y-78980750D01*
X143355056Y-78980750D01*
G37*
G36*
X143191352Y-78965118D02*
G01*
X143191352Y-79055000D01*
X143277662Y-79055000D01*
X143277662Y-78965118D01*
X143191352Y-78965118D01*
G37*
G36*
X143108859Y-78586053D02*
G01*
X142776017Y-78586053D01*
X142776017Y-78647022D01*
X142818975Y-78706265D01*
X142851313Y-78757722D01*
X142874621Y-78802315D01*
X142890323Y-78840921D01*
X142905560Y-78896297D01*
X142917227Y-78966706D01*
X142924273Y-79055000D01*
X143022245Y-79055000D01*
X143015688Y-78990396D01*
X143003169Y-78929088D01*
X142984800Y-78870694D01*
X142960565Y-78814878D01*
X142930324Y-78761352D01*
X142893816Y-78709885D01*
X142850664Y-78660303D01*
X143116187Y-78660303D01*
X143108859Y-78586053D01*
G37*
G36*
X142667085Y-78586053D02*
G01*
X142375154Y-78586053D01*
X142382848Y-78660303D01*
X142603857Y-78660303D01*
X142616435Y-78792561D01*
X142594523Y-78770570D01*
X142569616Y-78755105D01*
X142541114Y-78745657D01*
X142508083Y-78742369D01*
X142475095Y-78745368D01*
X142445478Y-78754098D01*
X142418553Y-78768498D01*
X142393838Y-78788958D01*
X142373192Y-78813714D01*
X142358811Y-78840085D01*
X142350186Y-78868493D01*
X142347249Y-78899539D01*
X142350325Y-78931892D01*
X142359358Y-78961453D01*
X142374415Y-78988856D01*
X142396037Y-79014547D01*
X142421775Y-79035080D01*
X142452034Y-79050061D01*
X142487700Y-79059479D01*
X142529943Y-79062815D01*
X142574101Y-79059194D01*
X142613217Y-79048746D01*
X142648187Y-79031735D01*
X142670945Y-79014316D01*
X142689408Y-78992653D01*
X142703857Y-78966179D01*
X142714193Y-78934008D01*
X142631731Y-78922009D01*
X142619804Y-78948175D01*
X142604479Y-78967440D01*
X142585666Y-78981034D01*
X142562686Y-78989470D01*
X142534370Y-78992473D01*
X142505353Y-78989156D01*
X142482561Y-78979920D01*
X142464547Y-78965057D01*
X142451001Y-78945599D01*
X142442864Y-78923698D01*
X142440061Y-78898623D01*
X142442858Y-78873805D01*
X142450951Y-78852321D01*
X142464394Y-78833410D01*
X142482082Y-78818734D01*
X142502823Y-78809918D01*
X142527561Y-78806849D01*
X142555350Y-78810308D01*
X142578979Y-78820305D01*
X142599453Y-78837036D01*
X142617229Y-78861681D01*
X142693921Y-78845714D01*
X142667085Y-78586053D01*
G37*
G36*
X141998379Y-79055000D02*
G01*
X142072751Y-79055000D01*
X142071774Y-78980200D01*
X142086144Y-79011325D01*
X142103910Y-79033994D01*
X142125088Y-79049769D01*
X142150310Y-79059419D01*
X142180737Y-79062815D01*
X142211174Y-79059302D01*
X142235909Y-79049379D01*
X142256238Y-79033201D01*
X142271257Y-79011864D01*
X142280746Y-78984899D01*
X142284173Y-78950708D01*
X142284173Y-78707198D01*
X142202657Y-78707198D01*
X142202657Y-78932970D01*
X142200405Y-78956927D01*
X142194746Y-78972044D01*
X142186598Y-78981086D01*
X142170207Y-78989802D01*
X142155122Y-78992473D01*
X142139251Y-78990227D01*
X142122466Y-78983096D01*
X142104228Y-78970034D01*
X142094277Y-78958058D01*
X142086149Y-78939653D01*
X142080431Y-78912549D01*
X142078216Y-78873924D01*
X142078216Y-78707198D01*
X141998379Y-78707198D01*
X141998379Y-79055000D01*
G37*
G36*
X142978220Y-79900312D02*
G01*
X142978220Y-79872926D01*
X142921371Y-79904067D01*
X142872677Y-79938994D01*
X142872677Y-79435823D01*
X142836223Y-79435823D01*
X142836223Y-79939421D01*
X142812486Y-79919257D01*
X142778194Y-79897154D01*
X142730680Y-79872957D01*
X142730680Y-79900342D01*
X142773920Y-79941189D01*
X142806706Y-79978030D01*
X142830649Y-80011323D01*
X142847153Y-80041545D01*
X142864189Y-80041545D01*
X142878091Y-80013976D01*
X142900320Y-79981824D01*
X142932913Y-79944230D01*
X142978220Y-79900312D01*
G37*
G36*
X149765056Y-79020750D02*
G01*
X149765056Y-79095000D01*
X150110629Y-79095000D01*
X150110629Y-79011438D01*
X149967442Y-78916122D01*
X149923955Y-78884500D01*
X149895442Y-78858697D01*
X149878232Y-78837690D01*
X149864925Y-78814107D01*
X149857717Y-78793479D01*
X149855487Y-78775133D01*
X149858071Y-78753316D01*
X149865570Y-78734415D01*
X149878110Y-78717736D01*
X149894450Y-78704924D01*
X149913730Y-78697158D01*
X149936820Y-78694441D01*
X149961302Y-78697161D01*
X149981182Y-78704823D01*
X149997499Y-78717254D01*
X150010815Y-78735049D01*
X150021124Y-78759486D01*
X150027862Y-78792383D01*
X150110751Y-78772355D01*
X150103682Y-78741287D01*
X150092136Y-78713012D01*
X150076059Y-78687106D01*
X150055156Y-78663270D01*
X150030766Y-78643893D01*
X150002934Y-78629932D01*
X149970999Y-78621270D01*
X149934072Y-78618237D01*
X149895638Y-78621272D01*
X149862773Y-78629886D01*
X149834503Y-78643663D01*
X149810088Y-78662629D01*
X149789818Y-78686262D01*
X149775474Y-78712530D01*
X149766714Y-78741970D01*
X149763682Y-78775347D01*
X149766258Y-78804763D01*
X149773872Y-78832246D01*
X149786599Y-78858259D01*
X149804837Y-78883149D01*
X149836288Y-78912359D01*
X149898303Y-78956457D01*
X150005208Y-79020750D01*
X149765056Y-79020750D01*
G37*
G36*
X149397074Y-79095000D02*
G01*
X149471446Y-79095000D01*
X149470469Y-79020200D01*
X149484839Y-79051325D01*
X149502605Y-79073994D01*
X149523783Y-79089769D01*
X149549005Y-79099419D01*
X149579432Y-79102815D01*
X149609869Y-79099302D01*
X149634604Y-79089379D01*
X149654933Y-79073201D01*
X149669952Y-79051864D01*
X149679441Y-79024899D01*
X149682868Y-78990708D01*
X149682868Y-78747198D01*
X149601352Y-78747198D01*
X149601352Y-78972970D01*
X149599100Y-78996927D01*
X149593441Y-79012044D01*
X149585293Y-79021086D01*
X149568902Y-79029802D01*
X149553817Y-79032473D01*
X149537946Y-79030227D01*
X149521161Y-79023096D01*
X149502923Y-79010034D01*
X149492972Y-78998058D01*
X149484844Y-78979653D01*
X149479126Y-78952549D01*
X149476911Y-78913924D01*
X149476911Y-78747198D01*
X149397074Y-78747198D01*
X149397074Y-79095000D01*
G37*
G36*
X147927862Y-79020750D02*
G01*
X147927862Y-79095000D01*
X148273435Y-79095000D01*
X148273435Y-79011438D01*
X148130247Y-78916122D01*
X148086761Y-78884500D01*
X148058247Y-78858697D01*
X148041038Y-78837690D01*
X148027730Y-78814107D01*
X148020522Y-78793479D01*
X148018292Y-78775133D01*
X148020876Y-78753316D01*
X148028376Y-78734415D01*
X148040915Y-78717736D01*
X148057255Y-78704924D01*
X148076535Y-78697158D01*
X148099625Y-78694441D01*
X148124107Y-78697161D01*
X148143987Y-78704823D01*
X148160304Y-78717254D01*
X148173620Y-78735049D01*
X148183930Y-78759486D01*
X148190667Y-78792383D01*
X148273557Y-78772355D01*
X148266487Y-78741287D01*
X148254941Y-78713012D01*
X148238864Y-78687106D01*
X148217961Y-78663270D01*
X148193571Y-78643893D01*
X148165739Y-78629932D01*
X148133804Y-78621270D01*
X148096878Y-78618237D01*
X148058444Y-78621272D01*
X148025578Y-78629886D01*
X147997308Y-78643663D01*
X147972894Y-78662629D01*
X147952623Y-78686262D01*
X147938279Y-78712530D01*
X147929519Y-78741970D01*
X147926488Y-78775347D01*
X147929064Y-78804763D01*
X147936677Y-78832246D01*
X147949404Y-78858259D01*
X147967643Y-78883149D01*
X147999093Y-78912359D01*
X148061108Y-78956457D01*
X148168013Y-79020750D01*
X147927862Y-79020750D01*
G37*
G36*
X147764158Y-79005118D02*
G01*
X147764158Y-79095000D01*
X147850467Y-79095000D01*
X147850467Y-79005118D01*
X147764158Y-79005118D01*
G37*
G36*
X147349494Y-79020750D02*
G01*
X147349494Y-79095000D01*
X147695068Y-79095000D01*
X147695068Y-79011438D01*
X147551880Y-78916122D01*
X147508394Y-78884500D01*
X147479880Y-78858697D01*
X147462670Y-78837690D01*
X147449363Y-78814107D01*
X147442155Y-78793479D01*
X147439925Y-78775133D01*
X147442509Y-78753316D01*
X147450009Y-78734415D01*
X147462548Y-78717736D01*
X147478888Y-78704924D01*
X147498168Y-78697158D01*
X147521258Y-78694441D01*
X147545740Y-78697161D01*
X147565620Y-78704823D01*
X147581937Y-78717254D01*
X147595253Y-78735049D01*
X147605563Y-78759486D01*
X147612300Y-78792383D01*
X147695190Y-78772355D01*
X147688120Y-78741287D01*
X147676574Y-78713012D01*
X147660497Y-78687106D01*
X147639594Y-78663270D01*
X147615204Y-78643893D01*
X147587372Y-78629932D01*
X147555437Y-78621270D01*
X147518510Y-78618237D01*
X147480076Y-78621272D01*
X147447211Y-78629886D01*
X147418941Y-78643663D01*
X147394527Y-78662629D01*
X147374256Y-78686262D01*
X147359912Y-78712530D01*
X147351152Y-78741970D01*
X147348121Y-78775347D01*
X147350697Y-78804763D01*
X147358310Y-78832246D01*
X147371037Y-78858259D01*
X147389275Y-78883149D01*
X147420726Y-78912359D01*
X147482741Y-78956457D01*
X147589646Y-79020750D01*
X147349494Y-79020750D01*
G37*
G36*
X147239890Y-78626053D02*
G01*
X146947959Y-78626053D01*
X146955653Y-78700303D01*
X147176662Y-78700303D01*
X147189241Y-78832561D01*
X147167328Y-78810570D01*
X147142422Y-78795105D01*
X147113920Y-78785657D01*
X147080888Y-78782369D01*
X147047901Y-78785368D01*
X147018284Y-78794098D01*
X146991359Y-78808498D01*
X146966644Y-78828958D01*
X146945997Y-78853714D01*
X146931617Y-78880085D01*
X146922991Y-78908493D01*
X146920054Y-78939539D01*
X146923131Y-78971892D01*
X146932163Y-79001453D01*
X146947220Y-79028856D01*
X146968842Y-79054547D01*
X146994580Y-79075080D01*
X147024839Y-79090061D01*
X147060505Y-79099479D01*
X147102748Y-79102815D01*
X147146907Y-79099194D01*
X147186022Y-79088746D01*
X147220992Y-79071735D01*
X147243751Y-79054316D01*
X147262213Y-79032653D01*
X147276662Y-79006179D01*
X147286999Y-78974008D01*
X147204536Y-78962009D01*
X147192609Y-78988175D01*
X147177284Y-79007440D01*
X147158471Y-79021034D01*
X147135492Y-79029470D01*
X147107175Y-79032473D01*
X147078158Y-79029156D01*
X147055366Y-79019920D01*
X147037352Y-79005057D01*
X147023806Y-78985599D01*
X147015670Y-78963698D01*
X147012867Y-78938623D01*
X147015664Y-78913805D01*
X147023756Y-78892321D01*
X147037199Y-78873410D01*
X147054887Y-78858734D01*
X147075628Y-78849918D01*
X147100367Y-78846849D01*
X147128155Y-78850308D01*
X147151784Y-78860305D01*
X147172258Y-78877036D01*
X147190034Y-78901681D01*
X147266727Y-78885714D01*
X147239890Y-78626053D01*
G37*
G36*
X146571184Y-79095000D02*
G01*
X146645556Y-79095000D01*
X146644579Y-79020200D01*
X146658949Y-79051325D01*
X146676715Y-79073994D01*
X146697893Y-79089769D01*
X146723115Y-79099419D01*
X146753542Y-79102815D01*
X146783979Y-79099302D01*
X146808714Y-79089379D01*
X146829043Y-79073201D01*
X146844062Y-79051864D01*
X146853551Y-79024899D01*
X146856979Y-78990708D01*
X146856979Y-78747198D01*
X146775463Y-78747198D01*
X146775463Y-78972970D01*
X146773210Y-78996927D01*
X146767551Y-79012044D01*
X146759404Y-79021086D01*
X146743012Y-79029802D01*
X146727927Y-79032473D01*
X146712057Y-79030227D01*
X146695272Y-79023096D01*
X146677033Y-79010034D01*
X146667082Y-78998058D01*
X146658954Y-78979653D01*
X146653237Y-78952549D01*
X146651021Y-78913924D01*
X146651021Y-78747198D01*
X146571184Y-78747198D01*
X146571184Y-79095000D01*
G37*
G36*
X149912854Y-79940312D02*
G01*
X149912854Y-79912926D01*
X149856005Y-79944067D01*
X149807310Y-79978994D01*
X149807310Y-79475823D01*
X149770857Y-79475823D01*
X149770857Y-79979421D01*
X149747120Y-79959257D01*
X149712827Y-79937154D01*
X149665314Y-79912957D01*
X149665314Y-79940342D01*
X149708554Y-79981189D01*
X149741340Y-80018030D01*
X149765282Y-80051323D01*
X149781787Y-80081545D01*
X149798823Y-80081545D01*
X149812725Y-80053976D01*
X149834954Y-80021824D01*
X149867547Y-79984230D01*
X149912854Y-79940312D01*
G37*
G36*
X147639441Y-79940312D02*
G01*
X147639441Y-79912926D01*
X147582592Y-79944067D01*
X147533898Y-79978994D01*
X147533898Y-79475823D01*
X147497445Y-79475823D01*
X147497445Y-79979421D01*
X147473707Y-79959257D01*
X147439415Y-79937154D01*
X147391901Y-79912957D01*
X147391901Y-79940342D01*
X147435141Y-79981189D01*
X147467927Y-80018030D01*
X147491870Y-80051323D01*
X147508374Y-80081545D01*
X147525410Y-80081545D01*
X147539312Y-80053976D01*
X147561541Y-80021824D01*
X147594134Y-79984230D01*
X147639441Y-79940312D01*
G37*
G36*
X204930178Y-78780750D02*
G01*
X204930178Y-78855000D01*
X205275751Y-78855000D01*
X205275751Y-78771438D01*
X205132564Y-78676122D01*
X205089077Y-78644500D01*
X205060564Y-78618697D01*
X205043354Y-78597690D01*
X205030047Y-78574107D01*
X205022839Y-78553479D01*
X205020609Y-78535133D01*
X205023193Y-78513316D01*
X205030693Y-78494415D01*
X205043232Y-78477736D01*
X205059572Y-78464924D01*
X205078852Y-78457158D01*
X205101942Y-78454441D01*
X205126424Y-78457161D01*
X205146304Y-78464823D01*
X205162621Y-78477254D01*
X205175937Y-78495049D01*
X205186246Y-78519486D01*
X205192984Y-78552383D01*
X205275874Y-78532355D01*
X205268804Y-78501287D01*
X205257258Y-78473012D01*
X205241181Y-78447106D01*
X205220278Y-78423270D01*
X205195888Y-78403893D01*
X205168056Y-78389932D01*
X205136121Y-78381270D01*
X205099194Y-78378237D01*
X205060760Y-78381272D01*
X205027895Y-78389886D01*
X204999625Y-78403663D01*
X204975211Y-78422629D01*
X204954940Y-78446262D01*
X204940596Y-78472530D01*
X204931836Y-78501970D01*
X204928804Y-78535347D01*
X204931380Y-78564763D01*
X204938994Y-78592246D01*
X204951721Y-78618259D01*
X204969959Y-78643149D01*
X205001410Y-78672359D01*
X205063425Y-78716457D01*
X205170330Y-78780750D01*
X204930178Y-78780750D01*
G37*
G36*
X204562196Y-78855000D02*
G01*
X204636568Y-78855000D01*
X204635591Y-78780200D01*
X204649961Y-78811325D01*
X204667727Y-78833994D01*
X204688905Y-78849769D01*
X204714127Y-78859419D01*
X204744554Y-78862815D01*
X204774991Y-78859302D01*
X204799726Y-78849379D01*
X204820055Y-78833201D01*
X204835074Y-78811864D01*
X204844563Y-78784899D01*
X204847991Y-78750708D01*
X204847991Y-78507198D01*
X204766475Y-78507198D01*
X204766475Y-78732970D01*
X204764222Y-78756927D01*
X204758563Y-78772044D01*
X204750416Y-78781086D01*
X204734024Y-78789802D01*
X204718939Y-78792473D01*
X204703068Y-78790227D01*
X204686283Y-78783096D01*
X204668045Y-78770034D01*
X204658094Y-78758058D01*
X204649966Y-78739653D01*
X204644248Y-78712549D01*
X204642033Y-78673924D01*
X204642033Y-78507198D01*
X204562196Y-78507198D01*
X204562196Y-78855000D01*
G37*
G36*
X202918106Y-78780750D02*
G01*
X202918106Y-78855000D01*
X203263679Y-78855000D01*
X203263679Y-78771438D01*
X203120491Y-78676122D01*
X203077005Y-78644500D01*
X203048491Y-78618697D01*
X203031282Y-78597690D01*
X203017975Y-78574107D01*
X203010766Y-78553479D01*
X203008537Y-78535133D01*
X203011121Y-78513316D01*
X203018620Y-78494415D01*
X203031160Y-78477736D01*
X203047499Y-78464924D01*
X203066779Y-78457158D01*
X203089870Y-78454441D01*
X203114351Y-78457161D01*
X203134231Y-78464823D01*
X203150549Y-78477254D01*
X203163865Y-78495049D01*
X203174174Y-78519486D01*
X203180911Y-78552383D01*
X203263801Y-78532355D01*
X203256731Y-78501287D01*
X203245185Y-78473012D01*
X203229108Y-78447106D01*
X203208205Y-78423270D01*
X203183816Y-78403893D01*
X203155984Y-78389932D01*
X203124048Y-78381270D01*
X203087122Y-78378237D01*
X203048688Y-78381272D01*
X203015822Y-78389886D01*
X202987552Y-78403663D01*
X202963138Y-78422629D01*
X202942867Y-78446262D01*
X202928523Y-78472530D01*
X202919764Y-78501970D01*
X202916732Y-78535347D01*
X202919308Y-78564763D01*
X202926921Y-78592246D01*
X202939648Y-78618259D01*
X202957887Y-78643149D01*
X202989337Y-78672359D01*
X203051352Y-78716457D01*
X203158258Y-78780750D01*
X202918106Y-78780750D01*
G37*
G36*
X202754402Y-78765118D02*
G01*
X202754402Y-78855000D01*
X202840711Y-78855000D01*
X202840711Y-78765118D01*
X202754402Y-78765118D01*
G37*
G36*
X202339739Y-78780750D02*
G01*
X202339739Y-78855000D01*
X202685312Y-78855000D01*
X202685312Y-78771438D01*
X202542124Y-78676122D01*
X202498638Y-78644500D01*
X202470124Y-78618697D01*
X202452915Y-78597690D01*
X202439608Y-78574107D01*
X202432399Y-78553479D01*
X202430170Y-78535133D01*
X202432754Y-78513316D01*
X202440253Y-78494415D01*
X202452793Y-78477736D01*
X202469132Y-78464924D01*
X202488412Y-78457158D01*
X202511502Y-78454441D01*
X202535984Y-78457161D01*
X202555864Y-78464823D01*
X202572182Y-78477254D01*
X202585498Y-78495049D01*
X202595807Y-78519486D01*
X202602544Y-78552383D01*
X202685434Y-78532355D01*
X202678364Y-78501287D01*
X202666818Y-78473012D01*
X202650741Y-78447106D01*
X202629838Y-78423270D01*
X202605448Y-78403893D01*
X202577616Y-78389932D01*
X202545681Y-78381270D01*
X202508755Y-78378237D01*
X202470321Y-78381272D01*
X202437455Y-78389886D01*
X202409185Y-78403663D01*
X202384771Y-78422629D01*
X202364500Y-78446262D01*
X202350156Y-78472530D01*
X202341397Y-78501970D01*
X202338365Y-78535347D01*
X202340941Y-78564763D01*
X202348554Y-78592246D01*
X202361281Y-78618259D01*
X202379520Y-78643149D01*
X202410970Y-78672359D01*
X202472985Y-78716457D01*
X202579890Y-78780750D01*
X202339739Y-78780750D01*
G37*
G36*
X202230135Y-78386053D02*
G01*
X201938203Y-78386053D01*
X201945897Y-78460303D01*
X202166906Y-78460303D01*
X202179485Y-78592561D01*
X202157572Y-78570570D01*
X202132666Y-78555105D01*
X202104164Y-78545657D01*
X202071133Y-78542369D01*
X202038145Y-78545368D01*
X202008528Y-78554098D01*
X201981603Y-78568498D01*
X201956888Y-78588958D01*
X201936241Y-78613714D01*
X201921861Y-78640085D01*
X201913235Y-78668493D01*
X201910299Y-78699539D01*
X201913375Y-78731892D01*
X201922408Y-78761453D01*
X201937465Y-78788856D01*
X201959086Y-78814547D01*
X201984824Y-78835080D01*
X202015084Y-78850061D01*
X202050750Y-78859479D01*
X202092992Y-78862815D01*
X202137151Y-78859194D01*
X202176267Y-78848746D01*
X202211236Y-78831735D01*
X202233995Y-78814316D01*
X202252457Y-78792653D01*
X202266906Y-78766179D01*
X202277243Y-78734008D01*
X202194781Y-78722009D01*
X202182853Y-78748175D01*
X202167528Y-78767440D01*
X202148716Y-78781034D01*
X202125736Y-78789470D01*
X202097419Y-78792473D01*
X202068402Y-78789156D01*
X202045611Y-78779920D01*
X202027596Y-78765057D01*
X202014050Y-78745599D01*
X202005914Y-78723698D01*
X202003111Y-78698623D01*
X202005908Y-78673805D01*
X202014000Y-78652321D01*
X202027444Y-78633410D01*
X202045131Y-78618734D01*
X202065872Y-78609918D01*
X202090611Y-78606849D01*
X202118399Y-78610308D01*
X202142029Y-78620305D01*
X202162502Y-78637036D01*
X202180279Y-78661681D01*
X202256971Y-78645714D01*
X202230135Y-78386053D01*
G37*
G36*
X201561428Y-78855000D02*
G01*
X201635800Y-78855000D01*
X201634823Y-78780200D01*
X201649193Y-78811325D01*
X201666960Y-78833994D01*
X201688137Y-78849769D01*
X201713359Y-78859419D01*
X201743786Y-78862815D01*
X201774223Y-78859302D01*
X201798959Y-78849379D01*
X201819288Y-78833201D01*
X201834307Y-78811864D01*
X201843795Y-78784899D01*
X201847223Y-78750708D01*
X201847223Y-78507198D01*
X201765707Y-78507198D01*
X201765707Y-78732970D01*
X201763454Y-78756927D01*
X201757796Y-78772044D01*
X201749648Y-78781086D01*
X201733256Y-78789802D01*
X201718171Y-78792473D01*
X201702301Y-78790227D01*
X201685516Y-78783096D01*
X201667277Y-78770034D01*
X201657326Y-78758058D01*
X201649198Y-78739653D01*
X201643481Y-78712549D01*
X201641265Y-78673924D01*
X201641265Y-78507198D01*
X201561428Y-78507198D01*
X201561428Y-78855000D01*
G37*
G36*
X205077976Y-79700312D02*
G01*
X205077976Y-79672926D01*
X205021127Y-79704067D01*
X204972432Y-79738994D01*
X204972432Y-79235823D01*
X204935979Y-79235823D01*
X204935979Y-79739421D01*
X204912242Y-79719257D01*
X204877949Y-79697154D01*
X204830436Y-79672957D01*
X204830436Y-79700342D01*
X204873676Y-79741189D01*
X204906462Y-79778030D01*
X204930404Y-79811323D01*
X204946909Y-79841545D01*
X204963945Y-79841545D01*
X204977847Y-79813976D01*
X205000076Y-79781824D01*
X205032669Y-79744230D01*
X205077976Y-79700312D01*
G37*
G36*
X202454808Y-79700312D02*
G01*
X202454808Y-79672926D01*
X202397959Y-79704067D01*
X202349264Y-79738994D01*
X202349264Y-79235823D01*
X202312811Y-79235823D01*
X202312811Y-79739421D01*
X202289074Y-79719257D01*
X202254781Y-79697154D01*
X202207267Y-79672957D01*
X202207267Y-79700342D01*
X202250508Y-79741189D01*
X202283293Y-79778030D01*
X202307236Y-79811323D01*
X202323741Y-79841545D01*
X202340777Y-79841545D01*
X202354679Y-79813976D01*
X202376908Y-79781824D01*
X202409501Y-79744230D01*
X202454808Y-79700312D01*
G37*
G36*
X210035056Y-78860750D02*
G01*
X210035056Y-78935000D01*
X210380629Y-78935000D01*
X210380629Y-78851438D01*
X210237442Y-78756122D01*
X210193955Y-78724500D01*
X210165442Y-78698697D01*
X210148232Y-78677690D01*
X210134925Y-78654107D01*
X210127717Y-78633479D01*
X210125487Y-78615133D01*
X210128071Y-78593316D01*
X210135570Y-78574415D01*
X210148110Y-78557736D01*
X210164450Y-78544924D01*
X210183730Y-78537158D01*
X210206820Y-78534441D01*
X210231302Y-78537161D01*
X210251182Y-78544823D01*
X210267499Y-78557254D01*
X210280815Y-78575049D01*
X210291124Y-78599486D01*
X210297862Y-78632383D01*
X210380751Y-78612355D01*
X210373682Y-78581287D01*
X210362136Y-78553012D01*
X210346059Y-78527106D01*
X210325156Y-78503270D01*
X210300766Y-78483893D01*
X210272934Y-78469932D01*
X210240999Y-78461270D01*
X210204072Y-78458237D01*
X210165638Y-78461272D01*
X210132773Y-78469886D01*
X210104503Y-78483663D01*
X210080088Y-78502629D01*
X210059818Y-78526262D01*
X210045474Y-78552530D01*
X210036714Y-78581970D01*
X210033682Y-78615347D01*
X210036258Y-78644763D01*
X210043872Y-78672246D01*
X210056599Y-78698259D01*
X210074837Y-78723149D01*
X210106288Y-78752359D01*
X210168303Y-78796457D01*
X210275208Y-78860750D01*
X210035056Y-78860750D01*
G37*
G36*
X209871352Y-78845118D02*
G01*
X209871352Y-78935000D01*
X209957662Y-78935000D01*
X209957662Y-78845118D01*
X209871352Y-78845118D01*
G37*
G36*
X209788859Y-78466053D02*
G01*
X209456017Y-78466053D01*
X209456017Y-78527022D01*
X209498975Y-78586265D01*
X209531313Y-78637722D01*
X209554621Y-78682315D01*
X209570323Y-78720921D01*
X209585560Y-78776297D01*
X209597227Y-78846706D01*
X209604273Y-78935000D01*
X209702245Y-78935000D01*
X209695688Y-78870396D01*
X209683169Y-78809088D01*
X209664800Y-78750694D01*
X209640565Y-78694878D01*
X209610324Y-78641352D01*
X209573816Y-78589885D01*
X209530664Y-78540303D01*
X209796187Y-78540303D01*
X209788859Y-78466053D01*
G37*
G36*
X209347085Y-78466053D02*
G01*
X209055154Y-78466053D01*
X209062848Y-78540303D01*
X209283857Y-78540303D01*
X209296435Y-78672561D01*
X209274523Y-78650570D01*
X209249616Y-78635105D01*
X209221114Y-78625657D01*
X209188083Y-78622369D01*
X209155095Y-78625368D01*
X209125478Y-78634098D01*
X209098553Y-78648498D01*
X209073838Y-78668958D01*
X209053192Y-78693714D01*
X209038811Y-78720085D01*
X209030186Y-78748493D01*
X209027249Y-78779539D01*
X209030325Y-78811892D01*
X209039358Y-78841453D01*
X209054415Y-78868856D01*
X209076037Y-78894547D01*
X209101775Y-78915080D01*
X209132034Y-78930061D01*
X209167700Y-78939479D01*
X209209943Y-78942815D01*
X209254101Y-78939194D01*
X209293217Y-78928746D01*
X209328187Y-78911735D01*
X209350945Y-78894316D01*
X209369408Y-78872653D01*
X209383857Y-78846179D01*
X209394193Y-78814008D01*
X209311731Y-78802009D01*
X209299804Y-78828175D01*
X209284479Y-78847440D01*
X209265666Y-78861034D01*
X209242686Y-78869470D01*
X209214370Y-78872473D01*
X209185353Y-78869156D01*
X209162561Y-78859920D01*
X209144547Y-78845057D01*
X209131001Y-78825599D01*
X209122864Y-78803698D01*
X209120061Y-78778623D01*
X209122858Y-78753805D01*
X209130951Y-78732321D01*
X209144394Y-78713410D01*
X209162082Y-78698734D01*
X209182823Y-78689918D01*
X209207561Y-78686849D01*
X209235350Y-78690308D01*
X209258979Y-78700305D01*
X209279453Y-78717036D01*
X209297229Y-78741681D01*
X209373921Y-78725714D01*
X209347085Y-78466053D01*
G37*
G36*
X208678379Y-78935000D02*
G01*
X208752751Y-78935000D01*
X208751774Y-78860200D01*
X208766144Y-78891325D01*
X208783910Y-78913994D01*
X208805088Y-78929769D01*
X208830310Y-78939419D01*
X208860737Y-78942815D01*
X208891174Y-78939302D01*
X208915909Y-78929379D01*
X208936238Y-78913201D01*
X208951257Y-78891864D01*
X208960746Y-78864899D01*
X208964173Y-78830708D01*
X208964173Y-78587198D01*
X208882657Y-78587198D01*
X208882657Y-78812970D01*
X208880405Y-78836927D01*
X208874746Y-78852044D01*
X208866598Y-78861086D01*
X208850207Y-78869802D01*
X208835122Y-78872473D01*
X208819251Y-78870227D01*
X208802466Y-78863096D01*
X208784228Y-78850034D01*
X208774277Y-78838058D01*
X208766149Y-78819653D01*
X208760431Y-78792549D01*
X208758216Y-78753924D01*
X208758216Y-78587198D01*
X208678379Y-78587198D01*
X208678379Y-78935000D01*
G37*
G36*
X209658220Y-79780312D02*
G01*
X209658220Y-79752926D01*
X209601371Y-79784067D01*
X209552677Y-79818994D01*
X209552677Y-79315823D01*
X209516223Y-79315823D01*
X209516223Y-79819421D01*
X209492486Y-79799257D01*
X209458194Y-79777154D01*
X209410680Y-79752957D01*
X209410680Y-79780342D01*
X209453920Y-79821189D01*
X209486706Y-79858030D01*
X209510649Y-79891323D01*
X209527153Y-79921545D01*
X209544189Y-79921545D01*
X209558091Y-79893976D01*
X209580320Y-79861824D01*
X209612913Y-79824230D01*
X209658220Y-79780312D01*
G37*
G36*
X217097976Y-92807056D02*
G01*
X217052669Y-92763138D01*
X217020076Y-92725544D01*
X216997847Y-92693392D01*
X216983945Y-92665823D01*
X216966909Y-92665823D01*
X216950404Y-92696045D01*
X216926462Y-92729339D01*
X216893676Y-92766179D01*
X216850436Y-92807026D01*
X216850436Y-92834412D01*
X216897949Y-92810214D01*
X216932242Y-92788112D01*
X216955979Y-92767947D01*
X216955979Y-93271545D01*
X216992432Y-93271545D01*
X216992432Y-92768344D01*
X217041125Y-92803278D01*
X217097976Y-92834442D01*
X217097976Y-92807056D01*
G37*
G36*
X214474808Y-92807056D02*
G01*
X214429501Y-92763138D01*
X214396908Y-92725544D01*
X214374679Y-92693392D01*
X214360777Y-92665823D01*
X214343741Y-92665823D01*
X214327236Y-92696045D01*
X214303293Y-92729339D01*
X214270508Y-92766179D01*
X214227267Y-92807026D01*
X214227267Y-92834412D01*
X214274781Y-92810214D01*
X214309074Y-92788112D01*
X214332811Y-92767947D01*
X214332811Y-93271545D01*
X214369264Y-93271545D01*
X214369264Y-92768344D01*
X214417957Y-92803278D01*
X214474808Y-92834442D01*
X214474808Y-92807056D01*
G37*
G36*
X212201395Y-92807056D02*
G01*
X212156088Y-92763138D01*
X212123495Y-92725544D01*
X212101266Y-92693392D01*
X212087364Y-92665823D01*
X212070328Y-92665823D01*
X212053824Y-92696045D01*
X212029881Y-92729339D01*
X211997095Y-92766179D01*
X211953855Y-92807026D01*
X211953855Y-92834412D01*
X212001369Y-92810214D01*
X212035661Y-92788112D01*
X212059398Y-92767947D01*
X212059398Y-93271545D01*
X212095852Y-93271545D01*
X212095852Y-92768344D01*
X212144545Y-92803278D01*
X212201395Y-92834442D01*
X212201395Y-92807056D01*
G37*
G36*
X217125056Y-93890750D02*
G01*
X217125056Y-93965000D01*
X217470629Y-93965000D01*
X217470629Y-93881438D01*
X217327442Y-93786122D01*
X217283955Y-93754500D01*
X217255442Y-93728697D01*
X217238232Y-93707690D01*
X217224925Y-93684107D01*
X217217717Y-93663479D01*
X217215487Y-93645133D01*
X217218071Y-93623316D01*
X217225570Y-93604415D01*
X217238110Y-93587736D01*
X217254450Y-93574924D01*
X217273730Y-93567158D01*
X217296820Y-93564441D01*
X217321302Y-93567161D01*
X217341182Y-93574823D01*
X217357499Y-93587254D01*
X217370815Y-93605049D01*
X217381124Y-93629486D01*
X217387862Y-93662383D01*
X217470751Y-93642355D01*
X217463682Y-93611287D01*
X217452136Y-93583012D01*
X217436059Y-93557106D01*
X217415156Y-93533270D01*
X217390766Y-93513893D01*
X217362934Y-93499932D01*
X217330999Y-93491270D01*
X217294072Y-93488237D01*
X217255638Y-93491272D01*
X217222773Y-93499886D01*
X217194503Y-93513663D01*
X217170088Y-93532629D01*
X217149818Y-93556262D01*
X217135474Y-93582530D01*
X217126714Y-93611970D01*
X217123682Y-93645347D01*
X217126258Y-93674763D01*
X217133872Y-93702246D01*
X217146599Y-93728259D01*
X217164837Y-93753149D01*
X217196288Y-93782359D01*
X217258303Y-93826457D01*
X217365208Y-93890750D01*
X217125056Y-93890750D01*
G37*
G36*
X216961352Y-93875118D02*
G01*
X216961352Y-93965000D01*
X217047662Y-93965000D01*
X217047662Y-93875118D01*
X216961352Y-93875118D01*
G37*
G36*
X216546689Y-93890750D02*
G01*
X216546689Y-93965000D01*
X216892262Y-93965000D01*
X216892262Y-93881438D01*
X216749075Y-93786122D01*
X216705588Y-93754500D01*
X216677075Y-93728697D01*
X216659865Y-93707690D01*
X216646558Y-93684107D01*
X216639350Y-93663479D01*
X216637120Y-93645133D01*
X216639704Y-93623316D01*
X216647203Y-93604415D01*
X216659743Y-93587736D01*
X216676083Y-93574924D01*
X216695362Y-93567158D01*
X216718453Y-93564441D01*
X216742935Y-93567161D01*
X216762814Y-93574823D01*
X216779132Y-93587254D01*
X216792448Y-93605049D01*
X216802757Y-93629486D01*
X216809494Y-93662383D01*
X216892384Y-93642355D01*
X216885315Y-93611287D01*
X216873769Y-93583012D01*
X216857692Y-93557106D01*
X216836789Y-93533270D01*
X216812399Y-93513893D01*
X216784567Y-93499932D01*
X216752631Y-93491270D01*
X216715705Y-93488237D01*
X216677271Y-93491272D01*
X216644406Y-93499886D01*
X216616135Y-93513663D01*
X216591721Y-93532629D01*
X216571451Y-93556262D01*
X216557107Y-93582530D01*
X216548347Y-93611970D01*
X216545315Y-93645347D01*
X216547891Y-93674763D01*
X216555505Y-93702246D01*
X216568232Y-93728259D01*
X216586470Y-93753149D01*
X216617921Y-93782359D01*
X216679936Y-93826457D01*
X216786841Y-93890750D01*
X216546689Y-93890750D01*
G37*
G36*
X216437085Y-93496053D02*
G01*
X216145154Y-93496053D01*
X216152848Y-93570303D01*
X216373857Y-93570303D01*
X216386435Y-93702561D01*
X216364523Y-93680570D01*
X216339616Y-93665105D01*
X216311114Y-93655657D01*
X216278083Y-93652369D01*
X216245095Y-93655368D01*
X216215478Y-93664098D01*
X216188553Y-93678498D01*
X216163838Y-93698958D01*
X216143192Y-93723714D01*
X216128811Y-93750085D01*
X216120186Y-93778493D01*
X216117249Y-93809539D01*
X216120325Y-93841892D01*
X216129358Y-93871453D01*
X216144415Y-93898856D01*
X216166037Y-93924547D01*
X216191775Y-93945080D01*
X216222034Y-93960061D01*
X216257700Y-93969479D01*
X216299943Y-93972815D01*
X216344101Y-93969194D01*
X216383217Y-93958746D01*
X216418187Y-93941735D01*
X216440945Y-93924316D01*
X216459408Y-93902653D01*
X216473857Y-93876179D01*
X216484193Y-93844008D01*
X216401731Y-93832009D01*
X216389804Y-93858175D01*
X216374479Y-93877440D01*
X216355666Y-93891034D01*
X216332686Y-93899470D01*
X216304370Y-93902473D01*
X216275353Y-93899156D01*
X216252561Y-93889920D01*
X216234547Y-93875057D01*
X216221001Y-93855599D01*
X216212864Y-93833698D01*
X216210061Y-93808623D01*
X216212858Y-93783805D01*
X216220951Y-93762321D01*
X216234394Y-93743410D01*
X216252082Y-93728734D01*
X216272823Y-93719918D01*
X216297561Y-93716849D01*
X216325350Y-93720308D01*
X216348979Y-93730305D01*
X216369453Y-93747036D01*
X216387229Y-93771681D01*
X216463921Y-93755714D01*
X216437085Y-93496053D01*
G37*
G36*
X215768379Y-93965000D02*
G01*
X215842751Y-93965000D01*
X215841774Y-93890200D01*
X215856144Y-93921325D01*
X215873910Y-93943994D01*
X215895088Y-93959769D01*
X215920310Y-93969419D01*
X215950737Y-93972815D01*
X215981174Y-93969302D01*
X216005909Y-93959379D01*
X216026238Y-93943201D01*
X216041257Y-93921864D01*
X216050746Y-93894899D01*
X216054173Y-93860708D01*
X216054173Y-93617198D01*
X215972657Y-93617198D01*
X215972657Y-93842970D01*
X215970405Y-93866927D01*
X215964746Y-93882044D01*
X215956598Y-93891086D01*
X215940207Y-93899802D01*
X215925122Y-93902473D01*
X215909251Y-93900227D01*
X215892466Y-93893096D01*
X215874228Y-93880034D01*
X215864277Y-93868058D01*
X215856149Y-93849653D01*
X215850431Y-93822549D01*
X215848216Y-93783924D01*
X215848216Y-93617198D01*
X215768379Y-93617198D01*
X215768379Y-93965000D01*
G37*
G36*
X215413250Y-93496053D02*
G01*
X215332039Y-93496053D01*
X215332039Y-94082236D01*
X215413250Y-94082236D01*
X215413250Y-93496053D01*
G37*
G36*
X214474044Y-93890750D02*
G01*
X214474044Y-93965000D01*
X214819617Y-93965000D01*
X214819617Y-93881438D01*
X214676430Y-93786122D01*
X214632943Y-93754500D01*
X214604430Y-93728697D01*
X214587220Y-93707690D01*
X214573913Y-93684107D01*
X214566705Y-93663479D01*
X214564475Y-93645133D01*
X214567059Y-93623316D01*
X214574559Y-93604415D01*
X214587098Y-93587736D01*
X214603438Y-93574924D01*
X214622718Y-93567158D01*
X214645808Y-93564441D01*
X214670290Y-93567161D01*
X214690170Y-93574823D01*
X214706487Y-93587254D01*
X214719803Y-93605049D01*
X214730113Y-93629486D01*
X214736850Y-93662383D01*
X214819740Y-93642355D01*
X214812670Y-93611287D01*
X214801124Y-93583012D01*
X214785047Y-93557106D01*
X214764144Y-93533270D01*
X214739754Y-93513893D01*
X214711922Y-93499932D01*
X214679987Y-93491270D01*
X214643060Y-93488237D01*
X214604626Y-93491272D01*
X214571761Y-93499886D01*
X214543491Y-93513663D01*
X214519077Y-93532629D01*
X214498806Y-93556262D01*
X214484462Y-93582530D01*
X214475702Y-93611970D01*
X214472670Y-93645347D01*
X214475246Y-93674763D01*
X214482860Y-93702246D01*
X214495587Y-93728259D01*
X214513825Y-93753149D01*
X214545276Y-93782359D01*
X214607291Y-93826457D01*
X214714196Y-93890750D01*
X214474044Y-93890750D01*
G37*
G36*
X214106062Y-93965000D02*
G01*
X214180434Y-93965000D01*
X214179457Y-93890200D01*
X214193827Y-93921325D01*
X214211593Y-93943994D01*
X214232771Y-93959769D01*
X214257993Y-93969419D01*
X214288420Y-93972815D01*
X214318857Y-93969302D01*
X214343592Y-93959379D01*
X214363921Y-93943201D01*
X214378940Y-93921864D01*
X214388429Y-93894899D01*
X214391857Y-93860708D01*
X214391857Y-93617198D01*
X214310341Y-93617198D01*
X214310341Y-93842970D01*
X214308088Y-93866927D01*
X214302429Y-93882044D01*
X214294282Y-93891086D01*
X214277890Y-93899802D01*
X214262805Y-93902473D01*
X214246934Y-93900227D01*
X214230149Y-93893096D01*
X214211911Y-93880034D01*
X214201960Y-93868058D01*
X214193832Y-93849653D01*
X214188114Y-93822549D01*
X214185899Y-93783924D01*
X214185899Y-93617198D01*
X214106062Y-93617198D01*
X214106062Y-93965000D01*
G37*
G36*
X213750933Y-93496053D02*
G01*
X213669722Y-93496053D01*
X213669722Y-94082236D01*
X213750933Y-94082236D01*
X213750933Y-93496053D01*
G37*
G36*
X212779976Y-93965000D02*
G01*
X213138860Y-93965000D01*
X213138860Y-93894658D01*
X212998482Y-93894658D01*
X212998482Y-93604680D01*
X213045899Y-93642574D01*
X213088130Y-93669769D01*
X213125885Y-93687998D01*
X213125885Y-93601871D01*
X213072643Y-93580240D01*
X213052368Y-93569937D01*
X213036360Y-93558149D01*
X213009473Y-93535040D01*
X212984125Y-93509208D01*
X212969386Y-93488237D01*
X212911806Y-93488237D01*
X212911806Y-93894658D01*
X212779976Y-93894658D01*
X212779976Y-93965000D01*
G37*
G36*
X212640208Y-93875118D02*
G01*
X212640208Y-93965000D01*
X212726517Y-93965000D01*
X212726517Y-93875118D01*
X212640208Y-93875118D01*
G37*
G36*
X212549411Y-93496053D02*
G01*
X212216569Y-93496053D01*
X212216569Y-93557022D01*
X212259526Y-93616265D01*
X212291864Y-93667722D01*
X212315172Y-93712315D01*
X212330874Y-93750921D01*
X212346111Y-93806297D01*
X212357778Y-93876706D01*
X212364824Y-93965000D01*
X212462796Y-93965000D01*
X212456239Y-93900396D01*
X212443721Y-93839088D01*
X212425352Y-93780694D01*
X212401116Y-93724878D01*
X212370875Y-93671352D01*
X212334367Y-93619885D01*
X212291215Y-93570303D01*
X212556738Y-93570303D01*
X212549411Y-93496053D01*
G37*
G36*
X212107636Y-93496053D02*
G01*
X211815705Y-93496053D01*
X211823399Y-93570303D01*
X212044408Y-93570303D01*
X212056987Y-93702561D01*
X212035074Y-93680570D01*
X212010168Y-93665105D01*
X211981666Y-93655657D01*
X211948634Y-93652369D01*
X211915647Y-93655368D01*
X211886029Y-93664098D01*
X211859105Y-93678498D01*
X211834390Y-93698958D01*
X211813743Y-93723714D01*
X211799363Y-93750085D01*
X211790737Y-93778493D01*
X211787800Y-93809539D01*
X211790877Y-93841892D01*
X211799909Y-93871453D01*
X211814966Y-93898856D01*
X211836588Y-93924547D01*
X211862326Y-93945080D01*
X211892585Y-93960061D01*
X211928251Y-93969479D01*
X211970494Y-93972815D01*
X212014653Y-93969194D01*
X212053768Y-93958746D01*
X212088738Y-93941735D01*
X212111497Y-93924316D01*
X212129959Y-93902653D01*
X212144408Y-93876179D01*
X212154745Y-93844008D01*
X212072282Y-93832009D01*
X212060355Y-93858175D01*
X212045030Y-93877440D01*
X212026217Y-93891034D01*
X212003238Y-93899470D01*
X211974921Y-93902473D01*
X211945904Y-93899156D01*
X211923112Y-93889920D01*
X211905098Y-93875057D01*
X211891552Y-93855599D01*
X211883416Y-93833698D01*
X211880613Y-93808623D01*
X211883410Y-93783805D01*
X211891502Y-93762321D01*
X211904945Y-93743410D01*
X211922633Y-93728734D01*
X211943374Y-93719918D01*
X211968113Y-93716849D01*
X211995901Y-93720308D01*
X212019530Y-93730305D01*
X212040004Y-93747036D01*
X212057780Y-93771681D01*
X212134473Y-93755714D01*
X212107636Y-93496053D01*
G37*
G36*
X211438930Y-93965000D02*
G01*
X211513302Y-93965000D01*
X211512325Y-93890200D01*
X211526695Y-93921325D01*
X211544461Y-93943994D01*
X211565639Y-93959769D01*
X211590861Y-93969419D01*
X211621288Y-93972815D01*
X211651725Y-93969302D01*
X211676460Y-93959379D01*
X211696789Y-93943201D01*
X211711808Y-93921864D01*
X211721297Y-93894899D01*
X211724725Y-93860708D01*
X211724725Y-93617198D01*
X211643209Y-93617198D01*
X211643209Y-93842970D01*
X211640956Y-93866927D01*
X211635297Y-93882044D01*
X211627150Y-93891086D01*
X211610758Y-93899802D01*
X211595673Y-93902473D01*
X211579803Y-93900227D01*
X211563017Y-93893096D01*
X211544779Y-93880034D01*
X211534828Y-93868058D01*
X211526700Y-93849653D01*
X211520983Y-93822549D01*
X211518767Y-93783924D01*
X211518767Y-93617198D01*
X211438930Y-93617198D01*
X211438930Y-93965000D01*
G37*
G36*
X221701420Y-92957056D02*
G01*
X221656113Y-92913138D01*
X221623520Y-92875544D01*
X221601291Y-92843392D01*
X221587389Y-92815823D01*
X221570353Y-92815823D01*
X221553849Y-92846045D01*
X221529906Y-92879339D01*
X221497120Y-92916179D01*
X221453880Y-92957026D01*
X221453880Y-92984412D01*
X221501394Y-92960214D01*
X221535686Y-92938112D01*
X221559423Y-92917947D01*
X221559423Y-93421545D01*
X221595877Y-93421545D01*
X221595877Y-92918344D01*
X221644570Y-92953278D01*
X221701420Y-92984442D01*
X221701420Y-92957056D01*
G37*
G36*
X222078256Y-94040750D02*
G01*
X222078256Y-94115000D01*
X222423829Y-94115000D01*
X222423829Y-94031438D01*
X222280642Y-93936122D01*
X222237155Y-93904500D01*
X222208642Y-93878697D01*
X222191432Y-93857690D01*
X222178125Y-93834107D01*
X222170917Y-93813479D01*
X222168687Y-93795133D01*
X222171271Y-93773316D01*
X222178770Y-93754415D01*
X222191310Y-93737736D01*
X222207650Y-93724924D01*
X222226930Y-93717158D01*
X222250020Y-93714441D01*
X222274502Y-93717161D01*
X222294382Y-93724823D01*
X222310699Y-93737254D01*
X222324015Y-93755049D01*
X222334324Y-93779486D01*
X222341062Y-93812383D01*
X222423951Y-93792355D01*
X222416882Y-93761287D01*
X222405336Y-93733012D01*
X222389259Y-93707106D01*
X222368356Y-93683270D01*
X222343966Y-93663893D01*
X222316134Y-93649932D01*
X222284199Y-93641270D01*
X222247272Y-93638237D01*
X222208838Y-93641272D01*
X222175973Y-93649886D01*
X222147703Y-93663663D01*
X222123288Y-93682629D01*
X222103018Y-93706262D01*
X222088674Y-93732530D01*
X222079914Y-93761970D01*
X222076882Y-93795347D01*
X222079458Y-93824763D01*
X222087072Y-93852246D01*
X222099799Y-93878259D01*
X222118037Y-93903149D01*
X222149488Y-93932359D01*
X222211503Y-93976457D01*
X222318408Y-94040750D01*
X222078256Y-94040750D01*
G37*
G36*
X221914552Y-94025118D02*
G01*
X221914552Y-94115000D01*
X222000862Y-94115000D01*
X222000862Y-94025118D01*
X221914552Y-94025118D01*
G37*
G36*
X221832059Y-93646053D02*
G01*
X221499217Y-93646053D01*
X221499217Y-93707022D01*
X221542175Y-93766265D01*
X221574513Y-93817722D01*
X221597821Y-93862315D01*
X221613523Y-93900921D01*
X221628760Y-93956297D01*
X221640427Y-94026706D01*
X221647473Y-94115000D01*
X221745445Y-94115000D01*
X221738888Y-94050396D01*
X221726369Y-93989088D01*
X221708000Y-93930694D01*
X221683765Y-93874878D01*
X221653524Y-93821352D01*
X221617016Y-93769885D01*
X221573864Y-93720303D01*
X221839387Y-93720303D01*
X221832059Y-93646053D01*
G37*
G36*
X221390285Y-93646053D02*
G01*
X221098354Y-93646053D01*
X221106048Y-93720303D01*
X221327057Y-93720303D01*
X221339635Y-93852561D01*
X221317723Y-93830570D01*
X221292816Y-93815105D01*
X221264314Y-93805657D01*
X221231283Y-93802369D01*
X221198295Y-93805368D01*
X221168678Y-93814098D01*
X221141753Y-93828498D01*
X221117038Y-93848958D01*
X221096392Y-93873714D01*
X221082011Y-93900085D01*
X221073386Y-93928493D01*
X221070449Y-93959539D01*
X221073525Y-93991892D01*
X221082558Y-94021453D01*
X221097615Y-94048856D01*
X221119237Y-94074547D01*
X221144975Y-94095080D01*
X221175234Y-94110061D01*
X221210900Y-94119479D01*
X221253143Y-94122815D01*
X221297301Y-94119194D01*
X221336417Y-94108746D01*
X221371387Y-94091735D01*
X221394145Y-94074316D01*
X221412608Y-94052653D01*
X221427057Y-94026179D01*
X221437393Y-93994008D01*
X221354931Y-93982009D01*
X221343004Y-94008175D01*
X221327679Y-94027440D01*
X221308866Y-94041034D01*
X221285886Y-94049470D01*
X221257570Y-94052473D01*
X221228553Y-94049156D01*
X221205761Y-94039920D01*
X221187747Y-94025057D01*
X221174201Y-94005599D01*
X221166064Y-93983698D01*
X221163261Y-93958623D01*
X221166058Y-93933805D01*
X221174151Y-93912321D01*
X221187594Y-93893410D01*
X221205282Y-93878734D01*
X221226023Y-93869918D01*
X221250761Y-93866849D01*
X221278550Y-93870308D01*
X221302179Y-93880305D01*
X221322653Y-93897036D01*
X221340429Y-93921681D01*
X221417121Y-93905714D01*
X221390285Y-93646053D01*
G37*
G36*
X220721579Y-94115000D02*
G01*
X220795951Y-94115000D01*
X220794974Y-94040200D01*
X220809344Y-94071325D01*
X220827110Y-94093994D01*
X220848288Y-94109769D01*
X220873510Y-94119419D01*
X220903937Y-94122815D01*
X220934374Y-94119302D01*
X220959109Y-94109379D01*
X220979438Y-94093201D01*
X220994457Y-94071864D01*
X221003946Y-94044899D01*
X221007373Y-94010708D01*
X221007373Y-93767198D01*
X220925857Y-93767198D01*
X220925857Y-93992970D01*
X220923605Y-94016927D01*
X220917946Y-94032044D01*
X220909798Y-94041086D01*
X220893407Y-94049802D01*
X220878322Y-94052473D01*
X220862451Y-94050227D01*
X220845666Y-94043096D01*
X220827428Y-94030034D01*
X220817477Y-94018058D01*
X220809349Y-93999653D01*
X220803631Y-93972549D01*
X220801416Y-93933924D01*
X220801416Y-93767198D01*
X220721579Y-93767198D01*
X220721579Y-94115000D01*
G37*
G36*
X228630178Y-78890750D02*
G01*
X228630178Y-78965000D01*
X228975751Y-78965000D01*
X228975751Y-78881438D01*
X228832564Y-78786122D01*
X228789077Y-78754500D01*
X228760564Y-78728697D01*
X228743354Y-78707690D01*
X228730047Y-78684107D01*
X228722839Y-78663479D01*
X228720609Y-78645133D01*
X228723193Y-78623316D01*
X228730693Y-78604415D01*
X228743232Y-78587736D01*
X228759572Y-78574924D01*
X228778852Y-78567158D01*
X228801942Y-78564441D01*
X228826424Y-78567161D01*
X228846304Y-78574823D01*
X228862621Y-78587254D01*
X228875937Y-78605049D01*
X228886246Y-78629486D01*
X228892984Y-78662383D01*
X228975874Y-78642355D01*
X228968804Y-78611287D01*
X228957258Y-78583012D01*
X228941181Y-78557106D01*
X228920278Y-78533270D01*
X228895888Y-78513893D01*
X228868056Y-78499932D01*
X228836121Y-78491270D01*
X228799194Y-78488237D01*
X228760760Y-78491272D01*
X228727895Y-78499886D01*
X228699625Y-78513663D01*
X228675211Y-78532629D01*
X228654940Y-78556262D01*
X228640596Y-78582530D01*
X228631836Y-78611970D01*
X228628804Y-78645347D01*
X228631380Y-78674763D01*
X228638994Y-78702246D01*
X228651721Y-78728259D01*
X228669959Y-78753149D01*
X228701410Y-78782359D01*
X228763425Y-78826457D01*
X228870330Y-78890750D01*
X228630178Y-78890750D01*
G37*
G36*
X228262196Y-78965000D02*
G01*
X228336568Y-78965000D01*
X228335591Y-78890200D01*
X228349961Y-78921325D01*
X228367727Y-78943994D01*
X228388905Y-78959769D01*
X228414127Y-78969419D01*
X228444554Y-78972815D01*
X228474991Y-78969302D01*
X228499726Y-78959379D01*
X228520055Y-78943201D01*
X228535074Y-78921864D01*
X228544563Y-78894899D01*
X228547991Y-78860708D01*
X228547991Y-78617198D01*
X228466475Y-78617198D01*
X228466475Y-78842970D01*
X228464222Y-78866927D01*
X228458563Y-78882044D01*
X228450416Y-78891086D01*
X228434024Y-78899802D01*
X228418939Y-78902473D01*
X228403068Y-78900227D01*
X228386283Y-78893096D01*
X228368045Y-78880034D01*
X228358094Y-78868058D01*
X228349966Y-78849653D01*
X228344248Y-78822549D01*
X228342033Y-78783924D01*
X228342033Y-78617198D01*
X228262196Y-78617198D01*
X228262196Y-78965000D01*
G37*
G36*
X226618106Y-78890750D02*
G01*
X226618106Y-78965000D01*
X226963679Y-78965000D01*
X226963679Y-78881438D01*
X226820491Y-78786122D01*
X226777005Y-78754500D01*
X226748491Y-78728697D01*
X226731282Y-78707690D01*
X226717975Y-78684107D01*
X226710766Y-78663479D01*
X226708537Y-78645133D01*
X226711121Y-78623316D01*
X226718620Y-78604415D01*
X226731160Y-78587736D01*
X226747499Y-78574924D01*
X226766779Y-78567158D01*
X226789870Y-78564441D01*
X226814351Y-78567161D01*
X226834231Y-78574823D01*
X226850549Y-78587254D01*
X226863865Y-78605049D01*
X226874174Y-78629486D01*
X226880911Y-78662383D01*
X226963801Y-78642355D01*
X226956731Y-78611287D01*
X226945185Y-78583012D01*
X226929108Y-78557106D01*
X226908205Y-78533270D01*
X226883816Y-78513893D01*
X226855984Y-78499932D01*
X226824048Y-78491270D01*
X226787122Y-78488237D01*
X226748688Y-78491272D01*
X226715822Y-78499886D01*
X226687552Y-78513663D01*
X226663138Y-78532629D01*
X226642867Y-78556262D01*
X226628523Y-78582530D01*
X226619764Y-78611970D01*
X226616732Y-78645347D01*
X226619308Y-78674763D01*
X226626921Y-78702246D01*
X226639648Y-78728259D01*
X226657887Y-78753149D01*
X226689337Y-78782359D01*
X226751352Y-78826457D01*
X226858258Y-78890750D01*
X226618106Y-78890750D01*
G37*
G36*
X226454402Y-78875118D02*
G01*
X226454402Y-78965000D01*
X226540711Y-78965000D01*
X226540711Y-78875118D01*
X226454402Y-78875118D01*
G37*
G36*
X226039739Y-78890750D02*
G01*
X226039739Y-78965000D01*
X226385312Y-78965000D01*
X226385312Y-78881438D01*
X226242124Y-78786122D01*
X226198638Y-78754500D01*
X226170124Y-78728697D01*
X226152915Y-78707690D01*
X226139608Y-78684107D01*
X226132399Y-78663479D01*
X226130170Y-78645133D01*
X226132754Y-78623316D01*
X226140253Y-78604415D01*
X226152793Y-78587736D01*
X226169132Y-78574924D01*
X226188412Y-78567158D01*
X226211502Y-78564441D01*
X226235984Y-78567161D01*
X226255864Y-78574823D01*
X226272182Y-78587254D01*
X226285498Y-78605049D01*
X226295807Y-78629486D01*
X226302544Y-78662383D01*
X226385434Y-78642355D01*
X226378364Y-78611287D01*
X226366818Y-78583012D01*
X226350741Y-78557106D01*
X226329838Y-78533270D01*
X226305448Y-78513893D01*
X226277616Y-78499932D01*
X226245681Y-78491270D01*
X226208755Y-78488237D01*
X226170321Y-78491272D01*
X226137455Y-78499886D01*
X226109185Y-78513663D01*
X226084771Y-78532629D01*
X226064500Y-78556262D01*
X226050156Y-78582530D01*
X226041397Y-78611970D01*
X226038365Y-78645347D01*
X226040941Y-78674763D01*
X226048554Y-78702246D01*
X226061281Y-78728259D01*
X226079520Y-78753149D01*
X226110970Y-78782359D01*
X226172985Y-78826457D01*
X226279890Y-78890750D01*
X226039739Y-78890750D01*
G37*
G36*
X225930135Y-78496053D02*
G01*
X225638203Y-78496053D01*
X225645897Y-78570303D01*
X225866906Y-78570303D01*
X225879485Y-78702561D01*
X225857572Y-78680570D01*
X225832666Y-78665105D01*
X225804164Y-78655657D01*
X225771133Y-78652369D01*
X225738145Y-78655368D01*
X225708528Y-78664098D01*
X225681603Y-78678498D01*
X225656888Y-78698958D01*
X225636241Y-78723714D01*
X225621861Y-78750085D01*
X225613235Y-78778493D01*
X225610299Y-78809539D01*
X225613375Y-78841892D01*
X225622408Y-78871453D01*
X225637465Y-78898856D01*
X225659086Y-78924547D01*
X225684824Y-78945080D01*
X225715084Y-78960061D01*
X225750750Y-78969479D01*
X225792992Y-78972815D01*
X225837151Y-78969194D01*
X225876267Y-78958746D01*
X225911236Y-78941735D01*
X225933995Y-78924316D01*
X225952457Y-78902653D01*
X225966906Y-78876179D01*
X225977243Y-78844008D01*
X225894781Y-78832009D01*
X225882853Y-78858175D01*
X225867528Y-78877440D01*
X225848716Y-78891034D01*
X225825736Y-78899470D01*
X225797419Y-78902473D01*
X225768402Y-78899156D01*
X225745611Y-78889920D01*
X225727596Y-78875057D01*
X225714050Y-78855599D01*
X225705914Y-78833698D01*
X225703111Y-78808623D01*
X225705908Y-78783805D01*
X225714000Y-78762321D01*
X225727444Y-78743410D01*
X225745131Y-78728734D01*
X225765872Y-78719918D01*
X225790611Y-78716849D01*
X225818399Y-78720308D01*
X225842029Y-78730305D01*
X225862502Y-78747036D01*
X225880279Y-78771681D01*
X225956971Y-78755714D01*
X225930135Y-78496053D01*
G37*
G36*
X225261428Y-78965000D02*
G01*
X225335800Y-78965000D01*
X225334823Y-78890200D01*
X225349193Y-78921325D01*
X225366960Y-78943994D01*
X225388137Y-78959769D01*
X225413359Y-78969419D01*
X225443786Y-78972815D01*
X225474223Y-78969302D01*
X225498959Y-78959379D01*
X225519288Y-78943201D01*
X225534307Y-78921864D01*
X225543795Y-78894899D01*
X225547223Y-78860708D01*
X225547223Y-78617198D01*
X225465707Y-78617198D01*
X225465707Y-78842970D01*
X225463454Y-78866927D01*
X225457796Y-78882044D01*
X225449648Y-78891086D01*
X225433256Y-78899802D01*
X225418171Y-78902473D01*
X225402301Y-78900227D01*
X225385516Y-78893096D01*
X225367277Y-78880034D01*
X225357326Y-78868058D01*
X225349198Y-78849653D01*
X225343481Y-78822549D01*
X225341265Y-78783924D01*
X225341265Y-78617198D01*
X225261428Y-78617198D01*
X225261428Y-78965000D01*
G37*
G36*
X228777976Y-79810312D02*
G01*
X228777976Y-79782926D01*
X228721127Y-79814067D01*
X228672432Y-79848994D01*
X228672432Y-79345823D01*
X228635979Y-79345823D01*
X228635979Y-79849421D01*
X228612242Y-79829257D01*
X228577949Y-79807154D01*
X228530436Y-79782957D01*
X228530436Y-79810342D01*
X228573676Y-79851189D01*
X228606462Y-79888030D01*
X228630404Y-79921323D01*
X228646909Y-79951545D01*
X228663945Y-79951545D01*
X228677847Y-79923976D01*
X228700076Y-79891824D01*
X228732669Y-79854230D01*
X228777976Y-79810312D01*
G37*
G36*
X226154808Y-79810312D02*
G01*
X226154808Y-79782926D01*
X226097959Y-79814067D01*
X226049264Y-79848994D01*
X226049264Y-79345823D01*
X226012811Y-79345823D01*
X226012811Y-79849421D01*
X225989074Y-79829257D01*
X225954781Y-79807154D01*
X225907267Y-79782957D01*
X225907267Y-79810342D01*
X225950508Y-79851189D01*
X225983293Y-79888030D01*
X226007236Y-79921323D01*
X226023741Y-79951545D01*
X226040777Y-79951545D01*
X226054679Y-79923976D01*
X226076908Y-79891824D01*
X226109501Y-79854230D01*
X226154808Y-79810312D01*
G37*
G36*
X233865056Y-78860750D02*
G01*
X233865056Y-78935000D01*
X234210629Y-78935000D01*
X234210629Y-78851438D01*
X234067442Y-78756122D01*
X234023955Y-78724500D01*
X233995442Y-78698697D01*
X233978232Y-78677690D01*
X233964925Y-78654107D01*
X233957717Y-78633479D01*
X233955487Y-78615133D01*
X233958071Y-78593316D01*
X233965570Y-78574415D01*
X233978110Y-78557736D01*
X233994450Y-78544924D01*
X234013730Y-78537158D01*
X234036820Y-78534441D01*
X234061302Y-78537161D01*
X234081182Y-78544823D01*
X234097499Y-78557254D01*
X234110815Y-78575049D01*
X234121124Y-78599486D01*
X234127862Y-78632383D01*
X234210751Y-78612355D01*
X234203682Y-78581287D01*
X234192136Y-78553012D01*
X234176059Y-78527106D01*
X234155156Y-78503270D01*
X234130766Y-78483893D01*
X234102934Y-78469932D01*
X234070999Y-78461270D01*
X234034072Y-78458237D01*
X233995638Y-78461272D01*
X233962773Y-78469886D01*
X233934503Y-78483663D01*
X233910088Y-78502629D01*
X233889818Y-78526262D01*
X233875474Y-78552530D01*
X233866714Y-78581970D01*
X233863682Y-78615347D01*
X233866258Y-78644763D01*
X233873872Y-78672246D01*
X233886599Y-78698259D01*
X233904837Y-78723149D01*
X233936288Y-78752359D01*
X233998303Y-78796457D01*
X234105208Y-78860750D01*
X233865056Y-78860750D01*
G37*
G36*
X233701352Y-78845118D02*
G01*
X233701352Y-78935000D01*
X233787662Y-78935000D01*
X233787662Y-78845118D01*
X233701352Y-78845118D01*
G37*
G36*
X233618859Y-78466053D02*
G01*
X233286017Y-78466053D01*
X233286017Y-78527022D01*
X233328975Y-78586265D01*
X233361313Y-78637722D01*
X233384621Y-78682315D01*
X233400323Y-78720921D01*
X233415560Y-78776297D01*
X233427227Y-78846706D01*
X233434273Y-78935000D01*
X233532245Y-78935000D01*
X233525688Y-78870396D01*
X233513169Y-78809088D01*
X233494800Y-78750694D01*
X233470565Y-78694878D01*
X233440324Y-78641352D01*
X233403816Y-78589885D01*
X233360664Y-78540303D01*
X233626187Y-78540303D01*
X233618859Y-78466053D01*
G37*
G36*
X233177085Y-78466053D02*
G01*
X232885154Y-78466053D01*
X232892848Y-78540303D01*
X233113857Y-78540303D01*
X233126435Y-78672561D01*
X233104523Y-78650570D01*
X233079616Y-78635105D01*
X233051114Y-78625657D01*
X233018083Y-78622369D01*
X232985095Y-78625368D01*
X232955478Y-78634098D01*
X232928553Y-78648498D01*
X232903838Y-78668958D01*
X232883192Y-78693714D01*
X232868811Y-78720085D01*
X232860186Y-78748493D01*
X232857249Y-78779539D01*
X232860325Y-78811892D01*
X232869358Y-78841453D01*
X232884415Y-78868856D01*
X232906037Y-78894547D01*
X232931775Y-78915080D01*
X232962034Y-78930061D01*
X232997700Y-78939479D01*
X233039943Y-78942815D01*
X233084101Y-78939194D01*
X233123217Y-78928746D01*
X233158187Y-78911735D01*
X233180945Y-78894316D01*
X233199408Y-78872653D01*
X233213857Y-78846179D01*
X233224193Y-78814008D01*
X233141731Y-78802009D01*
X233129804Y-78828175D01*
X233114479Y-78847440D01*
X233095666Y-78861034D01*
X233072686Y-78869470D01*
X233044370Y-78872473D01*
X233015353Y-78869156D01*
X232992561Y-78859920D01*
X232974547Y-78845057D01*
X232961001Y-78825599D01*
X232952864Y-78803698D01*
X232950061Y-78778623D01*
X232952858Y-78753805D01*
X232960951Y-78732321D01*
X232974394Y-78713410D01*
X232992082Y-78698734D01*
X233012823Y-78689918D01*
X233037561Y-78686849D01*
X233065350Y-78690308D01*
X233088979Y-78700305D01*
X233109453Y-78717036D01*
X233127229Y-78741681D01*
X233203921Y-78725714D01*
X233177085Y-78466053D01*
G37*
G36*
X232508379Y-78935000D02*
G01*
X232582751Y-78935000D01*
X232581774Y-78860200D01*
X232596144Y-78891325D01*
X232613910Y-78913994D01*
X232635088Y-78929769D01*
X232660310Y-78939419D01*
X232690737Y-78942815D01*
X232721174Y-78939302D01*
X232745909Y-78929379D01*
X232766238Y-78913201D01*
X232781257Y-78891864D01*
X232790746Y-78864899D01*
X232794173Y-78830708D01*
X232794173Y-78587198D01*
X232712657Y-78587198D01*
X232712657Y-78812970D01*
X232710405Y-78836927D01*
X232704746Y-78852044D01*
X232696598Y-78861086D01*
X232680207Y-78869802D01*
X232665122Y-78872473D01*
X232649251Y-78870227D01*
X232632466Y-78863096D01*
X232614228Y-78850034D01*
X232604277Y-78838058D01*
X232596149Y-78819653D01*
X232590431Y-78792549D01*
X232588216Y-78753924D01*
X232588216Y-78587198D01*
X232508379Y-78587198D01*
X232508379Y-78935000D01*
G37*
G36*
X233488220Y-79780312D02*
G01*
X233488220Y-79752926D01*
X233431371Y-79784067D01*
X233382677Y-79818994D01*
X233382677Y-79315823D01*
X233346223Y-79315823D01*
X233346223Y-79819421D01*
X233322486Y-79799257D01*
X233288194Y-79777154D01*
X233240680Y-79752957D01*
X233240680Y-79780342D01*
X233283920Y-79821189D01*
X233316706Y-79858030D01*
X233340649Y-79891323D01*
X233357153Y-79921545D01*
X233374189Y-79921545D01*
X233388091Y-79893976D01*
X233410320Y-79861824D01*
X233442913Y-79824230D01*
X233488220Y-79780312D01*
G37*
D13*
G36*
X31086664Y-56346922D02*
G01*
X30996156Y-56259226D01*
X30931127Y-56184285D01*
X30886846Y-56120306D01*
X30859212Y-56065554D01*
X30827766Y-56065554D01*
X30794929Y-56125639D01*
X30747224Y-56191926D01*
X30681825Y-56265378D01*
X30595491Y-56346922D01*
X30595491Y-56397725D01*
X30688174Y-56350281D01*
X30757070Y-56305452D01*
X30806578Y-56263147D01*
X30806578Y-57273091D01*
X30875577Y-57273091D01*
X30875577Y-56264490D01*
X30975228Y-56336349D01*
X31086664Y-56397725D01*
X31086664Y-56346922D01*
G37*
G36*
X30137169Y-56757250D02*
G01*
X29973893Y-56722079D01*
X29960127Y-56762552D01*
X29938490Y-56795087D01*
X29908524Y-56821061D01*
X29868653Y-56840899D01*
X29816373Y-56854007D01*
X29748457Y-56858855D01*
X29689571Y-56854394D01*
X29644707Y-56842371D01*
X29610826Y-56824173D01*
X29583330Y-56798272D01*
X29567819Y-56769994D01*
X29562649Y-56738138D01*
X29568075Y-56702326D01*
X29584509Y-56669139D01*
X29601818Y-56651579D01*
X29631413Y-56634829D01*
X29678115Y-56619436D01*
X29856412Y-56567840D01*
X29941043Y-56540069D01*
X29991662Y-56513190D01*
X30030406Y-56477105D01*
X30061698Y-56426973D01*
X30081347Y-56369589D01*
X30087955Y-56308026D01*
X30081896Y-56247050D01*
X30064449Y-56194122D01*
X30035828Y-56147579D01*
X29995081Y-56106343D01*
X29946875Y-56073925D01*
X29892025Y-56050298D01*
X29829336Y-56035551D01*
X29757311Y-56030383D01*
X29678565Y-56036510D01*
X29607400Y-56054312D01*
X29542499Y-56083445D01*
X29498517Y-56113497D01*
X29464438Y-56148221D01*
X29439075Y-56187976D01*
X29421904Y-56233593D01*
X29581761Y-56272672D01*
X29600219Y-56235035D01*
X29625503Y-56206417D01*
X29658278Y-56185480D01*
X29700249Y-56172051D01*
X29753952Y-56167159D01*
X29805404Y-56171376D01*
X29844434Y-56182753D01*
X29873815Y-56200071D01*
X29897053Y-56224338D01*
X29910555Y-56251782D01*
X29915153Y-56283602D01*
X29908327Y-56317821D01*
X29887517Y-56347324D01*
X29848958Y-56373573D01*
X29785338Y-56395893D01*
X29626885Y-56435765D01*
X29553754Y-56458766D01*
X29499545Y-56484713D01*
X29460493Y-56512876D01*
X29433567Y-56543049D01*
X29406125Y-56592183D01*
X29389844Y-56644024D01*
X29384352Y-56699609D01*
X29391142Y-56766328D01*
X29410612Y-56823510D01*
X29442473Y-56873149D01*
X29487850Y-56916496D01*
X29541167Y-56949983D01*
X29602616Y-56974641D01*
X29673632Y-56990161D01*
X29755967Y-56995631D01*
X29846916Y-56988841D01*
X29927305Y-56969316D01*
X29998867Y-56937745D01*
X30046453Y-56904861D01*
X30084938Y-56864445D01*
X30115142Y-56815707D01*
X30137169Y-56757250D01*
G37*
G36*
X28932442Y-56857512D02*
G01*
X28932442Y-56980000D01*
X28998500Y-56992319D01*
X29040397Y-56995631D01*
X29100139Y-56989058D01*
X29148352Y-56970596D01*
X29187626Y-56940652D01*
X29214237Y-56902025D01*
X29228947Y-56852267D01*
X29235059Y-56767997D01*
X29235059Y-56409448D01*
X29321093Y-56409448D01*
X29321093Y-56288304D01*
X29226144Y-56288304D01*
X29211794Y-56108541D01*
X29084055Y-56096817D01*
X29084055Y-56288304D01*
X28945387Y-56288304D01*
X28945387Y-56409448D01*
X29084055Y-56409448D01*
X29084055Y-56746687D01*
X29080733Y-56789642D01*
X29072350Y-56817726D01*
X29060486Y-56835286D01*
X29042952Y-56847130D01*
X29014741Y-56855522D01*
X28971398Y-56858855D01*
X28932442Y-56857512D01*
G37*
G36*
X28605372Y-56279545D02*
G01*
X28668547Y-56299175D01*
X28723182Y-56331005D01*
X28770692Y-56375743D01*
X28808557Y-56429474D01*
X28835926Y-56489918D01*
X28852888Y-56558308D01*
X28858802Y-56636228D01*
X28852723Y-56718778D01*
X28835571Y-56788689D01*
X28808383Y-56848111D01*
X28771363Y-56898728D01*
X28724512Y-56940859D01*
X28671347Y-56970804D01*
X28610612Y-56989213D01*
X28540493Y-56995631D01*
X28462826Y-56988413D01*
X28397356Y-56967934D01*
X28341679Y-56934937D01*
X28294292Y-56890422D01*
X28259082Y-56839354D01*
X28235128Y-56780697D01*
X28375873Y-56761158D01*
X28395763Y-56801745D01*
X28420695Y-56831702D01*
X28450854Y-56852846D01*
X28487263Y-56865937D01*
X28531639Y-56870579D01*
X28570146Y-56866849D01*
X28602763Y-56856227D01*
X28630680Y-56839010D01*
X28664156Y-56804109D01*
X28683619Y-56764944D01*
X28693185Y-56718786D01*
X28696930Y-56651737D01*
X28223527Y-56651737D01*
X28222855Y-56633968D01*
X28228370Y-56554852D01*
X28228556Y-56554040D01*
X28385460Y-56554040D01*
X28696930Y-56554040D01*
X28687280Y-56500975D01*
X28670193Y-56459408D01*
X28646372Y-56427034D01*
X28615300Y-56402051D01*
X28580018Y-56387201D01*
X28539150Y-56382093D01*
X28497977Y-56387494D01*
X28462131Y-56403298D01*
X28430217Y-56430148D01*
X28406068Y-56464443D01*
X28391050Y-56505163D01*
X28385460Y-56554040D01*
X28228556Y-56554040D01*
X28244075Y-56486195D01*
X28269162Y-56426345D01*
X28303455Y-56373972D01*
X28347314Y-56330142D01*
X28398812Y-56298883D01*
X28459473Y-56279503D01*
X28531578Y-56272672D01*
X28605372Y-56279545D01*
G37*
G36*
X27783786Y-56278086D02*
G01*
X27830393Y-56293734D01*
X27871717Y-56319531D01*
X27908669Y-56356457D01*
X27941548Y-56406456D01*
X27941548Y-56288304D01*
X28090475Y-56288304D01*
X28090475Y-57214473D01*
X27932023Y-57214473D01*
X27932023Y-56884012D01*
X27904635Y-56924682D01*
X27872366Y-56955341D01*
X27834747Y-56977257D01*
X27790712Y-56990848D01*
X27738705Y-56995631D01*
X27676973Y-56988521D01*
X27625345Y-56968209D01*
X27581535Y-56934772D01*
X27544348Y-56886393D01*
X27516365Y-56830727D01*
X27496007Y-56769872D01*
X27483423Y-56703044D01*
X27479774Y-56641174D01*
X27644427Y-56641174D01*
X27648699Y-56708198D01*
X27660554Y-56763331D01*
X27678926Y-56808602D01*
X27699104Y-56837904D01*
X27723403Y-56858012D01*
X27752503Y-56870205D01*
X27787859Y-56874487D01*
X27822191Y-56869250D01*
X27854958Y-56853199D01*
X27887265Y-56824478D01*
X27911811Y-56788848D01*
X27926789Y-56747374D01*
X27932023Y-56698449D01*
X27932023Y-56593974D01*
X27926779Y-56538073D01*
X27912084Y-56492362D01*
X27888670Y-56454755D01*
X27856823Y-56424662D01*
X27822084Y-56407419D01*
X27783096Y-56401632D01*
X27750674Y-56405813D01*
X27723266Y-56417892D01*
X27699642Y-56438180D01*
X27679293Y-56468250D01*
X27660831Y-56514011D01*
X27648800Y-56570856D01*
X27644427Y-56641174D01*
X27479774Y-56641174D01*
X27479075Y-56629328D01*
X27483817Y-56550992D01*
X27497272Y-56483133D01*
X27518599Y-56424229D01*
X27547402Y-56372995D01*
X27585529Y-56328108D01*
X27628026Y-56297373D01*
X27675788Y-56278993D01*
X27730462Y-56272672D01*
X27783786Y-56278086D01*
G37*
G36*
X27030541Y-56278086D02*
G01*
X27077148Y-56293734D01*
X27118472Y-56319531D01*
X27155424Y-56356457D01*
X27188303Y-56406456D01*
X27188303Y-56288304D01*
X27337231Y-56288304D01*
X27337231Y-57214473D01*
X27178778Y-57214473D01*
X27178778Y-56884012D01*
X27151390Y-56924682D01*
X27119121Y-56955341D01*
X27081502Y-56977257D01*
X27037467Y-56990848D01*
X26985460Y-56995631D01*
X26923728Y-56988521D01*
X26872100Y-56968209D01*
X26828290Y-56934772D01*
X26791104Y-56886393D01*
X26763120Y-56830727D01*
X26742763Y-56769872D01*
X26730178Y-56703044D01*
X26726529Y-56641174D01*
X26891182Y-56641174D01*
X26895454Y-56708198D01*
X26907309Y-56763331D01*
X26925681Y-56808602D01*
X26945859Y-56837904D01*
X26970158Y-56858012D01*
X26999258Y-56870205D01*
X27034614Y-56874487D01*
X27068946Y-56869250D01*
X27101713Y-56853199D01*
X27134021Y-56824478D01*
X27158566Y-56788848D01*
X27173544Y-56747374D01*
X27178778Y-56698449D01*
X27178778Y-56593974D01*
X27173534Y-56538073D01*
X27158839Y-56492362D01*
X27135425Y-56454755D01*
X27103578Y-56424662D01*
X27068840Y-56407419D01*
X27029851Y-56401632D01*
X26997429Y-56405813D01*
X26970021Y-56417892D01*
X26946397Y-56438180D01*
X26926048Y-56468250D01*
X26907586Y-56514011D01*
X26895555Y-56570856D01*
X26891182Y-56641174D01*
X26726529Y-56641174D01*
X26725830Y-56629328D01*
X26730572Y-56550992D01*
X26744027Y-56483133D01*
X26765354Y-56424229D01*
X26794157Y-56372995D01*
X26832284Y-56328108D01*
X26874781Y-56297373D01*
X26922543Y-56278993D01*
X26977217Y-56272672D01*
X27030541Y-56278086D01*
G37*
G36*
X26374946Y-56279545D02*
G01*
X26438122Y-56299175D01*
X26492756Y-56331005D01*
X26540266Y-56375743D01*
X26578131Y-56429474D01*
X26605500Y-56489918D01*
X26622462Y-56558308D01*
X26628377Y-56636228D01*
X26622298Y-56718778D01*
X26605146Y-56788689D01*
X26577958Y-56848111D01*
X26540938Y-56898728D01*
X26494086Y-56940859D01*
X26440922Y-56970804D01*
X26380186Y-56989213D01*
X26310067Y-56995631D01*
X26232400Y-56988413D01*
X26166931Y-56967934D01*
X26111254Y-56934937D01*
X26063866Y-56890422D01*
X26028656Y-56839354D01*
X26004703Y-56780697D01*
X26145448Y-56761158D01*
X26165337Y-56801745D01*
X26190269Y-56831702D01*
X26220429Y-56852846D01*
X26256837Y-56865937D01*
X26301213Y-56870579D01*
X26339720Y-56866849D01*
X26372337Y-56856227D01*
X26400254Y-56839010D01*
X26433730Y-56804109D01*
X26453194Y-56764944D01*
X26462759Y-56718786D01*
X26466505Y-56651737D01*
X25993101Y-56651737D01*
X25992429Y-56633968D01*
X25997944Y-56554852D01*
X25998130Y-56554040D01*
X26155034Y-56554040D01*
X26466505Y-56554040D01*
X26456854Y-56500975D01*
X26439767Y-56459408D01*
X26415947Y-56427034D01*
X26384874Y-56402051D01*
X26349593Y-56387201D01*
X26308724Y-56382093D01*
X26267551Y-56387494D01*
X26231705Y-56403298D01*
X26199792Y-56430148D01*
X26175642Y-56464443D01*
X26160624Y-56505163D01*
X26155034Y-56554040D01*
X25998130Y-56554040D01*
X26013649Y-56486195D01*
X26038737Y-56426345D01*
X26073030Y-56373972D01*
X26116888Y-56330142D01*
X26168387Y-56298883D01*
X26229047Y-56279503D01*
X26301152Y-56272672D01*
X26374946Y-56279545D01*
G37*
G36*
X25439036Y-56383497D02*
G01*
X25463845Y-56338244D01*
X25494060Y-56304642D01*
X25529986Y-56280856D01*
X25572752Y-56266145D01*
X25624172Y-56260949D01*
X25686266Y-56267982D01*
X25739089Y-56288197D01*
X25784730Y-56321600D01*
X25824329Y-56369942D01*
X25854629Y-56425706D01*
X25876540Y-56486341D01*
X25890024Y-56552638D01*
X25894671Y-56625542D01*
X25890032Y-56704616D01*
X25876793Y-56774110D01*
X25855691Y-56835344D01*
X25827077Y-56889446D01*
X25788937Y-56936479D01*
X25744690Y-56969019D01*
X25693195Y-56988751D01*
X25632354Y-56995631D01*
X25578401Y-56989465D01*
X25532469Y-56971731D01*
X25492722Y-56942374D01*
X25458180Y-56899779D01*
X25428839Y-56840964D01*
X25428839Y-56980000D01*
X25283331Y-56980000D01*
X25283331Y-56574801D01*
X25439036Y-56574801D01*
X25439036Y-56690877D01*
X25444230Y-56740328D01*
X25459020Y-56781856D01*
X25483122Y-56817151D01*
X25514987Y-56845356D01*
X25548411Y-56861368D01*
X25584544Y-56866671D01*
X25626652Y-56860940D01*
X25660262Y-56844676D01*
X25687490Y-56817518D01*
X25708972Y-56776905D01*
X25723732Y-56718490D01*
X25729380Y-56636594D01*
X25724209Y-56557633D01*
X25710554Y-56499557D01*
X25690484Y-56457625D01*
X25660658Y-56423927D01*
X25625318Y-56404423D01*
X25582529Y-56397725D01*
X25542308Y-56403061D01*
X25508325Y-56418510D01*
X25479031Y-56444558D01*
X25457676Y-56477936D01*
X25444008Y-56520504D01*
X25439036Y-56574801D01*
X25283331Y-56574801D01*
X25283331Y-56046015D01*
X25439036Y-56046015D01*
X25439036Y-56383497D01*
G37*
G36*
X43246390Y-56980000D02*
G01*
X43409606Y-56980000D01*
X43763452Y-56384047D01*
X43790136Y-56339473D01*
X43815415Y-56295692D01*
X43815415Y-56980000D01*
X43950665Y-56980000D01*
X43950665Y-56046015D01*
X43764857Y-56046015D01*
X43438304Y-56596721D01*
X43378892Y-56696800D01*
X43378892Y-56046015D01*
X43246390Y-56046015D01*
X43246390Y-56980000D01*
G37*
G36*
X42841110Y-56279409D02*
G01*
X42902933Y-56298770D01*
X42957208Y-56330380D01*
X43005201Y-56375071D01*
X43043670Y-56428575D01*
X43071341Y-56488299D01*
X43088415Y-56555405D01*
X43094349Y-56631404D01*
X43089168Y-56701814D01*
X43073980Y-56766959D01*
X43048951Y-56827768D01*
X43013749Y-56884989D01*
X42978814Y-56924632D01*
X42938845Y-56955091D01*
X42893183Y-56977124D01*
X42840751Y-56990828D01*
X42780131Y-56995631D01*
X42710960Y-56989146D01*
X42649781Y-56970368D01*
X42594988Y-56939501D01*
X42545474Y-56895675D01*
X42505922Y-56843223D01*
X42477179Y-56782779D01*
X42459222Y-56712830D01*
X42452906Y-56631404D01*
X42452934Y-56631038D01*
X42617587Y-56631038D01*
X42623608Y-56715646D01*
X42639388Y-56776261D01*
X42662468Y-56818667D01*
X42691925Y-56847241D01*
X42728550Y-56864477D01*
X42774696Y-56870579D01*
X42819306Y-56863765D01*
X42856324Y-56843941D01*
X42887720Y-56809823D01*
X42909269Y-56767209D01*
X42923672Y-56709902D01*
X42929058Y-56633785D01*
X42924171Y-56563345D01*
X42910762Y-56507088D01*
X42890162Y-56462327D01*
X42867986Y-56433970D01*
X42841335Y-56414169D01*
X42809377Y-56402014D01*
X42770605Y-56397725D01*
X42733164Y-56401875D01*
X42702313Y-56413637D01*
X42676593Y-56432800D01*
X42655201Y-56460251D01*
X42635425Y-56503618D01*
X42622389Y-56559516D01*
X42617587Y-56631038D01*
X42452934Y-56631038D01*
X42458959Y-56552382D01*
X42476215Y-56483991D01*
X42503904Y-56424435D01*
X42542055Y-56372323D01*
X42589933Y-56328573D01*
X42643042Y-56297823D01*
X42702481Y-56279130D01*
X42769873Y-56272672D01*
X42841110Y-56279409D01*
G37*
G36*
X41739351Y-56980000D02*
G01*
X41895056Y-56980000D01*
X41895056Y-56547262D01*
X41899075Y-56502570D01*
X41909911Y-56469040D01*
X41926502Y-56444070D01*
X41949240Y-56424603D01*
X41974213Y-56413279D01*
X42002339Y-56409448D01*
X42040522Y-56415172D01*
X42075642Y-56432450D01*
X42108951Y-56462937D01*
X42132912Y-56501306D01*
X42148760Y-56553596D01*
X42154686Y-56624077D01*
X42154686Y-56980000D01*
X42310391Y-56980000D01*
X42310391Y-56288304D01*
X42168302Y-56288304D01*
X42168302Y-56448100D01*
X42132377Y-56378992D01*
X42093793Y-56330293D01*
X42052677Y-56297880D01*
X42008332Y-56279025D01*
X41959292Y-56272672D01*
X41900922Y-56279247D01*
X41849679Y-56298377D01*
X41803892Y-56330314D01*
X41777912Y-56360975D01*
X41757814Y-56402775D01*
X41744370Y-56458729D01*
X41739351Y-56532669D01*
X41739351Y-56980000D01*
G37*
G36*
X41306369Y-56561856D02*
G01*
X41306369Y-56690816D01*
X41649286Y-56690816D01*
X41649286Y-56561856D01*
X41306369Y-56561856D01*
G37*
G36*
X41305026Y-56757250D02*
G01*
X41141750Y-56722079D01*
X41127983Y-56762552D01*
X41106346Y-56795087D01*
X41076380Y-56821061D01*
X41036510Y-56840899D01*
X40984229Y-56854007D01*
X40916314Y-56858855D01*
X40857428Y-56854394D01*
X40812564Y-56842371D01*
X40778683Y-56824173D01*
X40751186Y-56798272D01*
X40735676Y-56769994D01*
X40730506Y-56738138D01*
X40735932Y-56702326D01*
X40752366Y-56669139D01*
X40769675Y-56651579D01*
X40799270Y-56634829D01*
X40845972Y-56619436D01*
X41024269Y-56567840D01*
X41108900Y-56540069D01*
X41159518Y-56513190D01*
X41198263Y-56477105D01*
X41229555Y-56426973D01*
X41249204Y-56369589D01*
X41255811Y-56308026D01*
X41249752Y-56247050D01*
X41232305Y-56194122D01*
X41203685Y-56147579D01*
X41162938Y-56106343D01*
X41114732Y-56073925D01*
X41059881Y-56050298D01*
X40997193Y-56035551D01*
X40925167Y-56030383D01*
X40846422Y-56036510D01*
X40775256Y-56054312D01*
X40710356Y-56083445D01*
X40666373Y-56113497D01*
X40632294Y-56148221D01*
X40606931Y-56187976D01*
X40589761Y-56233593D01*
X40749618Y-56272672D01*
X40768075Y-56235035D01*
X40793360Y-56206417D01*
X40826134Y-56185480D01*
X40868105Y-56172051D01*
X40921809Y-56167159D01*
X40973261Y-56171376D01*
X41012291Y-56182753D01*
X41041671Y-56200071D01*
X41064909Y-56224338D01*
X41078412Y-56251782D01*
X41083009Y-56283602D01*
X41076184Y-56317821D01*
X41055374Y-56347324D01*
X41016815Y-56373573D01*
X40953194Y-56395893D01*
X40794742Y-56435765D01*
X40721610Y-56458766D01*
X40667402Y-56484713D01*
X40628349Y-56512876D01*
X40601424Y-56543049D01*
X40573982Y-56592183D01*
X40557700Y-56644024D01*
X40552209Y-56699609D01*
X40558998Y-56766328D01*
X40578468Y-56823510D01*
X40610330Y-56873149D01*
X40655706Y-56916496D01*
X40709024Y-56949983D01*
X40770473Y-56974641D01*
X40841489Y-56990161D01*
X40923824Y-56995631D01*
X41014773Y-56988841D01*
X41095162Y-56969316D01*
X41166724Y-56937745D01*
X41214310Y-56904861D01*
X41252795Y-56864445D01*
X41282998Y-56815707D01*
X41305026Y-56757250D01*
G37*
G36*
X40100298Y-56857512D02*
G01*
X40100298Y-56980000D01*
X40166356Y-56992319D01*
X40208254Y-56995631D01*
X40267995Y-56989058D01*
X40316209Y-56970596D01*
X40355483Y-56940652D01*
X40382093Y-56902025D01*
X40396804Y-56852267D01*
X40402915Y-56767997D01*
X40402915Y-56409448D01*
X40488950Y-56409448D01*
X40488950Y-56288304D01*
X40394000Y-56288304D01*
X40379651Y-56108541D01*
X40251912Y-56096817D01*
X40251912Y-56288304D01*
X40113243Y-56288304D01*
X40113243Y-56409448D01*
X40251912Y-56409448D01*
X40251912Y-56746687D01*
X40248590Y-56789642D01*
X40240207Y-56817726D01*
X40228343Y-56835286D01*
X40210809Y-56847130D01*
X40182597Y-56855522D01*
X40139255Y-56858855D01*
X40100298Y-56857512D01*
G37*
G36*
X39773229Y-56279545D02*
G01*
X39836404Y-56299175D01*
X39891039Y-56331005D01*
X39938548Y-56375743D01*
X39976414Y-56429474D01*
X40003782Y-56489918D01*
X40020745Y-56558308D01*
X40026659Y-56636228D01*
X40020580Y-56718778D01*
X40003428Y-56788689D01*
X39976240Y-56848111D01*
X39939220Y-56898728D01*
X39892369Y-56940859D01*
X39839204Y-56970804D01*
X39778468Y-56989213D01*
X39708350Y-56995631D01*
X39630682Y-56988413D01*
X39565213Y-56967934D01*
X39509536Y-56934937D01*
X39462148Y-56890422D01*
X39426939Y-56839354D01*
X39402985Y-56780697D01*
X39543730Y-56761158D01*
X39563619Y-56801745D01*
X39588551Y-56831702D01*
X39618711Y-56852846D01*
X39655119Y-56865937D01*
X39699496Y-56870579D01*
X39738003Y-56866849D01*
X39770620Y-56856227D01*
X39798536Y-56839010D01*
X39832012Y-56804109D01*
X39851476Y-56764944D01*
X39861041Y-56718786D01*
X39864787Y-56651737D01*
X39391383Y-56651737D01*
X39390712Y-56633968D01*
X39396226Y-56554852D01*
X39396412Y-56554040D01*
X39553316Y-56554040D01*
X39864787Y-56554040D01*
X39855136Y-56500975D01*
X39838049Y-56459408D01*
X39814229Y-56427034D01*
X39783157Y-56402051D01*
X39747875Y-56387201D01*
X39707006Y-56382093D01*
X39665833Y-56387494D01*
X39629987Y-56403298D01*
X39598074Y-56430148D01*
X39573924Y-56464443D01*
X39558907Y-56505163D01*
X39553316Y-56554040D01*
X39396412Y-56554040D01*
X39411931Y-56486195D01*
X39437019Y-56426345D01*
X39471312Y-56373972D01*
X39515171Y-56330142D01*
X39566669Y-56298883D01*
X39627329Y-56279503D01*
X39699435Y-56272672D01*
X39773229Y-56279545D01*
G37*
G36*
X38951643Y-56278086D02*
G01*
X38998250Y-56293734D01*
X39039574Y-56319531D01*
X39076526Y-56356457D01*
X39109405Y-56406456D01*
X39109405Y-56288304D01*
X39258332Y-56288304D01*
X39258332Y-57214473D01*
X39099880Y-57214473D01*
X39099880Y-56884012D01*
X39072491Y-56924682D01*
X39040222Y-56955341D01*
X39002603Y-56977257D01*
X38958568Y-56990848D01*
X38906561Y-56995631D01*
X38844830Y-56988521D01*
X38793201Y-56968209D01*
X38749392Y-56934772D01*
X38712205Y-56886393D01*
X38684222Y-56830727D01*
X38663864Y-56769872D01*
X38651280Y-56703044D01*
X38647630Y-56641174D01*
X38812284Y-56641174D01*
X38816556Y-56708198D01*
X38828411Y-56763331D01*
X38846783Y-56808602D01*
X38866961Y-56837904D01*
X38891259Y-56858012D01*
X38920360Y-56870205D01*
X38955715Y-56874487D01*
X38990048Y-56869250D01*
X39022815Y-56853199D01*
X39055122Y-56824478D01*
X39079667Y-56788848D01*
X39094645Y-56747374D01*
X39099880Y-56698449D01*
X39099880Y-56593974D01*
X39094635Y-56538073D01*
X39079940Y-56492362D01*
X39056526Y-56454755D01*
X39024680Y-56424662D01*
X38989941Y-56407419D01*
X38950952Y-56401632D01*
X38918530Y-56405813D01*
X38891122Y-56417892D01*
X38867499Y-56438180D01*
X38847149Y-56468250D01*
X38828688Y-56514011D01*
X38816656Y-56570856D01*
X38812284Y-56641174D01*
X38647630Y-56641174D01*
X38646931Y-56629328D01*
X38651673Y-56550992D01*
X38665129Y-56483133D01*
X38686456Y-56424229D01*
X38715258Y-56372995D01*
X38753386Y-56328108D01*
X38795883Y-56297373D01*
X38843644Y-56278993D01*
X38898318Y-56272672D01*
X38951643Y-56278086D01*
G37*
G36*
X38198398Y-56278086D02*
G01*
X38245005Y-56293734D01*
X38286329Y-56319531D01*
X38323281Y-56356457D01*
X38356160Y-56406456D01*
X38356160Y-56288304D01*
X38505087Y-56288304D01*
X38505087Y-57214473D01*
X38346635Y-57214473D01*
X38346635Y-56884012D01*
X38319246Y-56924682D01*
X38286977Y-56955341D01*
X38249358Y-56977257D01*
X38205323Y-56990848D01*
X38153316Y-56995631D01*
X38091585Y-56988521D01*
X38039956Y-56968209D01*
X37996147Y-56934772D01*
X37958960Y-56886393D01*
X37930977Y-56830727D01*
X37910619Y-56769872D01*
X37898035Y-56703044D01*
X37894385Y-56641174D01*
X38059039Y-56641174D01*
X38063311Y-56708198D01*
X38075166Y-56763331D01*
X38093538Y-56808602D01*
X38113716Y-56837904D01*
X38138014Y-56858012D01*
X38167115Y-56870205D01*
X38202470Y-56874487D01*
X38236803Y-56869250D01*
X38269570Y-56853199D01*
X38301877Y-56824478D01*
X38326422Y-56788848D01*
X38341400Y-56747374D01*
X38346635Y-56698449D01*
X38346635Y-56593974D01*
X38341390Y-56538073D01*
X38326695Y-56492362D01*
X38303282Y-56454755D01*
X38271435Y-56424662D01*
X38236696Y-56407419D01*
X38197708Y-56401632D01*
X38165285Y-56405813D01*
X38137877Y-56417892D01*
X38114254Y-56438180D01*
X38093904Y-56468250D01*
X38075443Y-56514011D01*
X38063411Y-56570856D01*
X38059039Y-56641174D01*
X37894385Y-56641174D01*
X37893686Y-56629328D01*
X37898428Y-56550992D01*
X37911884Y-56483133D01*
X37933211Y-56424229D01*
X37962013Y-56372995D01*
X38000141Y-56328108D01*
X38042638Y-56297373D01*
X38090399Y-56278993D01*
X38145073Y-56272672D01*
X38198398Y-56278086D01*
G37*
G36*
X37542803Y-56279545D02*
G01*
X37605978Y-56299175D01*
X37660613Y-56331005D01*
X37708123Y-56375743D01*
X37745988Y-56429474D01*
X37773357Y-56489918D01*
X37790319Y-56558308D01*
X37796233Y-56636228D01*
X37790154Y-56718778D01*
X37773002Y-56788689D01*
X37745814Y-56848111D01*
X37708794Y-56898728D01*
X37661943Y-56940859D01*
X37608778Y-56970804D01*
X37548043Y-56989213D01*
X37477924Y-56995631D01*
X37400257Y-56988413D01*
X37334787Y-56967934D01*
X37279110Y-56934937D01*
X37231723Y-56890422D01*
X37196513Y-56839354D01*
X37172559Y-56780697D01*
X37313304Y-56761158D01*
X37333193Y-56801745D01*
X37358125Y-56831702D01*
X37388285Y-56852846D01*
X37424694Y-56865937D01*
X37469070Y-56870579D01*
X37507577Y-56866849D01*
X37540194Y-56856227D01*
X37568111Y-56839010D01*
X37601587Y-56804109D01*
X37621050Y-56764944D01*
X37630616Y-56718786D01*
X37634361Y-56651737D01*
X37160958Y-56651737D01*
X37160286Y-56633968D01*
X37165800Y-56554852D01*
X37165986Y-56554040D01*
X37322891Y-56554040D01*
X37634361Y-56554040D01*
X37624711Y-56500975D01*
X37607624Y-56459408D01*
X37583803Y-56427034D01*
X37552731Y-56402051D01*
X37517449Y-56387201D01*
X37476581Y-56382093D01*
X37435408Y-56387494D01*
X37399561Y-56403298D01*
X37367648Y-56430148D01*
X37343499Y-56464443D01*
X37328481Y-56505163D01*
X37322891Y-56554040D01*
X37165986Y-56554040D01*
X37181506Y-56486195D01*
X37206593Y-56426345D01*
X37240886Y-56373972D01*
X37284745Y-56330142D01*
X37336243Y-56298883D01*
X37396904Y-56279503D01*
X37469009Y-56272672D01*
X37542803Y-56279545D01*
G37*
G36*
X36606893Y-56383497D02*
G01*
X36631702Y-56338244D01*
X36661917Y-56304642D01*
X36697842Y-56280856D01*
X36740608Y-56266145D01*
X36792029Y-56260949D01*
X36854123Y-56267982D01*
X36906945Y-56288197D01*
X36952586Y-56321600D01*
X36992186Y-56369942D01*
X37022486Y-56425706D01*
X37044396Y-56486341D01*
X37057881Y-56552638D01*
X37062528Y-56625542D01*
X37057889Y-56704616D01*
X37044649Y-56774110D01*
X37023547Y-56835344D01*
X36994934Y-56889446D01*
X36956793Y-56936479D01*
X36912547Y-56969019D01*
X36861052Y-56988751D01*
X36800211Y-56995631D01*
X36746258Y-56989465D01*
X36700325Y-56971731D01*
X36660579Y-56942374D01*
X36626037Y-56899779D01*
X36596696Y-56840964D01*
X36596696Y-56980000D01*
X36451188Y-56980000D01*
X36451188Y-56574801D01*
X36606893Y-56574801D01*
X36606893Y-56690877D01*
X36612086Y-56740328D01*
X36626876Y-56781856D01*
X36650979Y-56817151D01*
X36682843Y-56845356D01*
X36716268Y-56861368D01*
X36752400Y-56866671D01*
X36794509Y-56860940D01*
X36828118Y-56844676D01*
X36855347Y-56817518D01*
X36876828Y-56776905D01*
X36891589Y-56718490D01*
X36897237Y-56636594D01*
X36892066Y-56557633D01*
X36878410Y-56499557D01*
X36858341Y-56457625D01*
X36828514Y-56423927D01*
X36793174Y-56404423D01*
X36750385Y-56397725D01*
X36710165Y-56403061D01*
X36676181Y-56418510D01*
X36646888Y-56444558D01*
X36625533Y-56477936D01*
X36611864Y-56520504D01*
X36606893Y-56574801D01*
X36451188Y-56574801D01*
X36451188Y-56046015D01*
X36606893Y-56046015D01*
X36606893Y-56383497D01*
G37*
G36*
X35904206Y-56346922D02*
G01*
X35813699Y-56259226D01*
X35748669Y-56184285D01*
X35704389Y-56120306D01*
X35676755Y-56065554D01*
X35645309Y-56065554D01*
X35612472Y-56125639D01*
X35564767Y-56191926D01*
X35499367Y-56265378D01*
X35413034Y-56346922D01*
X35413034Y-56397725D01*
X35505716Y-56350281D01*
X35574613Y-56305452D01*
X35624121Y-56263147D01*
X35624121Y-57273091D01*
X35693119Y-57273091D01*
X35693119Y-56264490D01*
X35792771Y-56336349D01*
X35904206Y-56397725D01*
X35904206Y-56346922D01*
G37*
M02*
