%TF.GenerationSoftware,KiCad,Pcbnew,10.0.3*%
%TF.CreationDate,2026-05-26T12:48:33-07:00*%
%TF.ProjectId,bkf-unibodysplit,626b662d-756e-4696-926f-647973706c69,rev?*%
%TF.SameCoordinates,Original*%
%TF.FileFunction,Soldermask,Top*%
%TF.FilePolarity,Negative*%
%FSLAX46Y46*%
G04 Gerber Fmt 4.6, Leading zero omitted, Abs format (unit mm)*
G04 Created by KiCad (PCBNEW 10.0.3) date 2026-05-26 12:48:33*
%MOMM*%
%LPD*%
G01*
G04 APERTURE LIST*
G04 Aperture macros list*
%AMRoundRect*
0 Rectangle with rounded corners*
0 $1 Rounding radius*
0 $2 $3 $4 $5 $6 $7 $8 $9 X,Y pos of 4 corners*
0 Add a 4 corners polygon primitive as box body*
4,1,4,$2,$3,$4,$5,$6,$7,$8,$9,$2,$3,0*
0 Add four circle primitives for the rounded corners*
1,1,$1+$1,$2,$3*
1,1,$1+$1,$4,$5*
1,1,$1+$1,$6,$7*
1,1,$1+$1,$8,$9*
0 Add four rect primitives between the rounded corners*
20,1,$1+$1,$2,$3,$4,$5,0*
20,1,$1+$1,$4,$5,$6,$7,0*
20,1,$1+$1,$6,$7,$8,$9,0*
20,1,$1+$1,$8,$9,$2,$3,0*%
G04 Aperture macros list end*
%ADD10C,1.750000*%
%ADD11C,3.987800*%
%ADD12R,1.600000X1.600000*%
%ADD13C,1.600000*%
%ADD14RoundRect,0.102000X-0.754000X-0.754000X0.754000X-0.754000X0.754000X0.754000X-0.754000X0.754000X0*%
%ADD15C,1.712000*%
G04 APERTURE END LIST*
D10*
%TO.C,MX35*%
X275907500Y-71437500D03*
D11*
X280987500Y-71437500D03*
D10*
X286067500Y-71437500D03*
%TD*%
D12*
%TO.C,D40*%
X121443750Y-93525000D03*
D13*
X121443750Y-85725000D03*
%TD*%
D12*
%TO.C,D29*%
X138112500Y-74475000D03*
D13*
X138112500Y-66675000D03*
%TD*%
D10*
%TO.C,MX42b2*%
X211613750Y-90487500D03*
D11*
X216693750Y-90487500D03*
D10*
X221773750Y-90487500D03*
%TD*%
%TO.C,MX6*%
X128270000Y-33337500D03*
D11*
X133350000Y-33337500D03*
D10*
X138430000Y-33337500D03*
%TD*%
D12*
%TO.C,D19*%
X204787500Y-55425000D03*
D13*
X204787500Y-47625000D03*
%TD*%
D12*
%TO.C,D31*%
X195262500Y-74475000D03*
D13*
X195262500Y-66675000D03*
%TD*%
D11*
%TO.C,MX42c1*%
X233362500Y-82232500D03*
X209550000Y-82232500D03*
%TD*%
D10*
%TO.C,MX17*%
X113982500Y-52387500D03*
D11*
X119062500Y-52387500D03*
D10*
X124142500Y-52387500D03*
%TD*%
%TO.C,MX37a1*%
X42545000Y-90487500D03*
D11*
X47625000Y-90487500D03*
D10*
X52705000Y-90487500D03*
%TD*%
D12*
%TO.C,D17*%
X128587500Y-55425000D03*
D13*
X128587500Y-47625000D03*
%TD*%
D12*
%TO.C,D39*%
X78581250Y-93525000D03*
D13*
X78581250Y-85725000D03*
%TD*%
D12*
%TO.C,D20*%
X223837500Y-55425000D03*
D13*
X223837500Y-47625000D03*
%TD*%
D10*
%TO.C,MX13a1*%
X25876250Y-52387500D03*
D11*
X30956250Y-52387500D03*
D10*
X36036250Y-52387500D03*
%TD*%
D11*
%TO.C,MX25*%
X52387500Y-63182500D03*
X28575000Y-63182500D03*
%TD*%
D10*
%TO.C,MX26*%
X66357500Y-71437500D03*
D11*
X71437500Y-71437500D03*
D10*
X76517500Y-71437500D03*
%TD*%
D12*
%TO.C,D33*%
X233362500Y-74475000D03*
D13*
X233362500Y-66675000D03*
%TD*%
D10*
%TO.C,MX32*%
X218757500Y-71437500D03*
D11*
X223837500Y-71437500D03*
D10*
X228917500Y-71437500D03*
%TD*%
D12*
%TO.C,D1*%
X42862500Y-36375000D03*
D13*
X42862500Y-28575000D03*
%TD*%
D12*
%TO.C,D11*%
X276225000Y-36375000D03*
D13*
X276225000Y-28575000D03*
%TD*%
D11*
%TO.C,MX42a1*%
X226218750Y-82232500D03*
X202406250Y-82232500D03*
%TD*%
D10*
%TO.C,MX41*%
X135413750Y-90487500D03*
D11*
X140493750Y-90487500D03*
D10*
X145573750Y-90487500D03*
%TD*%
D12*
%TO.C,D30*%
X157162500Y-74475000D03*
D13*
X157162500Y-66675000D03*
%TD*%
D10*
%TO.C,MX41a2*%
X133032500Y-90487500D03*
D11*
X138112500Y-90487500D03*
D10*
X143192500Y-90487500D03*
%TD*%
%TO.C,MX45*%
X275907500Y-90487500D03*
D11*
X280987500Y-90487500D03*
D10*
X286067500Y-90487500D03*
%TD*%
%TO.C,MX27*%
X85407500Y-71437500D03*
D11*
X90487500Y-71437500D03*
D10*
X95567500Y-71437500D03*
%TD*%
%TO.C,MX42*%
X206851250Y-90487500D03*
D11*
X211931250Y-90487500D03*
D10*
X217011250Y-90487500D03*
%TD*%
D12*
%TO.C,D13*%
X45243750Y-55425000D03*
D13*
X45243750Y-47625000D03*
%TD*%
D10*
%TO.C,MX46*%
X297338750Y-90487500D03*
D11*
X302418750Y-90487500D03*
D10*
X307498750Y-90487500D03*
%TD*%
%TO.C,MX25a1*%
X35401250Y-71437500D03*
D11*
X40481250Y-71437500D03*
D10*
X45561250Y-71437500D03*
%TD*%
%TO.C,MX43*%
X235426250Y-90487500D03*
D11*
X240506250Y-90487500D03*
D10*
X245586250Y-90487500D03*
%TD*%
D12*
%TO.C,D41*%
X155971875Y-93525000D03*
D13*
X155971875Y-85725000D03*
%TD*%
D12*
%TO.C,D5*%
X123825000Y-36375000D03*
D13*
X123825000Y-28575000D03*
%TD*%
D12*
%TO.C,D21*%
X242887500Y-55425000D03*
D13*
X242887500Y-47625000D03*
%TD*%
D10*
%TO.C,MX44*%
X256857500Y-90487500D03*
D11*
X261937500Y-90487500D03*
D10*
X267017500Y-90487500D03*
%TD*%
%TO.C,MX18*%
X133032500Y-52387500D03*
D11*
X138112500Y-52387500D03*
D10*
X143192500Y-52387500D03*
%TD*%
%TO.C,MX39a2*%
X80645000Y-90487500D03*
D11*
X85725000Y-90487500D03*
D10*
X90805000Y-90487500D03*
%TD*%
%TO.C,MX31*%
X199707500Y-71437500D03*
D11*
X204787500Y-71437500D03*
D10*
X209867500Y-71437500D03*
%TD*%
D11*
%TO.C,MX41a1*%
X150018750Y-82232500D03*
X126206250Y-82232500D03*
%TD*%
D10*
%TO.C,MX44a1*%
X254476250Y-90487500D03*
D11*
X259556250Y-90487500D03*
D10*
X264636250Y-90487500D03*
%TD*%
D12*
%TO.C,D43*%
X230981250Y-93525000D03*
D13*
X230981250Y-85725000D03*
%TD*%
D10*
%TO.C,MX46a1*%
X299720000Y-90487500D03*
D11*
X304800000Y-90487500D03*
D10*
X309880000Y-90487500D03*
%TD*%
%TO.C,MX47*%
X316388750Y-71437500D03*
D11*
X321468750Y-71437500D03*
D10*
X326548750Y-71437500D03*
%TD*%
D12*
%TO.C,D18*%
X147637500Y-55425000D03*
D13*
X147637500Y-47625000D03*
%TD*%
D12*
%TO.C,D45*%
X294084375Y-93525000D03*
D13*
X294084375Y-85725000D03*
%TD*%
D14*
%TO.C,U1*%
X180975000Y-25558750D03*
D15*
X180975000Y-28098750D03*
X180975000Y-30638750D03*
X180975000Y-33178750D03*
X180975000Y-35718750D03*
X180975000Y-38258750D03*
X180975000Y-40798750D03*
X180975000Y-43338750D03*
X180975000Y-45878750D03*
X178435000Y-45878750D03*
X175895000Y-45878750D03*
X173355000Y-45878750D03*
X170815000Y-45878750D03*
X168275000Y-45878750D03*
X165735000Y-45878750D03*
X165735000Y-43338750D03*
X165735000Y-40798750D03*
X165735000Y-38258750D03*
X165735000Y-35718750D03*
X165735000Y-33178750D03*
X165735000Y-30638750D03*
X165735000Y-28098750D03*
X165735000Y-25558750D03*
%TD*%
D10*
%TO.C,MX36*%
X294957500Y-71437500D03*
D11*
X300037500Y-71437500D03*
D10*
X305117500Y-71437500D03*
%TD*%
%TO.C,MX48*%
X318770000Y-33337500D03*
D11*
X323850000Y-33337500D03*
D10*
X328930000Y-33337500D03*
%TD*%
D12*
%TO.C,D4*%
X104775000Y-36375000D03*
D13*
X104775000Y-28575000D03*
%TD*%
D12*
%TO.C,D25*%
X58340625Y-74475000D03*
D13*
X58340625Y-66675000D03*
%TD*%
D10*
%TO.C,MX38*%
X66357500Y-90487500D03*
D11*
X71437500Y-90487500D03*
D10*
X76517500Y-90487500D03*
%TD*%
D12*
%TO.C,D34*%
X252412500Y-74475000D03*
D13*
X252412500Y-66675000D03*
%TD*%
D12*
%TO.C,D24*%
X307181250Y-55425000D03*
D13*
X307181250Y-47625000D03*
%TD*%
D10*
%TO.C,MX48a2*%
X309245000Y-33337500D03*
D11*
X314325000Y-33337500D03*
D10*
X319405000Y-33337500D03*
%TD*%
%TO.C,MX44a2*%
X261620000Y-90487500D03*
D11*
X266700000Y-90487500D03*
D10*
X271780000Y-90487500D03*
%TD*%
%TO.C,MX22*%
X266382500Y-52387500D03*
D11*
X271462500Y-52387500D03*
D10*
X276542500Y-52387500D03*
%TD*%
%TO.C,MX16*%
X94932500Y-52387500D03*
D11*
X100012500Y-52387500D03*
D10*
X105092500Y-52387500D03*
%TD*%
%TO.C,MX12*%
X299720000Y-33337500D03*
D11*
X304800000Y-33337500D03*
D10*
X309880000Y-33337500D03*
%TD*%
%TO.C,MX43a1*%
X237807500Y-90487500D03*
D11*
X242887500Y-90487500D03*
D10*
X247967500Y-90487500D03*
%TD*%
%TO.C,MX42a2*%
X209232500Y-90487500D03*
D11*
X214312500Y-90487500D03*
D10*
X219392500Y-90487500D03*
%TD*%
D12*
%TO.C,D23*%
X280987500Y-55425000D03*
D13*
X280987500Y-47625000D03*
%TD*%
D10*
%TO.C,MX39a1*%
X87788750Y-90487500D03*
D11*
X92868750Y-90487500D03*
D10*
X97948750Y-90487500D03*
%TD*%
%TO.C,MX2*%
X52070000Y-33337500D03*
D11*
X57150000Y-33337500D03*
D10*
X62230000Y-33337500D03*
%TD*%
%TO.C,MX41b2*%
X130651250Y-90487500D03*
D11*
X135731250Y-90487500D03*
D10*
X140811250Y-90487500D03*
%TD*%
%TO.C,MX37*%
X44926250Y-90487500D03*
D11*
X50006250Y-90487500D03*
D10*
X55086250Y-90487500D03*
%TD*%
D12*
%TO.C,D3*%
X85725000Y-36375000D03*
D13*
X85725000Y-28575000D03*
%TD*%
D12*
%TO.C,D35*%
X271462500Y-74475000D03*
D13*
X271462500Y-66675000D03*
%TD*%
D12*
%TO.C,D27*%
X100012500Y-74475000D03*
D13*
X100012500Y-66675000D03*
%TD*%
D10*
%TO.C,MX34*%
X256857500Y-71437500D03*
D11*
X261937500Y-71437500D03*
D10*
X267017500Y-71437500D03*
%TD*%
D11*
%TO.C,MX41c1*%
X142875000Y-82232500D03*
X119062500Y-82232500D03*
%TD*%
D10*
%TO.C,MX43a2*%
X242570000Y-90487500D03*
D11*
X247650000Y-90487500D03*
D10*
X252730000Y-90487500D03*
%TD*%
D11*
%TO.C,MX41b1*%
X147637500Y-82232500D03*
X123825000Y-82232500D03*
%TD*%
D10*
%TO.C,MX41c2*%
X125888750Y-90487500D03*
D11*
X130968750Y-90487500D03*
D10*
X136048750Y-90487500D03*
%TD*%
D11*
%TO.C,MX42b1*%
X228600000Y-82232500D03*
X204787500Y-82232500D03*
%TD*%
D12*
%TO.C,D47*%
X309562500Y-74475000D03*
D13*
X309562500Y-66675000D03*
%TD*%
D10*
%TO.C,MX33*%
X237807500Y-71437500D03*
D11*
X242887500Y-71437500D03*
D10*
X247967500Y-71437500D03*
%TD*%
%TO.C,MX15*%
X75882500Y-52387500D03*
D11*
X80962500Y-52387500D03*
D10*
X86042500Y-52387500D03*
%TD*%
%TO.C,MX5*%
X109220000Y-33337500D03*
D11*
X114300000Y-33337500D03*
D10*
X119380000Y-33337500D03*
%TD*%
%TO.C,MX14*%
X56832500Y-52387500D03*
D11*
X61912500Y-52387500D03*
D10*
X66992500Y-52387500D03*
%TD*%
D12*
%TO.C,D8*%
X219075000Y-36375000D03*
D13*
X219075000Y-28575000D03*
%TD*%
D10*
%TO.C,MX9*%
X242570000Y-33337500D03*
D11*
X247650000Y-33337500D03*
D10*
X252730000Y-33337500D03*
%TD*%
D12*
%TO.C,D7*%
X200025000Y-36375000D03*
D13*
X200025000Y-28575000D03*
%TD*%
D10*
%TO.C,MX30*%
X142557500Y-71437500D03*
D11*
X147637500Y-71437500D03*
D10*
X152717500Y-71437500D03*
%TD*%
D12*
%TO.C,D42*%
X196453125Y-93525000D03*
D13*
X196453125Y-85725000D03*
%TD*%
D10*
%TO.C,MX23*%
X285432500Y-52387500D03*
D11*
X290512500Y-52387500D03*
D10*
X295592500Y-52387500D03*
%TD*%
D12*
%TO.C,D10*%
X257175000Y-36375000D03*
D13*
X257175000Y-28575000D03*
%TD*%
D12*
%TO.C,D32*%
X214312500Y-74475000D03*
D13*
X214312500Y-66675000D03*
%TD*%
D10*
%TO.C,MX24*%
X311626250Y-52387500D03*
D11*
X316706250Y-52387500D03*
D10*
X321786250Y-52387500D03*
%TD*%
D11*
%TO.C,MX48a1*%
X302418750Y-41592500D03*
X326231250Y-41592500D03*
%TD*%
D12*
%TO.C,D16*%
X109537500Y-55425000D03*
D13*
X109537500Y-47625000D03*
%TD*%
D12*
%TO.C,D37*%
X39290625Y-93525000D03*
D13*
X39290625Y-85725000D03*
%TD*%
D10*
%TO.C,MX40a1*%
X104457500Y-90487500D03*
D11*
X109537500Y-90487500D03*
D10*
X114617500Y-90487500D03*
%TD*%
D12*
%TO.C,D26*%
X80962500Y-74475000D03*
D13*
X80962500Y-66675000D03*
%TD*%
D10*
%TO.C,MX39*%
X85407500Y-90487500D03*
D11*
X90487500Y-90487500D03*
D10*
X95567500Y-90487500D03*
%TD*%
D12*
%TO.C,D6*%
X142875000Y-36375000D03*
D13*
X142875000Y-28575000D03*
%TD*%
D10*
%TO.C,MX10*%
X261620000Y-33337500D03*
D11*
X266700000Y-33337500D03*
D10*
X271780000Y-33337500D03*
%TD*%
%TO.C,MX11*%
X280670000Y-33337500D03*
D11*
X285750000Y-33337500D03*
D10*
X290830000Y-33337500D03*
%TD*%
%TO.C,MX38a1*%
X61595000Y-90487500D03*
D11*
X66675000Y-90487500D03*
D10*
X71755000Y-90487500D03*
%TD*%
D12*
%TO.C,D44*%
X273843750Y-93525000D03*
D13*
X273843750Y-85725000D03*
%TD*%
D12*
%TO.C,D2*%
X66675000Y-36375000D03*
D13*
X66675000Y-28575000D03*
%TD*%
D10*
%TO.C,MX8*%
X223520000Y-33337500D03*
D11*
X228600000Y-33337500D03*
D10*
X233680000Y-33337500D03*
%TD*%
%TO.C,MX20*%
X228282500Y-52387500D03*
D11*
X233362500Y-52387500D03*
D10*
X238442500Y-52387500D03*
%TD*%
D12*
%TO.C,D28*%
X119062500Y-74475000D03*
D13*
X119062500Y-66675000D03*
%TD*%
D12*
%TO.C,D15*%
X90487500Y-55425000D03*
D13*
X90487500Y-47625000D03*
%TD*%
D12*
%TO.C,D22*%
X261937500Y-55425000D03*
D13*
X261937500Y-47625000D03*
%TD*%
D10*
%TO.C,MX40a2*%
X99695000Y-90487500D03*
D11*
X104775000Y-90487500D03*
D10*
X109855000Y-90487500D03*
%TD*%
D12*
%TO.C,D38*%
X58340625Y-93525000D03*
D13*
X58340625Y-85725000D03*
%TD*%
D10*
%TO.C,MX4*%
X90170000Y-33337500D03*
D11*
X95250000Y-33337500D03*
D10*
X100330000Y-33337500D03*
%TD*%
%TO.C,MX45a1*%
X280670000Y-90487500D03*
D11*
X285750000Y-90487500D03*
D10*
X290830000Y-90487500D03*
%TD*%
D12*
%TO.C,D48*%
X332184375Y-36375000D03*
D13*
X332184375Y-28575000D03*
%TD*%
D12*
%TO.C,D9*%
X238125000Y-36375000D03*
D13*
X238125000Y-28575000D03*
%TD*%
D10*
%TO.C,MX3*%
X71120000Y-33337500D03*
D11*
X76200000Y-33337500D03*
D10*
X81280000Y-33337500D03*
%TD*%
D12*
%TO.C,D12*%
X295275000Y-36375000D03*
D13*
X295275000Y-28575000D03*
%TD*%
D10*
%TO.C,MX19*%
X209232500Y-52387500D03*
D11*
X214312500Y-52387500D03*
D10*
X219392500Y-52387500D03*
%TD*%
%TO.C,MX28*%
X104457500Y-71437500D03*
D11*
X109537500Y-71437500D03*
D10*
X114617500Y-71437500D03*
%TD*%
%TO.C,MX42c2*%
X216376250Y-90487500D03*
D11*
X221456250Y-90487500D03*
D10*
X226536250Y-90487500D03*
%TD*%
%TO.C,MX7*%
X204470000Y-33337500D03*
D11*
X209550000Y-33337500D03*
D10*
X214630000Y-33337500D03*
%TD*%
%TO.C,MX1*%
X28257500Y-33337500D03*
D11*
X33337500Y-33337500D03*
D10*
X38417500Y-33337500D03*
%TD*%
%TO.C,MX13*%
X30638750Y-52387500D03*
D11*
X35718750Y-52387500D03*
D10*
X40798750Y-52387500D03*
%TD*%
D12*
%TO.C,D36*%
X290512500Y-74475000D03*
D13*
X290512500Y-66675000D03*
%TD*%
D10*
%TO.C,MX40*%
X106838750Y-90487500D03*
D11*
X111918750Y-90487500D03*
D10*
X116998750Y-90487500D03*
%TD*%
D12*
%TO.C,D46*%
X313134375Y-93525000D03*
D13*
X313134375Y-85725000D03*
%TD*%
D10*
%TO.C,MX21*%
X247332500Y-52387500D03*
D11*
X252412500Y-52387500D03*
D10*
X257492500Y-52387500D03*
%TD*%
D12*
%TO.C,D14*%
X71437500Y-55425000D03*
D13*
X71437500Y-47625000D03*
%TD*%
D10*
%TO.C,MX29*%
X123507500Y-71437500D03*
D11*
X128587500Y-71437500D03*
D10*
X133667500Y-71437500D03*
%TD*%
M02*
