%TF.GenerationSoftware,KiCad,Pcbnew,10.0.3*%
%TF.CreationDate,2026-05-26T12:48:33-07:00*%
%TF.ProjectId,bkf-unibodysplit,626b662d-756e-4696-926f-647973706c69,rev?*%
%TF.SameCoordinates,Original*%
%TF.FileFunction,AssemblyDrawing,Top*%
%FSLAX46Y46*%
G04 Gerber Fmt 4.6, Leading zero omitted, Abs format (unit mm)*
G04 Created by KiCad (PCBNEW 10.0.3) date 2026-05-26 12:48:33*
%MOMM*%
%LPD*%
G01*
G04 APERTURE LIST*
%ADD10C,0.150000*%
%ADD11C,0.127000*%
%ADD12C,0.200000*%
G04 APERTURE END LIST*
D10*
X217694345Y-82814319D02*
X217694345Y-81814319D01*
X217694345Y-81814319D02*
X218027678Y-82528604D01*
X218027678Y-82528604D02*
X218361011Y-81814319D01*
X218361011Y-81814319D02*
X218361011Y-82814319D01*
X218741964Y-81814319D02*
X219408630Y-82814319D01*
X219408630Y-81814319D02*
X218741964Y-82814319D01*
X219789583Y-82433366D02*
X220551488Y-82433366D01*
X221027678Y-82814319D02*
X221027678Y-81814319D01*
X221027678Y-81814319D02*
X221599106Y-82814319D01*
X221599106Y-82814319D02*
X221599106Y-81814319D01*
X222218154Y-82814319D02*
X222122916Y-82766700D01*
X222122916Y-82766700D02*
X222075297Y-82719080D01*
X222075297Y-82719080D02*
X222027678Y-82623842D01*
X222027678Y-82623842D02*
X222027678Y-82338128D01*
X222027678Y-82338128D02*
X222075297Y-82242890D01*
X222075297Y-82242890D02*
X222122916Y-82195271D01*
X222122916Y-82195271D02*
X222218154Y-82147652D01*
X222218154Y-82147652D02*
X222361011Y-82147652D01*
X222361011Y-82147652D02*
X222456249Y-82195271D01*
X222456249Y-82195271D02*
X222503868Y-82242890D01*
X222503868Y-82242890D02*
X222551487Y-82338128D01*
X222551487Y-82338128D02*
X222551487Y-82623842D01*
X222551487Y-82623842D02*
X222503868Y-82719080D01*
X222503868Y-82719080D02*
X222456249Y-82766700D01*
X222456249Y-82766700D02*
X222361011Y-82814319D01*
X222361011Y-82814319D02*
X222218154Y-82814319D01*
X223456249Y-82814319D02*
X222980059Y-82814319D01*
X222980059Y-82814319D02*
X222980059Y-81814319D01*
X223789583Y-82290509D02*
X224122916Y-82290509D01*
X224265773Y-82814319D02*
X223789583Y-82814319D01*
X223789583Y-82814319D02*
X223789583Y-81814319D01*
X223789583Y-81814319D02*
X224265773Y-81814319D01*
X224694345Y-82814319D02*
X224694345Y-81814319D01*
X224694345Y-81814319D02*
X224932440Y-81814319D01*
X224932440Y-81814319D02*
X225075297Y-81861938D01*
X225075297Y-81861938D02*
X225170535Y-81957176D01*
X225170535Y-81957176D02*
X225218154Y-82052414D01*
X225218154Y-82052414D02*
X225265773Y-82242890D01*
X225265773Y-82242890D02*
X225265773Y-82385747D01*
X225265773Y-82385747D02*
X225218154Y-82576223D01*
X225218154Y-82576223D02*
X225170535Y-82671461D01*
X225170535Y-82671461D02*
X225075297Y-82766700D01*
X225075297Y-82766700D02*
X224932440Y-82814319D01*
X224932440Y-82814319D02*
X224694345Y-82814319D01*
X36719345Y-63764319D02*
X36719345Y-62764319D01*
X36719345Y-62764319D02*
X37052678Y-63478604D01*
X37052678Y-63478604D02*
X37386011Y-62764319D01*
X37386011Y-62764319D02*
X37386011Y-63764319D01*
X37766964Y-62764319D02*
X38433630Y-63764319D01*
X38433630Y-62764319D02*
X37766964Y-63764319D01*
X38814583Y-63383366D02*
X39576488Y-63383366D01*
X40052678Y-63764319D02*
X40052678Y-62764319D01*
X40052678Y-62764319D02*
X40624106Y-63764319D01*
X40624106Y-63764319D02*
X40624106Y-62764319D01*
X41243154Y-63764319D02*
X41147916Y-63716700D01*
X41147916Y-63716700D02*
X41100297Y-63669080D01*
X41100297Y-63669080D02*
X41052678Y-63573842D01*
X41052678Y-63573842D02*
X41052678Y-63288128D01*
X41052678Y-63288128D02*
X41100297Y-63192890D01*
X41100297Y-63192890D02*
X41147916Y-63145271D01*
X41147916Y-63145271D02*
X41243154Y-63097652D01*
X41243154Y-63097652D02*
X41386011Y-63097652D01*
X41386011Y-63097652D02*
X41481249Y-63145271D01*
X41481249Y-63145271D02*
X41528868Y-63192890D01*
X41528868Y-63192890D02*
X41576487Y-63288128D01*
X41576487Y-63288128D02*
X41576487Y-63573842D01*
X41576487Y-63573842D02*
X41528868Y-63669080D01*
X41528868Y-63669080D02*
X41481249Y-63716700D01*
X41481249Y-63716700D02*
X41386011Y-63764319D01*
X41386011Y-63764319D02*
X41243154Y-63764319D01*
X42481249Y-63764319D02*
X42005059Y-63764319D01*
X42005059Y-63764319D02*
X42005059Y-62764319D01*
X42814583Y-63240509D02*
X43147916Y-63240509D01*
X43290773Y-63764319D02*
X42814583Y-63764319D01*
X42814583Y-63764319D02*
X42814583Y-62764319D01*
X42814583Y-62764319D02*
X43290773Y-62764319D01*
X43719345Y-63764319D02*
X43719345Y-62764319D01*
X43719345Y-62764319D02*
X43957440Y-62764319D01*
X43957440Y-62764319D02*
X44100297Y-62811938D01*
X44100297Y-62811938D02*
X44195535Y-62907176D01*
X44195535Y-62907176D02*
X44243154Y-63002414D01*
X44243154Y-63002414D02*
X44290773Y-63192890D01*
X44290773Y-63192890D02*
X44290773Y-63335747D01*
X44290773Y-63335747D02*
X44243154Y-63526223D01*
X44243154Y-63526223D02*
X44195535Y-63621461D01*
X44195535Y-63621461D02*
X44100297Y-63716700D01*
X44100297Y-63716700D02*
X43957440Y-63764319D01*
X43957440Y-63764319D02*
X43719345Y-63764319D01*
X210550595Y-82814319D02*
X210550595Y-81814319D01*
X210550595Y-81814319D02*
X210883928Y-82528604D01*
X210883928Y-82528604D02*
X211217261Y-81814319D01*
X211217261Y-81814319D02*
X211217261Y-82814319D01*
X211598214Y-81814319D02*
X212264880Y-82814319D01*
X212264880Y-81814319D02*
X211598214Y-82814319D01*
X212645833Y-82433366D02*
X213407738Y-82433366D01*
X213883928Y-82814319D02*
X213883928Y-81814319D01*
X213883928Y-81814319D02*
X214455356Y-82814319D01*
X214455356Y-82814319D02*
X214455356Y-81814319D01*
X215074404Y-82814319D02*
X214979166Y-82766700D01*
X214979166Y-82766700D02*
X214931547Y-82719080D01*
X214931547Y-82719080D02*
X214883928Y-82623842D01*
X214883928Y-82623842D02*
X214883928Y-82338128D01*
X214883928Y-82338128D02*
X214931547Y-82242890D01*
X214931547Y-82242890D02*
X214979166Y-82195271D01*
X214979166Y-82195271D02*
X215074404Y-82147652D01*
X215074404Y-82147652D02*
X215217261Y-82147652D01*
X215217261Y-82147652D02*
X215312499Y-82195271D01*
X215312499Y-82195271D02*
X215360118Y-82242890D01*
X215360118Y-82242890D02*
X215407737Y-82338128D01*
X215407737Y-82338128D02*
X215407737Y-82623842D01*
X215407737Y-82623842D02*
X215360118Y-82719080D01*
X215360118Y-82719080D02*
X215312499Y-82766700D01*
X215312499Y-82766700D02*
X215217261Y-82814319D01*
X215217261Y-82814319D02*
X215074404Y-82814319D01*
X216312499Y-82814319D02*
X215836309Y-82814319D01*
X215836309Y-82814319D02*
X215836309Y-81814319D01*
X216645833Y-82290509D02*
X216979166Y-82290509D01*
X217122023Y-82814319D02*
X216645833Y-82814319D01*
X216645833Y-82814319D02*
X216645833Y-81814319D01*
X216645833Y-81814319D02*
X217122023Y-81814319D01*
X217550595Y-82814319D02*
X217550595Y-81814319D01*
X217550595Y-81814319D02*
X217788690Y-81814319D01*
X217788690Y-81814319D02*
X217931547Y-81861938D01*
X217931547Y-81861938D02*
X218026785Y-81957176D01*
X218026785Y-81957176D02*
X218074404Y-82052414D01*
X218074404Y-82052414D02*
X218122023Y-82242890D01*
X218122023Y-82242890D02*
X218122023Y-82385747D01*
X218122023Y-82385747D02*
X218074404Y-82576223D01*
X218074404Y-82576223D02*
X218026785Y-82671461D01*
X218026785Y-82671461D02*
X217931547Y-82766700D01*
X217931547Y-82766700D02*
X217788690Y-82814319D01*
X217788690Y-82814319D02*
X217550595Y-82814319D01*
X134350595Y-82814319D02*
X134350595Y-81814319D01*
X134350595Y-81814319D02*
X134683928Y-82528604D01*
X134683928Y-82528604D02*
X135017261Y-81814319D01*
X135017261Y-81814319D02*
X135017261Y-82814319D01*
X135398214Y-81814319D02*
X136064880Y-82814319D01*
X136064880Y-81814319D02*
X135398214Y-82814319D01*
X136445833Y-82433366D02*
X137207738Y-82433366D01*
X137683928Y-82814319D02*
X137683928Y-81814319D01*
X137683928Y-81814319D02*
X138255356Y-82814319D01*
X138255356Y-82814319D02*
X138255356Y-81814319D01*
X138874404Y-82814319D02*
X138779166Y-82766700D01*
X138779166Y-82766700D02*
X138731547Y-82719080D01*
X138731547Y-82719080D02*
X138683928Y-82623842D01*
X138683928Y-82623842D02*
X138683928Y-82338128D01*
X138683928Y-82338128D02*
X138731547Y-82242890D01*
X138731547Y-82242890D02*
X138779166Y-82195271D01*
X138779166Y-82195271D02*
X138874404Y-82147652D01*
X138874404Y-82147652D02*
X139017261Y-82147652D01*
X139017261Y-82147652D02*
X139112499Y-82195271D01*
X139112499Y-82195271D02*
X139160118Y-82242890D01*
X139160118Y-82242890D02*
X139207737Y-82338128D01*
X139207737Y-82338128D02*
X139207737Y-82623842D01*
X139207737Y-82623842D02*
X139160118Y-82719080D01*
X139160118Y-82719080D02*
X139112499Y-82766700D01*
X139112499Y-82766700D02*
X139017261Y-82814319D01*
X139017261Y-82814319D02*
X138874404Y-82814319D01*
X140112499Y-82814319D02*
X139636309Y-82814319D01*
X139636309Y-82814319D02*
X139636309Y-81814319D01*
X140445833Y-82290509D02*
X140779166Y-82290509D01*
X140922023Y-82814319D02*
X140445833Y-82814319D01*
X140445833Y-82814319D02*
X140445833Y-81814319D01*
X140445833Y-81814319D02*
X140922023Y-81814319D01*
X141350595Y-82814319D02*
X141350595Y-81814319D01*
X141350595Y-81814319D02*
X141588690Y-81814319D01*
X141588690Y-81814319D02*
X141731547Y-81861938D01*
X141731547Y-81861938D02*
X141826785Y-81957176D01*
X141826785Y-81957176D02*
X141874404Y-82052414D01*
X141874404Y-82052414D02*
X141922023Y-82242890D01*
X141922023Y-82242890D02*
X141922023Y-82385747D01*
X141922023Y-82385747D02*
X141874404Y-82576223D01*
X141874404Y-82576223D02*
X141826785Y-82671461D01*
X141826785Y-82671461D02*
X141731547Y-82766700D01*
X141731547Y-82766700D02*
X141588690Y-82814319D01*
X141588690Y-82814319D02*
X141350595Y-82814319D01*
X171118333Y-49038569D02*
X170785000Y-48562378D01*
X170546905Y-49038569D02*
X170546905Y-48038569D01*
X170546905Y-48038569D02*
X170927857Y-48038569D01*
X170927857Y-48038569D02*
X171023095Y-48086188D01*
X171023095Y-48086188D02*
X171070714Y-48133807D01*
X171070714Y-48133807D02*
X171118333Y-48229045D01*
X171118333Y-48229045D02*
X171118333Y-48371902D01*
X171118333Y-48371902D02*
X171070714Y-48467140D01*
X171070714Y-48467140D02*
X171023095Y-48514759D01*
X171023095Y-48514759D02*
X170927857Y-48562378D01*
X170927857Y-48562378D02*
X170546905Y-48562378D01*
X171546905Y-49038569D02*
X171546905Y-48038569D01*
X171546905Y-48038569D02*
X171927857Y-48038569D01*
X171927857Y-48038569D02*
X172023095Y-48086188D01*
X172023095Y-48086188D02*
X172070714Y-48133807D01*
X172070714Y-48133807D02*
X172118333Y-48229045D01*
X172118333Y-48229045D02*
X172118333Y-48371902D01*
X172118333Y-48371902D02*
X172070714Y-48467140D01*
X172070714Y-48467140D02*
X172023095Y-48514759D01*
X172023095Y-48514759D02*
X171927857Y-48562378D01*
X171927857Y-48562378D02*
X171546905Y-48562378D01*
X172499286Y-48133807D02*
X172546905Y-48086188D01*
X172546905Y-48086188D02*
X172642143Y-48038569D01*
X172642143Y-48038569D02*
X172880238Y-48038569D01*
X172880238Y-48038569D02*
X172975476Y-48086188D01*
X172975476Y-48086188D02*
X173023095Y-48133807D01*
X173023095Y-48133807D02*
X173070714Y-48229045D01*
X173070714Y-48229045D02*
X173070714Y-48324283D01*
X173070714Y-48324283D02*
X173023095Y-48467140D01*
X173023095Y-48467140D02*
X172451667Y-49038569D01*
X172451667Y-49038569D02*
X173070714Y-49038569D01*
X173689762Y-48038569D02*
X173785000Y-48038569D01*
X173785000Y-48038569D02*
X173880238Y-48086188D01*
X173880238Y-48086188D02*
X173927857Y-48133807D01*
X173927857Y-48133807D02*
X173975476Y-48229045D01*
X173975476Y-48229045D02*
X174023095Y-48419521D01*
X174023095Y-48419521D02*
X174023095Y-48657616D01*
X174023095Y-48657616D02*
X173975476Y-48848092D01*
X173975476Y-48848092D02*
X173927857Y-48943330D01*
X173927857Y-48943330D02*
X173880238Y-48990950D01*
X173880238Y-48990950D02*
X173785000Y-49038569D01*
X173785000Y-49038569D02*
X173689762Y-49038569D01*
X173689762Y-49038569D02*
X173594524Y-48990950D01*
X173594524Y-48990950D02*
X173546905Y-48943330D01*
X173546905Y-48943330D02*
X173499286Y-48848092D01*
X173499286Y-48848092D02*
X173451667Y-48657616D01*
X173451667Y-48657616D02*
X173451667Y-48419521D01*
X173451667Y-48419521D02*
X173499286Y-48229045D01*
X173499286Y-48229045D02*
X173546905Y-48133807D01*
X173546905Y-48133807D02*
X173594524Y-48086188D01*
X173594524Y-48086188D02*
X173689762Y-48038569D01*
X174880238Y-48371902D02*
X174880238Y-49038569D01*
X174642143Y-47990950D02*
X174404048Y-48705235D01*
X174404048Y-48705235D02*
X175023095Y-48705235D01*
X175594524Y-48038569D02*
X175689762Y-48038569D01*
X175689762Y-48038569D02*
X175785000Y-48086188D01*
X175785000Y-48086188D02*
X175832619Y-48133807D01*
X175832619Y-48133807D02*
X175880238Y-48229045D01*
X175880238Y-48229045D02*
X175927857Y-48419521D01*
X175927857Y-48419521D02*
X175927857Y-48657616D01*
X175927857Y-48657616D02*
X175880238Y-48848092D01*
X175880238Y-48848092D02*
X175832619Y-48943330D01*
X175832619Y-48943330D02*
X175785000Y-48990950D01*
X175785000Y-48990950D02*
X175689762Y-49038569D01*
X175689762Y-49038569D02*
X175594524Y-49038569D01*
X175594524Y-49038569D02*
X175499286Y-48990950D01*
X175499286Y-48990950D02*
X175451667Y-48943330D01*
X175451667Y-48943330D02*
X175404048Y-48848092D01*
X175404048Y-48848092D02*
X175356429Y-48657616D01*
X175356429Y-48657616D02*
X175356429Y-48419521D01*
X175356429Y-48419521D02*
X175404048Y-48229045D01*
X175404048Y-48229045D02*
X175451667Y-48133807D01*
X175451667Y-48133807D02*
X175499286Y-48086188D01*
X175499286Y-48086188D02*
X175594524Y-48038569D01*
X176356429Y-48657616D02*
X177118334Y-48657616D01*
X177499286Y-48038569D02*
X178165952Y-48038569D01*
X178165952Y-48038569D02*
X177499286Y-49038569D01*
X177499286Y-49038569D02*
X178165952Y-49038569D01*
X178546905Y-48514759D02*
X178880238Y-48514759D01*
X179023095Y-49038569D02*
X178546905Y-49038569D01*
X178546905Y-49038569D02*
X178546905Y-48038569D01*
X178546905Y-48038569D02*
X179023095Y-48038569D01*
X180023095Y-49038569D02*
X179689762Y-48562378D01*
X179451667Y-49038569D02*
X179451667Y-48038569D01*
X179451667Y-48038569D02*
X179832619Y-48038569D01*
X179832619Y-48038569D02*
X179927857Y-48086188D01*
X179927857Y-48086188D02*
X179975476Y-48133807D01*
X179975476Y-48133807D02*
X180023095Y-48229045D01*
X180023095Y-48229045D02*
X180023095Y-48371902D01*
X180023095Y-48371902D02*
X179975476Y-48467140D01*
X179975476Y-48467140D02*
X179927857Y-48514759D01*
X179927857Y-48514759D02*
X179832619Y-48562378D01*
X179832619Y-48562378D02*
X179451667Y-48562378D01*
X180642143Y-48038569D02*
X180832619Y-48038569D01*
X180832619Y-48038569D02*
X180927857Y-48086188D01*
X180927857Y-48086188D02*
X181023095Y-48181426D01*
X181023095Y-48181426D02*
X181070714Y-48371902D01*
X181070714Y-48371902D02*
X181070714Y-48705235D01*
X181070714Y-48705235D02*
X181023095Y-48895711D01*
X181023095Y-48895711D02*
X180927857Y-48990950D01*
X180927857Y-48990950D02*
X180832619Y-49038569D01*
X180832619Y-49038569D02*
X180642143Y-49038569D01*
X180642143Y-49038569D02*
X180546905Y-48990950D01*
X180546905Y-48990950D02*
X180451667Y-48895711D01*
X180451667Y-48895711D02*
X180404048Y-48705235D01*
X180404048Y-48705235D02*
X180404048Y-48371902D01*
X180404048Y-48371902D02*
X180451667Y-48181426D01*
X180451667Y-48181426D02*
X180546905Y-48086188D01*
X180546905Y-48086188D02*
X180642143Y-48038569D01*
X127206845Y-82814319D02*
X127206845Y-81814319D01*
X127206845Y-81814319D02*
X127540178Y-82528604D01*
X127540178Y-82528604D02*
X127873511Y-81814319D01*
X127873511Y-81814319D02*
X127873511Y-82814319D01*
X128254464Y-81814319D02*
X128921130Y-82814319D01*
X128921130Y-81814319D02*
X128254464Y-82814319D01*
X129302083Y-82433366D02*
X130063988Y-82433366D01*
X130540178Y-82814319D02*
X130540178Y-81814319D01*
X130540178Y-81814319D02*
X131111606Y-82814319D01*
X131111606Y-82814319D02*
X131111606Y-81814319D01*
X131730654Y-82814319D02*
X131635416Y-82766700D01*
X131635416Y-82766700D02*
X131587797Y-82719080D01*
X131587797Y-82719080D02*
X131540178Y-82623842D01*
X131540178Y-82623842D02*
X131540178Y-82338128D01*
X131540178Y-82338128D02*
X131587797Y-82242890D01*
X131587797Y-82242890D02*
X131635416Y-82195271D01*
X131635416Y-82195271D02*
X131730654Y-82147652D01*
X131730654Y-82147652D02*
X131873511Y-82147652D01*
X131873511Y-82147652D02*
X131968749Y-82195271D01*
X131968749Y-82195271D02*
X132016368Y-82242890D01*
X132016368Y-82242890D02*
X132063987Y-82338128D01*
X132063987Y-82338128D02*
X132063987Y-82623842D01*
X132063987Y-82623842D02*
X132016368Y-82719080D01*
X132016368Y-82719080D02*
X131968749Y-82766700D01*
X131968749Y-82766700D02*
X131873511Y-82814319D01*
X131873511Y-82814319D02*
X131730654Y-82814319D01*
X132968749Y-82814319D02*
X132492559Y-82814319D01*
X132492559Y-82814319D02*
X132492559Y-81814319D01*
X133302083Y-82290509D02*
X133635416Y-82290509D01*
X133778273Y-82814319D02*
X133302083Y-82814319D01*
X133302083Y-82814319D02*
X133302083Y-81814319D01*
X133302083Y-81814319D02*
X133778273Y-81814319D01*
X134206845Y-82814319D02*
X134206845Y-81814319D01*
X134206845Y-81814319D02*
X134444940Y-81814319D01*
X134444940Y-81814319D02*
X134587797Y-81861938D01*
X134587797Y-81861938D02*
X134683035Y-81957176D01*
X134683035Y-81957176D02*
X134730654Y-82052414D01*
X134730654Y-82052414D02*
X134778273Y-82242890D01*
X134778273Y-82242890D02*
X134778273Y-82385747D01*
X134778273Y-82385747D02*
X134730654Y-82576223D01*
X134730654Y-82576223D02*
X134683035Y-82671461D01*
X134683035Y-82671461D02*
X134587797Y-82766700D01*
X134587797Y-82766700D02*
X134444940Y-82814319D01*
X134444940Y-82814319D02*
X134206845Y-82814319D01*
X131969345Y-82814319D02*
X131969345Y-81814319D01*
X131969345Y-81814319D02*
X132302678Y-82528604D01*
X132302678Y-82528604D02*
X132636011Y-81814319D01*
X132636011Y-81814319D02*
X132636011Y-82814319D01*
X133016964Y-81814319D02*
X133683630Y-82814319D01*
X133683630Y-81814319D02*
X133016964Y-82814319D01*
X134064583Y-82433366D02*
X134826488Y-82433366D01*
X135302678Y-82814319D02*
X135302678Y-81814319D01*
X135302678Y-81814319D02*
X135874106Y-82814319D01*
X135874106Y-82814319D02*
X135874106Y-81814319D01*
X136493154Y-82814319D02*
X136397916Y-82766700D01*
X136397916Y-82766700D02*
X136350297Y-82719080D01*
X136350297Y-82719080D02*
X136302678Y-82623842D01*
X136302678Y-82623842D02*
X136302678Y-82338128D01*
X136302678Y-82338128D02*
X136350297Y-82242890D01*
X136350297Y-82242890D02*
X136397916Y-82195271D01*
X136397916Y-82195271D02*
X136493154Y-82147652D01*
X136493154Y-82147652D02*
X136636011Y-82147652D01*
X136636011Y-82147652D02*
X136731249Y-82195271D01*
X136731249Y-82195271D02*
X136778868Y-82242890D01*
X136778868Y-82242890D02*
X136826487Y-82338128D01*
X136826487Y-82338128D02*
X136826487Y-82623842D01*
X136826487Y-82623842D02*
X136778868Y-82719080D01*
X136778868Y-82719080D02*
X136731249Y-82766700D01*
X136731249Y-82766700D02*
X136636011Y-82814319D01*
X136636011Y-82814319D02*
X136493154Y-82814319D01*
X137731249Y-82814319D02*
X137255059Y-82814319D01*
X137255059Y-82814319D02*
X137255059Y-81814319D01*
X138064583Y-82290509D02*
X138397916Y-82290509D01*
X138540773Y-82814319D02*
X138064583Y-82814319D01*
X138064583Y-82814319D02*
X138064583Y-81814319D01*
X138064583Y-81814319D02*
X138540773Y-81814319D01*
X138969345Y-82814319D02*
X138969345Y-81814319D01*
X138969345Y-81814319D02*
X139207440Y-81814319D01*
X139207440Y-81814319D02*
X139350297Y-81861938D01*
X139350297Y-81861938D02*
X139445535Y-81957176D01*
X139445535Y-81957176D02*
X139493154Y-82052414D01*
X139493154Y-82052414D02*
X139540773Y-82242890D01*
X139540773Y-82242890D02*
X139540773Y-82385747D01*
X139540773Y-82385747D02*
X139493154Y-82576223D01*
X139493154Y-82576223D02*
X139445535Y-82671461D01*
X139445535Y-82671461D02*
X139350297Y-82766700D01*
X139350297Y-82766700D02*
X139207440Y-82814319D01*
X139207440Y-82814319D02*
X138969345Y-82814319D01*
X212931845Y-82814319D02*
X212931845Y-81814319D01*
X212931845Y-81814319D02*
X213265178Y-82528604D01*
X213265178Y-82528604D02*
X213598511Y-81814319D01*
X213598511Y-81814319D02*
X213598511Y-82814319D01*
X213979464Y-81814319D02*
X214646130Y-82814319D01*
X214646130Y-81814319D02*
X213979464Y-82814319D01*
X215027083Y-82433366D02*
X215788988Y-82433366D01*
X216265178Y-82814319D02*
X216265178Y-81814319D01*
X216265178Y-81814319D02*
X216836606Y-82814319D01*
X216836606Y-82814319D02*
X216836606Y-81814319D01*
X217455654Y-82814319D02*
X217360416Y-82766700D01*
X217360416Y-82766700D02*
X217312797Y-82719080D01*
X217312797Y-82719080D02*
X217265178Y-82623842D01*
X217265178Y-82623842D02*
X217265178Y-82338128D01*
X217265178Y-82338128D02*
X217312797Y-82242890D01*
X217312797Y-82242890D02*
X217360416Y-82195271D01*
X217360416Y-82195271D02*
X217455654Y-82147652D01*
X217455654Y-82147652D02*
X217598511Y-82147652D01*
X217598511Y-82147652D02*
X217693749Y-82195271D01*
X217693749Y-82195271D02*
X217741368Y-82242890D01*
X217741368Y-82242890D02*
X217788987Y-82338128D01*
X217788987Y-82338128D02*
X217788987Y-82623842D01*
X217788987Y-82623842D02*
X217741368Y-82719080D01*
X217741368Y-82719080D02*
X217693749Y-82766700D01*
X217693749Y-82766700D02*
X217598511Y-82814319D01*
X217598511Y-82814319D02*
X217455654Y-82814319D01*
X218693749Y-82814319D02*
X218217559Y-82814319D01*
X218217559Y-82814319D02*
X218217559Y-81814319D01*
X219027083Y-82290509D02*
X219360416Y-82290509D01*
X219503273Y-82814319D02*
X219027083Y-82814319D01*
X219027083Y-82814319D02*
X219027083Y-81814319D01*
X219027083Y-81814319D02*
X219503273Y-81814319D01*
X219931845Y-82814319D02*
X219931845Y-81814319D01*
X219931845Y-81814319D02*
X220169940Y-81814319D01*
X220169940Y-81814319D02*
X220312797Y-81861938D01*
X220312797Y-81861938D02*
X220408035Y-81957176D01*
X220408035Y-81957176D02*
X220455654Y-82052414D01*
X220455654Y-82052414D02*
X220503273Y-82242890D01*
X220503273Y-82242890D02*
X220503273Y-82385747D01*
X220503273Y-82385747D02*
X220455654Y-82576223D01*
X220455654Y-82576223D02*
X220408035Y-82671461D01*
X220408035Y-82671461D02*
X220312797Y-82766700D01*
X220312797Y-82766700D02*
X220169940Y-82814319D01*
X220169940Y-82814319D02*
X219931845Y-82814319D01*
X310563095Y-41920319D02*
X310563095Y-40920319D01*
X310563095Y-40920319D02*
X310896428Y-41634604D01*
X310896428Y-41634604D02*
X311229761Y-40920319D01*
X311229761Y-40920319D02*
X311229761Y-41920319D01*
X311610714Y-40920319D02*
X312277380Y-41920319D01*
X312277380Y-40920319D02*
X311610714Y-41920319D01*
X312658333Y-41539366D02*
X313420238Y-41539366D01*
X313896428Y-41920319D02*
X313896428Y-40920319D01*
X313896428Y-40920319D02*
X314467856Y-41920319D01*
X314467856Y-41920319D02*
X314467856Y-40920319D01*
X315086904Y-41920319D02*
X314991666Y-41872700D01*
X314991666Y-41872700D02*
X314944047Y-41825080D01*
X314944047Y-41825080D02*
X314896428Y-41729842D01*
X314896428Y-41729842D02*
X314896428Y-41444128D01*
X314896428Y-41444128D02*
X314944047Y-41348890D01*
X314944047Y-41348890D02*
X314991666Y-41301271D01*
X314991666Y-41301271D02*
X315086904Y-41253652D01*
X315086904Y-41253652D02*
X315229761Y-41253652D01*
X315229761Y-41253652D02*
X315324999Y-41301271D01*
X315324999Y-41301271D02*
X315372618Y-41348890D01*
X315372618Y-41348890D02*
X315420237Y-41444128D01*
X315420237Y-41444128D02*
X315420237Y-41729842D01*
X315420237Y-41729842D02*
X315372618Y-41825080D01*
X315372618Y-41825080D02*
X315324999Y-41872700D01*
X315324999Y-41872700D02*
X315229761Y-41920319D01*
X315229761Y-41920319D02*
X315086904Y-41920319D01*
X316324999Y-41920319D02*
X315848809Y-41920319D01*
X315848809Y-41920319D02*
X315848809Y-40920319D01*
X316658333Y-41396509D02*
X316991666Y-41396509D01*
X317134523Y-41920319D02*
X316658333Y-41920319D01*
X316658333Y-41920319D02*
X316658333Y-40920319D01*
X316658333Y-40920319D02*
X317134523Y-40920319D01*
X317563095Y-41920319D02*
X317563095Y-40920319D01*
X317563095Y-40920319D02*
X317801190Y-40920319D01*
X317801190Y-40920319D02*
X317944047Y-40967938D01*
X317944047Y-40967938D02*
X318039285Y-41063176D01*
X318039285Y-41063176D02*
X318086904Y-41158414D01*
X318086904Y-41158414D02*
X318134523Y-41348890D01*
X318134523Y-41348890D02*
X318134523Y-41491747D01*
X318134523Y-41491747D02*
X318086904Y-41682223D01*
X318086904Y-41682223D02*
X318039285Y-41777461D01*
X318039285Y-41777461D02*
X317944047Y-41872700D01*
X317944047Y-41872700D02*
X317801190Y-41920319D01*
X317801190Y-41920319D02*
X317563095Y-41920319D01*
%TO.C,U1*%
D11*
X164355000Y-24968750D02*
X164355000Y-46468750D01*
X165355000Y-47468750D02*
X181355000Y-47468750D01*
X168745000Y-22768750D02*
X168745000Y-23968750D01*
X168745000Y-22768750D02*
X177685000Y-22768750D01*
X168745000Y-23968750D02*
X165355000Y-23968750D01*
X177685000Y-22768750D02*
X177685000Y-23968750D01*
X177685000Y-23968750D02*
X168745000Y-23968750D01*
X181355000Y-23968750D02*
X177685000Y-23968750D01*
X182355000Y-46468750D02*
X182355000Y-24968750D01*
X164355000Y-24968750D02*
G75*
G02*
X165355000Y-23968750I999999J1D01*
G01*
X165355000Y-47468750D02*
G75*
G02*
X164355000Y-46468750I-1J999999D01*
G01*
X181355000Y-23968750D02*
G75*
G02*
X182355000Y-24968750I0J-1000000D01*
G01*
X182355000Y-46468750D02*
G75*
G02*
X181355000Y-47468750I-1000000J0D01*
G01*
D12*
X183205000Y-25558750D02*
G75*
G02*
X183005000Y-25558750I-100000J0D01*
G01*
X183005000Y-25558750D02*
G75*
G02*
X183205000Y-25558750I100000J0D01*
G01*
%TD*%
M02*
