%TF.GenerationSoftware,KiCad,Pcbnew,10.0.3*%
%TF.CreationDate,2026-05-26T12:48:35-07:00*%
%TF.ProjectId,bkf-unibodysplit,626b662d-756e-4696-926f-647973706c69,rev?*%
%TF.SameCoordinates,Original*%
%TF.FileFunction,Plated,1,2,PTH,Drill*%
%TF.FilePolarity,Positive*%
%FSLAX46Y46*%
G04 Gerber Fmt 4.6, Leading zero omitted, Abs format (unit mm)*
G04 Created by KiCad (PCBNEW 10.0.3) date 2026-05-26 12:48:35*
%MOMM*%
%LPD*%
G01*
G04 APERTURE LIST*
%TA.AperFunction,ViaDrill*%
%ADD10C,0.300000*%
%TD*%
%TA.AperFunction,ComponentDrill*%
%ADD11C,1.000000*%
%TD*%
%TA.AperFunction,ComponentDrill*%
%ADD12C,1.524000*%
%TD*%
%TA.AperFunction,ComponentDrill*%
%ADD13C,3.048000*%
%TD*%
G04 APERTURE END LIST*
D10*
X148328801Y-43353126D03*
X148828125Y-44053125D03*
X150163725Y-43208150D03*
X151209375Y-44053125D03*
X166687500Y-77881250D03*
X166687500Y-79281250D03*
X183356250Y-25003125D03*
X183921937Y-25568812D03*
X184546875Y-26193750D03*
X185112562Y-26759437D03*
X188561185Y-34085691D03*
X189671199Y-56124999D03*
X190823926Y-31822947D03*
X192171875Y-48815625D03*
X192171875Y-59531250D03*
X192881250Y-77881250D03*
X192881250Y-79281250D03*
X194171875Y-51196875D03*
X194171875Y-59531250D03*
X194718593Y-36641501D03*
X202406250Y-61912500D03*
X203596875Y-63103125D03*
X204787500Y-61912500D03*
X215503125Y-27384375D03*
X234553125Y-27384375D03*
X253603125Y-27384375D03*
X272653125Y-26193750D03*
X290512500Y-26193750D03*
X297656250Y-25003125D03*
D11*
%TO.C,D37*%
X39290625Y-85725000D03*
X39290625Y-93525000D03*
%TO.C,D1*%
X42862500Y-28575000D03*
X42862500Y-36375000D03*
%TO.C,D13*%
X45243750Y-47625000D03*
X45243750Y-55425000D03*
%TO.C,D25*%
X58340625Y-66675000D03*
X58340625Y-74475000D03*
%TO.C,D38*%
X58340625Y-85725000D03*
X58340625Y-93525000D03*
%TO.C,D2*%
X66675000Y-28575000D03*
X66675000Y-36375000D03*
%TO.C,D14*%
X71437500Y-47625000D03*
X71437500Y-55425000D03*
%TO.C,D39*%
X78581250Y-85725000D03*
X78581250Y-93525000D03*
%TO.C,D26*%
X80962500Y-66675000D03*
X80962500Y-74475000D03*
%TO.C,D3*%
X85725000Y-28575000D03*
X85725000Y-36375000D03*
%TO.C,D15*%
X90487500Y-47625000D03*
X90487500Y-55425000D03*
%TO.C,D27*%
X100012500Y-66675000D03*
X100012500Y-74475000D03*
%TO.C,D4*%
X104775000Y-28575000D03*
X104775000Y-36375000D03*
%TO.C,D16*%
X109537500Y-47625000D03*
X109537500Y-55425000D03*
%TO.C,D28*%
X119062500Y-66675000D03*
X119062500Y-74475000D03*
%TO.C,D40*%
X121443750Y-85725000D03*
X121443750Y-93525000D03*
%TO.C,D5*%
X123825000Y-28575000D03*
X123825000Y-36375000D03*
%TO.C,D17*%
X128587500Y-47625000D03*
X128587500Y-55425000D03*
%TO.C,D29*%
X138112500Y-66675000D03*
X138112500Y-74475000D03*
%TO.C,D6*%
X142875000Y-28575000D03*
X142875000Y-36375000D03*
%TO.C,D18*%
X147637500Y-47625000D03*
X147637500Y-55425000D03*
%TO.C,D41*%
X155971875Y-85725000D03*
X155971875Y-93525000D03*
%TO.C,D30*%
X157162500Y-66675000D03*
X157162500Y-74475000D03*
%TO.C,U1*%
X165735000Y-25558750D03*
X165735000Y-28098750D03*
X165735000Y-30638750D03*
X165735000Y-33178750D03*
X165735000Y-35718750D03*
X165735000Y-38258750D03*
X165735000Y-40798750D03*
X165735000Y-43338750D03*
X165735000Y-45878750D03*
X168275000Y-45878750D03*
X170815000Y-45878750D03*
X173355000Y-45878750D03*
X175895000Y-45878750D03*
X178435000Y-45878750D03*
X180975000Y-25558750D03*
X180975000Y-28098750D03*
X180975000Y-30638750D03*
X180975000Y-33178750D03*
X180975000Y-35718750D03*
X180975000Y-38258750D03*
X180975000Y-40798750D03*
X180975000Y-43338750D03*
X180975000Y-45878750D03*
%TO.C,D31*%
X195262500Y-66675000D03*
X195262500Y-74475000D03*
%TO.C,D42*%
X196453125Y-85725000D03*
X196453125Y-93525000D03*
%TO.C,D7*%
X200025000Y-28575000D03*
X200025000Y-36375000D03*
%TO.C,D19*%
X204787500Y-47625000D03*
X204787500Y-55425000D03*
%TO.C,D32*%
X214312500Y-66675000D03*
X214312500Y-74475000D03*
%TO.C,D8*%
X219075000Y-28575000D03*
X219075000Y-36375000D03*
%TO.C,D20*%
X223837500Y-47625000D03*
X223837500Y-55425000D03*
%TO.C,D43*%
X230981250Y-85725000D03*
X230981250Y-93525000D03*
%TO.C,D33*%
X233362500Y-66675000D03*
X233362500Y-74475000D03*
%TO.C,D9*%
X238125000Y-28575000D03*
X238125000Y-36375000D03*
%TO.C,D21*%
X242887500Y-47625000D03*
X242887500Y-55425000D03*
%TO.C,D34*%
X252412500Y-66675000D03*
X252412500Y-74475000D03*
%TO.C,D10*%
X257175000Y-28575000D03*
X257175000Y-36375000D03*
%TO.C,D22*%
X261937500Y-47625000D03*
X261937500Y-55425000D03*
%TO.C,D35*%
X271462500Y-66675000D03*
X271462500Y-74475000D03*
%TO.C,D44*%
X273843750Y-85725000D03*
X273843750Y-93525000D03*
%TO.C,D11*%
X276225000Y-28575000D03*
X276225000Y-36375000D03*
%TO.C,D23*%
X280987500Y-47625000D03*
X280987500Y-55425000D03*
%TO.C,D36*%
X290512500Y-66675000D03*
X290512500Y-74475000D03*
%TO.C,D45*%
X294084375Y-85725000D03*
X294084375Y-93525000D03*
%TO.C,D12*%
X295275000Y-28575000D03*
X295275000Y-36375000D03*
%TO.C,D24*%
X307181250Y-47625000D03*
X307181250Y-55425000D03*
%TO.C,D47*%
X309562500Y-66675000D03*
X309562500Y-74475000D03*
%TO.C,D46*%
X313134375Y-85725000D03*
X313134375Y-93525000D03*
%TO.C,D48*%
X332184375Y-28575000D03*
X332184375Y-36375000D03*
D12*
%TO.C,MX13a1*%
X27146250Y-49847500D03*
%TO.C,MX1*%
X29527500Y-30797500D03*
%TO.C,MX13*%
X31908750Y-49847500D03*
%TO.C,MX13a1*%
X33496250Y-47307500D03*
%TO.C,MX1*%
X35877500Y-28257500D03*
%TO.C,MX25a1*%
X36671250Y-68897500D03*
%TO.C,MX13*%
X38258750Y-47307500D03*
%TO.C,MX25a1*%
X43021250Y-66357500D03*
%TO.C,MX37a1*%
X43815000Y-87947500D03*
%TO.C,MX37*%
X46196250Y-87947500D03*
%TO.C,MX37a1*%
X50165000Y-85407500D03*
%TO.C,MX37*%
X52546250Y-85407500D03*
%TO.C,MX2*%
X53340000Y-30797500D03*
%TO.C,MX14*%
X58102500Y-49847500D03*
%TO.C,MX2*%
X59690000Y-28257500D03*
%TO.C,MX38a1*%
X62865000Y-87947500D03*
%TO.C,MX14*%
X64452500Y-47307500D03*
%TO.C,MX26*%
X67627500Y-68897500D03*
%TO.C,MX38*%
X67627500Y-87947500D03*
%TO.C,MX38a1*%
X69215000Y-85407500D03*
%TO.C,MX3*%
X72390000Y-30797500D03*
%TO.C,MX26*%
X73977500Y-66357500D03*
%TO.C,MX38*%
X73977500Y-85407500D03*
%TO.C,MX15*%
X77152500Y-49847500D03*
%TO.C,MX3*%
X78740000Y-28257500D03*
%TO.C,MX39a2*%
X81915000Y-87947500D03*
%TO.C,MX15*%
X83502500Y-47307500D03*
%TO.C,MX27*%
X86677500Y-68897500D03*
%TO.C,MX39*%
X86677500Y-87947500D03*
%TO.C,MX39a2*%
X88265000Y-85407500D03*
%TO.C,MX39a1*%
X89058750Y-87947500D03*
%TO.C,MX4*%
X91440000Y-30797500D03*
%TO.C,MX27*%
X93027500Y-66357500D03*
%TO.C,MX39*%
X93027500Y-85407500D03*
%TO.C,MX39a1*%
X95408750Y-85407500D03*
%TO.C,MX16*%
X96202500Y-49847500D03*
%TO.C,MX4*%
X97790000Y-28257500D03*
%TO.C,MX40a2*%
X100965000Y-87947500D03*
%TO.C,MX16*%
X102552500Y-47307500D03*
%TO.C,MX28*%
X105727500Y-68897500D03*
%TO.C,MX40a1*%
X105727500Y-87947500D03*
%TO.C,MX40a2*%
X107315000Y-85407500D03*
%TO.C,MX40*%
X108108750Y-87947500D03*
%TO.C,MX5*%
X110490000Y-30797500D03*
%TO.C,MX28*%
X112077500Y-66357500D03*
%TO.C,MX40a1*%
X112077500Y-85407500D03*
%TO.C,MX40*%
X114458750Y-85407500D03*
%TO.C,MX17*%
X115252500Y-49847500D03*
%TO.C,MX5*%
X116840000Y-28257500D03*
%TO.C,MX17*%
X121602500Y-47307500D03*
%TO.C,MX29*%
X124777500Y-68897500D03*
%TO.C,MX41c2*%
X127158750Y-87947500D03*
%TO.C,MX6*%
X129540000Y-30797500D03*
%TO.C,MX29*%
X131127500Y-66357500D03*
%TO.C,MX41b2*%
X131921250Y-87947500D03*
%TO.C,MX41c2*%
X133508750Y-85407500D03*
%TO.C,MX18*%
X134302500Y-49847500D03*
%TO.C,MX41a2*%
X134302500Y-87947500D03*
%TO.C,MX6*%
X135890000Y-28257500D03*
%TO.C,MX41*%
X136683750Y-87947500D03*
%TO.C,MX41b2*%
X138271250Y-85407500D03*
%TO.C,MX18*%
X140652500Y-47307500D03*
%TO.C,MX41a2*%
X140652500Y-85407500D03*
%TO.C,MX41*%
X143033750Y-85407500D03*
%TO.C,MX30*%
X143827500Y-68897500D03*
X150177500Y-66357500D03*
%TO.C,MX31*%
X200977500Y-68897500D03*
%TO.C,MX7*%
X205740000Y-30797500D03*
%TO.C,MX31*%
X207327500Y-66357500D03*
%TO.C,MX42*%
X208121250Y-87947500D03*
%TO.C,MX19*%
X210502500Y-49847500D03*
%TO.C,MX42a2*%
X210502500Y-87947500D03*
%TO.C,MX7*%
X212090000Y-28257500D03*
%TO.C,MX42b2*%
X212883750Y-87947500D03*
%TO.C,MX42*%
X214471250Y-85407500D03*
%TO.C,MX19*%
X216852500Y-47307500D03*
%TO.C,MX42a2*%
X216852500Y-85407500D03*
%TO.C,MX42c2*%
X217646250Y-87947500D03*
%TO.C,MX42b2*%
X219233750Y-85407500D03*
%TO.C,MX32*%
X220027500Y-68897500D03*
%TO.C,MX42c2*%
X223996250Y-85407500D03*
%TO.C,MX8*%
X224790000Y-30797500D03*
%TO.C,MX32*%
X226377500Y-66357500D03*
%TO.C,MX20*%
X229552500Y-49847500D03*
%TO.C,MX8*%
X231140000Y-28257500D03*
%TO.C,MX20*%
X235902500Y-47307500D03*
%TO.C,MX43*%
X236696250Y-87947500D03*
%TO.C,MX33*%
X239077500Y-68897500D03*
%TO.C,MX43a1*%
X239077500Y-87947500D03*
%TO.C,MX43*%
X243046250Y-85407500D03*
%TO.C,MX9*%
X243840000Y-30797500D03*
%TO.C,MX43a2*%
X243840000Y-87947500D03*
%TO.C,MX33*%
X245427500Y-66357500D03*
%TO.C,MX43a1*%
X245427500Y-85407500D03*
%TO.C,MX21*%
X248602500Y-49847500D03*
%TO.C,MX9*%
X250190000Y-28257500D03*
%TO.C,MX43a2*%
X250190000Y-85407500D03*
%TO.C,MX21*%
X254952500Y-47307500D03*
%TO.C,MX44a1*%
X255746250Y-87947500D03*
%TO.C,MX34*%
X258127500Y-68897500D03*
%TO.C,MX44*%
X258127500Y-87947500D03*
%TO.C,MX44a1*%
X262096250Y-85407500D03*
%TO.C,MX10*%
X262890000Y-30797500D03*
%TO.C,MX44a2*%
X262890000Y-87947500D03*
%TO.C,MX34*%
X264477500Y-66357500D03*
%TO.C,MX44*%
X264477500Y-85407500D03*
%TO.C,MX22*%
X267652500Y-49847500D03*
%TO.C,MX10*%
X269240000Y-28257500D03*
%TO.C,MX44a2*%
X269240000Y-85407500D03*
%TO.C,MX22*%
X274002500Y-47307500D03*
%TO.C,MX35*%
X277177500Y-68897500D03*
%TO.C,MX45*%
X277177500Y-87947500D03*
%TO.C,MX11*%
X281940000Y-30797500D03*
%TO.C,MX45a1*%
X281940000Y-87947500D03*
%TO.C,MX35*%
X283527500Y-66357500D03*
%TO.C,MX45*%
X283527500Y-85407500D03*
%TO.C,MX23*%
X286702500Y-49847500D03*
%TO.C,MX11*%
X288290000Y-28257500D03*
%TO.C,MX45a1*%
X288290000Y-85407500D03*
%TO.C,MX23*%
X293052500Y-47307500D03*
%TO.C,MX36*%
X296227500Y-68897500D03*
%TO.C,MX46*%
X298608750Y-87947500D03*
%TO.C,MX12*%
X300990000Y-30797500D03*
%TO.C,MX46a1*%
X300990000Y-87947500D03*
%TO.C,MX36*%
X302577500Y-66357500D03*
%TO.C,MX46*%
X304958750Y-85407500D03*
%TO.C,MX12*%
X307340000Y-28257500D03*
%TO.C,MX46a1*%
X307340000Y-85407500D03*
%TO.C,MX48a2*%
X310515000Y-30797500D03*
%TO.C,MX24*%
X312896250Y-49847500D03*
%TO.C,MX48a2*%
X316865000Y-28257500D03*
%TO.C,MX47*%
X317658750Y-68897500D03*
%TO.C,MX24*%
X319246250Y-47307500D03*
%TO.C,MX48*%
X320040000Y-30797500D03*
%TO.C,MX47*%
X324008750Y-66357500D03*
%TO.C,MX48*%
X326390000Y-28257500D03*
D13*
%TO.C,MX25*%
X28575000Y-78422500D03*
X52387500Y-78422500D03*
%TO.C,MX41c1*%
X119062500Y-97472500D03*
%TO.C,MX41b1*%
X123825000Y-97472500D03*
%TO.C,MX41a1*%
X126206250Y-97472500D03*
%TO.C,MX41c1*%
X142875000Y-97472500D03*
%TO.C,MX41b1*%
X147637500Y-97472500D03*
%TO.C,MX41a1*%
X150018750Y-97472500D03*
%TO.C,MX42a1*%
X202406250Y-97472500D03*
%TO.C,MX42b1*%
X204787500Y-97472500D03*
%TO.C,MX42c1*%
X209550000Y-97472500D03*
%TO.C,MX42a1*%
X226218750Y-97472500D03*
%TO.C,MX42b1*%
X228600000Y-97472500D03*
%TO.C,MX42c1*%
X233362500Y-97472500D03*
%TO.C,MX48a1*%
X302418750Y-26352500D03*
X326231250Y-26352500D03*
M02*
