%TF.GenerationSoftware,KiCad,Pcbnew,10.0.3*%
%TF.CreationDate,2026-05-26T12:48:33-07:00*%
%TF.ProjectId,bkf-unibodysplit,626b662d-756e-4696-926f-647973706c69,rev?*%
%TF.SameCoordinates,Original*%
%TF.FileFunction,Other,User*%
%FSLAX46Y46*%
G04 Gerber Fmt 4.6, Leading zero omitted, Abs format (unit mm)*
G04 Created by KiCad (PCBNEW 10.0.3) date 2026-05-26 12:48:33*
%MOMM*%
%LPD*%
G01*
G04 APERTURE LIST*
%ADD10C,0.050000*%
G04 APERTURE END LIST*
%TO.C,MX35*%
D10*
X273987500Y-64437500D02*
X273987500Y-78437500D01*
X273987500Y-78437500D02*
X287987500Y-78437500D01*
X287987500Y-64437500D02*
X273987500Y-64437500D01*
X287987500Y-78437500D02*
X287987500Y-64437500D01*
%TO.C,MX42b2*%
X209693750Y-83487500D02*
X209693750Y-97487500D01*
X209693750Y-97487500D02*
X223693750Y-97487500D01*
X223693750Y-83487500D02*
X209693750Y-83487500D01*
X223693750Y-97487500D02*
X223693750Y-83487500D01*
%TO.C,MX6*%
X126350000Y-26337500D02*
X126350000Y-40337500D01*
X126350000Y-40337500D02*
X140350000Y-40337500D01*
X140350000Y-26337500D02*
X126350000Y-26337500D01*
X140350000Y-40337500D02*
X140350000Y-26337500D01*
%TO.C,MX17*%
X112062500Y-45387500D02*
X112062500Y-59387500D01*
X112062500Y-59387500D02*
X126062500Y-59387500D01*
X126062500Y-45387500D02*
X112062500Y-45387500D01*
X126062500Y-59387500D02*
X126062500Y-45387500D01*
%TO.C,MX37a1*%
X40625000Y-83487500D02*
X40625000Y-97487500D01*
X40625000Y-97487500D02*
X54625000Y-97487500D01*
X54625000Y-83487500D02*
X40625000Y-83487500D01*
X54625000Y-97487500D02*
X54625000Y-83487500D01*
%TO.C,MX13a1*%
X23956250Y-45387500D02*
X23956250Y-59387500D01*
X23956250Y-59387500D02*
X37956250Y-59387500D01*
X37956250Y-45387500D02*
X23956250Y-45387500D01*
X37956250Y-59387500D02*
X37956250Y-45387500D01*
%TO.C,MX26*%
X64437500Y-64437500D02*
X64437500Y-78437500D01*
X64437500Y-78437500D02*
X78437500Y-78437500D01*
X78437500Y-64437500D02*
X64437500Y-64437500D01*
X78437500Y-78437500D02*
X78437500Y-64437500D01*
%TO.C,MX32*%
X216837500Y-64437500D02*
X216837500Y-78437500D01*
X216837500Y-78437500D02*
X230837500Y-78437500D01*
X230837500Y-64437500D02*
X216837500Y-64437500D01*
X230837500Y-78437500D02*
X230837500Y-64437500D01*
%TO.C,MX41*%
X133493750Y-83487500D02*
X133493750Y-97487500D01*
X133493750Y-97487500D02*
X147493750Y-97487500D01*
X147493750Y-83487500D02*
X133493750Y-83487500D01*
X147493750Y-97487500D02*
X147493750Y-83487500D01*
%TO.C,MX41a2*%
X131112500Y-83487500D02*
X131112500Y-97487500D01*
X131112500Y-97487500D02*
X145112500Y-97487500D01*
X145112500Y-83487500D02*
X131112500Y-83487500D01*
X145112500Y-97487500D02*
X145112500Y-83487500D01*
%TO.C,MX45*%
X273987500Y-83487500D02*
X273987500Y-97487500D01*
X273987500Y-97487500D02*
X287987500Y-97487500D01*
X287987500Y-83487500D02*
X273987500Y-83487500D01*
X287987500Y-97487500D02*
X287987500Y-83487500D01*
%TO.C,MX27*%
X83487500Y-64437500D02*
X83487500Y-78437500D01*
X83487500Y-78437500D02*
X97487500Y-78437500D01*
X97487500Y-64437500D02*
X83487500Y-64437500D01*
X97487500Y-78437500D02*
X97487500Y-64437500D01*
%TO.C,MX42*%
X204931250Y-83487500D02*
X204931250Y-97487500D01*
X204931250Y-97487500D02*
X218931250Y-97487500D01*
X218931250Y-83487500D02*
X204931250Y-83487500D01*
X218931250Y-97487500D02*
X218931250Y-83487500D01*
%TO.C,MX46*%
X295418750Y-83487500D02*
X295418750Y-97487500D01*
X295418750Y-97487500D02*
X309418750Y-97487500D01*
X309418750Y-83487500D02*
X295418750Y-83487500D01*
X309418750Y-97487500D02*
X309418750Y-83487500D01*
%TO.C,MX25a1*%
X33481250Y-64437500D02*
X33481250Y-78437500D01*
X33481250Y-78437500D02*
X47481250Y-78437500D01*
X47481250Y-64437500D02*
X33481250Y-64437500D01*
X47481250Y-78437500D02*
X47481250Y-64437500D01*
%TO.C,MX43*%
X233506250Y-83487500D02*
X233506250Y-97487500D01*
X233506250Y-97487500D02*
X247506250Y-97487500D01*
X247506250Y-83487500D02*
X233506250Y-83487500D01*
X247506250Y-97487500D02*
X247506250Y-83487500D01*
%TO.C,MX44*%
X254937500Y-83487500D02*
X254937500Y-97487500D01*
X254937500Y-97487500D02*
X268937500Y-97487500D01*
X268937500Y-83487500D02*
X254937500Y-83487500D01*
X268937500Y-97487500D02*
X268937500Y-83487500D01*
%TO.C,MX18*%
X131112500Y-45387500D02*
X131112500Y-59387500D01*
X131112500Y-59387500D02*
X145112500Y-59387500D01*
X145112500Y-45387500D02*
X131112500Y-45387500D01*
X145112500Y-59387500D02*
X145112500Y-45387500D01*
%TO.C,MX39a2*%
X78725000Y-83487500D02*
X78725000Y-97487500D01*
X78725000Y-97487500D02*
X92725000Y-97487500D01*
X92725000Y-83487500D02*
X78725000Y-83487500D01*
X92725000Y-97487500D02*
X92725000Y-83487500D01*
%TO.C,MX31*%
X197787500Y-64437500D02*
X197787500Y-78437500D01*
X197787500Y-78437500D02*
X211787500Y-78437500D01*
X211787500Y-64437500D02*
X197787500Y-64437500D01*
X211787500Y-78437500D02*
X211787500Y-64437500D01*
%TO.C,MX44a1*%
X252556250Y-83487500D02*
X252556250Y-97487500D01*
X252556250Y-97487500D02*
X266556250Y-97487500D01*
X266556250Y-83487500D02*
X252556250Y-83487500D01*
X266556250Y-97487500D02*
X266556250Y-83487500D01*
%TO.C,MX46a1*%
X297800000Y-83487500D02*
X297800000Y-97487500D01*
X297800000Y-97487500D02*
X311800000Y-97487500D01*
X311800000Y-83487500D02*
X297800000Y-83487500D01*
X311800000Y-97487500D02*
X311800000Y-83487500D01*
%TO.C,MX47*%
X314468750Y-64437500D02*
X314468750Y-78437500D01*
X314468750Y-78437500D02*
X328468750Y-78437500D01*
X328468750Y-64437500D02*
X314468750Y-64437500D01*
X328468750Y-78437500D02*
X328468750Y-64437500D01*
%TO.C,U1*%
X164105000Y-22518750D02*
X164105000Y-47718750D01*
X164105000Y-47718750D02*
X182605000Y-47718750D01*
X182605000Y-22518750D02*
X164105000Y-22518750D01*
X182605000Y-47718750D02*
X182605000Y-22518750D01*
%TO.C,MX36*%
X293037500Y-64437500D02*
X293037500Y-78437500D01*
X293037500Y-78437500D02*
X307037500Y-78437500D01*
X307037500Y-64437500D02*
X293037500Y-64437500D01*
X307037500Y-78437500D02*
X307037500Y-64437500D01*
%TO.C,MX48*%
X316850000Y-26337500D02*
X316850000Y-40337500D01*
X316850000Y-40337500D02*
X330850000Y-40337500D01*
X330850000Y-26337500D02*
X316850000Y-26337500D01*
X330850000Y-40337500D02*
X330850000Y-26337500D01*
%TO.C,MX38*%
X64437500Y-83487500D02*
X64437500Y-97487500D01*
X64437500Y-97487500D02*
X78437500Y-97487500D01*
X78437500Y-83487500D02*
X64437500Y-83487500D01*
X78437500Y-97487500D02*
X78437500Y-83487500D01*
%TO.C,MX48a2*%
X307325000Y-26337500D02*
X307325000Y-40337500D01*
X307325000Y-40337500D02*
X321325000Y-40337500D01*
X321325000Y-26337500D02*
X307325000Y-26337500D01*
X321325000Y-40337500D02*
X321325000Y-26337500D01*
%TO.C,MX44a2*%
X259700000Y-83487500D02*
X259700000Y-97487500D01*
X259700000Y-97487500D02*
X273700000Y-97487500D01*
X273700000Y-83487500D02*
X259700000Y-83487500D01*
X273700000Y-97487500D02*
X273700000Y-83487500D01*
%TO.C,MX22*%
X264462500Y-45387500D02*
X264462500Y-59387500D01*
X264462500Y-59387500D02*
X278462500Y-59387500D01*
X278462500Y-45387500D02*
X264462500Y-45387500D01*
X278462500Y-59387500D02*
X278462500Y-45387500D01*
%TO.C,MX16*%
X93012500Y-45387500D02*
X93012500Y-59387500D01*
X93012500Y-59387500D02*
X107012500Y-59387500D01*
X107012500Y-45387500D02*
X93012500Y-45387500D01*
X107012500Y-59387500D02*
X107012500Y-45387500D01*
%TO.C,MX12*%
X297800000Y-26337500D02*
X297800000Y-40337500D01*
X297800000Y-40337500D02*
X311800000Y-40337500D01*
X311800000Y-26337500D02*
X297800000Y-26337500D01*
X311800000Y-40337500D02*
X311800000Y-26337500D01*
%TO.C,MX43a1*%
X235887500Y-83487500D02*
X235887500Y-97487500D01*
X235887500Y-97487500D02*
X249887500Y-97487500D01*
X249887500Y-83487500D02*
X235887500Y-83487500D01*
X249887500Y-97487500D02*
X249887500Y-83487500D01*
%TO.C,MX42a2*%
X207312500Y-83487500D02*
X207312500Y-97487500D01*
X207312500Y-97487500D02*
X221312500Y-97487500D01*
X221312500Y-83487500D02*
X207312500Y-83487500D01*
X221312500Y-97487500D02*
X221312500Y-83487500D01*
%TO.C,MX39a1*%
X85868750Y-83487500D02*
X85868750Y-97487500D01*
X85868750Y-97487500D02*
X99868750Y-97487500D01*
X99868750Y-83487500D02*
X85868750Y-83487500D01*
X99868750Y-97487500D02*
X99868750Y-83487500D01*
%TO.C,MX2*%
X50150000Y-26337500D02*
X50150000Y-40337500D01*
X50150000Y-40337500D02*
X64150000Y-40337500D01*
X64150000Y-26337500D02*
X50150000Y-26337500D01*
X64150000Y-40337500D02*
X64150000Y-26337500D01*
%TO.C,MX41b2*%
X128731250Y-83487500D02*
X128731250Y-97487500D01*
X128731250Y-97487500D02*
X142731250Y-97487500D01*
X142731250Y-83487500D02*
X128731250Y-83487500D01*
X142731250Y-97487500D02*
X142731250Y-83487500D01*
%TO.C,MX37*%
X43006250Y-83487500D02*
X43006250Y-97487500D01*
X43006250Y-97487500D02*
X57006250Y-97487500D01*
X57006250Y-83487500D02*
X43006250Y-83487500D01*
X57006250Y-97487500D02*
X57006250Y-83487500D01*
%TO.C,MX34*%
X254937500Y-64437500D02*
X254937500Y-78437500D01*
X254937500Y-78437500D02*
X268937500Y-78437500D01*
X268937500Y-64437500D02*
X254937500Y-64437500D01*
X268937500Y-78437500D02*
X268937500Y-64437500D01*
%TO.C,MX43a2*%
X240650000Y-83487500D02*
X240650000Y-97487500D01*
X240650000Y-97487500D02*
X254650000Y-97487500D01*
X254650000Y-83487500D02*
X240650000Y-83487500D01*
X254650000Y-97487500D02*
X254650000Y-83487500D01*
%TO.C,MX41c2*%
X123968750Y-83487500D02*
X123968750Y-97487500D01*
X123968750Y-97487500D02*
X137968750Y-97487500D01*
X137968750Y-83487500D02*
X123968750Y-83487500D01*
X137968750Y-97487500D02*
X137968750Y-83487500D01*
%TO.C,MX33*%
X235887500Y-64437500D02*
X235887500Y-78437500D01*
X235887500Y-78437500D02*
X249887500Y-78437500D01*
X249887500Y-64437500D02*
X235887500Y-64437500D01*
X249887500Y-78437500D02*
X249887500Y-64437500D01*
%TO.C,MX15*%
X73962500Y-45387500D02*
X73962500Y-59387500D01*
X73962500Y-59387500D02*
X87962500Y-59387500D01*
X87962500Y-45387500D02*
X73962500Y-45387500D01*
X87962500Y-59387500D02*
X87962500Y-45387500D01*
%TO.C,MX5*%
X107300000Y-26337500D02*
X107300000Y-40337500D01*
X107300000Y-40337500D02*
X121300000Y-40337500D01*
X121300000Y-26337500D02*
X107300000Y-26337500D01*
X121300000Y-40337500D02*
X121300000Y-26337500D01*
%TO.C,MX14*%
X54912500Y-45387500D02*
X54912500Y-59387500D01*
X54912500Y-59387500D02*
X68912500Y-59387500D01*
X68912500Y-45387500D02*
X54912500Y-45387500D01*
X68912500Y-59387500D02*
X68912500Y-45387500D01*
%TO.C,MX9*%
X240650000Y-26337500D02*
X240650000Y-40337500D01*
X240650000Y-40337500D02*
X254650000Y-40337500D01*
X254650000Y-26337500D02*
X240650000Y-26337500D01*
X254650000Y-40337500D02*
X254650000Y-26337500D01*
%TO.C,MX30*%
X140637500Y-64437500D02*
X140637500Y-78437500D01*
X140637500Y-78437500D02*
X154637500Y-78437500D01*
X154637500Y-64437500D02*
X140637500Y-64437500D01*
X154637500Y-78437500D02*
X154637500Y-64437500D01*
%TO.C,MX23*%
X283512500Y-45387500D02*
X283512500Y-59387500D01*
X283512500Y-59387500D02*
X297512500Y-59387500D01*
X297512500Y-45387500D02*
X283512500Y-45387500D01*
X297512500Y-59387500D02*
X297512500Y-45387500D01*
%TO.C,MX24*%
X309706250Y-45387500D02*
X309706250Y-59387500D01*
X309706250Y-59387500D02*
X323706250Y-59387500D01*
X323706250Y-45387500D02*
X309706250Y-45387500D01*
X323706250Y-59387500D02*
X323706250Y-45387500D01*
%TO.C,MX40a1*%
X102537500Y-83487500D02*
X102537500Y-97487500D01*
X102537500Y-97487500D02*
X116537500Y-97487500D01*
X116537500Y-83487500D02*
X102537500Y-83487500D01*
X116537500Y-97487500D02*
X116537500Y-83487500D01*
%TO.C,MX39*%
X83487500Y-83487500D02*
X83487500Y-97487500D01*
X83487500Y-97487500D02*
X97487500Y-97487500D01*
X97487500Y-83487500D02*
X83487500Y-83487500D01*
X97487500Y-97487500D02*
X97487500Y-83487500D01*
%TO.C,MX10*%
X259700000Y-26337500D02*
X259700000Y-40337500D01*
X259700000Y-40337500D02*
X273700000Y-40337500D01*
X273700000Y-26337500D02*
X259700000Y-26337500D01*
X273700000Y-40337500D02*
X273700000Y-26337500D01*
%TO.C,MX11*%
X278750000Y-26337500D02*
X278750000Y-40337500D01*
X278750000Y-40337500D02*
X292750000Y-40337500D01*
X292750000Y-26337500D02*
X278750000Y-26337500D01*
X292750000Y-40337500D02*
X292750000Y-26337500D01*
%TO.C,MX38a1*%
X59675000Y-83487500D02*
X59675000Y-97487500D01*
X59675000Y-97487500D02*
X73675000Y-97487500D01*
X73675000Y-83487500D02*
X59675000Y-83487500D01*
X73675000Y-97487500D02*
X73675000Y-83487500D01*
%TO.C,MX8*%
X221600000Y-26337500D02*
X221600000Y-40337500D01*
X221600000Y-40337500D02*
X235600000Y-40337500D01*
X235600000Y-26337500D02*
X221600000Y-26337500D01*
X235600000Y-40337500D02*
X235600000Y-26337500D01*
%TO.C,MX20*%
X226362500Y-45387500D02*
X226362500Y-59387500D01*
X226362500Y-59387500D02*
X240362500Y-59387500D01*
X240362500Y-45387500D02*
X226362500Y-45387500D01*
X240362500Y-59387500D02*
X240362500Y-45387500D01*
%TO.C,MX40a2*%
X97775000Y-83487500D02*
X97775000Y-97487500D01*
X97775000Y-97487500D02*
X111775000Y-97487500D01*
X111775000Y-83487500D02*
X97775000Y-83487500D01*
X111775000Y-97487500D02*
X111775000Y-83487500D01*
%TO.C,MX4*%
X88250000Y-26337500D02*
X88250000Y-40337500D01*
X88250000Y-40337500D02*
X102250000Y-40337500D01*
X102250000Y-26337500D02*
X88250000Y-26337500D01*
X102250000Y-40337500D02*
X102250000Y-26337500D01*
%TO.C,MX45a1*%
X278750000Y-83487500D02*
X278750000Y-97487500D01*
X278750000Y-97487500D02*
X292750000Y-97487500D01*
X292750000Y-83487500D02*
X278750000Y-83487500D01*
X292750000Y-97487500D02*
X292750000Y-83487500D01*
%TO.C,MX3*%
X69200000Y-26337500D02*
X69200000Y-40337500D01*
X69200000Y-40337500D02*
X83200000Y-40337500D01*
X83200000Y-26337500D02*
X69200000Y-26337500D01*
X83200000Y-40337500D02*
X83200000Y-26337500D01*
%TO.C,MX19*%
X207312500Y-45387500D02*
X207312500Y-59387500D01*
X207312500Y-59387500D02*
X221312500Y-59387500D01*
X221312500Y-45387500D02*
X207312500Y-45387500D01*
X221312500Y-59387500D02*
X221312500Y-45387500D01*
%TO.C,MX28*%
X102537500Y-64437500D02*
X102537500Y-78437500D01*
X102537500Y-78437500D02*
X116537500Y-78437500D01*
X116537500Y-64437500D02*
X102537500Y-64437500D01*
X116537500Y-78437500D02*
X116537500Y-64437500D01*
%TO.C,MX42c2*%
X214456250Y-83487500D02*
X214456250Y-97487500D01*
X214456250Y-97487500D02*
X228456250Y-97487500D01*
X228456250Y-83487500D02*
X214456250Y-83487500D01*
X228456250Y-97487500D02*
X228456250Y-83487500D01*
%TO.C,MX7*%
X202550000Y-26337500D02*
X202550000Y-40337500D01*
X202550000Y-40337500D02*
X216550000Y-40337500D01*
X216550000Y-26337500D02*
X202550000Y-26337500D01*
X216550000Y-40337500D02*
X216550000Y-26337500D01*
%TO.C,MX1*%
X26337500Y-26337500D02*
X26337500Y-40337500D01*
X26337500Y-40337500D02*
X40337500Y-40337500D01*
X40337500Y-26337500D02*
X26337500Y-26337500D01*
X40337500Y-40337500D02*
X40337500Y-26337500D01*
%TO.C,MX13*%
X28718750Y-45387500D02*
X28718750Y-59387500D01*
X28718750Y-59387500D02*
X42718750Y-59387500D01*
X42718750Y-45387500D02*
X28718750Y-45387500D01*
X42718750Y-59387500D02*
X42718750Y-45387500D01*
%TO.C,MX40*%
X104918750Y-83487500D02*
X104918750Y-97487500D01*
X104918750Y-97487500D02*
X118918750Y-97487500D01*
X118918750Y-83487500D02*
X104918750Y-83487500D01*
X118918750Y-97487500D02*
X118918750Y-83487500D01*
%TO.C,MX21*%
X245412500Y-45387500D02*
X245412500Y-59387500D01*
X245412500Y-59387500D02*
X259412500Y-59387500D01*
X259412500Y-45387500D02*
X245412500Y-45387500D01*
X259412500Y-59387500D02*
X259412500Y-45387500D01*
%TO.C,MX29*%
X121587500Y-64437500D02*
X121587500Y-78437500D01*
X121587500Y-78437500D02*
X135587500Y-78437500D01*
X135587500Y-64437500D02*
X121587500Y-64437500D01*
X135587500Y-78437500D02*
X135587500Y-64437500D01*
%TD*%
M02*
