<?xml version="1.0" standalone="no"?>
 <!DOCTYPE svg PUBLIC "-//W3C//DTD SVG 1.1//EN" 
 "http://www.w3.org/Graphics/SVG/1.1/DTD/svg11.dtd"> 
<svg
  xmlns:svg="http://www.w3.org/2000/svg"
  xmlns="http://www.w3.org/2000/svg"
  xmlns:xlink="http://www.w3.org/1999/xlink"
  xmlns:inkscape="http://www.inkscape.org/namespaces/inkscape"
  version="1.1"
  width="297.0022mm" height="210.0072mm" viewBox="0.0000 0.0000 297.0022 210.0072">
<title>SVG Image created as bkf-unibodysplit-User_Eco2.svg date 2026-05-26T11:29:20 </title>
  <desc>Image generated by PCBNEW </desc>
<g style="fill:#000000; fill-opacity:1.0000;stroke:#000000; stroke-opacity:1.0000;
stroke-linecap:round; stroke-linejoin:round;"
 transform="translate(0 0) scale(1 1)">
</g>
<g style="fill:none; 
stroke:#000000; stroke-width:0.0500; stroke-opacity:1; 
stroke-linecap:round; stroke-linejoin:round;">
<path d="M273.9875 77.9375
L273.9875 64.9375
" />
<path d="M274.4875 64.4375
L287.4875 64.4375
" />
<path d="M287.4875 78.4375
L274.4875 78.4375
" />
<path d="M287.9875 64.9375
L287.9875 77.9375
" />
<path d="M274.4875 64.4375 A0.5000 0.5000 0.0 0 0 273.9875 64.9375" />
<path d="M273.9875 77.9375 A0.5000 0.5000 0.0 0 0 274.4875 78.4375" />
<path d="M287.9875 64.9375 A0.5000 0.5000 0.0 0 0 287.4875 64.4375" />
<path d="M287.4847 78.4364 A0.5000 0.5000 0.0 0 0 287.9847 77.9364" />
<path d="M209.6937 96.9875
L209.6937 83.9875
" />
<path d="M210.1937 83.4875
L223.1937 83.4875
" />
<path d="M223.1937 97.4875
L210.1937 97.4875
" />
<path d="M223.6937 83.9875
L223.6937 96.9875
" />
<path d="M210.1937 83.4875 A0.5000 0.5000 0.0 0 0 209.6937 83.9875" />
<path d="M209.6937 96.9875 A0.5000 0.5000 0.0 0 0 210.1937 97.4875" />
<path d="M223.6937 83.9875 A0.5000 0.5000 0.0 0 0 223.1937 83.4875" />
<path d="M223.1910 97.4864 A0.5000 0.5000 0.0 0 0 223.6910 96.9864" />
<path d="M126.3500 39.8375
L126.3500 26.8375
" />
<path d="M126.8500 26.3375
L139.8500 26.3375
" />
<path d="M139.8500 40.3375
L126.8500 40.3375
" />
<path d="M140.3500 26.8375
L140.3500 39.8375
" />
<path d="M126.8500 26.3375 A0.5000 0.5000 0.0 0 0 126.3500 26.8375" />
<path d="M126.3500 39.8375 A0.5000 0.5000 0.0 0 0 126.8500 40.3375" />
<path d="M140.3500 26.8375 A0.5000 0.5000 0.0 0 0 139.8500 26.3375" />
<path d="M139.8472 40.3364 A0.5000 0.5000 0.0 0 0 140.3472 39.8364" />
<path d="M206.1762 95.9875
L206.1750 82.9875
" />
<path d="M212.4250 82.4875
L206.6750 82.4875
" />
<path d="M212.4250 96.4875
L206.6762 96.4875
" />
<path d="M212.9250 95.9875
L212.9250 82.9875
" />
<path d="M229.9875 95.9875
L229.9875 82.9875
" />
<path d="M236.2375 82.4875
L230.4875 82.4875
" />
<path d="M236.2375 96.4875
L230.4875 96.4875
" />
<path d="M236.7375 95.9875
L236.7375 82.9875
" />
<path d="M206.6750 82.4875 A0.5001 0.5001 0.0 0 0 206.1750 82.9875" />
<path d="M206.1763 95.9875 A0.5000 0.5000 0.0 0 0 206.6762 96.4875" />
<path d="M212.9250 82.9875 A0.5000 0.5000 0.0 0 0 212.4250 82.4875" />
<path d="M212.4250 96.4875 A0.5001 0.5001 0.0 0 0 212.9250 95.9875" />
<path d="M230.4875 82.4875 A0.5000 0.5000 0.0 0 0 229.9875 82.9875" />
<path d="M229.9875 95.9875 A0.5000 0.5000 0.0 0 0 230.4875 96.4875" />
<path d="M236.7375 82.9875 A0.5000 0.5000 0.0 0 0 236.2375 82.4875" />
<path d="M236.2375 96.4875 A0.5000 0.5000 0.0 0 0 236.7375 95.9875" />
<path d="M112.0625 58.8875
L112.0625 45.8875
" />
<path d="M112.5625 45.3875
L125.5625 45.3875
" />
<path d="M125.5625 59.3875
L112.5625 59.3875
" />
<path d="M126.0625 45.8875
L126.0625 58.8875
" />
<path d="M112.5625 45.3875 A0.5000 0.5000 0.0 0 0 112.0625 45.8875" />
<path d="M112.0625 58.8875 A0.5000 0.5000 0.0 0 0 112.5625 59.3875" />
<path d="M126.0625 45.8875 A0.5000 0.5000 0.0 0 0 125.5625 45.3875" />
<path d="M125.5597 59.3864 A0.5000 0.5000 0.0 0 0 126.0597 58.8864" />
<path d="M40.6250 96.9875
L40.6250 83.9875
" />
<path d="M41.1250 83.4875
L54.1250 83.4875
" />
<path d="M54.1250 97.4875
L41.1250 97.4875
" />
<path d="M54.6250 83.9875
L54.6250 96.9875
" />
<path d="M41.1250 83.4875 A0.5000 0.5000 0.0 0 0 40.6250 83.9875" />
<path d="M40.6250 96.9875 A0.5000 0.5000 0.0 0 0 41.1250 97.4875" />
<path d="M54.6250 83.9875 A0.5000 0.5000 0.0 0 0 54.1250 83.4875" />
<path d="M54.1222 97.4864 A0.5000 0.5000 0.0 0 0 54.6222 96.9864" />
<path d="M23.9562 58.8875
L23.9562 45.8875
" />
<path d="M24.4562 45.3875
L37.4562 45.3875
" />
<path d="M37.4562 59.3875
L24.4562 59.3875
" />
<path d="M37.9562 45.8875
L37.9562 58.8875
" />
<path d="M24.4562 45.3875 A0.5000 0.5000 0.0 0 0 23.9562 45.8875" />
<path d="M23.9562 58.8875 A0.5000 0.5000 0.0 0 0 24.4562 59.3875" />
<path d="M37.9562 45.8875 A0.5000 0.5000 0.0 0 0 37.4562 45.3875" />
<path d="M37.4535 59.3864 A0.5000 0.5000 0.0 0 0 37.9535 58.8864" />
<path d="M25.2012 76.9375
L25.2000 63.9375
" />
<path d="M31.4500 63.4375
L25.7000 63.4375
" />
<path d="M31.4500 77.4375
L25.7012 77.4375
" />
<path d="M31.9500 76.9375
L31.9500 63.9375
" />
<path d="M49.0125 76.9375
L49.0125 63.9375
" />
<path d="M55.2625 63.4375
L49.5125 63.4375
" />
<path d="M55.2625 77.4375
L49.5125 77.4375
" />
<path d="M55.7625 76.9375
L55.7625 63.9375
" />
<path d="M25.7000 63.4375 A0.5001 0.5001 0.0 0 0 25.2000 63.9375" />
<path d="M25.2013 76.9375 A0.5000 0.5000 0.0 0 0 25.7012 77.4375" />
<path d="M31.9500 63.9375 A0.5000 0.5000 0.0 0 0 31.4500 63.4375" />
<path d="M31.4500 77.4375 A0.5001 0.5001 0.0 0 0 31.9500 76.9375" />
<path d="M49.5125 63.4375 A0.5000 0.5000 0.0 0 0 49.0125 63.9375" />
<path d="M49.0125 76.9375 A0.5000 0.5000 0.0 0 0 49.5125 77.4375" />
<path d="M55.7625 63.9375 A0.5000 0.5000 0.0 0 0 55.2625 63.4375" />
<path d="M55.2625 77.4375 A0.5000 0.5000 0.0 0 0 55.7625 76.9375" />
<path d="M64.4375 77.9375
L64.4375 64.9375
" />
<path d="M64.9375 64.4375
L77.9375 64.4375
" />
<path d="M77.9375 78.4375
L64.9375 78.4375
" />
<path d="M78.4375 64.9375
L78.4375 77.9375
" />
<path d="M64.9375 64.4375 A0.5000 0.5000 0.0 0 0 64.4375 64.9375" />
<path d="M64.4375 77.9375 A0.5000 0.5000 0.0 0 0 64.9375 78.4375" />
<path d="M78.4375 64.9375 A0.5000 0.5000 0.0 0 0 77.9375 64.4375" />
<path d="M77.9347 78.4364 A0.5000 0.5000 0.0 0 0 78.4347 77.9364" />
<path d="M216.8375 77.9375
L216.8375 64.9375
" />
<path d="M217.3375 64.4375
L230.3375 64.4375
" />
<path d="M230.3375 78.4375
L217.3375 78.4375
" />
<path d="M230.8375 64.9375
L230.8375 77.9375
" />
<path d="M217.3375 64.4375 A0.5000 0.5000 0.0 0 0 216.8375 64.9375" />
<path d="M216.8375 77.9375 A0.5000 0.5000 0.0 0 0 217.3375 78.4375" />
<path d="M230.8375 64.9375 A0.5000 0.5000 0.0 0 0 230.3375 64.4375" />
<path d="M230.3347 78.4364 A0.5000 0.5000 0.0 0 0 230.8347 77.9364" />
<path d="M199.0325 95.9875
L199.0312 82.9875
" />
<path d="M205.2812 82.4875
L199.5312 82.4875
" />
<path d="M205.2812 96.4875
L199.5325 96.4875
" />
<path d="M205.7812 95.9875
L205.7812 82.9875
" />
<path d="M222.8438 95.9875
L222.8438 82.9875
" />
<path d="M229.0938 82.4875
L223.3438 82.4875
" />
<path d="M229.0938 96.4875
L223.3438 96.4875
" />
<path d="M229.5938 95.9875
L229.5938 82.9875
" />
<path d="M199.5312 82.4875 A0.5001 0.5001 0.0 0 0 199.0312 82.9875" />
<path d="M199.0325 95.9875 A0.5000 0.5000 0.0 0 0 199.5325 96.4875" />
<path d="M205.7812 82.9875 A0.5000 0.5000 0.0 0 0 205.2812 82.4875" />
<path d="M205.2813 96.4875 A0.5001 0.5001 0.0 0 0 205.7812 95.9875" />
<path d="M223.3438 82.4875 A0.5000 0.5000 0.0 0 0 222.8438 82.9875" />
<path d="M222.8438 95.9875 A0.5000 0.5000 0.0 0 0 223.3438 96.4875" />
<path d="M229.5938 82.9875 A0.5000 0.5000 0.0 0 0 229.0938 82.4875" />
<path d="M229.0938 96.4875 A0.5000 0.5000 0.0 0 0 229.5938 95.9875" />
<path d="M133.4938 96.9875
L133.4938 83.9875
" />
<path d="M133.9938 83.4875
L146.9938 83.4875
" />
<path d="M146.9938 97.4875
L133.9938 97.4875
" />
<path d="M147.4938 83.9875
L147.4938 96.9875
" />
<path d="M133.9938 83.4875 A0.5000 0.5000 0.0 0 0 133.4938 83.9875" />
<path d="M133.4938 96.9875 A0.5000 0.5000 0.0 0 0 133.9938 97.4875" />
<path d="M147.4938 83.9875 A0.5000 0.5000 0.0 0 0 146.9938 83.4875" />
<path d="M146.9910 97.4864 A0.5000 0.5000 0.0 0 0 147.4910 96.9864" />
<path d="M131.1125 96.9875
L131.1125 83.9875
" />
<path d="M131.6125 83.4875
L144.6125 83.4875
" />
<path d="M144.6125 97.4875
L131.6125 97.4875
" />
<path d="M145.1125 83.9875
L145.1125 96.9875
" />
<path d="M131.6125 83.4875 A0.5000 0.5000 0.0 0 0 131.1125 83.9875" />
<path d="M131.1125 96.9875 A0.5000 0.5000 0.0 0 0 131.6125 97.4875" />
<path d="M145.1125 83.9875 A0.5000 0.5000 0.0 0 0 144.6125 83.4875" />
<path d="M144.6097 97.4864 A0.5000 0.5000 0.0 0 0 145.1097 96.9864" />
<path d="M273.9875 96.9875
L273.9875 83.9875
" />
<path d="M274.4875 83.4875
L287.4875 83.4875
" />
<path d="M287.4875 97.4875
L274.4875 97.4875
" />
<path d="M287.9875 83.9875
L287.9875 96.9875
" />
<path d="M274.4875 83.4875 A0.5000 0.5000 0.0 0 0 273.9875 83.9875" />
<path d="M273.9875 96.9875 A0.5000 0.5000 0.0 0 0 274.4875 97.4875" />
<path d="M287.9875 83.9875 A0.5000 0.5000 0.0 0 0 287.4875 83.4875" />
<path d="M287.4847 97.4864 A0.5000 0.5000 0.0 0 0 287.9847 96.9864" />
<path d="M83.4875 77.9375
L83.4875 64.9375
" />
<path d="M83.9875 64.4375
L96.9875 64.4375
" />
<path d="M96.9875 78.4375
L83.9875 78.4375
" />
<path d="M97.4875 64.9375
L97.4875 77.9375
" />
<path d="M83.9875 64.4375 A0.5000 0.5000 0.0 0 0 83.4875 64.9375" />
<path d="M83.4875 77.9375 A0.5000 0.5000 0.0 0 0 83.9875 78.4375" />
<path d="M97.4875 64.9375 A0.5000 0.5000 0.0 0 0 96.9875 64.4375" />
<path d="M96.9847 78.4364 A0.5000 0.5000 0.0 0 0 97.4847 77.9364" />
<path d="M204.9312 96.9875
L204.9312 83.9875
" />
<path d="M205.4312 83.4875
L218.4312 83.4875
" />
<path d="M218.4312 97.4875
L205.4312 97.4875
" />
<path d="M218.9312 83.9875
L218.9312 96.9875
" />
<path d="M205.4313 83.4875 A0.5000 0.5000 0.0 0 0 204.9313 83.9875" />
<path d="M204.9313 96.9875 A0.5000 0.5000 0.0 0 0 205.4313 97.4875" />
<path d="M218.9312 83.9875 A0.5000 0.5000 0.0 0 0 218.4312 83.4875" />
<path d="M218.4285 97.4864 A0.5000 0.5000 0.0 0 0 218.9285 96.9864" />
<path d="M295.4187 96.9875
L295.4187 83.9875
" />
<path d="M295.9187 83.4875
L308.9187 83.4875
" />
<path d="M308.9187 97.4875
L295.9187 97.4875
" />
<path d="M309.4187 83.9875
L309.4187 96.9875
" />
<path d="M295.9187 83.4875 A0.5000 0.5000 0.0 0 0 295.4187 83.9875" />
<path d="M295.4187 96.9875 A0.5000 0.5000 0.0 0 0 295.9187 97.4875" />
<path d="M309.4187 83.9875 A0.5000 0.5000 0.0 0 0 308.9187 83.4875" />
<path d="M308.9160 97.4864 A0.5000 0.5000 0.0 0 0 309.4160 96.9864" />
<path d="M33.4812 77.9375
L33.4812 64.9375
" />
<path d="M33.9812 64.4375
L46.9812 64.4375
" />
<path d="M46.9812 78.4375
L33.9812 78.4375
" />
<path d="M47.4812 64.9375
L47.4812 77.9375
" />
<path d="M33.9813 64.4375 A0.5000 0.5000 0.0 0 0 33.4813 64.9375" />
<path d="M33.4813 77.9375 A0.5000 0.5000 0.0 0 0 33.9813 78.4375" />
<path d="M47.4812 64.9375 A0.5000 0.5000 0.0 0 0 46.9812 64.4375" />
<path d="M46.9785 78.4364 A0.5000 0.5000 0.0 0 0 47.4785 77.9364" />
<path d="M233.5062 96.9875
L233.5062 83.9875
" />
<path d="M234.0062 83.4875
L247.0062 83.4875
" />
<path d="M247.0062 97.4875
L234.0062 97.4875
" />
<path d="M247.5062 83.9875
L247.5062 96.9875
" />
<path d="M234.0062 83.4875 A0.5000 0.5000 0.0 0 0 233.5062 83.9875" />
<path d="M233.5062 96.9875 A0.5000 0.5000 0.0 0 0 234.0062 97.4875" />
<path d="M247.5062 83.9875 A0.5000 0.5000 0.0 0 0 247.0062 83.4875" />
<path d="M247.0035 97.4864 A0.5000 0.5000 0.0 0 0 247.5035 96.9864" />
<path d="M254.9375 96.9875
L254.9375 83.9875
" />
<path d="M255.4375 83.4875
L268.4375 83.4875
" />
<path d="M268.4375 97.4875
L255.4375 97.4875
" />
<path d="M268.9375 83.9875
L268.9375 96.9875
" />
<path d="M255.4375 83.4875 A0.5000 0.5000 0.0 0 0 254.9375 83.9875" />
<path d="M254.9375 96.9875 A0.5000 0.5000 0.0 0 0 255.4375 97.4875" />
<path d="M268.9375 83.9875 A0.5000 0.5000 0.0 0 0 268.4375 83.4875" />
<path d="M268.4347 97.4864 A0.5000 0.5000 0.0 0 0 268.9347 96.9864" />
<path d="M131.1125 58.8875
L131.1125 45.8875
" />
<path d="M131.6125 45.3875
L144.6125 45.3875
" />
<path d="M144.6125 59.3875
L131.6125 59.3875
" />
<path d="M145.1125 45.8875
L145.1125 58.8875
" />
<path d="M131.6125 45.3875 A0.5000 0.5000 0.0 0 0 131.1125 45.8875" />
<path d="M131.1125 58.8875 A0.5000 0.5000 0.0 0 0 131.6125 59.3875" />
<path d="M145.1125 45.8875 A0.5000 0.5000 0.0 0 0 144.6125 45.3875" />
<path d="M144.6097 59.3864 A0.5000 0.5000 0.0 0 0 145.1097 58.8864" />
<path d="M78.7250 96.9875
L78.7250 83.9875
" />
<path d="M79.2250 83.4875
L92.2250 83.4875
" />
<path d="M92.2250 97.4875
L79.2250 97.4875
" />
<path d="M92.7250 83.9875
L92.7250 96.9875
" />
<path d="M79.2250 83.4875 A0.5000 0.5000 0.0 0 0 78.7250 83.9875" />
<path d="M78.7250 96.9875 A0.5000 0.5000 0.0 0 0 79.2250 97.4875" />
<path d="M92.7250 83.9875 A0.5000 0.5000 0.0 0 0 92.2250 83.4875" />
<path d="M92.2222 97.4864 A0.5000 0.5000 0.0 0 0 92.7222 96.9864" />
<path d="M197.7875 77.9375
L197.7875 64.9375
" />
<path d="M198.2875 64.4375
L211.2875 64.4375
" />
<path d="M211.2875 78.4375
L198.2875 78.4375
" />
<path d="M211.7875 64.9375
L211.7875 77.9375
" />
<path d="M198.2875 64.4375 A0.5000 0.5000 0.0 0 0 197.7875 64.9375" />
<path d="M197.7875 77.9375 A0.5000 0.5000 0.0 0 0 198.2875 78.4375" />
<path d="M211.7875 64.9375 A0.5000 0.5000 0.0 0 0 211.2875 64.4375" />
<path d="M211.2847 78.4364 A0.5000 0.5000 0.0 0 0 211.7847 77.9364" />
<path d="M122.8325 95.9875
L122.8312 82.9875
" />
<path d="M129.0812 82.4875
L123.3312 82.4875
" />
<path d="M129.0812 96.4875
L123.3325 96.4875
" />
<path d="M129.5812 95.9875
L129.5812 82.9875
" />
<path d="M146.6437 95.9875
L146.6437 82.9875
" />
<path d="M152.8937 82.4875
L147.1437 82.4875
" />
<path d="M152.8937 96.4875
L147.1437 96.4875
" />
<path d="M153.3937 95.9875
L153.3937 82.9875
" />
<path d="M123.3312 82.4875 A0.5001 0.5001 0.0 0 0 122.8312 82.9875" />
<path d="M122.8325 95.9875 A0.5000 0.5000 0.0 0 0 123.3325 96.4875" />
<path d="M129.5812 82.9875 A0.5000 0.5000 0.0 0 0 129.0812 82.4875" />
<path d="M129.0813 96.4875 A0.5001 0.5001 0.0 0 0 129.5812 95.9875" />
<path d="M147.1437 82.4875 A0.5000 0.5000 0.0 0 0 146.6437 82.9875" />
<path d="M146.6437 95.9875 A0.5000 0.5000 0.0 0 0 147.1437 96.4875" />
<path d="M153.3937 82.9875 A0.5000 0.5000 0.0 0 0 152.8937 82.4875" />
<path d="M152.8937 96.4875 A0.5000 0.5000 0.0 0 0 153.3937 95.9875" />
<path d="M252.5562 96.9875
L252.5562 83.9875
" />
<path d="M253.0562 83.4875
L266.0562 83.4875
" />
<path d="M266.0562 97.4875
L253.0562 97.4875
" />
<path d="M266.5562 83.9875
L266.5562 96.9875
" />
<path d="M253.0562 83.4875 A0.5000 0.5000 0.0 0 0 252.5562 83.9875" />
<path d="M252.5562 96.9875 A0.5000 0.5000 0.0 0 0 253.0562 97.4875" />
<path d="M266.5562 83.9875 A0.5000 0.5000 0.0 0 0 266.0562 83.4875" />
<path d="M266.0535 97.4864 A0.5000 0.5000 0.0 0 0 266.5535 96.9864" />
<path d="M297.8000 96.9875
L297.8000 83.9875
" />
<path d="M298.3000 83.4875
L311.3000 83.4875
" />
<path d="M311.3000 97.4875
L298.3000 97.4875
" />
<path d="M311.8000 83.9875
L311.8000 96.9875
" />
<path d="M298.3000 83.4875 A0.5000 0.5000 0.0 0 0 297.8000 83.9875" />
<path d="M297.8000 96.9875 A0.5000 0.5000 0.0 0 0 298.3000 97.4875" />
<path d="M311.8000 83.9875 A0.5000 0.5000 0.0 0 0 311.3000 83.4875" />
<path d="M311.2972 97.4864 A0.5000 0.5000 0.0 0 0 311.7972 96.9864" />
<path d="M314.4688 77.9375
L314.4688 64.9375
" />
<path d="M314.9688 64.4375
L327.9688 64.4375
" />
<path d="M327.9688 78.4375
L314.9688 78.4375
" />
<path d="M328.4688 64.9375
L328.4688 77.9375
" />
<path d="M314.9688 64.4375 A0.5000 0.5000 0.0 0 0 314.4688 64.9375" />
<path d="M314.4688 77.9375 A0.5000 0.5000 0.0 0 0 314.9688 78.4375" />
<path d="M328.4688 64.9375 A0.5000 0.5000 0.0 0 0 327.9688 64.4375" />
<path d="M327.9660 78.4364 A0.5000 0.5000 0.0 0 0 328.4660 77.9364" />
<path d="M293.0375 77.9375
L293.0375 64.9375
" />
<path d="M293.5375 64.4375
L306.5375 64.4375
" />
<path d="M306.5375 78.4375
L293.5375 78.4375
" />
<path d="M307.0375 64.9375
L307.0375 77.9375
" />
<path d="M293.5375 64.4375 A0.5000 0.5000 0.0 0 0 293.0375 64.9375" />
<path d="M293.0375 77.9375 A0.5000 0.5000 0.0 0 0 293.5375 78.4375" />
<path d="M307.0375 64.9375 A0.5000 0.5000 0.0 0 0 306.5375 64.4375" />
<path d="M306.5347 78.4364 A0.5000 0.5000 0.0 0 0 307.0347 77.9364" />
<path d="M316.8500 39.8375
L316.8500 26.8375
" />
<path d="M317.3500 26.3375
L330.3500 26.3375
" />
<path d="M330.3500 40.3375
L317.3500 40.3375
" />
<path d="M330.8500 26.8375
L330.8500 39.8375
" />
<path d="M317.3500 26.3375 A0.5000 0.5000 0.0 0 0 316.8500 26.8375" />
<path d="M316.8500 39.8375 A0.5000 0.5000 0.0 0 0 317.3500 40.3375" />
<path d="M330.8500 26.8375 A0.5000 0.5000 0.0 0 0 330.3500 26.3375" />
<path d="M330.3472 40.3364 A0.5000 0.5000 0.0 0 0 330.8472 39.8364" />
<path d="M64.4375 96.9875
L64.4375 83.9875
" />
<path d="M64.9375 83.4875
L77.9375 83.4875
" />
<path d="M77.9375 97.4875
L64.9375 97.4875
" />
<path d="M78.4375 83.9875
L78.4375 96.9875
" />
<path d="M64.9375 83.4875 A0.5000 0.5000 0.0 0 0 64.4375 83.9875" />
<path d="M64.4375 96.9875 A0.5000 0.5000 0.0 0 0 64.9375 97.4875" />
<path d="M78.4375 83.9875 A0.5000 0.5000 0.0 0 0 77.9375 83.4875" />
<path d="M77.9347 97.4864 A0.5000 0.5000 0.0 0 0 78.4347 96.9864" />
<path d="M307.3250 39.8375
L307.3250 26.8375
" />
<path d="M307.8250 26.3375
L320.8250 26.3375
" />
<path d="M320.8250 40.3375
L307.8250 40.3375
" />
<path d="M321.3250 26.8375
L321.3250 39.8375
" />
<path d="M307.8250 26.3375 A0.5000 0.5000 0.0 0 0 307.3250 26.8375" />
<path d="M307.3250 39.8375 A0.5000 0.5000 0.0 0 0 307.8250 40.3375" />
<path d="M321.3250 26.8375 A0.5000 0.5000 0.0 0 0 320.8250 26.3375" />
<path d="M320.8222 40.3364 A0.5000 0.5000 0.0 0 0 321.3222 39.8364" />
<path d="M259.7000 96.9875
L259.7000 83.9875
" />
<path d="M260.2000 83.4875
L273.2000 83.4875
" />
<path d="M273.2000 97.4875
L260.2000 97.4875
" />
<path d="M273.7000 83.9875
L273.7000 96.9875
" />
<path d="M260.2000 83.4875 A0.5000 0.5000 0.0 0 0 259.7000 83.9875" />
<path d="M259.7000 96.9875 A0.5000 0.5000 0.0 0 0 260.2000 97.4875" />
<path d="M273.7000 83.9875 A0.5000 0.5000 0.0 0 0 273.2000 83.4875" />
<path d="M273.1972 97.4864 A0.5000 0.5000 0.0 0 0 273.6972 96.9864" />
<path d="M264.4625 58.8875
L264.4625 45.8875
" />
<path d="M264.9625 45.3875
L277.9625 45.3875
" />
<path d="M277.9625 59.3875
L264.9625 59.3875
" />
<path d="M278.4625 45.8875
L278.4625 58.8875
" />
<path d="M264.9625 45.3875 A0.5000 0.5000 0.0 0 0 264.4625 45.8875" />
<path d="M264.4625 58.8875 A0.5000 0.5000 0.0 0 0 264.9625 59.3875" />
<path d="M278.4625 45.8875 A0.5000 0.5000 0.0 0 0 277.9625 45.3875" />
<path d="M277.9597 59.3864 A0.5000 0.5000 0.0 0 0 278.4597 58.8864" />
<path d="M93.0125 58.8875
L93.0125 45.8875
" />
<path d="M93.5125 45.3875
L106.5125 45.3875
" />
<path d="M106.5125 59.3875
L93.5125 59.3875
" />
<path d="M107.0125 45.8875
L107.0125 58.8875
" />
<path d="M93.5125 45.3875 A0.5000 0.5000 0.0 0 0 93.0125 45.8875" />
<path d="M93.0125 58.8875 A0.5000 0.5000 0.0 0 0 93.5125 59.3875" />
<path d="M107.0125 45.8875 A0.5000 0.5000 0.0 0 0 106.5125 45.3875" />
<path d="M106.5097 59.3864 A0.5000 0.5000 0.0 0 0 107.0097 58.8864" />
<path d="M297.8000 39.8375
L297.8000 26.8375
" />
<path d="M298.3000 26.3375
L311.3000 26.3375
" />
<path d="M311.3000 40.3375
L298.3000 40.3375
" />
<path d="M311.8000 26.8375
L311.8000 39.8375
" />
<path d="M298.3000 26.3375 A0.5000 0.5000 0.0 0 0 297.8000 26.8375" />
<path d="M297.8000 39.8375 A0.5000 0.5000 0.0 0 0 298.3000 40.3375" />
<path d="M311.8000 26.8375 A0.5000 0.5000 0.0 0 0 311.3000 26.3375" />
<path d="M311.2972 40.3364 A0.5000 0.5000 0.0 0 0 311.7972 39.8364" />
<path d="M235.8875 96.9875
L235.8875 83.9875
" />
<path d="M236.3875 83.4875
L249.3875 83.4875
" />
<path d="M249.3875 97.4875
L236.3875 97.4875
" />
<path d="M249.8875 83.9875
L249.8875 96.9875
" />
<path d="M236.3875 83.4875 A0.5000 0.5000 0.0 0 0 235.8875 83.9875" />
<path d="M235.8875 96.9875 A0.5000 0.5000 0.0 0 0 236.3875 97.4875" />
<path d="M249.8875 83.9875 A0.5000 0.5000 0.0 0 0 249.3875 83.4875" />
<path d="M249.3847 97.4864 A0.5000 0.5000 0.0 0 0 249.8847 96.9864" />
<path d="M207.3125 96.9875
L207.3125 83.9875
" />
<path d="M207.8125 83.4875
L220.8125 83.4875
" />
<path d="M220.8125 97.4875
L207.8125 97.4875
" />
<path d="M221.3125 83.9875
L221.3125 96.9875
" />
<path d="M207.8125 83.4875 A0.5000 0.5000 0.0 0 0 207.3125 83.9875" />
<path d="M207.3125 96.9875 A0.5000 0.5000 0.0 0 0 207.8125 97.4875" />
<path d="M221.3125 83.9875 A0.5000 0.5000 0.0 0 0 220.8125 83.4875" />
<path d="M220.8097 97.4864 A0.5000 0.5000 0.0 0 0 221.3097 96.9864" />
<path d="M85.8687 96.9875
L85.8687 83.9875
" />
<path d="M86.3687 83.4875
L99.3687 83.4875
" />
<path d="M99.3687 97.4875
L86.3687 97.4875
" />
<path d="M99.8687 83.9875
L99.8687 96.9875
" />
<path d="M86.3688 83.4875 A0.5000 0.5000 0.0 0 0 85.8688 83.9875" />
<path d="M85.8688 96.9875 A0.5000 0.5000 0.0 0 0 86.3688 97.4875" />
<path d="M99.8687 83.9875 A0.5000 0.5000 0.0 0 0 99.3687 83.4875" />
<path d="M99.3660 97.4864 A0.5000 0.5000 0.0 0 0 99.8660 96.9864" />
<path d="M50.1500 39.8375
L50.1500 26.8375
" />
<path d="M50.6500 26.3375
L63.6500 26.3375
" />
<path d="M63.6500 40.3375
L50.6500 40.3375
" />
<path d="M64.1500 26.8375
L64.1500 39.8375
" />
<path d="M50.6500 26.3375 A0.5000 0.5000 0.0 0 0 50.1500 26.8375" />
<path d="M50.1500 39.8375 A0.5000 0.5000 0.0 0 0 50.6500 40.3375" />
<path d="M64.1500 26.8375 A0.5000 0.5000 0.0 0 0 63.6500 26.3375" />
<path d="M63.6472 40.3364 A0.5000 0.5000 0.0 0 0 64.1472 39.8364" />
<path d="M128.7312 96.9875
L128.7312 83.9875
" />
<path d="M129.2312 83.4875
L142.2312 83.4875
" />
<path d="M142.2312 97.4875
L129.2312 97.4875
" />
<path d="M142.7312 83.9875
L142.7312 96.9875
" />
<path d="M129.2312 83.4875 A0.5000 0.5000 0.0 0 0 128.7312 83.9875" />
<path d="M128.7312 96.9875 A0.5000 0.5000 0.0 0 0 129.2312 97.4875" />
<path d="M142.7312 83.9875 A0.5000 0.5000 0.0 0 0 142.2312 83.4875" />
<path d="M142.2285 97.4864 A0.5000 0.5000 0.0 0 0 142.7285 96.9864" />
<path d="M43.0063 96.9875
L43.0063 83.9875
" />
<path d="M43.5063 83.4875
L56.5062 83.4875
" />
<path d="M56.5062 97.4875
L43.5063 97.4875
" />
<path d="M57.0062 83.9875
L57.0062 96.9875
" />
<path d="M43.5063 83.4875 A0.5000 0.5000 0.0 0 0 43.0063 83.9875" />
<path d="M43.0063 96.9875 A0.5000 0.5000 0.0 0 0 43.5063 97.4875" />
<path d="M57.0062 83.9875 A0.5000 0.5000 0.0 0 0 56.5062 83.4875" />
<path d="M56.5035 97.4864 A0.5000 0.5000 0.0 0 0 57.0035 96.9864" />
<path d="M254.9375 77.9375
L254.9375 64.9375
" />
<path d="M255.4375 64.4375
L268.4375 64.4375
" />
<path d="M268.4375 78.4375
L255.4375 78.4375
" />
<path d="M268.9375 64.9375
L268.9375 77.9375
" />
<path d="M255.4375 64.4375 A0.5000 0.5000 0.0 0 0 254.9375 64.9375" />
<path d="M254.9375 77.9375 A0.5000 0.5000 0.0 0 0 255.4375 78.4375" />
<path d="M268.9375 64.9375 A0.5000 0.5000 0.0 0 0 268.4375 64.4375" />
<path d="M268.4347 78.4364 A0.5000 0.5000 0.0 0 0 268.9347 77.9364" />
<path d="M115.6887 95.9875
L115.6875 82.9875
" />
<path d="M121.9375 82.4875
L116.1875 82.4875
" />
<path d="M121.9375 96.4875
L116.1887 96.4875
" />
<path d="M122.4375 95.9875
L122.4375 82.9875
" />
<path d="M139.5000 95.9875
L139.5000 82.9875
" />
<path d="M145.7500 82.4875
L140.0000 82.4875
" />
<path d="M145.7500 96.4875
L140.0000 96.4875
" />
<path d="M146.2500 95.9875
L146.2500 82.9875
" />
<path d="M116.1875 82.4875 A0.5001 0.5001 0.0 0 0 115.6875 82.9875" />
<path d="M115.6888 95.9875 A0.5000 0.5000 0.0 0 0 116.1887 96.4875" />
<path d="M122.4375 82.9875 A0.5000 0.5000 0.0 0 0 121.9375 82.4875" />
<path d="M121.9375 96.4875 A0.5001 0.5001 0.0 0 0 122.4375 95.9875" />
<path d="M140.0000 82.4875 A0.5000 0.5000 0.0 0 0 139.5000 82.9875" />
<path d="M139.5000 95.9875 A0.5000 0.5000 0.0 0 0 140.0000 96.4875" />
<path d="M146.2500 82.9875 A0.5000 0.5000 0.0 0 0 145.7500 82.4875" />
<path d="M145.7500 96.4875 A0.5000 0.5000 0.0 0 0 146.2500 95.9875" />
<path d="M240.6500 96.9875
L240.6500 83.9875
" />
<path d="M241.1500 83.4875
L254.1500 83.4875
" />
<path d="M254.1500 97.4875
L241.1500 97.4875
" />
<path d="M254.6500 83.9875
L254.6500 96.9875
" />
<path d="M241.1500 83.4875 A0.5000 0.5000 0.0 0 0 240.6500 83.9875" />
<path d="M240.6500 96.9875 A0.5000 0.5000 0.0 0 0 241.1500 97.4875" />
<path d="M254.6500 83.9875 A0.5000 0.5000 0.0 0 0 254.1500 83.4875" />
<path d="M254.1472 97.4864 A0.5000 0.5000 0.0 0 0 254.6472 96.9864" />
<path d="M120.4512 95.9875
L120.4500 82.9875
" />
<path d="M126.7000 82.4875
L120.9500 82.4875
" />
<path d="M126.7000 96.4875
L120.9512 96.4875
" />
<path d="M127.2000 95.9875
L127.2000 82.9875
" />
<path d="M144.2625 95.9875
L144.2625 82.9875
" />
<path d="M150.5125 82.4875
L144.7625 82.4875
" />
<path d="M150.5125 96.4875
L144.7625 96.4875
" />
<path d="M151.0125 95.9875
L151.0125 82.9875
" />
<path d="M120.9500 82.4875 A0.5001 0.5001 0.0 0 0 120.4500 82.9875" />
<path d="M120.4513 95.9875 A0.5000 0.5000 0.0 0 0 120.9512 96.4875" />
<path d="M127.2000 82.9875 A0.5000 0.5000 0.0 0 0 126.7000 82.4875" />
<path d="M126.7000 96.4875 A0.5001 0.5001 0.0 0 0 127.2000 95.9875" />
<path d="M144.7625 82.4875 A0.5000 0.5000 0.0 0 0 144.2625 82.9875" />
<path d="M144.2625 95.9875 A0.5000 0.5000 0.0 0 0 144.7625 96.4875" />
<path d="M151.0125 82.9875 A0.5000 0.5000 0.0 0 0 150.5125 82.4875" />
<path d="M150.5125 96.4875 A0.5000 0.5000 0.0 0 0 151.0125 95.9875" />
<path d="M123.9688 96.9875
L123.9688 83.9875
" />
<path d="M124.4688 83.4875
L137.4688 83.4875
" />
<path d="M137.4688 97.4875
L124.4688 97.4875
" />
<path d="M137.9688 83.9875
L137.9688 96.9875
" />
<path d="M124.4688 83.4875 A0.5000 0.5000 0.0 0 0 123.9688 83.9875" />
<path d="M123.9688 96.9875 A0.5000 0.5000 0.0 0 0 124.4688 97.4875" />
<path d="M137.9688 83.9875 A0.5000 0.5000 0.0 0 0 137.4688 83.4875" />
<path d="M137.4660 97.4864 A0.5000 0.5000 0.0 0 0 137.9660 96.9864" />
<path d="M201.4137 95.9875
L201.4125 82.9875
" />
<path d="M207.6625 82.4875
L201.9125 82.4875
" />
<path d="M207.6625 96.4875
L201.9137 96.4875
" />
<path d="M208.1625 95.9875
L208.1625 82.9875
" />
<path d="M225.2250 95.9875
L225.2250 82.9875
" />
<path d="M231.4750 82.4875
L225.7250 82.4875
" />
<path d="M231.4750 96.4875
L225.7250 96.4875
" />
<path d="M231.9750 95.9875
L231.9750 82.9875
" />
<path d="M201.9125 82.4875 A0.5001 0.5001 0.0 0 0 201.4125 82.9875" />
<path d="M201.4138 95.9875 A0.5000 0.5000 0.0 0 0 201.9137 96.4875" />
<path d="M208.1625 82.9875 A0.5000 0.5000 0.0 0 0 207.6625 82.4875" />
<path d="M207.6625 96.4875 A0.5001 0.5001 0.0 0 0 208.1625 95.9875" />
<path d="M225.7250 82.4875 A0.5000 0.5000 0.0 0 0 225.2250 82.9875" />
<path d="M225.2250 95.9875 A0.5000 0.5000 0.0 0 0 225.7250 96.4875" />
<path d="M231.9750 82.9875 A0.5000 0.5000 0.0 0 0 231.4750 82.4875" />
<path d="M231.4750 96.4875 A0.5000 0.5000 0.0 0 0 231.9750 95.9875" />
<path d="M235.8875 77.9375
L235.8875 64.9375
" />
<path d="M236.3875 64.4375
L249.3875 64.4375
" />
<path d="M249.3875 78.4375
L236.3875 78.4375
" />
<path d="M249.8875 64.9375
L249.8875 77.9375
" />
<path d="M236.3875 64.4375 A0.5000 0.5000 0.0 0 0 235.8875 64.9375" />
<path d="M235.8875 77.9375 A0.5000 0.5000 0.0 0 0 236.3875 78.4375" />
<path d="M249.8875 64.9375 A0.5000 0.5000 0.0 0 0 249.3875 64.4375" />
<path d="M249.3847 78.4364 A0.5000 0.5000 0.0 0 0 249.8847 77.9364" />
<path d="M73.9625 58.8875
L73.9625 45.8875
" />
<path d="M74.4625 45.3875
L87.4625 45.3875
" />
<path d="M87.4625 59.3875
L74.4625 59.3875
" />
<path d="M87.9625 45.8875
L87.9625 58.8875
" />
<path d="M74.4625 45.3875 A0.5000 0.5000 0.0 0 0 73.9625 45.8875" />
<path d="M73.9625 58.8875 A0.5000 0.5000 0.0 0 0 74.4625 59.3875" />
<path d="M87.9625 45.8875 A0.5000 0.5000 0.0 0 0 87.4625 45.3875" />
<path d="M87.4597 59.3864 A0.5000 0.5000 0.0 0 0 87.9597 58.8864" />
<path d="M107.3000 39.8375
L107.3000 26.8375
" />
<path d="M107.8000 26.3375
L120.8000 26.3375
" />
<path d="M120.8000 40.3375
L107.8000 40.3375
" />
<path d="M121.3000 26.8375
L121.3000 39.8375
" />
<path d="M107.8000 26.3375 A0.5000 0.5000 0.0 0 0 107.3000 26.8375" />
<path d="M107.3000 39.8375 A0.5000 0.5000 0.0 0 0 107.8000 40.3375" />
<path d="M121.3000 26.8375 A0.5000 0.5000 0.0 0 0 120.8000 26.3375" />
<path d="M120.7972 40.3364 A0.5000 0.5000 0.0 0 0 121.2972 39.8364" />
<path d="M54.9125 58.8875
L54.9125 45.8875
" />
<path d="M55.4125 45.3875
L68.4125 45.3875
" />
<path d="M68.4125 59.3875
L55.4125 59.3875
" />
<path d="M68.9125 45.8875
L68.9125 58.8875
" />
<path d="M55.4125 45.3875 A0.5000 0.5000 0.0 0 0 54.9125 45.8875" />
<path d="M54.9125 58.8875 A0.5000 0.5000 0.0 0 0 55.4125 59.3875" />
<path d="M68.9125 45.8875 A0.5000 0.5000 0.0 0 0 68.4125 45.3875" />
<path d="M68.4097 59.3864 A0.5000 0.5000 0.0 0 0 68.9097 58.8864" />
<path d="M240.6500 39.8375
L240.6500 26.8375
" />
<path d="M241.1500 26.3375
L254.1500 26.3375
" />
<path d="M254.1500 40.3375
L241.1500 40.3375
" />
<path d="M254.6500 26.8375
L254.6500 39.8375
" />
<path d="M241.1500 26.3375 A0.5000 0.5000 0.0 0 0 240.6500 26.8375" />
<path d="M240.6500 39.8375 A0.5000 0.5000 0.0 0 0 241.1500 40.3375" />
<path d="M254.6500 26.8375 A0.5000 0.5000 0.0 0 0 254.1500 26.3375" />
<path d="M254.1472 40.3364 A0.5000 0.5000 0.0 0 0 254.6472 39.8364" />
<path d="M140.6375 77.9375
L140.6375 64.9375
" />
<path d="M141.1375 64.4375
L154.1375 64.4375
" />
<path d="M154.1375 78.4375
L141.1375 78.4375
" />
<path d="M154.6375 64.9375
L154.6375 77.9375
" />
<path d="M141.1375 64.4375 A0.5000 0.5000 0.0 0 0 140.6375 64.9375" />
<path d="M140.6375 77.9375 A0.5000 0.5000 0.0 0 0 141.1375 78.4375" />
<path d="M154.6375 64.9375 A0.5000 0.5000 0.0 0 0 154.1375 64.4375" />
<path d="M154.1347 78.4364 A0.5000 0.5000 0.0 0 0 154.6347 77.9364" />
<path d="M283.5125 58.8875
L283.5125 45.8875
" />
<path d="M284.0125 45.3875
L297.0125 45.3875
" />
<path d="M297.0125 59.3875
L284.0125 59.3875
" />
<path d="M297.5125 45.8875
L297.5125 58.8875
" />
<path d="M284.0125 45.3875 A0.5000 0.5000 0.0 0 0 283.5125 45.8875" />
<path d="M283.5125 58.8875 A0.5000 0.5000 0.0 0 0 284.0125 59.3875" />
<path d="M297.5125 45.8875 A0.5000 0.5000 0.0 0 0 297.0125 45.3875" />
<path d="M297.0097 59.3864 A0.5000 0.5000 0.0 0 0 297.5097 58.8864" />
<path d="M309.7063 58.8875
L309.7063 45.8875
" />
<path d="M310.2063 45.3875
L323.2063 45.3875
" />
<path d="M323.2063 59.3875
L310.2063 59.3875
" />
<path d="M323.7063 45.8875
L323.7063 58.8875
" />
<path d="M310.2063 45.3875 A0.5000 0.5000 0.0 0 0 309.7063 45.8875" />
<path d="M309.7063 58.8875 A0.5000 0.5000 0.0 0 0 310.2063 59.3875" />
<path d="M323.7063 45.8875 A0.5000 0.5000 0.0 0 0 323.2063 45.3875" />
<path d="M323.2035 59.3864 A0.5000 0.5000 0.0 0 0 323.7035 58.8864" />
<path d="M299.0437 27.8375
L299.0437 40.8375
" />
<path d="M299.5437 27.3375
L305.2937 27.3375
" />
<path d="M299.5437 41.3375
L305.2937 41.3375
" />
<path d="M305.7937 27.8375
L305.7937 40.8375
" />
<path d="M322.8562 27.8375
L322.8562 40.8375
" />
<path d="M323.3562 27.3375
L329.1050 27.3375
" />
<path d="M323.3562 41.3375
L329.1062 41.3375
" />
<path d="M329.6050 27.8375
L329.6062 40.8375
" />
<path d="M299.5437 27.3375 A0.5000 0.5000 0.0 0 0 299.0437 27.8375" />
<path d="M299.0437 40.8375 A0.5000 0.5000 0.0 0 0 299.5437 41.3375" />
<path d="M305.7937 27.8375 A0.5000 0.5000 0.0 0 0 305.2937 27.3375" />
<path d="M305.2937 41.3375 A0.5000 0.5000 0.0 0 0 305.7937 40.8375" />
<path d="M323.3562 27.3375 A0.5001 0.5001 0.0 0 0 322.8562 27.8375" />
<path d="M322.8563 40.8375 A0.5000 0.5000 0.0 0 0 323.3562 41.3375" />
<path d="M329.6050 27.8375 A0.5000 0.5000 0.0 0 0 329.1050 27.3375" />
<path d="M329.1063 41.3375 A0.5001 0.5001 0.0 0 0 329.6062 40.8375" />
<path d="M102.5375 96.9875
L102.5375 83.9875
" />
<path d="M103.0375 83.4875
L116.0375 83.4875
" />
<path d="M116.0375 97.4875
L103.0375 97.4875
" />
<path d="M116.5375 83.9875
L116.5375 96.9875
" />
<path d="M103.0375 83.4875 A0.5000 0.5000 0.0 0 0 102.5375 83.9875" />
<path d="M102.5375 96.9875 A0.5000 0.5000 0.0 0 0 103.0375 97.4875" />
<path d="M116.5375 83.9875 A0.5000 0.5000 0.0 0 0 116.0375 83.4875" />
<path d="M116.0347 97.4864 A0.5000 0.5000 0.0 0 0 116.5347 96.9864" />
<path d="M83.4875 96.9875
L83.4875 83.9875
" />
<path d="M83.9875 83.4875
L96.9875 83.4875
" />
<path d="M96.9875 97.4875
L83.9875 97.4875
" />
<path d="M97.4875 83.9875
L97.4875 96.9875
" />
<path d="M83.9875 83.4875 A0.5000 0.5000 0.0 0 0 83.4875 83.9875" />
<path d="M83.4875 96.9875 A0.5000 0.5000 0.0 0 0 83.9875 97.4875" />
<path d="M97.4875 83.9875 A0.5000 0.5000 0.0 0 0 96.9875 83.4875" />
<path d="M96.9847 97.4864 A0.5000 0.5000 0.0 0 0 97.4847 96.9864" />
<path d="M259.7000 39.8375
L259.7000 26.8375
" />
<path d="M260.2000 26.3375
L273.2000 26.3375
" />
<path d="M273.2000 40.3375
L260.2000 40.3375
" />
<path d="M273.7000 26.8375
L273.7000 39.8375
" />
<path d="M260.2000 26.3375 A0.5000 0.5000 0.0 0 0 259.7000 26.8375" />
<path d="M259.7000 39.8375 A0.5000 0.5000 0.0 0 0 260.2000 40.3375" />
<path d="M273.7000 26.8375 A0.5000 0.5000 0.0 0 0 273.2000 26.3375" />
<path d="M273.1972 40.3364 A0.5000 0.5000 0.0 0 0 273.6972 39.8364" />
<path d="M278.7500 39.8375
L278.7500 26.8375
" />
<path d="M279.2500 26.3375
L292.2500 26.3375
" />
<path d="M292.2500 40.3375
L279.2500 40.3375
" />
<path d="M292.7500 26.8375
L292.7500 39.8375
" />
<path d="M279.2500 26.3375 A0.5000 0.5000 0.0 0 0 278.7500 26.8375" />
<path d="M278.7500 39.8375 A0.5000 0.5000 0.0 0 0 279.2500 40.3375" />
<path d="M292.7500 26.8375 A0.5000 0.5000 0.0 0 0 292.2500 26.3375" />
<path d="M292.2472 40.3364 A0.5000 0.5000 0.0 0 0 292.7472 39.8364" />
<path d="M59.6750 96.9875
L59.6750 83.9875
" />
<path d="M60.1750 83.4875
L73.1750 83.4875
" />
<path d="M73.1750 97.4875
L60.1750 97.4875
" />
<path d="M73.6750 83.9875
L73.6750 96.9875
" />
<path d="M60.1750 83.4875 A0.5000 0.5000 0.0 0 0 59.6750 83.9875" />
<path d="M59.6750 96.9875 A0.5000 0.5000 0.0 0 0 60.1750 97.4875" />
<path d="M73.6750 83.9875 A0.5000 0.5000 0.0 0 0 73.1750 83.4875" />
<path d="M73.1722 97.4864 A0.5000 0.5000 0.0 0 0 73.6722 96.9864" />
<path d="M221.6000 39.8375
L221.6000 26.8375
" />
<path d="M222.1000 26.3375
L235.1000 26.3375
" />
<path d="M235.1000 40.3375
L222.1000 40.3375
" />
<path d="M235.6000 26.8375
L235.6000 39.8375
" />
<path d="M222.1000 26.3375 A0.5000 0.5000 0.0 0 0 221.6000 26.8375" />
<path d="M221.6000 39.8375 A0.5000 0.5000 0.0 0 0 222.1000 40.3375" />
<path d="M235.6000 26.8375 A0.5000 0.5000 0.0 0 0 235.1000 26.3375" />
<path d="M235.0972 40.3364 A0.5000 0.5000 0.0 0 0 235.5972 39.8364" />
<path d="M226.3625 58.8875
L226.3625 45.8875
" />
<path d="M226.8625 45.3875
L239.8625 45.3875
" />
<path d="M239.8625 59.3875
L226.8625 59.3875
" />
<path d="M240.3625 45.8875
L240.3625 58.8875
" />
<path d="M226.8625 45.3875 A0.5000 0.5000 0.0 0 0 226.3625 45.8875" />
<path d="M226.3625 58.8875 A0.5000 0.5000 0.0 0 0 226.8625 59.3875" />
<path d="M240.3625 45.8875 A0.5000 0.5000 0.0 0 0 239.8625 45.3875" />
<path d="M239.8597 59.3864 A0.5000 0.5000 0.0 0 0 240.3597 58.8864" />
<path d="M97.7750 96.9875
L97.7750 83.9875
" />
<path d="M98.2750 83.4875
L111.2750 83.4875
" />
<path d="M111.2750 97.4875
L98.2750 97.4875
" />
<path d="M111.7750 83.9875
L111.7750 96.9875
" />
<path d="M98.2750 83.4875 A0.5000 0.5000 0.0 0 0 97.7750 83.9875" />
<path d="M97.7750 96.9875 A0.5000 0.5000 0.0 0 0 98.2750 97.4875" />
<path d="M111.7750 83.9875 A0.5000 0.5000 0.0 0 0 111.2750 83.4875" />
<path d="M111.2722 97.4864 A0.5000 0.5000 0.0 0 0 111.7722 96.9864" />
<path d="M88.2500 39.8375
L88.2500 26.8375
" />
<path d="M88.7500 26.3375
L101.7500 26.3375
" />
<path d="M101.7500 40.3375
L88.7500 40.3375
" />
<path d="M102.2500 26.8375
L102.2500 39.8375
" />
<path d="M88.7500 26.3375 A0.5000 0.5000 0.0 0 0 88.2500 26.8375" />
<path d="M88.2500 39.8375 A0.5000 0.5000 0.0 0 0 88.7500 40.3375" />
<path d="M102.2500 26.8375 A0.5000 0.5000 0.0 0 0 101.7500 26.3375" />
<path d="M101.7472 40.3364 A0.5000 0.5000 0.0 0 0 102.2472 39.8364" />
<path d="M278.7500 96.9875
L278.7500 83.9875
" />
<path d="M279.2500 83.4875
L292.2500 83.4875
" />
<path d="M292.2500 97.4875
L279.2500 97.4875
" />
<path d="M292.7500 83.9875
L292.7500 96.9875
" />
<path d="M279.2500 83.4875 A0.5000 0.5000 0.0 0 0 278.7500 83.9875" />
<path d="M278.7500 96.9875 A0.5000 0.5000 0.0 0 0 279.2500 97.4875" />
<path d="M292.7500 83.9875 A0.5000 0.5000 0.0 0 0 292.2500 83.4875" />
<path d="M292.2472 97.4864 A0.5000 0.5000 0.0 0 0 292.7472 96.9864" />
<path d="M69.2000 39.8375
L69.2000 26.8375
" />
<path d="M69.7000 26.3375
L82.7000 26.3375
" />
<path d="M82.7000 40.3375
L69.7000 40.3375
" />
<path d="M83.2000 26.8375
L83.2000 39.8375
" />
<path d="M69.7000 26.3375 A0.5000 0.5000 0.0 0 0 69.2000 26.8375" />
<path d="M69.2000 39.8375 A0.5000 0.5000 0.0 0 0 69.7000 40.3375" />
<path d="M83.2000 26.8375 A0.5000 0.5000 0.0 0 0 82.7000 26.3375" />
<path d="M82.6972 40.3364 A0.5000 0.5000 0.0 0 0 83.1972 39.8364" />
<path d="M207.3125 58.8875
L207.3125 45.8875
" />
<path d="M207.8125 45.3875
L220.8125 45.3875
" />
<path d="M220.8125 59.3875
L207.8125 59.3875
" />
<path d="M221.3125 45.8875
L221.3125 58.8875
" />
<path d="M207.8125 45.3875 A0.5000 0.5000 0.0 0 0 207.3125 45.8875" />
<path d="M207.3125 58.8875 A0.5000 0.5000 0.0 0 0 207.8125 59.3875" />
<path d="M221.3125 45.8875 A0.5000 0.5000 0.0 0 0 220.8125 45.3875" />
<path d="M220.8097 59.3864 A0.5000 0.5000 0.0 0 0 221.3097 58.8864" />
<path d="M102.5375 77.9375
L102.5375 64.9375
" />
<path d="M103.0375 64.4375
L116.0375 64.4375
" />
<path d="M116.0375 78.4375
L103.0375 78.4375
" />
<path d="M116.5375 64.9375
L116.5375 77.9375
" />
<path d="M103.0375 64.4375 A0.5000 0.5000 0.0 0 0 102.5375 64.9375" />
<path d="M102.5375 77.9375 A0.5000 0.5000 0.0 0 0 103.0375 78.4375" />
<path d="M116.5375 64.9375 A0.5000 0.5000 0.0 0 0 116.0375 64.4375" />
<path d="M116.0347 78.4364 A0.5000 0.5000 0.0 0 0 116.5347 77.9364" />
<path d="M214.4562 96.9875
L214.4562 83.9875
" />
<path d="M214.9562 83.4875
L227.9562 83.4875
" />
<path d="M227.9562 97.4875
L214.9562 97.4875
" />
<path d="M228.4562 83.9875
L228.4562 96.9875
" />
<path d="M214.9562 83.4875 A0.5000 0.5000 0.0 0 0 214.4562 83.9875" />
<path d="M214.4562 96.9875 A0.5000 0.5000 0.0 0 0 214.9562 97.4875" />
<path d="M228.4562 83.9875 A0.5000 0.5000 0.0 0 0 227.9562 83.4875" />
<path d="M227.9535 97.4864 A0.5000 0.5000 0.0 0 0 228.4535 96.9864" />
<path d="M202.5500 39.8375
L202.5500 26.8375
" />
<path d="M203.0500 26.3375
L216.0500 26.3375
" />
<path d="M216.0500 40.3375
L203.0500 40.3375
" />
<path d="M216.5500 26.8375
L216.5500 39.8375
" />
<path d="M203.0500 26.3375 A0.5000 0.5000 0.0 0 0 202.5500 26.8375" />
<path d="M202.5500 39.8375 A0.5000 0.5000 0.0 0 0 203.0500 40.3375" />
<path d="M216.5500 26.8375 A0.5000 0.5000 0.0 0 0 216.0500 26.3375" />
<path d="M216.0472 40.3364 A0.5000 0.5000 0.0 0 0 216.5472 39.8364" />
<path d="M26.3375 39.8375
L26.3375 26.8375
" />
<path d="M26.8375 26.3375
L39.8375 26.3375
" />
<path d="M39.8375 40.3375
L26.8375 40.3375
" />
<path d="M40.3375 26.8375
L40.3375 39.8375
" />
<path d="M26.8375 26.3375 A0.5000 0.5000 0.0 0 0 26.3375 26.8375" />
<path d="M26.3375 39.8375 A0.5000 0.5000 0.0 0 0 26.8375 40.3375" />
<path d="M40.3375 26.8375 A0.5000 0.5000 0.0 0 0 39.8375 26.3375" />
<path d="M39.8347 40.3364 A0.5000 0.5000 0.0 0 0 40.3347 39.8364" />
<path d="M28.7188 58.8875
L28.7188 45.8875
" />
<path d="M29.2188 45.3875
L42.2188 45.3875
" />
<path d="M42.2188 59.3875
L29.2188 59.3875
" />
<path d="M42.7188 45.8875
L42.7188 58.8875
" />
<path d="M29.2187 45.3875 A0.5000 0.5000 0.0 0 0 28.7187 45.8875" />
<path d="M28.7187 58.8875 A0.5000 0.5000 0.0 0 0 29.2187 59.3875" />
<path d="M42.7188 45.8875 A0.5000 0.5000 0.0 0 0 42.2188 45.3875" />
<path d="M42.2160 59.3864 A0.5000 0.5000 0.0 0 0 42.7160 58.8864" />
<path d="M104.9187 96.9875
L104.9187 83.9875
" />
<path d="M105.4187 83.4875
L118.4187 83.4875
" />
<path d="M118.4187 97.4875
L105.4187 97.4875
" />
<path d="M118.9187 83.9875
L118.9187 96.9875
" />
<path d="M105.4188 83.4875 A0.5000 0.5000 0.0 0 0 104.9188 83.9875" />
<path d="M104.9188 96.9875 A0.5000 0.5000 0.0 0 0 105.4188 97.4875" />
<path d="M118.9187 83.9875 A0.5000 0.5000 0.0 0 0 118.4187 83.4875" />
<path d="M118.4160 97.4864 A0.5000 0.5000 0.0 0 0 118.9160 96.9864" />
<path d="M245.4125 58.8875
L245.4125 45.8875
" />
<path d="M245.9125 45.3875
L258.9125 45.3875
" />
<path d="M258.9125 59.3875
L245.9125 59.3875
" />
<path d="M259.4125 45.8875
L259.4125 58.8875
" />
<path d="M245.9125 45.3875 A0.5000 0.5000 0.0 0 0 245.4125 45.8875" />
<path d="M245.4125 58.8875 A0.5000 0.5000 0.0 0 0 245.9125 59.3875" />
<path d="M259.4125 45.8875 A0.5000 0.5000 0.0 0 0 258.9125 45.3875" />
<path d="M258.9097 59.3864 A0.5000 0.5000 0.0 0 0 259.4097 58.8864" />
<path d="M121.5875 77.9375
L121.5875 64.9375
" />
<path d="M122.0875 64.4375
L135.0875 64.4375
" />
<path d="M135.0875 78.4375
L122.0875 78.4375
" />
<path d="M135.5875 64.9375
L135.5875 77.9375
" />
<path d="M122.0875 64.4375 A0.5000 0.5000 0.0 0 0 121.5875 64.9375" />
<path d="M121.5875 77.9375 A0.5000 0.5000 0.0 0 0 122.0875 78.4375" />
<path d="M135.5875 64.9375 A0.5000 0.5000 0.0 0 0 135.0875 64.4375" />
<path d="M135.0847 78.4364 A0.5000 0.5000 0.0 0 0 135.5847 77.9364" />
</g> 
</svg>
