<?xml version="1.0" standalone="no"?>
 <!DOCTYPE svg PUBLIC "-//W3C//DTD SVG 1.1//EN" 
 "http://www.w3.org/Graphics/SVG/1.1/DTD/svg11.dtd"> 
<svg
  xmlns:svg="http://www.w3.org/2000/svg"
  xmlns="http://www.w3.org/2000/svg"
  xmlns:xlink="http://www.w3.org/1999/xlink"
  xmlns:inkscape="http://www.inkscape.org/namespaces/inkscape"
  version="1.1"
  width="297.0022mm" height="210.0072mm" viewBox="0.0000 0.0000 297.0022 210.0072">
<title>SVG Image created as bkf-unibodysplit-fr4_plate-Edge_Cuts.svg date 2026-05-27T09:06:27 </title>
  <desc>Image generated by PCBNEW </desc>
<g style="fill:#000000; fill-opacity:1.0000;stroke:#000000; stroke-opacity:1.0000;
stroke-linecap:round; stroke-linejoin:round;"
 transform="translate(0 0) scale(1 1)">
</g>
<g style="fill:none; 
stroke:#000000; stroke-width:0.1000; stroke-opacity:1; 
stroke-linecap:round; stroke-linejoin:round;">
<path d="M407.1937 125.0156
L407.1937 182.1656
" />
<path d="M413.0984 124.2656 A3.0000 3.0000 0.0 0 0 407.1937 125.0156" />
<circle cx="410.1937" cy="125.0156" r="0.9500" /> 
<path d="M407.1938 182.1656 A3.0000 3.0000 0.0 0 0 410.1937 185.1656" />
<path d="M410.1937 185.1656
L426.2437 185.1656
" />
<path d="M412.1049 149.5856
L430.8675 149.5856
" />
<path d="M412.1049 163.5856
L412.1049 149.5856
" />
<path d="M413.8487 167.6356 A0.5000 0.5000 0.0 0 0 413.3487 168.1356" />
<path d="M413.3500 181.1356
L413.3487 168.1356
" />
<path d="M413.8487 167.6356
L419.5987 167.6356
" />
<path d="M413.3501 181.1356 A0.4999 0.4999 0.0 0 0 413.8499 181.6356" />
<path d="M413.8499 181.6356
L419.5987 181.6356
" />
<path d="M414.4862 130.5356
L428.4862 130.5356
" />
<path d="M414.4862 144.5356
L414.4862 130.5356
" />
<path d="M413.0985 124.2656 A4.9999 4.9999 0.0 0 0 417.9397 128.0156" />
<path d="M420.0988 168.1356 A0.5000 0.5000 0.0 0 0 419.5987 167.6356" />
<path d="M420.0987 168.1356
L420.0987 181.1356
" />
<path d="M419.5987 181.6356 A0.5000 0.5000 0.0 0 0 420.0987 181.1356" />
<path d="M421.6250 168.6406
L435.6250 168.6406
" />
<path d="M421.6250 182.6406
L421.6250 168.6406
" />
<path d="M426.2437 185.1656
L426.2437 207.2156
" />
<path d="M428.4862 130.5356
L428.4862 144.5356
" />
<path d="M428.4862 144.5356
L414.4862 144.5356
" />
<path d="M428.7737 187.6856
L445.1549 187.6856
" />
<path d="M428.7737 201.6856
L428.7737 187.6856
" />
<circle cx="429.2437" cy="207.2156" r="0.9500" /> 
<path d="M430.8675 149.5856
L430.8675 163.5856
" />
<path d="M430.8675 163.5856
L412.1049 163.5856
" />
<path d="M426.2438 207.2156 A3.0000 3.0000 0.0 0 0 432.1485 207.9656" />
<path d="M436.9897 204.2156 A5.0001 5.0001 0.0 0 0 432.1485 207.9656" />
<path d="M435.6250 168.6406
L435.6250 182.6406
" />
<path d="M435.6250 182.6406
L421.6250 182.6406
" />
<path d="M436.9897 204.2156
L556.6103 204.2156
" />
<path d="M437.6612 167.6356 A0.5000 0.5000 0.0 0 0 437.1612 168.1356" />
<path d="M437.1612 181.1356
L437.1612 168.1356
" />
<path d="M437.6612 167.6356
L443.4112 167.6356
" />
<path d="M437.1613 181.1356 A0.5000 0.5000 0.0 0 0 437.6612 181.6356" />
<path d="M438.2987 130.5356
L452.2987 130.5356
" />
<path d="M438.2987 144.5356
L438.2987 130.5356
" />
<path d="M443.0612 149.5856
L457.0612 149.5856
" />
<path d="M443.0612 163.5856
L443.0612 149.5856
" />
<path d="M443.9113 168.1356 A0.5000 0.5000 0.0 0 0 443.4112 167.6356" />
<path d="M443.4112 181.6356
L437.6612 181.6356
" />
<path d="M443.9112 168.1356
L443.9112 181.1356
" />
<path d="M443.4112 181.6356 A0.5000 0.5000 0.0 0 0 443.9112 181.1356" />
<path d="M445.1549 187.6856
L445.1549 201.6856
" />
<path d="M445.1549 201.6856
L428.7737 201.6856
" />
<path d="M447.8237 201.6856
L447.8237 187.6856
" />
<path d="M452.2987 130.5356
L452.2987 144.5356
" />
<path d="M452.2987 144.5356
L438.2987 144.5356
" />
<path d="M452.5862 168.6356
L466.5862 168.6356
" />
<path d="M452.5862 182.6356
L452.5862 168.6356
" />
<path d="M457.0612 149.5856
L457.0612 163.5856
" />
<path d="M457.0612 163.5856
L443.0612 163.5856
" />
<path d="M457.3487 130.5356
L471.3487 130.5356
" />
<path d="M457.3487 144.5356
L457.3487 130.5356
" />
<path d="M462.1112 149.5856
L476.1112 149.5856
" />
<path d="M462.1112 163.5856
L462.1112 149.5856
" />
<path d="M466.5862 168.6356
L466.5862 182.6356
" />
<path d="M466.5862 182.6356
L452.5862 182.6356
" />
<path d="M471.3487 130.5356
L471.3487 144.5356
" />
<path d="M471.3487 144.5356
L457.3487 144.5356
" />
<path d="M471.6362 168.6356
L485.6362 168.6356
" />
<path d="M471.6362 182.6356
L471.6362 168.6356
" />
<path d="M476.1112 149.5856
L476.1112 163.5856
" />
<path d="M476.1112 163.5856
L462.1112 163.5856
" />
<path d="M476.3987 130.5356
L490.3987 130.5356
" />
<path d="M476.3987 144.5356
L476.3987 130.5356
" />
<path d="M481.1612 149.5856
L495.1612 149.5856
" />
<path d="M481.1612 163.5856
L481.1612 149.5856
" />
<path d="M485.6362 168.6356
L485.6362 182.6356
" />
<path d="M485.6362 182.6356
L471.6362 182.6356
" />
<path d="M490.3987 130.5356
L490.3987 144.5356
" />
<path d="M490.3987 144.5356
L476.3987 144.5356
" />
<path d="M490.6862 168.6356
L504.6862 168.6356
" />
<path d="M490.6862 182.6356
L490.6862 168.6356
" />
<path d="M495.1612 149.5856
L495.1612 163.5856
" />
<path d="M495.1612 163.5856
L481.1612 163.5856
" />
<path d="M495.4487 130.5356
L509.4487 130.5356
" />
<path d="M495.4487 144.5356
L495.4487 130.5356
" />
<path d="M500.2112 149.5856
L514.2112 149.5856
" />
<path d="M500.2112 163.5856
L500.2112 149.5856
" />
<path d="M504.3362 186.6856 A0.5001 0.5001 0.0 0 0 503.8362 187.1856" />
<path d="M503.8363 187.6856
L447.8237 187.6856
" />
<path d="M503.8363 187.6856
L503.8362 187.1856
" />
<path d="M504.3362 186.6856
L517.2300 186.6856
" />
<path d="M504.6862 168.6356
L504.6862 182.6356
" />
<path d="M504.6862 182.6356
L490.6862 182.6356
" />
<path d="M507.0674 200.6856
L507.0674 201.6856
" />
<path d="M507.0674 200.6856
L512.1129 200.6856
" />
<path d="M507.0674 201.6856
L447.8237 201.6856
" />
<path d="M509.4487 130.5356
L509.4487 144.5356
" />
<path d="M509.4487 144.5356
L495.4487 144.5356
" />
<path d="M509.7362 168.6356
L523.7362 168.6356
" />
<path d="M509.7362 182.6356
L509.7362 168.6356
" />
<path d="M512.1126 201.6906
L512.1129 200.6856
" />
<path d="M512.1126 201.6906
L535.6426 201.6856
" />
<path d="M514.2112 149.5856
L514.2112 163.5856
" />
<path d="M514.2112 163.5856
L500.2112 163.5856
" />
<path d="M514.4987 130.5356
L528.4988 130.5356
" />
<path d="M514.4987 144.5356
L514.4987 130.5356
" />
<path d="M517.7300 187.1856 A0.5000 0.5000 0.0 0 0 517.2300 186.6856" />
<path d="M517.7300 187.6856
L517.7300 187.1856
" />
<path d="M517.7300 187.6856
L527.6487 187.6856
" />
<path d="M517.7528 128.0156
L417.9397 128.0156
" />
<path d="M519.2612 149.5856
L533.2612 149.5856
" />
<path d="M519.2612 163.5856
L519.2612 149.5856
" />
<path d="M517.7528 128.0156 A5.0000 5.0000 0.0 0 0 522.5940 124.2656" />
<path d="M528.4035 124.2656 A3.0000 3.0000 0.0 0 0 522.5940 124.2656" />
<path d="M523.7362 168.6356
L523.7362 182.6356
" />
<path d="M523.7362 182.6356
L509.7362 182.6356
" />
<circle cx="525.4988" cy="125.0156" r="0.9500" /> 
<path d="M527.6487 187.1856
L527.6487 187.6856
" />
<path d="M528.1487 186.6856 A0.5000 0.5000 0.0 0 0 527.6487 187.1856" />
<path d="M528.1487 186.6856
L541.0425 186.6856
" />
<path d="M528.4988 130.5356
L528.4988 144.5356
" />
<path d="M528.4988 144.5356
L514.4987 144.5356
" />
<path d="M528.7862 168.6356
L542.7862 168.6356
" />
<path d="M528.7862 182.6356
L528.7862 168.6356
" />
<path d="M528.4035 124.2656 A4.9999 4.9999 0.0 0 0 533.2447 128.0156" />
<path d="M533.2612 149.5856
L533.2612 163.5856
" />
<path d="M533.2612 163.5856
L519.2612 163.5856
" />
<path d="M535.6426 201.6856
L535.6426 200.6856
" />
<path d="M541.5425 187.1856 A0.5000 0.5000 0.0 0 0 541.0425 186.6856" />
<path d="M541.0425 200.6856
L535.6426 200.6856
" />
<path d="M541.5425 187.1856
L541.5425 200.1856
" />
<path d="M541.0425 200.6857 A0.5001 0.5001 0.0 0 0 541.5425 200.1856" />
<path d="M542.7862 168.6356
L542.7862 182.6356
" />
<path d="M542.7862 182.6356
L528.7862 182.6356
" />
<path d="M549.2537 128.0156
L533.2447 128.0156
" />
<path d="M552.2537 131.0156 A2.9999 2.9999 0.0 0 0 549.2537 128.0156" />
<path d="M552.2537 151.9169
L552.2537 131.0156
" />
<path d="M561.4515 207.9656 A5.0000 5.0000 0.0 0 0 556.6103 204.2156" />
<circle cx="564.3563" cy="207.2156" r="0.9500" /> 
<path d="M561.4515 207.9656 A3.0000 3.0000 0.0 0 0 567.2610 207.9656" />
<path d="M572.1022 204.2156 A5.0001 5.0001 0.0 0 0 567.2610 207.9656" />
<path d="M570.7537 131.0156
L570.7537 151.9169
" />
<path d="M573.7537 128.0156 A3.0000 3.0000 0.0 0 0 570.7537 131.0156" />
<path d="M570.7537 151.9169
L552.2537 151.9169
" />
<path d="M572.1022 204.2156
L691.7228 204.2156
" />
<path d="M585.9363 168.6356
L599.9363 168.6356
" />
<path d="M585.9363 182.6356
L585.9363 168.6356
" />
<path d="M585.9528 128.0156
L573.7537 128.0156
" />
<path d="M587.6799 186.6856 A0.5001 0.5001 0.0 0 0 587.1799 187.1856" />
<path d="M587.1812 200.1856
L587.1799 187.1856
" />
<path d="M587.1813 200.1856 A0.5000 0.5000 0.0 0 0 587.6812 200.6856" />
<path d="M590.6987 130.5356
L604.6987 130.5356
" />
<path d="M590.6987 144.5356
L590.6987 130.5356
" />
<path d="M585.9528 128.0156 A5.0000 5.0000 0.0 0 0 590.7940 124.2656" />
<path d="M596.6035 124.2656 A3.0000 3.0000 0.0 0 0 590.7940 124.2656" />
<path d="M593.0799 200.6856
L587.6812 200.6856
" />
<path d="M593.0799 200.6856
L593.0799 201.6856
" />
<circle cx="593.6987" cy="125.0156" r="0.9500" /> 
<path d="M595.4612 149.5856
L609.4612 149.5856
" />
<path d="M595.4612 163.5856
L595.4612 149.5856
" />
<path d="M599.9363 168.6356
L599.9363 182.6356
" />
<path d="M599.9363 182.6356
L585.9363 182.6356
" />
<path d="M600.5737 186.6856
L587.6799 186.6856
" />
<path d="M601.0738 187.1856 A0.5000 0.5000 0.0 0 0 600.5737 186.6856" />
<path d="M601.0737 187.1856
L601.0737 187.6873
" />
<path d="M596.6035 124.2656 A5.0000 5.0000 0.0 0 0 601.4447 128.0156" />
<path d="M604.6987 130.5356
L604.6987 144.5356
" />
<path d="M604.6987 144.5356
L590.6987 144.5356
" />
<path d="M604.9862 168.6356
L618.9862 168.6356
" />
<path d="M604.9862 182.6356
L604.9862 168.6356
" />
<path d="M609.4612 149.5856
L609.4612 163.5856
" />
<path d="M609.4612 163.5856
L595.4612 163.5856
" />
<path d="M609.7488 130.5356
L623.7488 130.5356
" />
<path d="M609.7488 144.5356
L609.7488 130.5356
" />
<path d="M610.9925 187.1856
L610.9925 187.6894
" />
<path d="M611.4925 186.6856 A0.5000 0.5000 0.0 0 0 610.9925 187.1856" />
<path d="M610.9925 187.6894
L601.0737 187.6873
" />
<path d="M614.5112 149.5856
L628.5112 149.5856
" />
<path d="M614.5112 163.5856
L614.5112 149.5856
" />
<path d="M616.6000 200.6856
L621.6549 200.6856
" />
<path d="M616.6000 201.6906
L593.0799 201.6856
" />
<path d="M616.6000 201.6906
L616.6000 200.6856
" />
<path d="M618.9862 168.6356
L618.9862 182.6356
" />
<path d="M618.9862 182.6356
L604.9862 182.6356
" />
<path d="M621.6549 201.6856
L621.6549 200.6856
" />
<path d="M623.7488 130.5356
L623.7488 144.5356
" />
<path d="M623.7488 144.5356
L609.7488 144.5356
" />
<path d="M624.0362 168.6356
L638.0362 168.6356
" />
<path d="M624.0362 182.6356
L624.0362 168.6356
" />
<path d="M624.3862 186.6856
L611.4925 186.6856
" />
<path d="M624.8863 187.1856 A0.5000 0.5000 0.0 0 0 624.3862 186.6856" />
<path d="M624.8862 187.1856
L624.8862 187.6856
" />
<path d="M624.8862 187.6856
L680.8987 187.6856
" />
<path d="M628.5112 149.5856
L628.5112 163.5856
" />
<path d="M628.5112 163.5856
L614.5112 163.5856
" />
<path d="M628.7987 130.5356
L642.7987 130.5356
" />
<path d="M628.7987 144.5356
L628.7987 130.5356
" />
<path d="M633.5613 149.5856
L647.5613 149.5856
" />
<path d="M633.5613 163.5856
L633.5613 149.5856
" />
<path d="M638.0362 168.6356
L638.0362 182.6356
" />
<path d="M638.0362 182.6356
L624.0362 182.6356
" />
<path d="M642.7987 130.5356
L642.7987 144.5356
" />
<path d="M642.7987 144.5356
L628.7987 144.5356
" />
<path d="M643.0862 168.6356
L657.0862 168.6356
" />
<path d="M643.0862 182.6356
L643.0862 168.6356
" />
<path d="M647.5613 149.5856
L647.5613 163.5856
" />
<path d="M647.5613 163.5856
L633.5613 163.5856
" />
<path d="M647.8488 130.5356
L661.8488 130.5356
" />
<path d="M647.8488 144.5356
L647.8488 130.5356
" />
<path d="M652.6112 149.5856
L666.6112 149.5856
" />
<path d="M652.6112 163.5856
L652.6112 149.5856
" />
<path d="M657.0862 168.6356
L657.0862 182.6356
" />
<path d="M657.0862 182.6356
L643.0862 182.6356
" />
<path d="M661.8488 130.5356
L661.8488 144.5356
" />
<path d="M661.8488 144.5356
L647.8488 144.5356
" />
<path d="M662.1362 168.6356
L676.1362 168.6356
" />
<path d="M662.1362 182.6356
L662.1362 168.6356
" />
<path d="M666.6112 149.5856
L666.6112 163.5856
" />
<path d="M666.6112 163.5856
L652.6112 163.5856
" />
<path d="M666.8987 130.5356
L680.8987 130.5356
" />
<path d="M666.8987 144.5356
L666.8987 130.5356
" />
<path d="M671.6613 149.5856
L685.6613 149.5856
" />
<path d="M671.6613 163.5856
L671.6613 149.5856
" />
<path d="M676.1362 168.6356
L676.1362 182.6356
" />
<path d="M676.1362 182.6356
L662.1362 182.6356
" />
<path d="M680.8987 130.5356
L680.8987 144.5356
" />
<path d="M680.8987 144.5356
L666.8987 144.5356
" />
<path d="M680.8987 187.6856
L680.8987 201.6856
" />
<path d="M680.8987 201.6856
L621.6549 201.6856
" />
<path d="M681.1863 168.6356
L695.1863 168.6356
" />
<path d="M681.1863 182.6356
L681.1863 168.6356
" />
<path d="M683.5674 187.6856
L699.9487 187.6856
" />
<path d="M683.5674 201.6856
L683.5674 187.6856
" />
<path d="M685.6613 149.5856
L685.6613 163.5856
" />
<path d="M685.6613 163.5856
L671.6613 163.5856
" />
<path d="M685.9487 130.5356
L718.9988 130.5356
" />
<path d="M685.9487 144.5356
L685.9487 130.5356
" />
<path d="M687.1924 144.5356
L685.9487 144.5356
" />
<path d="M687.1924 144.5356
L687.1924 145.0356
" />
<path d="M687.1924 145.0356 A0.5000 0.5000 0.0 0 0 687.6924 145.5356" />
<path d="M696.5640 207.9656 A5.0000 5.0000 0.0 0 0 691.7228 204.2156" />
<path d="M693.4424 145.5356
L687.6924 145.5356
" />
<path d="M693.4424 145.5356 A0.5000 0.5000 0.0 0 0 693.9424 145.0356" />
<path d="M693.9424 145.0356
L693.9424 144.5366
" />
<path d="M695.1863 168.6356
L695.1863 182.6356
" />
<path d="M695.1863 182.6356
L681.1863 182.6356
" />
<path d="M697.8550 149.5856
L711.8550 149.5856
" />
<path d="M697.8550 163.5856
L697.8550 149.5856
" />
<circle cx="699.4688" cy="207.2156" r="0.9500" /> 
<path d="M699.9487 187.6856
L699.9487 201.6856
" />
<path d="M699.9487 201.6856
L683.5674 201.6856
" />
<path d="M702.4688 185.1656
L718.5188 185.1656
" />
<path d="M696.5641 207.9656 A3.0000 3.0000 0.0 0 0 702.4688 207.2156" />
<path d="M702.4688 207.2156
L702.4688 185.1656
" />
<path d="M702.6176 168.6356
L716.6176 168.6356
" />
<path d="M702.6176 182.6356
L702.6176 168.6356
" />
<path d="M710.7728 128.0156
L601.4447 128.0156
" />
<path d="M711.0050 144.5356
L693.9424 144.5356
" />
<path d="M711.0050 145.0356
L711.0050 144.5363
" />
<path d="M711.0050 145.0356 A0.5000 0.5000 0.0 0 0 711.5050 145.5356" />
<path d="M711.8550 149.5856
L711.8550 163.5856
" />
<path d="M711.8550 163.5856
L697.8550 163.5856
" />
<path d="M710.7728 128.0156 A5.0000 5.0000 0.0 0 0 715.6140 124.2656" />
<path d="M721.5188 125.0156 A3.0000 3.0000 0.0 0 0 715.6140 124.2656" />
<path d="M716.6176 168.6356
L716.6176 182.6356
" />
<path d="M716.6176 182.6356
L702.6176 182.6356
" />
<path d="M717.2549 145.5356
L711.5050 145.5356
" />
<path d="M717.2549 145.5356 A0.5000 0.5000 0.0 0 0 717.7549 145.0356" />
<path d="M717.7549 145.0356
L717.7549 144.5372
" />
<circle cx="718.5188" cy="125.0156" r="0.9500" /> 
<path d="M718.9988 130.5356
L718.9988 144.5356
" />
<path d="M718.9988 144.5356
L717.7549 144.5356
" />
<path d="M718.5188 185.1657 A3.0001 3.0001 0.0 0 0 721.5188 182.1656" />
<path d="M721.5188 182.1656
L721.5188 125.0156
" />
</g> 
</svg>
